<?xml version="1.0" standalone="no"?>
<!DOCTYPE svg PUBLIC "-//W3C//DTD SVG 1.1//EN" "http://www.w3.org/Graphics/SVG/1.1/DTD/svg11.dtd" >
<svg xmlns="http://www.w3.org/2000/svg">
<metadata></metadata>
<defs>
<font id="arsenalbold_italic" horiz-adv-x="1169" >
<font-face units-per-em="2048" ascent="1536" descent="-512" />
<missing-glyph horiz-adv-x="568" />
<glyph unicode="&#xfb01;" horiz-adv-x="1274" d="M-194 -516l66 134l16.5 -11t40.5 -19t58 -12q48 0 81.5 32.5t59 111.5t44.5 216l143 1008h-105l20 134l107 32l25 164q15 99 45.5 173t84 131.5t136.5 87.5t194 30q140 0 281 -113q52 42 120 42q71 0 110 -42q33 -44 33 -101q0 -42 -18 -83t-51 -72q-55 -43 -123 -43 q-71 0 -109 45q-36 39 -36 100q0 16 4 43q-91 70 -174 70q-49 0 -80 -12t-55.5 -46.5t-40 -91t-29.5 -150.5l-17 -126h283l-25 -172h-284l-142 -1008q-20 -140 -63.5 -242t-106 -161.5t-136 -87.5t-161.5 -28q-40 0 -75 7t-56 17t-36.5 20t-22.5 16zM846 0l157 1116h296 l-156 -1116h-297z" />
<glyph unicode="&#xfb02;" horiz-adv-x="1293" d="M-194 -516l66 134l16.5 -11t40.5 -19t58 -12q48 0 81.5 32.5t59 111.5t44.5 216l143 1008h-110l21 134l111 32l25 164q29 194 132.5 308t264.5 114q153 0 335 -75l7 45l299 17l-237 -1683h-296l204 1469q-164 78 -249 78q-48 0 -77 -25.5t-51 -91t-40 -188.5l-17 -126 h279l-25 -172h-280l-142 -1008q-20 -140 -63.5 -242t-106 -161.5t-136 -87.5t-161.5 -28q-40 0 -75 7t-56 17t-36.5 20t-22.5 16z" />
<glyph horiz-adv-x="2048" />
<glyph horiz-adv-x="2048" />
<glyph unicode="&#xd;" horiz-adv-x="2048" />
<glyph unicode=" "  horiz-adv-x="568" />
<glyph unicode="&#x09;" horiz-adv-x="568" />
<glyph unicode="&#xa0;" horiz-adv-x="568" />
<glyph unicode="!" horiz-adv-x="742" d="M221 116q0 42 19.5 85t55.5 76q57 47 130 47q72 0 119 -47q35 -41 35 -105q0 -45 -18.5 -87.5t-54.5 -73.5q-60 -47 -132 -47t-116 47q-38 45 -38 105zM377 513l49 1025l17 136h339l-17 -136l-241 -1025h-147z" />
<glyph unicode="&#x22;" horiz-adv-x="888" d="M247 1080l59 594l272 -8l-190 -586h-141zM674 1080l58 594l273 -8l-190 -586h-141z" />
<glyph unicode="#" horiz-adv-x="1155" d="M160 415l21 143h179l115 333h-247l19 142h279l106 302l114 -36l-94 -266h264l91 260l116 -36l-79 -224h157l-23 -142h-185l-116 -333h257l-22 -143h-286l-104 -304l-115 38l92 266h-262l-91 -261l-114 38l79 223h-151zM486 558h264l117 333h-264z" />
<glyph unicode="$" horiz-adv-x="930" d="M102 286l101 116q3 -5 9 -13.5t28 -30.5t46 -39t63.5 -30.5t81.5 -13.5q91 0 139 48.5t48 123.5q0 34 -16.5 63t-43.5 49t-62 41.5t-71 40t-70.5 45t-62 56.5t-44 75.5t-16.5 100.5q0 60 16 112.5t44.5 92t68.5 70.5t86.5 51.5t99.5 31.5l64 287h145l-8 -277 q36 -5 73.5 -16t64.5 -23t49 -23t34 -18l11 -7l-47 -149q-3 2 -8 5.5t-21.5 13.5t-33.5 19.5t-41 20.5t-46.5 19.5t-48.5 14t-48 5.5q-51 0 -88.5 -18.5t-56.5 -50t-19 -72.5q0 -31 14.5 -58.5t38.5 -48.5t55.5 -40.5t66 -39t69 -40t66 -46.5t55.5 -56.5t38.5 -72 t14.5 -89.5q0 -151 -90.5 -252.5t-264.5 -127.5l-56 -247h-145l4 243q-63 7 -115 25.5t-82.5 39.5t-51.5 41.5t-29 33.5z" />
<glyph unicode="%" horiz-adv-x="1934" d="M219 956q0 92 20.5 174.5t60.5 147.5t95.5 112.5t128 73t155.5 25.5q156 0 244.5 -102.5t88.5 -272.5q0 -112 -31.5 -208.5t-89.5 -167.5t-145.5 -112t-193.5 -41q-165 0 -249 100t-84 271zM458 909q0 -183 111 -183q89 0 148.5 104t59.5 337q0 184 -119 184 q-200 0 -200 -442zM580 17l800 1400l141 -44l-799 -1400zM1125 328q0 155 55.5 276t161 189.5t243.5 68.5q155 0 243.5 -103t88.5 -273q0 -112 -31.5 -208.5t-89 -167.5t-145 -112t-194.5 -41q-164 0 -248 100.5t-84 270.5zM1364 281q0 -183 112 -183q33 0 62 13.5t56 46 t46.5 81.5t31 126.5t11.5 175.5q0 183 -118 183q-201 0 -201 -443z" />
<glyph unicode="&#x26;" horiz-adv-x="1430" d="M132 335q0 73 20 135.5t52.5 108t78 82.5t93 60.5t101.5 39.5q-153 91 -153 277q0 99 36 181.5t100 138t153.5 86t194.5 30.5q66 0 139 -17.5t112 -35.5l40 -17l-45 -145q-2 1 -6.5 3.5t-18 9t-27 12.5t-33.5 13.5t-38.5 13t-40 9t-40.5 3.5q-110 0 -171 -81.5 t-61 -244.5q0 -79 33 -124t79 -45h239l185 288h116l-40 -288h248l-23 -147h-247l-43 -308q-11 -86 -11 -126q0 -70 24 -93.5t79 -23.5q32 0 64.5 7t48.5 14l16 7l-8 -129q-3 -2 -8.5 -5.5t-25.5 -13t-44.5 -16.5t-66.5 -13t-90 -6q-178 0 -237 103q-124 -103 -318 -103 q-114 0 -202 27t-143 75.5t-83 113.5t-28 144zM445 337q0 -99 55.5 -154t157.5 -55q135 0 217 91v22q0 29 9 114l42 326h-257q-95 -7 -159.5 -99.5t-64.5 -244.5z" />
<glyph unicode="'" horiz-adv-x="461" d="M247 1080l59 594l272 -8l-190 -586h-141z" />
<glyph unicode="(" horiz-adv-x="801" d="M239 366q0 118 18 241q22 151 64.5 289t94 238.5t108.5 186.5t110 142t96 96t68 57l26 18l116 -79q-1 0 -2 -1q-13 -13 -26.5 -27t-47.5 -58t-64.5 -92.5t-70.5 -129.5t-72.5 -169.5t-63.5 -212t-50 -258.5q-25 -180 -25 -330q0 -92 8.5 -175t22.5 -142.5t31 -110.5 t34 -83.5t31 -55.5t23 -33l9 -9l-130 -77q-6 5 -17 14t-43.5 42.5t-61.5 73t-64.5 106.5t-61 141.5t-43 179t-17.5 218.5z" />
<glyph unicode=")" horiz-adv-x="801" d="M32 -332q6 5 17 16t44 52t64.5 89.5t73 130.5t76.5 173.5t68 220t53 268.5q23 173 23 315q0 92 -8.5 176t-22.5 145t-30.5 113t-33.5 86t-30.5 58t-22.5 34l-9 10l132 79q7 -5 18 -14t42.5 -42.5t60.5 -73t64.5 -106.5t61 -141.5t42.5 -179t17 -218.5q0 -117 -18 -241 q-21 -151 -64.5 -289t-95.5 -238.5t-110 -186.5t-112 -142t-97.5 -96t-69.5 -57l-27 -18z" />
<glyph unicode="*" horiz-adv-x="914" d="M179 1121l127 287l263 -216l-24 404h277l-151 -401l334 213l45 -287l-362 -34l236 -275l-245 -178l-78 382l-188 -382l-194 178l310 270z" />
<glyph unicode="+" horiz-adv-x="1016" d="M143 531l23 166h363l59 410h158l-58 -410h359l-22 -166h-360l-58 -412h-158l58 412h-364z" />
<glyph unicode="," horiz-adv-x="590" d="M85 -296q83 67 144 159t77 177h-18q-60 0 -98 38q-32 44 -32 92q0 80 65 138q46 40 109 40q61 0 101 -40l10 -14l6 -11q24 -46 24 -104q0 -133 -97.5 -298t-228.5 -260z" />
<glyph unicode="-" horiz-adv-x="742" d="M145 531l23 166h605l-23 -166h-605z" />
<glyph unicode="." horiz-adv-x="662" d="M170 116q0 42 19.5 85t55.5 76q57 47 130 47q72 0 119 -47q35 -41 35 -105q0 -45 -19 -87.5t-54 -73.5q-60 -47 -132 -47q-73 0 -117 47q-37 43 -37 105z" />
<glyph unicode="/" horiz-adv-x="1019" d="M-60 -558l1134 2232h200l-1133 -2232h-201z" />
<glyph unicode="0" horiz-adv-x="1291" d="M183 529q0 112 9.5 212t32 196.5t57 176t86.5 147.5t118.5 114.5t155.5 72.5t195 26q82 0 150 -17t116 -46t85.5 -71t60.5 -88t37.5 -101.5t20 -108t5.5 -109.5q0 -177 -30 -328.5t-86.5 -267t-136 -197t-180.5 -123.5t-218 -42q-240 0 -359 144t-119 410zM496 426 q0 -296 185 -296q52 0 98.5 30.5t87.5 97t71 165t47.5 242t17.5 319.5q0 78 -9 136t-29.5 104.5t-57.5 70.5t-89 24q-48 0 -87.5 -18t-76.5 -57.5t-65 -108.5t-49.5 -165.5t-32.5 -234t-11 -309.5z" />
<glyph unicode="1" horiz-adv-x="888" d="M270 1261l362 190h239l-204 -1451h-292l172 1246l-236 -119z" />
<glyph unicode="2" horiz-adv-x="1080" d="M76 0l33 230q41 15 96.5 47.5t122 82.5t133 110.5t128.5 136.5t110.5 155t77.5 171t29 181q0 108 -50.5 151t-146.5 43q-51 0 -122.5 -27t-117.5 -55l-45 -27l-7 165q4 2 11 6t29 15.5t45.5 21.5t58.5 23t69 22t75.5 15.5t80.5 6.5q215 0 331.5 -97t116.5 -259 q0 -102 -44 -206.5t-110.5 -191t-159.5 -172.5t-178 -148t-180 -121h578l-37 -279h-927z" />
<glyph unicode="3" horiz-adv-x="1097" d="M105 156l98 132q4 -6 12.5 -16.5t37 -37t60.5 -47t82.5 -37t102.5 -16.5q136 0 204.5 102.5t68.5 292.5q0 161 -137 161q-26 0 -58.5 -16.5t-51.5 -32.5l-19 -16l-77 103l418 442h-535l55 281h784l-27 -188l-418 -430h17q102 0 182.5 -40t128 -121.5t47.5 -191.5 q0 -70 -16.5 -132.5t-46.5 -112.5t-71.5 -92.5t-91 -73t-105 -52t-114 -32t-117.5 -10.5q-51 0 -97.5 6t-82 16.5t-67.5 24t-55 28.5t-42.5 30t-32 29t-21 24t-12.5 17z" />
<glyph unicode="4" horiz-adv-x="1189" d="M132 355l2 131q82 117 176.5 290t179.5 362.5t140 348.5l279 -36q-47 -126 -117 -259t-154.5 -259.5t-153.5 -221t-154 -202.5h424l183 723h224l-103 -723h143l-21 -127l-144 -24l-50 -358h-303l49 355h-600z" />
<glyph unicode="5" horiz-adv-x="1091" d="M69 152l105 125q4 -6 12 -15.5t35 -34t58 -43.5t81.5 -34.5t103.5 -15.5q142 0 220.5 111t78.5 307q0 113 -50.5 167t-143.5 54q-56 0 -103 -20.5t-74 -49.5l-13 -22l-102 16l190 754h664l-55 -290h-529l-65 -266q72 21 134 21q140 0 241.5 -40t160 -124.5t58.5 -208.5 q0 -113 -35 -208.5t-93.5 -160.5t-136.5 -111t-163 -67t-173 -21q-60 0 -115 9.5t-94.5 25.5t-73.5 34.5t-56 37.5t-38 34.5t-22 25.5z" />
<glyph unicode="6" horiz-adv-x="1182" d="M170 460q0 66 11 145.5t20.5 124t17.5 76.5q46 177 113 307.5t148 208.5t171 115t190 37q46 0 95 -9t86 -22t67.5 -26t46.5 -22l16 -9l-58 -149q-2 2 -7 5t-21 11t-32 15.5t-40 16.5t-46 16t-48.5 11.5t-49.5 4.5q-64 0 -114 -22.5t-94 -75.5t-77.5 -145.5t-57.5 -227.5 q135 94 266 94q90 0 162.5 -23.5t126.5 -69t83 -118.5t29 -169q0 -45 -7 -96q-33 -230 -182 -359.5t-380 -129.5q-208 0 -321.5 120t-113.5 365zM475 346q0 -120 36 -171.5t114 -51.5q65 0 108.5 34.5t71 105.5t43.5 188q11 89 11 143q0 104 -34.5 154.5t-108.5 50.5 q-103 0 -198 -105q-27 -115 -34 -205q-9 -71 -9 -143z" />
<glyph unicode="7" horiz-adv-x="1006" d="M210 0q37 89 85.5 186.5t114 207t116.5 192t134.5 206.5t123 181.5t125.5 180.5h-668l42 297h893l-33 -235q-166 -237 -338.5 -584t-273.5 -632h-321z" />
<glyph unicode="8" horiz-adv-x="1195" d="M130 315q0 45 8 85.5t23.5 74.5t36 64t46.5 55t54 46.5t60 39t62.5 30.5t63.5 25q-44 15 -81 37.5t-71.5 57t-54.5 86t-20 113.5q0 140 71.5 241.5t194.5 152.5t283 51q92 0 171 -21.5t138.5 -62.5t94 -105.5t34.5 -146.5q0 -68 -20 -126.5t-51.5 -100.5t-76 -77 t-88.5 -57.5t-95 -39.5q40 -10 74.5 -25t70.5 -40t61 -56t41 -77t16 -100q0 -464 -582 -464q-83 0 -151.5 11t-127.5 36.5t-99.5 64t-63 96.5t-22.5 132zM462 304q0 -191 156 -191q107 0 167.5 94t60.5 262q0 84 -37 132.5t-91 67.5q-11 -2 -23.5 -5.5t-31 -11.5t-36.5 -18 t-38.5 -26t-38 -35.5t-34 -47t-28.5 -59.5t-19 -73.5t-7 -88.5zM571 993q0 -143 108 -198q26 5 52.5 16t64 39t65 66t48 102.5t20.5 144.5q0 90 -37.5 131t-109.5 41q-100 0 -155.5 -94t-55.5 -248z" />
<glyph unicode="9" horiz-adv-x="1182" d="M210 873q0 173 69.5 309.5t198.5 214t297 77.5q58 0 109 -9.5t96 -28.5t81.5 -47t65.5 -67.5t49 -88.5t30 -110t10 -132q0 -27 -1 -56.5t-3.5 -56.5t-6 -53.5t-7 -49.5t-7 -41.5t-6.5 -32.5q-173 -726 -618 -726q-66 0 -124.5 12t-95.5 29t-64 34.5t-39 29.5l-12 12 l79 136q4 -4 11.5 -10.5t32 -23t51 -29t66.5 -23t80 -10.5q240 0 323 456q-105 -90 -248 -90q-72 0 -133.5 13t-114.5 42t-90 72t-58 106t-21 142zM520 844q0 -205 145 -205q78 0 133.5 44.5t81.5 115.5q15 80 24 206q5 48 5 100q0 123 -36 172.5t-110 49.5 q-111 0 -177 -127t-66 -356z" />
<glyph unicode=":" horiz-adv-x="664" d="M170 116q0 42 19.5 85t55.5 76q57 47 130 47q72 0 119 -47q35 -41 35 -105q0 -45 -19 -87.5t-54 -73.5q-60 -47 -132 -47q-73 0 -117 47q-37 43 -37 105zM279 899q0 43 20 86t56 76q57 46 129 46t119 -46q36 -43 36 -105q0 -45 -19 -87.5t-55 -73.5q-60 -47 -132 -47 t-116 47q-38 44 -38 104z" />
<glyph unicode=";" horiz-adv-x="662" d="M128 -296q83 66 143 158.5t77 177.5h-18q-60 0 -98 38q-31 44 -31 92q0 80 65 138q45 40 109 40q61 0 100 -40l9 -14l8 -11q24 -46 24 -104q0 -133 -98 -298t-228 -260zM279 899q0 43 20 86t56 76q57 46 129 46t119 -46q36 -43 36 -105q0 -45 -19 -87.5t-55 -73.5 q-60 -47 -132 -47t-116 47q-38 44 -38 104z" />
<glyph unicode="&#x3c;" horiz-adv-x="843" d="M205 703l603 505l74 -103l-415 -402l310 -399l-110 -103z" />
<glyph unicode="=" d="M111 315l23 165h1036l-22 -165h-1037zM174 748l22 165h1036l-22 -165h-1036z" />
<glyph unicode="&#x3e;" horiz-adv-x="843" d="M160 304l407 399l-295 402l103 103l462 -505l-605 -502z" />
<glyph unicode="?" horiz-adv-x="992" d="M234 116q0 42 20 85t57 76q56 47 128 47t119 -47q36 -42 36 -105q0 -44 -19 -87t-55 -74q-60 -47 -132 -47t-116 47q-38 45 -38 105zM337 1610q6 3 16.5 9t46 21t73 26t93.5 20.5t111 9.5q98 0 175 -29.5t124 -80.5t71 -115t24 -138q0 -80 -18.5 -145t-50 -109t-72.5 -80 t-87 -64.5t-92 -56t-88.5 -61t-76 -73.5t-55.5 -99t-26 -132l-119 -8q4 105 27.5 184t57.5 125.5t74.5 84t79.5 73.5t71.5 80t52 117.5t19.5 172.5q0 101 -47.5 152t-132.5 51q-25 0 -51 -4.5t-48.5 -11.5t-43 -15t-36.5 -16.5t-28.5 -15t-18.5 -11.5l-7 -4z" />
<glyph unicode="@" horiz-adv-x="1923" d="M143 213q0 211 45.5 396.5t137 336t222.5 258.5t308.5 166.5t387.5 58.5q228 0 383 -74.5t232 -217t77 -347.5q0 -199 -42 -358t-116 -261.5t-174.5 -156.5t-219.5 -54q-87 0 -140 22t-74 76q-91 -101 -241 -101q-149 0 -235.5 91.5t-86.5 277.5q0 125 39.5 235t106 187 t155.5 121t186 44q120 0 194 -78l45 38h127l-87 -605q-7 -63 -7 -89q0 -53 15.5 -74.5t49.5 -21.5q23 0 46.5 9t50 32.5t51 59.5t47.5 93.5t39.5 129.5t26 173.5t9.5 220.5q0 253 -117 373.5t-361 120.5q-182 0 -331 -68.5t-257.5 -200.5t-168 -336.5t-59.5 -466.5 q0 -317 140.5 -472t402.5 -155q67 0 132.5 10.5t115.5 28t95.5 38.5t77.5 42t56 38.5t35 28.5l12 11l47 -123q-4 -5 -12 -13t-36 -31.5t-59.5 -45t-84 -47.5t-108.5 -44.5t-133.5 -31.5t-158.5 -13q-202 0 -352.5 52t-245.5 152t-141.5 241t-46.5 324zM857 296 q0 -55 9 -95.5t28 -66.5t46.5 -38.5t64.5 -12.5q90 0 151 100l5 32l71 501q-31 74 -125 74q-113 0 -181.5 -125t-68.5 -369z" />
<glyph unicode="A" horiz-adv-x="1357" d="M43 0l685 1451h341l248 -1451h-326l-67 407h-504l-190 -407h-187zM482 547h419l-104 683h-2z" />
<glyph unicode="B" horiz-adv-x="1269" d="M172 0l203 1451h443q119 0 210.5 -26.5t145.5 -72.5t81 -104t27 -125q0 -68 -22.5 -128t-62 -104.5t-84 -76.5t-97.5 -58q71 -23 123 -60.5t82.5 -96t30.5 -130.5q0 -99 -40 -183.5t-116.5 -148.5t-197.5 -100.5t-273 -36.5h-453zM500 145h139q136 0 220.5 95.5 t84.5 248.5q0 182 -169 182h-202zM594 806h183q20 0 42.5 8.5t45 25.5t43.5 43.5t37 59t25.5 76t9.5 91.5q0 100 -52 148t-138 48h-125z" />
<glyph unicode="C" horiz-adv-x="1285" d="M170 571q0 195 55 361.5t154.5 286t245.5 187.5t321 68q65 0 132.5 -13t117.5 -31t91 -36t62 -31l21 -12l-47 -163q-8 5 -22 13t-56.5 28t-84 35.5t-96.5 28.5t-102 13q-78 0 -145 -25t-126 -82.5t-100 -144.5t-65 -217.5t-24 -295.5q0 -104 24 -181t68 -124t105 -70 t138 -23q67 0 130.5 20.5t106.5 49.5t77 58t50 50l15 20l81 -107q-3 -5 -9.5 -14.5t-29.5 -36.5t-50.5 -51.5t-73 -54.5t-96 -51.5t-121 -36t-146.5 -14.5q-288 0 -444.5 158.5t-156.5 437.5z" />
<glyph unicode="D" horiz-adv-x="1444" d="M172 0l203 1451h494q296 0 452.5 -149t156.5 -438q0 -270 -92 -463t-275 -297t-444 -104h-495zM502 158h190q456 0 456 764q0 193 -73.5 282t-228.5 89h-185z" />
<glyph unicode="E" d="M172 0l203 1451h871l-23 -160h-562l-67 -479h497l-24 -156h-494l-68 -496h592l-23 -160h-902z" />
<glyph unicode="F" horiz-adv-x="1088" d="M172 0l203 1451h882l-22 -160h-574l-73 -537h497l-22 -156h-498l-85 -598h-308z" />
<glyph unicode="G" horiz-adv-x="1395" d="M170 567q0 204 55.5 373t157 286.5t249 182.5t326.5 65q65 0 133.5 -13t119.5 -31t92.5 -36t63.5 -31l22 -12l-54 -163q-8 5 -22 13t-57 28t-84.5 35.5t-96.5 28.5t-102 13q-471 0 -471 -765q0 -104 19.5 -181t55.5 -124t86 -70t114 -23q52 0 96 15.5t72 37t51 51 t33.5 50.5t17.5 42l38 275h-226l23 151h486l-107 -765h-134l-60 130q-142 -155 -368 -155q-256 0 -392.5 154.5t-136.5 437.5z" />
<glyph unicode="H" horiz-adv-x="1461" d="M172 0l203 1451h308l-89 -633h503l88 633h308l-202 -1451h-309l92 661h-503l-91 -661h-308z" />
<glyph unicode="I" horiz-adv-x="654" d="M172 0l203 1451h308l-203 -1451h-308z" />
<glyph unicode="J" horiz-adv-x="856" d="M36 64l51 130l3.5 -3.5t10.5 -8.5t16.5 -11.5t22.5 -12.5t28.5 -12t33.5 -8.5t39 -3.5q42 0 73.5 15t60.5 52t50.5 105.5t36.5 170.5l136 974h311l-138 -974q-20 -141 -59 -239t-99 -155.5t-134 -82.5t-173 -25q-54 0 -102 9t-77.5 22.5t-51 26.5t-30.5 22z" />
<glyph unicode="K" horiz-adv-x="1381" d="M172 0l203 1451h308l-95 -674l147 98l507 576h213l-520 -567l420 -884h-390l-298 652l-107 -67l-80 -585h-308z" />
<glyph unicode="L" horiz-adv-x="1068" d="M172 0l203 1451h308l-181 -1291h563l-23 -160h-870z" />
<glyph unicode="M" horiz-adv-x="1910" d="M172 0l220 1451h373l257 -1069h9l549 1069h346l-187 -1451h-301l136 1099h-4l-558 -1099h-230l-251 1099h-7l-160 -1099h-192z" />
<glyph unicode="N" horiz-adv-x="1452" d="M172 0l203 1451h319l471 -984h7l-2 100l123 884h192l-203 -1451h-242l-538 1089h-4v-129l-134 -960h-192z" />
<glyph unicode="O" horiz-adv-x="1479" d="M170 578q0 155 31.5 291.5t95 247.5t153.5 190.5t212 123t267 43.5q121 0 219.5 -31.5t165 -86t111.5 -131t65.5 -163.5t20.5 -187q0 -201 -59 -371t-162 -285.5t-242.5 -179.5t-299.5 -64q-276 0 -427 160.5t-151 442.5zM496 502q0 -171 68.5 -269.5t198.5 -98.5 q59 0 111 18.5t100 57t85.5 102.5t65.5 151.5t43 208.5t15 268q0 82 -16 149t-47.5 117.5t-84 78t-122.5 27.5q-417 0 -417 -810z" />
<glyph unicode="P" horiz-adv-x="1189" d="M172 0l203 1451h445q109 0 193.5 -24t145 -72.5t92 -124.5t31.5 -178q0 -90 -19.5 -169t-53.5 -138.5t-80 -108.5t-99 -82.5t-112 -56.5t-116.5 -33.5t-113.5 -10.5h-143l-65 -453h-308zM565 596h106q48 0 88 15t76.5 51t62 90.5t40.5 138.5t15 191q0 118 -46.5 171 t-133.5 53h-108z" />
<glyph unicode="Q" horiz-adv-x="1479" d="M170 578q0 155 31.5 291.5t95 247.5t153.5 190.5t212 123t267 43.5q121 0 219.5 -31.5t165 -86t111.5 -131t65.5 -163.5t20.5 -187q0 -173 -44 -323.5t-122.5 -261.5t-185.5 -186.5t-235 -105.5q96 -292 256 -292q35 0 72 13l-4 -136q-77 -26 -136 -26q-82 0 -159.5 34.5 t-138.5 92.5t-107 136t-70 165q-225 30 -346 185t-121 408zM496 502q0 -171 68.5 -269.5t198.5 -98.5q59 0 111 18.5t100 57t85.5 102.5t65.5 151.5t43 208.5t15 268q0 82 -16 149t-47.5 117.5t-84 78t-122.5 27.5q-417 0 -417 -810z" />
<glyph unicode="R" horiz-adv-x="1289" d="M172 0l203 1451h447q221 0 343.5 -98.5t122.5 -281.5q0 -87 -25 -164t-70 -136.5t-100 -104t-122 -76.5l254 -590h-354l-200 526h-117l-74 -526h-308zM573 674h117q139 0 204.5 105.5t65.5 319.5q0 105 -46 156t-143 51h-108z" />
<glyph unicode="S" horiz-adv-x="1097" d="M98 179l103 129l6 -9t19 -23.5t32 -33.5t45 -35t58 -33t71.5 -23.5t85.5 -9.5q120 0 181.5 62t61.5 159q0 26 -6.5 49t-22.5 44.5t-30.5 37t-43 36.5t-46 32.5t-52.5 33.5q-38 25 -58.5 38.5t-56 40.5t-55.5 47.5t-45.5 52.5t-39 63.5t-23.5 73t-10 86.5q0 88 26.5 163.5 t75 132.5t114.5 98t147.5 62t172.5 21q55 0 110 -11t94 -26t70 -30.5t46 -25.5l15 -11l-49 -151q-5 4 -15 10.5t-41.5 23.5t-64 30t-78.5 23.5t-89 10.5q-97 0 -155.5 -53t-58.5 -150q0 -42 16.5 -79.5t45 -66.5t65.5 -56t77.5 -53.5t81 -54.5t77.5 -62.5t65.5 -74t45 -92.5 t16.5 -115q0 -92 -29.5 -171t-81 -136t-121 -97.5t-151 -60.5t-168.5 -20q-65 0 -124 11t-101 29t-78.5 40t-59.5 43.5t-39.5 39.5t-23.5 30z" />
<glyph unicode="T" horiz-adv-x="1151" d="M213 1291l24 160h1090l-26 -160h-388l-181 -1291h-310l181 1291h-390z" />
<glyph unicode="U" horiz-adv-x="1370" d="M217 409q0 61 9 117l129 925h310l-120 -855q-14 -101 -14 -168q0 -149 55 -216t168 -67q151 0 237.5 110t118.5 341l120 855h190l-129 -925q-19 -127 -61 -225.5t-114 -173t-181.5 -113.5t-253.5 -39q-231 0 -347.5 113t-116.5 321z" />
<glyph unicode="V" horiz-adv-x="1285" d="M223 1451h326l173 -1225h6l544 1225h195l-670 -1451h-341z" />
<glyph unicode="W" horiz-adv-x="1947" d="M223 1451h329l113 -1098h4l452 1098h247l155 -1091h4l407 1091h196l-583 -1451h-263l-155 1071h-6l-449 -1071h-267z" />
<glyph unicode="X" horiz-adv-x="1296" d="M17 0l550 705l-326 746h386l195 -520h6l384 520h219l-515 -669l364 -782h-385l-234 554h-5l-406 -554h-233z" />
<glyph unicode="Y" horiz-adv-x="1167" d="M187 1451h346l228 -659h2l407 659h214l-558 -855l-80 -596h-311l78 560z" />
<glyph unicode="Z" horiz-adv-x="1265" d="M94 0l19 130l863 1161h-661l22 160h1031l-20 -134l-859 -1157h696l-22 -160h-1069z" />
<glyph unicode="[" horiz-adv-x="861" d="M160 -198l253 1785h654l-23 -154h-394l-207 -1480h394l-22 -151h-655z" />
<glyph unicode="\" horiz-adv-x="1019" d="M219 1674h201l502 -2232h-198z" />
<glyph unicode="]" horiz-adv-x="861" d="M-11 -198l22 151h391l207 1480h-390l20 152h656l-250 -1783h-656z" />
<glyph unicode="^" horiz-adv-x="796" d="M234 1185l382 374l281 -374l-102 -98l-212 236l-277 -236z" />
<glyph unicode="_" horiz-adv-x="1515" d="M15 -362l23 166h1379l-22 -166h-1380z" />
<glyph unicode="`" horiz-adv-x="539" d="M141 1570l247 77l143 -328l-143 -37z" />
<glyph unicode="a" horiz-adv-x="1209" d="M132 435q0 99 19 191t54 170t86.5 142t115 109t140 69.5t160.5 24.5q58 0 104.5 -9.5t72.5 -23t43 -26.5t23 -23l6 -9h9l53 66h219l-157 -1116h-228l-34 98h-3q-2 -5 -8 -13.5t-29.5 -29.5t-53.5 -37t-84 -29.5t-118 -13.5q-117 0 -205 55t-136.5 159.5t-48.5 245.5z M445 390q0 -241 173 -241q41 0 78 12.5t61.5 31.5t37.5 32.5t20 24.5l91 632l-1 2q-4 8 -8 15t-16.5 22t-28.5 24.5t-43.5 17.5t-60.5 8q-142 0 -222.5 -145.5t-80.5 -435.5z" />
<glyph unicode="b" horiz-adv-x="1212" d="M130 0l234 1666l299 17l-92 -650h12q3 5 9 12t28.5 25t50.5 31.5t77.5 25t106.5 11.5q175 0 279.5 -122t104.5 -330q0 -148 -39.5 -278t-110.5 -226t-178 -151.5t-234 -55.5q-42 0 -80 5.5t-65.5 14.5t-50.5 20t-38 21.5t-25.5 19.5t-15.5 15l-4 5h-6l-60 -76h-202z M458 215q2 -4 5 -8.5t11 -13.5t20.5 -16.5t29.5 -15t42 -12t54 -4.5q70 0 125.5 34t96.5 104.5t62.5 185.5t21.5 270q0 228 -176 228q-27 0 -52.5 -6.5t-45.5 -17t-37.5 -22.5t-29.5 -24.5t-20.5 -23t-13.5 -16.5l-4 -7z" />
<glyph unicode="c" horiz-adv-x="995" d="M134 451q0 206 73.5 362t214 242t330.5 86q46 0 97 -11t90 -26.5t71.5 -31t50.5 -26.5l17 -10l-42 -143q-6 4 -17 10.5t-41.5 23.5t-59.5 30t-66 23.5t-66 10.5q-167 0 -251 -154t-84 -453q0 -71 18 -123t49 -80.5t68 -42t81 -13.5q50 0 94 14.5t72.5 35t49.5 40.5t30 35 l9 14l96 -68l-6 -12t-20 -31t-35.5 -44t-53.5 -46.5t-73 -44t-96 -31t-120 -12.5q-225 0 -352.5 124.5t-127.5 351.5z" />
<glyph unicode="d" horiz-adv-x="1212" d="M132 447q0 146 40.5 274t112 219.5t173 144.5t219.5 53q55 0 101 -8.5t72 -21t44.5 -25t25.5 -20.5l6 -9h7l85 612l301 17l-237 -1683h-247l-20 100h-3q-3 -5 -9 -13.5t-30 -30t-53.5 -38t-81 -30t-112.5 -13.5q-182 0 -288 129.5t-106 342.5zM443 395q0 -54 7 -95.5 t21.5 -69.5t36 -46t48.5 -26.5t62 -8.5q29 0 56.5 7t49 18t39 23t30 24t19 19t8.5 10l91 645q-2 3 -6 8t-19.5 17.5t-33 22.5t-46.5 18t-60 8q-150 0 -226.5 -144t-76.5 -430z" />
<glyph unicode="e" horiz-adv-x="1057" d="M132 435q0 111 20.5 208.5t58.5 174.5t92 137.5t120.5 100.5t144 61t162.5 21q88 0 160 -24.5t118.5 -67t71.5 -99t25 -121.5q0 -54 -15.5 -100.5t-40.5 -80t-64 -61t-79 -45.5t-92 -31t-96.5 -20t-99.5 -11t-93.5 -5t-85.5 -1q-2 -32 -2 -98q0 -56 11.5 -98.5 t31.5 -70.5t50 -46t64.5 -25.5t76.5 -7.5q49 0 94 12.5t75 30.5t53 36t34 31l10 12l90 -79q-3 -4 -8 -11t-23 -27t-39 -38.5t-57 -40.5t-75.5 -38t-95 -27t-115.5 -11q-105 0 -191.5 27.5t-152 82t-102 144t-36.5 206.5zM449 598q46 0 81 2t78 8t74 16.5t62.5 30t51 46 t31.5 65.5t12 89q0 69 -36.5 104.5t-108.5 35.5q-94 0 -158 -99.5t-87 -297.5z" />
<glyph unicode="f" horiz-adv-x="767" d="M-194 -516l66 134l16.5 -11t40.5 -19t58 -12q48 0 81.5 32.5t59 111.5t44.5 216l143 1008h-110l21 134l111 32l25 164q15 98 44 173t77.5 132t121.5 87t170 30q56 0 115.5 -19t91.5 -37l32 -19l-56 -128q-3 2 -9.5 6t-25 13t-36 16t-40 13t-39.5 6q-31 0 -51.5 -10.5 t-39.5 -42.5t-34 -93t-29 -159l-17 -126h279l-25 -172h-280l-142 -1008q-20 -140 -63.5 -242t-106 -161.5t-136 -87.5t-161.5 -28q-40 0 -75 7t-56 17t-36.5 20t-22.5 16z" />
<glyph unicode="g" horiz-adv-x="1028" d="M-2 -241q0 217 181 307q-15 48 -15 94q0 152 130 244q-130 92 -130 275q0 93 27.5 170t75 130t113 89t140 53t157.5 17q85 0 162 -24l307 -2l-12 -132l-114 -7q41 -75 41 -172q0 -112 -37.5 -202.5t-104 -149t-157.5 -90t-200 -31.5q-84 0 -151 20q-51 -37 -51 -86 q0 -41 43.5 -61t143.5 -20q128 0 219 -22.5t144 -65.5t77.5 -100t24.5 -131q0 -98 -33.5 -179t-99.5 -141.5t-171.5 -93.5t-243.5 -33q-115 0 -204.5 25t-146.5 71t-86 108.5t-29 139.5zM201 -221q0 -102 74.5 -157t210.5 -55q142 0 204 50t62 151q0 81 -57.5 116t-196.5 35 q-145 0 -223 45q-74 -66 -74 -185zM447 641q0 -177 129 -177q42 0 77.5 20.5t64.5 63t45 116.5t16 173q0 88 -33.5 123t-95.5 35q-33 0 -61 -9.5t-55 -34t-45.5 -63.5t-30 -102t-11.5 -145z" />
<glyph unicode="h" horiz-adv-x="1189" d="M130 0l234 1666l299 17l-92 -643h9l6 6q7 5 19.5 13.5t30.5 19t43 21t54 19t66.5 14t77.5 5.5q306 0 306 -286q0 -45 -7 -96l-105 -756h-296l102 732q7 54 7 92t-7.5 63t-24 39.5t-39 20.5t-57.5 6q-26 0 -51.5 -4.5t-45 -11.5t-38 -15.5t-31 -17t-22 -15.5t-14.5 -12 l-5 -4l-123 -873h-296z" />
<glyph unicode="i" horiz-adv-x="554" d="M130 0l156 1116h297l-157 -1116h-296zM313 1429q0 41 18 81.5t53 69.5q51 45 123 45q69 0 109 -42q34 -46 34 -101q0 -42 -18.5 -83t-51.5 -72q-55 -43 -122 -43q-72 0 -110 45q-35 38 -35 100z" />
<glyph unicode="j" horiz-adv-x="615" d="M-187 -516l66 134q6 -4 16 -11t39.5 -19t56.5 -12q30 0 53 11t43.5 36.5t36.5 67t29.5 102t25.5 143.5l164 1180h298l-166 -1180q-19 -139 -63 -241.5t-107 -162t-136 -87.5t-160 -28q-41 0 -76 7t-56 17t-36.5 20t-21.5 16zM373 1429q0 41 18.5 81.5t53.5 69.5 q51 45 122 45t110 -42q33 -44 33 -101q0 -42 -18 -83t-51 -72q-55 -43 -123 -43q-71 0 -109 45q-36 39 -36 100z" />
<glyph unicode="k" horiz-adv-x="1093" d="M130 0l234 1666l299 17l-147 -1040l170 105l287 368h183l-346 -413l261 -703h-339l-176 522l-62 -36l-68 -486h-296z" />
<glyph unicode="l" horiz-adv-x="558" d="M130 0l234 1666l299 17l-237 -1683h-296z" />
<glyph unicode="m" horiz-adv-x="1687" d="M130 0l156 1116h238l25 -100h7l6.5 6.5t20.5 17.5t33 24.5t44.5 25.5t55.5 24t65.5 17t75.5 7q96 0 155.5 -30.5t84.5 -95.5q7 7 14 13t29 23.5t48.5 31t61 28t79.5 22.5t93 8q91 0 148.5 -25.5t86 -81.5t28.5 -145q0 -30 -9 -107l-109 -779h-297l108 756q6 51 6 85 q0 46 -12.5 72t-32.5 34.5t-53 8.5q-31 0 -61 -11.5t-53 -29.5t-35.5 -31t-22.5 -25l-7 -75l-110 -784h-296l105 756q6 54 6 88q0 64 -23 88t-71 24q-88 0 -169 -81l-123 -875h-296z" />
<glyph unicode="n" horiz-adv-x="1191" d="M130 0l156 1116h238l28 -89h6l11.5 11.5t36 27t62.5 34t91 26.5t121 12q152 0 228.5 -70.5t76.5 -217.5q0 -43 -7 -94l-104 -756h-297q92 666 103 732q6 48 6 83q0 41 -8.5 68t-26.5 42t-42 21.5t-59 6.5q-39 0 -77 -11t-64.5 -27t-40 -26t-19.5 -16l-123 -873h-296z" />
<glyph unicode="o" horiz-adv-x="1171" d="M134 435q0 212 71.5 371t210.5 247t330 88q208 0 328.5 -120t120.5 -340q0 -212 -76.5 -372.5t-215.5 -247t-323 -86.5q-208 0 -327 120t-119 340zM443 355q0 -232 168 -232q132 0 203.5 158t71.5 480q0 113 -40.5 171.5t-129.5 58.5q-132 0 -202.5 -156.5t-70.5 -479.5z " />
<glyph unicode="p" horiz-adv-x="1212" d="M51 -567l235 1683h238l28 -100h4q2 2 5.5 7t17.5 18t30 24.5t42.5 26t55.5 25t69 17.5t83 7q172 0 275 -122t103 -327q0 -151 -39 -283t-109 -228t-171 -151t-219 -55q-40 0 -76 4.5t-61 12t-46 16.5t-34.5 18.5t-22.5 17t-13 11.5l-3 5h-8l-87 -618zM456 215 q4 -6 8.5 -11t18.5 -17t30 -20t42.5 -15t55.5 -7q47 0 86.5 13.5t75 41.5t62.5 74t46.5 108.5t30 146.5t10.5 187q0 133 -47.5 192t-135.5 59q-25 0 -49 -5.5t-42.5 -14t-35 -18.5t-27.5 -20.5t-19.5 -19t-12.5 -13.5l-4 -5l-2 2z" />
<glyph unicode="q" horiz-adv-x="1212" d="M132 431q0 150 43 282t117.5 226t178.5 148t221 54q38 0 73.5 -5t62 -13.5t49 -18.5t37.5 -20t26 -18t15 -13l5 -6h2l76 69h201l-236 -1674l-300 -9l92 648h-9q-3 -5 -8.5 -12t-28.5 -25t-51 -32t-77 -25.5t-105 -11.5q-116 0 -203 56t-134 159t-47 241zM447 407 q0 -75 12.5 -126t37.5 -79.5t57 -40.5t76 -12q111 0 188 92l91 656q-2 3 -6.5 9.5t-17 18.5t-29 21.5t-44 17t-58.5 7.5q-307 0 -307 -564z" />
<glyph unicode="r" horiz-adv-x="786" d="M130 0l156 1116h210l24 -187h6q2 4 4 11.5t11 30t19.5 42.5t29 44.5t40 42t52 29.5t64.5 12q15 0 33.5 -1.5t36 -4.5t35.5 -6.5t33 -6.5t26.5 -6t18.5 -5l6 -1l-49 -209q-116 32 -194 32q-94 0 -151 -130l-115 -803h-296z" />
<glyph unicode="s" horiz-adv-x="930" d="M81 134l100 116q3 -6 9 -14.5t28 -30t46 -38t63.5 -30.5t81.5 -14q91 0 139 48.5t48 122.5q0 39 -21 71t-55 54.5t-75.5 44.5t-82.5 48.5t-75 59t-55.5 82t-21.5 111.5q0 63 17.5 117.5t48 95.5t72 72.5t92 51t104.5 29.5t112 10q32 0 66.5 -5t63 -13.5t55.5 -18.5 t48 -20t37 -18t24 -13l8 -6l-47 -150q-5 4 -15.5 10.5t-40 23.5t-58.5 30t-66.5 23.5t-67.5 10.5q-77 0 -120 -39t-43 -101q0 -40 23 -73.5t60 -58t81.5 -49t89 -52.5t81.5 -62t60 -84t23 -112q0 -85 -29.5 -155.5t-87 -123t-148.5 -81.5t-208 -29q-59 0 -110.5 8.5t-87 23 t-65.5 31t-48 33.5t-30.5 31.5t-17.5 22.5z" />
<glyph unicode="t" horiz-adv-x="786" d="M198 944l21 134l113 29l197 380h150l-52 -371h246l-25 -172h-245l-79 -552q-11 -72 -11 -140q0 -45 9.5 -71t27 -35.5t46.5 -9.5q32 0 61.5 5t43.5 10l13 5l-2 -127q-3 -2 -8 -5.5t-25 -13t-44 -16.5t-66 -13t-89 -6q-137 0 -202 56.5t-65 187.5q0 44 6 98l87 627h-108z " />
<glyph unicode="u" horiz-adv-x="1191" d="M164 264q0 43 6 94l107 758h296l-98 -696q-8 -57 -8 -109q0 -84 31 -117.5t96 -33.5q33 0 66.5 9t57.5 21.5t43 25t28 20.5l10 9l121 871h296l-155 -1116h-239l-30 98h-4q-4 -5 -11.5 -13.5t-35.5 -29.5t-61.5 -37t-90.5 -29.5t-120 -13.5q-305 0 -305 289z" />
<glyph unicode="v" horiz-adv-x="1066" d="M174 1116h359l108 -794h9l362 794h194l-552 -1116h-247z" />
<glyph unicode="w" horiz-adv-x="1582" d="M179 1116h337l60 -743h7l314 743h206l129 -743h7l284 743h192l-483 -1116h-239l-98 728v2h-7l-308 -730h-239z" />
<glyph unicode="x" horiz-adv-x="1055" d="M20 0l419 538l-245 578h355l130 -394l265 394h204l-383 -509l271 -607h-355l-152 417l-301 -417h-208z" />
<glyph unicode="y" horiz-adv-x="1088" d="M-20 -549l47 174q52 -25 109 -25q53 0 97.5 20t87 67.5t81 109t90.5 158.5l-311 1161h357l163 -790l341 790h183l-548 -1141q-53 -109 -97.5 -189t-96.5 -153t-102.5 -118t-109.5 -71.5t-124 -26.5q-51 0 -93 8.5t-58 16.5z" />
<glyph unicode="z" horiz-adv-x="967" d="M58 0l18 134l629 831h-468l13 151h815l-21 -134l-620 -830h487l-18 -152h-835z" />
<glyph unicode="{" horiz-adv-x="905" d="M292 569l19 125l4 38q23 0 50.5 6.5t58.5 21.5t55.5 37t40.5 58t16 80q0 42 -6 149t-6 153q0 60 6 107t21.5 93t41.5 80.5t67.5 64t98.5 48.5t135.5 29.5t176.5 10.5l-21 -145q-77 0 -129.5 -17.5t-83.5 -54.5t-44.5 -88t-13.5 -123q0 -46 4.5 -153t4.5 -149 q0 -205 -190 -286q132 -57 132 -174q0 -50 -21.5 -126.5t-47.5 -144t-47.5 -145t-21.5 -128.5q0 -157 211 -157l-19 -147q-125 0 -213 18.5t-139.5 56t-74 88.5t-22.5 120q0 65 21 147.5t46 146t46 130.5t21 106q0 40 -32.5 70t-71 42t-73.5 12z" />
<glyph unicode="|" horiz-adv-x="763" d="M219 -558l314 2232h172l-315 -2232h-171z" />
<glyph unicode="}" horiz-adv-x="905" d="M74 -368l22 147q76 0 128 17t83 53.5t44 88t13 124.5q0 45 -4.5 152.5t-4.5 149.5q0 206 192 286q-132 57 -132 174q0 50 22 126.5t47.5 144t47.5 145t22 128.5q0 157 -213 157l19 145q101 0 177.5 -12.5t128 -35t84 -57.5t46.5 -78t14 -98q0 -66 -21.5 -148t-47 -146 t-46.5 -131.5t-21 -106.5q0 -25 12.5 -46t32 -35t44 -24t47.5 -15t42 -5l-6 -38h2l-17 -125q-24 0 -51.5 -6t-58.5 -20.5t-56 -36t-41.5 -57t-16.5 -78.5q0 -42 6.5 -151t6.5 -158q0 -59 -5.5 -105.5t-21 -93t-41.5 -80.5t-67.5 -63.5t-98 -48t-135 -29t-177.5 -10.5z" />
<glyph unicode="~" horiz-adv-x="1334" d="M156 707q2 7 6 18.5t19.5 44.5t34.5 63t53 66.5t72.5 63t95 44.5t119.5 18q62 0 118 -14.5t98 -37.5t80.5 -51t74 -56t69.5 -51t74.5 -37.5t83.5 -14.5q25 0 47.5 6t38 15t28.5 20.5t21 22.5t13.5 20.5t7.5 15.5l2 6l85 -59q-2 -7 -6 -18.5t-19 -44.5t-34 -63.5 t-51 -67.5t-68.5 -63.5t-89.5 -45t-111 -18.5q-56 0 -107.5 14.5t-91 38t-77 51.5t-72.5 56t-70.5 51t-79 37.5t-89.5 14.5q-37 0 -70.5 -11.5t-54 -27.5t-36.5 -32.5t-22 -28.5l-7 -11z" />
<glyph unicode="&#xa1;" horiz-adv-x="742" d="M116 -558l20 136l239 1023h149l-49 -1023l-17 -136h-342zM317 944q0 43 19.5 85.5t55.5 75.5q57 47 130 47q72 0 119 -47q36 -42 36 -104q0 -45 -19 -88t-55 -74q-60 -47 -132 -47t-116 47q-38 45 -38 105z" />
<glyph unicode="&#xa2;" horiz-adv-x="995" d="M156 607q0 275 129.5 456.5t359.5 222.5l62 277h145l-8 -272q61 -10 125.5 -34.5t97.5 -44.5l34 -20l-43 -142q-6 4 -16.5 10.5t-41.5 23.5t-60 30t-66.5 23.5t-65.5 10.5q-167 0 -251 -154t-84 -453q0 -71 18 -123t49.5 -81t68.5 -42.5t81 -13.5q49 0 93.5 14.5 t72.5 34.5t49 40.5t30 34.5l9 15l96 -67l-5.5 -11t-18 -28.5t-32 -41t-48 -44t-65 -43.5t-84.5 -34t-106 -19l-54 -243h-147l6 258q-157 37 -243.5 155.5t-86.5 304.5z" />
<glyph unicode="&#xa3;" horiz-adv-x="1184" d="M89 0l41 272h89q79 51 111.5 137t37.5 213l-189 17l19 143h175q0 127 9 232q16 225 150 342.5t359 117.5q32 0 66.5 -5t63.5 -13.5t57 -18t49.5 -19.5t38 -18t24.5 -13l9 -5l-65 -145q-5 3 -13.5 8t-33.5 18t-48 23t-53 18t-53 8q-49 0 -81.5 -11t-60 -42t-46 -87 t-31.5 -145q-20 -138 -45 -245h458l-22 -164h-475q-69 -223 -179 -346h723l-38 -272h-1047z" />
<glyph unicode="&#xa4;" horiz-adv-x="1218" d="M132 281l243 181q-38 78 -38 179q0 171 94 305l-181 179l132 149l144 -227q104 80 235 80q124 0 212 -85l222 230l89 -147l-242 -179q43 -83 43 -183q0 -172 -99 -307l179 -177l-129 -149l-148 225q-106 -78 -230 -78q-126 0 -213 87l-222 -232zM500 656q0 -99 48.5 -155 t134.5 -56q100 0 169.5 83.5t69.5 221.5q0 100 -50 156t-137 56q-66 0 -118.5 -36t-84.5 -106.5t-32 -163.5z" />
<glyph unicode="&#xa5;" horiz-adv-x="1316" d="M464 1451h346l228 -659h2l406 659h215l-458 -699h210l-20 -141h-281l-9 -15l-18 -132h288l-20 -142h-288l-43 -322h-310l44 322h-262l22 142h261l13 96l-19 51h-238l23 141h162z" />
<glyph unicode="&#xa6;" horiz-adv-x="763" d="M219 -558l124 893h173l-126 -893h-171zM407 782l126 892h172l-127 -892h-171z" />
<glyph unicode="&#xa7;" horiz-adv-x="1127" d="M187 4l79 121q3 -5 8.5 -13.5t25.5 -30.5t44 -39t65 -30.5t87 -13.5q102 0 147 43t45 115q0 27 -13 50.5t-35 40t-51.5 33t-62.5 30t-68 31t-68 36t-62.5 45t-51.5 57.5t-35 75t-13 96q0 224 181 347q-23 56 -23 110q0 166 120.5 266.5t319.5 100.5q48 0 98 -11 t87.5 -26.5t68.5 -31t47 -26.5l16 -11l-52 -133q-6 4 -16 9.5t-40 21t-58 27t-65 21t-66 9.5q-90 0 -134.5 -45.5t-44.5 -107.5q0 -34 16.5 -62t44 -48t63.5 -38t75.5 -35t79.5 -36.5t75.5 -45.5t63.5 -57.5t44.5 -77t16.5 -101.5q0 -63 -18.5 -120t-50 -100t-62.5 -73 t-67 -54q23 -52 23 -105q0 -164 -121 -266.5t-337 -102.5q-70 0 -129 16.5t-93.5 39t-59.5 45.5t-34 39zM428 752q0 -42 23 -77t59 -58t85.5 -47t97 -43t99 -48t85.5 -59q69 60 69 156q0 44 -31.5 80t-85 63t-111 51t-123.5 58t-109 71q-58 -54 -58 -147z" />
<glyph unicode="&#xa8;" horiz-adv-x="941" d="M205 1431q0 37 16.5 74.5t46.5 66.5q48 38 109 38q58 0 96 -38q32 -44 32 -92q0 -82 -66 -140q-50 -41 -107 -41q-58 0 -95 41q-32 40 -32 91zM620 1431q0 25 7.5 50t22 48.5t33.5 42.5q49 38 107 38q57 0 98 -38q32 -44 32 -92q0 -82 -65 -140q-50 -41 -109 -41 q-62 0 -94 41q-32 40 -32 91z" />
<glyph unicode="&#xa9;" horiz-adv-x="1626" d="M221 607q0 197 55 360t156.5 278.5t252 179.5t335.5 64q142 0 253.5 -45t184.5 -127.5t111.5 -198t38.5 -256.5q0 -87 -12 -163q-49 -350 -255 -546t-535 -196q-143 0 -255 48t-183.5 135t-109 205.5t-37.5 261.5zM362 620q0 -246 120.5 -390.5t337.5 -144.5 q170 0 302.5 68t220 206.5t114.5 337.5q12 93 12 144q0 160 -55.5 277.5t-161.5 181.5t-251 64t-264 -51.5t-201.5 -147t-128 -234.5t-45.5 -311zM578 663q0 103 35 188.5t94 140.5t136 85t162 30q37 0 71.5 -9t57 -21.5t40.5 -25.5t26 -22l8 -9l-47 -102q-3 3 -8 7.5 t-21 17t-32.5 21.5t-40 17t-45.5 8q-46 0 -84 -18.5t-69 -57.5t-48.5 -107.5t-17.5 -160.5q0 -93 48.5 -149.5t116.5 -56.5q35 0 64.5 11t47 26.5t30.5 31t18 26.5l5 11l55 -65q0 -4 -2.5 -9.5t-11.5 -22.5t-21.5 -32t-35.5 -33.5t-50.5 -31.5t-69 -22.5t-90.5 -9.5 q-51 0 -99 15.5t-88.5 45t-70.5 70.5t-46.5 95.5t-16.5 117.5z" />
<glyph unicode="&#xaa;" horiz-adv-x="921" d="M190 886q0 54 19 100.5t50.5 79.5t76 60t91 44t100 29.5t98 18.5t89.5 9l2 12q6 49 6 56q0 62 -30 90t-94 28q-25 0 -51 -5.5t-47 -13.5t-41 -18t-35 -20t-26 -18.5t-17 -13.5l-6 -5l-45 78q2 3 6 7.5t19 18t32 25.5t46 26.5t61 25t77 18t94 7.5q155 0 236 -57.5 t81 -183.5q0 -22 -4 -65l-72 -505h-203l-40 87q-4 -9 -11 -19.5t-26 -29t-43 -32t-66.5 -24t-92.5 -10.5q-113 0 -173.5 53t-60.5 147zM451 916q0 -47 25 -71.5t71 -24.5q29 0 52 8t36.5 21.5t20.5 24t11 21.5l34 236q-124 -15 -187 -63.5t-63 -151.5z" />
<glyph unicode="&#xab;" horiz-adv-x="1195" d="M254 558l456 415l65 -82l-246 -337l150 -335l-87 -87zM667 558l456 415l65 -82l-246 -337l149 -335l-86 -87z" />
<glyph unicode="&#xac;" horiz-adv-x="1104" d="M198 622l25 164h878l-23 -164l-51 -365h-150l49 365h-728z" />
<glyph unicode="&#xad;" horiz-adv-x="798" d="M172 531l22 166h605l-22 -166h-605z" />
<glyph unicode="&#xae;" horiz-adv-x="1493" d="M226 852q0 187 55 344t154 266.5t239.5 170.5t307.5 61q104 0 192.5 -28.5t155 -81.5t113.5 -127t71 -168t24 -202q0 -64 -11 -150q-22 -163 -84 -295.5t-157.5 -225t-225.5 -143t-285 -50.5q-133 0 -238 47.5t-173 132t-103 199t-35 250.5zM364 864q0 -151 48 -265.5 t146 -181t234 -66.5q241 0 400 154t199 430q9 63 9 134q0 151 -50 264.5t-149 177t-236 63.5q-138 0 -251 -53t-189.5 -147t-118.5 -224.5t-42 -285.5zM611 611l83 603l13 90h222q249 0 249 -183q0 -79 -41 -138t-112 -90l85 -284h-175l-71 255h-61l-35 -253h-157zM815 950 h67q121 0 121 177q0 85 -85 85h-66z" />
<glyph unicode="&#xaf;" horiz-adv-x="954" d="M435 1393l18 130h478l-15 -130h-481z" />
<glyph unicode="&#xb0;" horiz-adv-x="939" d="M250 1174q0 116 32.5 214.5t91.5 169t145.5 110.5t190.5 40q155 0 243.5 -102.5t88.5 -272.5q0 -112 -31.5 -208.5t-89 -168t-144.5 -112.5t-194 -41q-164 0 -248.5 100.5t-84.5 270.5zM489 1127q0 -183 112 -183q32 0 61 13.5t56.5 45.5t46.5 81.5t31 127t12 174.5 q0 184 -118 184q-201 0 -201 -443z" />
<glyph unicode="&#xb1;" d="M109 288l23 165h1035l-21 -165h-1037zM301 1089l23 166h364l58 411h158l-58 -411h360l-23 -166h-359l-59 -412h-158l58 412h-364z" />
<glyph unicode="&#xb2;" horiz-adv-x="923" d="M152 513l29 213q45 16 98.5 47t114.5 75.5t116.5 103.5t101 126t73 150t27.5 167q0 90 -33 123t-106 33q-36 0 -91 -22.5t-92 -44.5l-37 -22l-23 127q4 2 10 6t26.5 15t41.5 21.5t52 22.5t61 21t65.5 15t67.5 6q88 0 156.5 -24.5t110.5 -68t63 -98.5t21 -121 q0 -75 -30.5 -151t-77.5 -139t-114 -125.5t-130 -109t-135 -91.5h408l-35 -255h-739z" />
<glyph unicode="&#xb3;" horiz-adv-x="921" d="M172 601l73 121l10 -10t28 -21t45.5 -26.5t60.5 -21t75 -9.5q105 0 163.5 74.5t58.5 233.5q0 112 -81 112q-37 0 -79 -36l-13 -13l-68 94l309 318h-394l42 257h627l-24 -172l-317 -322q114 -1 191 -78t77 -209q0 -78 -27 -145t-72 -113.5t-105 -80t-125.5 -49.5t-133 -16 t-125.5 11.5t-92.5 28t-59 33t-34.5 27.5z" />
<glyph unicode="&#xb4;" horiz-adv-x="539" d="M317 1291l203 339l232 -69l-309 -291z" />
<glyph unicode="&#xb5;" horiz-adv-x="1202" d="M51 -558l168 1190l69 484h297l-99 -696q-9 -57 -9 -109q0 -84 31.5 -117.5t96.5 -33.5q33 0 66.5 9t57.5 21.5t43 25t28 20.5l10 9l121 871h296l-156 -1116h-238l-30 98h-4q-4 -5 -11.5 -13.5t-35.5 -29.5t-61.5 -37t-90.5 -29.5t-120 -13.5q-21 0 -76 5 q-21 -357 -46 -538h-307z" />
<glyph unicode="&#xb6;" horiz-adv-x="1427" d="M213 906q0 103 19 184.5t65 150.5t118 114.5t181 70.5t252 25h703l-26 -196h-141l-176 -1255h-226l177 1255h-179l-177 -1255h-218l71 518q-443 0 -443 388z" />
<glyph unicode="&#xb7;" horiz-adv-x="662" d="M264 786q0 42 19.5 84.5t55.5 75.5q57 47 130 47q72 0 119 -47q34 -41 34 -105q0 -44 -18.5 -86.5t-54.5 -73.5q-59 -47 -132 -47t-116 47q-37 44 -37 105z" />
<glyph unicode="&#xb8;" horiz-adv-x="554" d="M-9 -458l67 66q1 -3 4 -7.5t13 -15.5t21.5 -20t31.5 -16t42 -7q64 0 99 34.5t35 106.5q0 31 -19 52t-41.5 28t-41.5 11.5t-19 6.5l56 217h98l-26 -128q-1 -2 7.5 -6t23.5 -9.5t33 -13.5t36.5 -22t33.5 -31t25 -42.5t10 -56.5q0 -109 -75.5 -179t-214.5 -70 q-47 0 -84.5 10.5t-57.5 25.5t-34 30t-18 26z" />
<glyph unicode="&#xb9;" horiz-adv-x="921" d="M346 1493l306 181h217l-164 -1161h-268l134 944l-185 -115z" />
<glyph unicode="&#xba;" horiz-adv-x="979" d="M215 1031q0 111 30.5 201.5t90.5 156t153.5 101t213.5 35.5q184 0 278.5 -91.5t94.5 -257.5q0 -224 -130.5 -357t-360.5 -133q-183 0 -276.5 90.5t-93.5 254.5zM486 973q0 -176 115 -176q200 0 200 438q0 173 -113 173q-202 0 -202 -435z" />
<glyph unicode="&#xbb;" horiz-adv-x="1195" d="M160 213l249 336l-150 337l89 87l335 -426l-453 -415zM573 213l249 336l-151 337l90 87l336 -426l-454 -415z" />
<glyph unicode="&#xbc;" horiz-adv-x="1796" d="M346 1493l306 181h217l-164 -1161h-268l134 944l-185 -115zM489 -20l944 1351l109 -68l-941 -1352zM884 -277l2 125q146 226 315 786l254 -31q-62 -191 -169.5 -385.5t-222.5 -349.5h252l14 87l143 471h200l-78 -558h93l-15 -115l-98 -28l-40 -283h-277l38 281h-411z" />
<glyph unicode="&#xbd;" horiz-adv-x="1881" d="M346 1493l306 181h217l-164 -1161h-268l134 944l-185 -115zM489 -20l944 1351l109 -68l-941 -1352zM976 -558l31 212q45 17 98 47.5t113.5 75t116 104t101 126.5t73 149.5t27.5 167.5q0 61 -15.5 95.5t-44 47.5t-76.5 13q-24 0 -55.5 -9.5t-60 -22.5t-53.5 -26t-40 -23 l-15 -9l-20 128q7 4 19 11t49.5 25.5t74 32.5t87 26t94.5 12q88 0 156 -25t109 -68t62 -98.5t21 -120.5q0 -76 -30 -152t-77 -139t-113 -125.5t-130 -109.5t-136 -91h411l-36 -254h-741z" />
<glyph unicode="&#xbe;" horiz-adv-x="1890" d="M179 601l73 121q3 -4 9.5 -10t28 -21t45.5 -26.5t61 -21t75 -9.5q104 0 162.5 74.5t58.5 233.5q0 112 -81 112q-37 0 -78 -36l-13 -13l-69 94l310 318h-395l43 257h627l-24 -172l-318 -322q114 -1 191 -78t77 -209q0 -78 -26.5 -145t-72 -113.5t-105 -80t-125 -49.5 t-133 -16t-125.5 11.5t-92.5 28t-59.5 33t-34 27.5zM583 -20l944 1351l109 -68l-942 -1352zM978 -277l2 125q146 226 315 786l254 -31q-42 -130 -111.5 -271.5t-138.5 -253t-143 -210.5h252l14 87l143 471h201l-79 -558h94l-15 -115l-98 -28l-41 -283h-276l38 281h-411z" />
<glyph unicode="&#xbf;" horiz-adv-x="992" d="M43 -203q0 82 19 147.5t51.5 109.5t74.5 79t89 61.5t94.5 51.5t91 55.5t78.5 67t57.5 91t26.5 123.5l123 9q-4 -89 -20 -156.5t-39.5 -109t-53 -72t-61 -52.5t-62.5 -44.5t-59 -53t-49 -72.5t-33.5 -109.5t-12.5 -156.5q0 -197 189 -197q23 0 45 5t39.5 12.5t33 17 t26.5 19t19 17t12 12.5l4 5l66 -106q-3 -6 -9.5 -15t-32.5 -32t-57 -40.5t-84 -32t-113 -14.5q-214 0 -333.5 98t-119.5 282zM552 944q0 43 19.5 85.5t55.5 75.5q56 47 129 47q72 0 119 -47q36 -42 36 -104q0 -30 -8 -58.5t-25 -55.5t-41 -48q-60 -47 -132 -47t-115 47 q-38 45 -38 105z" />
<glyph unicode="&#xc0;" horiz-adv-x="1357" d="M43 0l685 1451h341l248 -1451h-326l-67 407h-504l-190 -407h-187zM482 547h419l-104 683h-2zM614 1870l248 79l143 -328l-143 -38z" />
<glyph unicode="&#xc1;" horiz-adv-x="1357" d="M43 0l685 1451h341l248 -1451h-326l-67 407h-504l-190 -407h-187zM482 547h419l-104 683h-2zM784 1591l202 340l233 -69l-310 -290z" />
<glyph unicode="&#xc2;" horiz-adv-x="1357" d="M43 0l685 1451h341l248 -1451h-326l-67 407h-504l-190 -407h-187zM482 547h419l-104 683h-2zM601 1710l256 273h157l178 -273l-76 -100l-205 190l-261 -190z" />
<glyph unicode="&#xc3;" horiz-adv-x="1357" d="M43 0l685 1451h341l248 -1451h-326l-67 407h-504l-190 -407h-187zM482 547h419l-104 683h-2zM511 1708q5 8 13.5 21.5t37.5 48t61.5 61t83.5 48.5t105 22q45 0 84.5 -11t68 -26.5t55 -30.5t56.5 -26t62 -11q23 0 43.5 7.5t34 17.5t24 20.5t14.5 18.5l5 7l70 -78 q-4 -7 -10.5 -19t-31 -42t-53 -53.5t-77.5 -42.5t-103 -19q-48 0 -94.5 16.5t-77.5 36.5t-74.5 37t-85.5 17q-17 0 -33.5 -5.5t-30 -14.5t-26.5 -19.5t-22 -21.5t-16 -20t-11 -14l-3 -6z" />
<glyph unicode="&#xc4;" horiz-adv-x="1357" d="M43 0l685 1451h341l248 -1451h-326l-67 407h-504l-190 -407h-187zM482 547h419l-104 683h-2zM552 1732q0 38 16 75.5t46 65.5q48 38 110 38q58 0 96 -38q30 -43 30 -92q0 -83 -64 -141q-50 -40 -107 -40q-59 0 -96 40q-31 41 -31 92zM967 1732q0 38 16 75.5t46 65.5 q48 38 107 38q58 0 99 -38q30 -43 30 -92q0 -83 -64 -141q-50 -40 -110 -40q-61 0 -94 40q-30 39 -30 92z" />
<glyph unicode="&#xc5;" horiz-adv-x="1357" d="M43 0l685 1451h341l248 -1451h-326l-67 407h-504l-190 -407h-187zM482 547h419l-104 683h-2zM674 1728q0 36 6.5 69.5t19.5 61t31 51t41 41t49.5 29.5t56.5 18.5t62 6.5q91 0 149.5 -54t58.5 -149q0 -126 -74.5 -201.5t-191.5 -75.5q-96 0 -152 54t-56 149zM777 1741 q0 -59 33 -89.5t85 -30.5q69 0 110.5 44.5t41.5 127.5q0 58 -33.5 88t-84.5 30q-66 0 -109 -43.5t-43 -126.5z" />
<glyph unicode="&#xc6;" horiz-adv-x="1834" d="M-32 0l1012 1451h951l-20 -160h-563l-66 -479h495l-22 -156h-496l-69 -496h593l-24 -160h-900l59 420h-469l-285 -420h-196zM545 562h392l103 729h-15z" />
<glyph unicode="&#xc7;" horiz-adv-x="1285" d="M170 571q0 195 55 361.5t154.5 286t245.5 187.5t321 68q65 0 132.5 -13t117.5 -31t91 -36t62 -31l21 -12l-47 -163q-8 5 -22 13t-56.5 28t-84 35.5t-96.5 28.5t-102 13q-78 0 -145 -25t-126 -82.5t-100 -144.5t-65 -217.5t-24 -295.5q0 -104 24 -181t68 -124t105 -70 t138 -23q67 0 130.5 20.5t106.5 49.5t77 58t50 50l15 20l81 -107q-3 -5 -9.5 -14.5t-29.5 -36t-50.5 -51t-73 -54.5t-95.5 -51.5t-120.5 -36.5t-145.5 -15l-23 -105q-1 -2 8 -6t24 -9.5t33 -13.5t36.5 -22t34 -31t25 -42.5t9.5 -56.5q0 -109 -75 -179t-215 -70 q-34 0 -63 5.5t-49 14.5t-36 20t-25.5 22t-15.5 20t-8 15l-2 5l67 66q1 -3 4 -7.5t13 -15.5t21.5 -20t31 -16t41.5 -7q32 0 56.5 8.5t42 25.5t26.5 44t9 63q0 31 -18.5 52t-41.5 28t-42 11.5t-19 6.5l52 199q-244 25 -374 180.5t-130 410.5z" />
<glyph unicode="&#xc8;" d="M172 0l203 1451h871l-23 -160h-562l-67 -479h497l-24 -156h-494l-68 -496h592l-23 -160h-902zM576 1870l248 79l143 -328l-143 -38z" />
<glyph unicode="&#xc9;" d="M172 0l203 1451h871l-23 -160h-562l-67 -479h497l-24 -156h-494l-68 -496h592l-23 -160h-902zM746 1591l202 340l232 -69l-309 -290z" />
<glyph unicode="&#xca;" d="M172 0l203 1451h871l-23 -160h-562l-67 -479h497l-24 -156h-494l-68 -496h592l-23 -160h-902zM565 1710l257 273h156l178 -273l-76 -100l-205 190l-261 -190z" />
<glyph unicode="&#xcb;" d="M172 0l203 1451h871l-23 -160h-562l-67 -479h497l-24 -156h-494l-68 -496h592l-23 -160h-902zM480 1732q0 37 16.5 74.5t46.5 66.5q48 38 109 38q58 0 96 -38q31 -44 31 -92q0 -82 -65 -141q-50 -40 -107 -40q-59 0 -96 40q-31 41 -31 92zM895 1732q0 37 16.5 74.5 t46.5 66.5q48 38 107 38q57 0 98 -38q32 -44 32 -92q0 -82 -66 -141q-50 -40 -109 -40q-61 0 -94 40q-31 41 -31 92z" />
<glyph unicode="&#xcc;" horiz-adv-x="654" d="M172 0l203 1451h308l-203 -1451h-308zM252 1870l248 79l143 -328l-143 -38z" />
<glyph unicode="&#xcd;" horiz-adv-x="654" d="M172 0l203 1451h308l-203 -1451h-308zM422 1591l203 340l232 -69l-310 -290z" />
<glyph unicode="&#xce;" horiz-adv-x="654" d="M172 0l203 1451h308l-203 -1451h-308zM243 1710l257 273h156l179 -273l-76 -100l-205 190l-262 -190z" />
<glyph unicode="&#xcf;" horiz-adv-x="654" d="M172 0l203 1451h308l-203 -1451h-308zM190 1732q0 25 7 50t21 48.5t34 42.5q48 38 110 38q58 0 96 -38q31 -44 31 -92q0 -82 -65 -141q-50 -40 -107 -40q-59 0 -96 40q-31 41 -31 92zM605 1732q0 38 16 75.5t46 65.5q48 38 108 38q57 0 98 -38q31 -43 31 -92 q0 -83 -65 -141q-50 -40 -109 -40q-61 0 -93 40q-32 41 -32 92z" />
<glyph unicode="&#xd0;" horiz-adv-x="1468" d="M138 645l20 147h123l94 659h494q296 0 452.5 -149t156.5 -438q0 -270 -92 -463t-275 -297t-444 -104h-495l90 645h-124zM502 158h190q456 0 456 764q0 193 -73.5 282t-228.5 89h-185l-71 -501h319l-21 -147h-319z" />
<glyph unicode="&#xd1;" horiz-adv-x="1452" d="M172 0l203 1451h319l471 -984h7l-2 100l123 884h192l-203 -1451h-242l-538 1089h-4v-129l-134 -960h-192zM588 1708q4 8 12.5 21.5t37.5 48t61.5 61t84 48.5t104.5 22q46 0 85.5 -11t68 -26.5t54.5 -30.5t56.5 -26t61.5 -11q23 0 43.5 7.5t34 17.5t24 20.5t15.5 18.5l4 7 l69 -78q-3 -7 -10 -19t-31 -42t-53 -53.5t-77.5 -42.5t-103.5 -19q-48 0 -94 16.5t-77.5 36.5t-75 37t-85.5 17q-17 0 -33.5 -5.5t-30 -14.5t-26 -19.5t-21.5 -21.5t-16 -20t-10 -14l-4 -6z" />
<glyph unicode="&#xd2;" horiz-adv-x="1479" d="M170 578q0 155 31.5 291.5t95 247.5t153.5 190.5t212 123t267 43.5q121 0 219.5 -31.5t165 -86t111.5 -131t65.5 -163.5t20.5 -187q0 -201 -59 -371t-162 -285.5t-242.5 -179.5t-299.5 -64q-276 0 -427 160.5t-151 442.5zM496 502q0 -171 68.5 -269.5t198.5 -98.5 q59 0 111 18.5t100 57t85.5 102.5t65.5 151.5t43 208.5t15 268q0 82 -16 149t-47.5 117.5t-84 78t-122.5 27.5q-417 0 -417 -810zM665 1870l248 79l143 -328l-143 -38z" />
<glyph unicode="&#xd3;" horiz-adv-x="1479" d="M170 578q0 155 31.5 291.5t95 247.5t153.5 190.5t212 123t267 43.5q121 0 219.5 -31.5t165 -86t111.5 -131t65.5 -163.5t20.5 -187q0 -201 -59 -371t-162 -285.5t-242.5 -179.5t-299.5 -64q-276 0 -427 160.5t-151 442.5zM496 502q0 -171 68.5 -269.5t198.5 -98.5 q59 0 111 18.5t100 57t85.5 102.5t65.5 151.5t43 208.5t15 268q0 82 -16 149t-47.5 117.5t-84 78t-122.5 27.5q-417 0 -417 -810zM835 1591l203 340l232 -69l-310 -290z" />
<glyph unicode="&#xd4;" horiz-adv-x="1479" d="M170 578q0 155 31.5 291.5t95 247.5t153.5 190.5t212 123t267 43.5q121 0 219.5 -31.5t165 -86t111.5 -131t65.5 -163.5t20.5 -187q0 -201 -59 -371t-162 -285.5t-242.5 -179.5t-299.5 -64q-276 0 -427 160.5t-151 442.5zM496 502q0 -171 68.5 -269.5t198.5 -98.5 q59 0 111 18.5t100 57t85.5 102.5t65.5 151.5t43 208.5t15 268q0 82 -16 149t-47.5 117.5t-84 78t-122.5 27.5q-417 0 -417 -810zM656 1710l257 273h156l179 -273l-76 -100l-205 190l-262 -190z" />
<glyph unicode="&#xd5;" horiz-adv-x="1479" d="M170 578q0 155 31.5 291.5t95 247.5t153.5 190.5t212 123t267 43.5q121 0 219.5 -31.5t165 -86t111.5 -131t65.5 -163.5t20.5 -187q0 -201 -59 -371t-162 -285.5t-242.5 -179.5t-299.5 -64q-276 0 -427 160.5t-151 442.5zM496 502q0 -171 68.5 -269.5t198.5 -98.5 q59 0 111 18.5t100 57t85.5 102.5t65.5 151.5t43 208.5t15 268q0 82 -16 149t-47.5 117.5t-84 78t-122.5 27.5q-417 0 -417 -810zM562 1708q5 8 13.5 21.5t38 48t62 61t84 48.5t104.5 22q46 0 85.5 -11t68 -26.5t54.5 -30.5t56.5 -26t61.5 -11q23 0 43.5 7.5t34 17.5 t23.5 20.5t15 18.5l4 7l70 -78q-2 -3 -5 -9.5t-15.5 -25t-26.5 -35t-38 -37t-50.5 -35t-63 -24.5t-76.5 -10q-47 0 -93.5 16.5t-78 36.5t-75 37t-85.5 17q-17 0 -33.5 -5.5t-30 -14.5t-26 -19.5t-21.5 -21.5t-16 -20t-10 -14l-4 -6z" />
<glyph unicode="&#xd6;" horiz-adv-x="1479" d="M170 578q0 155 31.5 291.5t95 247.5t153.5 190.5t212 123t267 43.5q121 0 219.5 -31.5t165 -86t111.5 -131t65.5 -163.5t20.5 -187q0 -201 -59 -371t-162 -285.5t-242.5 -179.5t-299.5 -64q-276 0 -427 160.5t-151 442.5zM496 502q0 -171 68.5 -269.5t198.5 -98.5 q59 0 111 18.5t100 57t85.5 102.5t65.5 151.5t43 208.5t15 268q0 82 -16 149t-47.5 117.5t-84 78t-122.5 27.5q-417 0 -417 -810zM603 1732q0 38 16 75.5t46 65.5q48 38 110 38q58 0 96 -38q30 -43 30 -92q0 -83 -64 -141q-50 -40 -107 -40q-59 0 -96 40q-31 41 -31 92z M1018 1732q0 38 16 75.5t46 65.5q48 38 108 38q57 0 98 -38q31 -43 31 -92q0 -83 -65 -141q-50 -40 -109 -40q-61 0 -93 40q-32 41 -32 92z" />
<glyph unicode="&#xd7;" horiz-adv-x="943" d="M164 426l298 286l-219 289l125 128l224 -294l305 294l87 -128l-298 -289l218 -286l-127 -130l-221 292l-304 -292z" />
<glyph unicode="&#xd8;" horiz-adv-x="1479" d="M170 578q0 155 31.5 291.5t95 247.5t153.5 190.5t212 123t267 43.5q155 0 279 -54l113 201l89 -25l-124 -220q113 -78 169 -209t56 -292q0 -201 -59 -371t-162 -285.5t-242.5 -179.5t-299.5 -64q-119 0 -232 36l-141 -250l-89 24l147 264q-129 72 -196 206.5t-67 322.5z M496 502q0 -156 53 -248l552 976q-69 82 -188 82q-417 0 -417 -810zM611 181q60 -47 152 -47q59 0 111 18.5t100 57t85.5 102.5t65.5 151.5t43 208.5t15 268q0 108 -31 198z" />
<glyph unicode="&#xd9;" horiz-adv-x="1370" d="M217 409q0 61 9 117l129 925h310l-120 -855q-14 -101 -14 -168q0 -149 55 -216t168 -67q151 0 237.5 110t118.5 341l120 855h190l-129 -925q-19 -127 -61 -225.5t-114 -173t-181.5 -113.5t-253.5 -39q-231 0 -347.5 113t-116.5 321zM705 1870l248 79l144 -328l-144 -38z " />
<glyph unicode="&#xda;" horiz-adv-x="1370" d="M217 409q0 61 9 117l129 925h310l-120 -855q-14 -101 -14 -168q0 -149 55 -216t168 -67q151 0 237.5 110t118.5 341l120 855h190l-129 -925q-19 -127 -61 -225.5t-114 -173t-181.5 -113.5t-253.5 -39q-231 0 -347.5 113t-116.5 321zM806 1591l203 340l233 -69l-311 -290z " />
<glyph unicode="&#xdb;" horiz-adv-x="1370" d="M217 409q0 61 9 117l129 925h310l-120 -855q-14 -101 -14 -168q0 -149 55 -216t168 -67q151 0 237.5 110t118.5 341l120 855h190l-129 -925q-19 -127 -61 -225.5t-114 -173t-181.5 -113.5t-253.5 -39q-231 0 -347.5 113t-116.5 321zM658 1710l258 273h155l179 -273 l-76 -100l-205 190l-262 -190z" />
<glyph unicode="&#xdc;" horiz-adv-x="1370" d="M217 409q0 61 9 117l129 925h310l-120 -855q-14 -101 -14 -168q0 -149 55 -216t168 -67q151 0 237.5 110t118.5 341l120 855h190l-129 -925q-19 -127 -61 -225.5t-114 -173t-181.5 -113.5t-253.5 -39q-231 0 -347.5 113t-116.5 321zM603 1732q0 38 16 75.5t46 65.5 q48 38 110 38q58 0 96 -38q30 -43 30 -92q0 -83 -64 -141q-50 -40 -107 -40q-59 0 -96 40q-31 41 -31 92zM1018 1732q0 38 16 75.5t46 65.5q48 38 108 38q57 0 98 -38q31 -43 31 -92q0 -83 -65 -141q-50 -40 -109 -40q-61 0 -93 40q-32 41 -32 92z" />
<glyph unicode="&#xdd;" horiz-adv-x="1167" d="M187 1451h346l228 -659h2l407 659h214l-558 -855l-80 -596h-311l78 560zM732 1591l203 340l232 -69l-310 -290z" />
<glyph unicode="&#xde;" horiz-adv-x="1253" d="M219 0l203 1451h308l-29 -201h147q221 0 340.5 -101t119.5 -310q0 -94 -19.5 -177t-54 -146t-81 -115t-100 -87.5t-112.5 -60t-117 -35.5t-114 -11h-154l-30 -207h-307zM576 358h131q49 0 90.5 14.5t78.5 51t63 93.5t41 145t15 202q0 127 -46.5 180t-136.5 53h-131z" />
<glyph unicode="&#xdf;" horiz-adv-x="1303" d="M-187 -516l66 134l16.5 -11t40.5 -19t57 -12q49 0 82.5 32.5t59.5 111.5t46 216l172 1234q20 138 68 240.5t120.5 164.5t163 91.5t201.5 29.5q184 0 286.5 -76t102.5 -212q0 -68 -22 -126t-60.5 -99t-80.5 -69t-92 -49q287 -87 287 -420q0 -171 -39 -300.5t-111 -210 t-170 -120t-221 -39.5q-49 0 -90 5t-65 12.5t-41 15t-23 12.5l-7 5l54 141q4 -4 13 -9t41.5 -14t70.5 -9q42 0 81 19t74.5 62.5t62 107t42 158.5t15.5 211q0 146 -59.5 205t-195.5 59l23 160l12 3t30 11.5t42.5 22t45.5 36t43 52t30 71t12 92.5q0 143 -128 143 q-46 0 -79.5 -19.5t-60 -64.5t-45.5 -116t-34 -177l-173 -1234q-19 -139 -63 -241.5t-107 -162t-137 -87.5t-161 -28q-40 0 -75 7t-56.5 17t-37 20t-21.5 16z" />
<glyph unicode="&#xe0;" horiz-adv-x="1209" d="M132 435q0 99 19 191t54 170t86.5 142t115 109t140 69.5t160.5 24.5q58 0 104.5 -9.5t72.5 -23t43 -26.5t23 -23l6 -9h9l53 66h219l-157 -1116h-228l-34 98h-3q-2 -5 -8 -13.5t-29.5 -29.5t-53.5 -37t-84 -29.5t-118 -13.5q-117 0 -205 55t-136.5 159.5t-48.5 245.5z M445 390q0 -241 173 -241q41 0 78 12.5t61.5 31.5t37.5 32.5t20 24.5l91 632l-1 2q-4 8 -8 15t-16.5 22t-28.5 24.5t-43.5 17.5t-60.5 8q-142 0 -222.5 -145.5t-80.5 -435.5zM547 1570l248 77l142 -328l-142 -37z" />
<glyph unicode="&#xe1;" horiz-adv-x="1209" d="M132 435q0 99 19 191t54 170t86.5 142t115 109t140 69.5t160.5 24.5q58 0 104.5 -9.5t72.5 -23t43 -26.5t23 -23l6 -9h9l53 66h219l-157 -1116h-228l-34 98h-3q-2 -5 -8 -13.5t-29.5 -29.5t-53.5 -37t-84 -29.5t-118 -13.5q-117 0 -205 55t-136.5 159.5t-48.5 245.5z M445 390q0 -241 173 -241q41 0 78 12.5t61.5 31.5t37.5 32.5t20 24.5l91 632l-1 2q-4 8 -8 15t-16.5 22t-28.5 24.5t-43.5 17.5t-60.5 8q-142 0 -222.5 -145.5t-80.5 -435.5zM718 1291l204 339l232 -69l-310 -291z" />
<glyph unicode="&#xe2;" horiz-adv-x="1209" d="M132 435q0 99 19 191t54 170t86.5 142t115 109t140 69.5t160.5 24.5q58 0 104.5 -9.5t72.5 -23t43 -26.5t23 -23l6 -9h9l53 66h219l-157 -1116h-228l-34 98h-3q-2 -5 -8 -13.5t-29.5 -29.5t-53.5 -37t-84 -29.5t-118 -13.5q-117 0 -205 55t-136.5 159.5t-48.5 245.5z M445 390q0 -241 173 -241q41 0 78 12.5t61.5 31.5t37.5 32.5t20 24.5l91 632l-1 2q-4 8 -8 15t-16.5 22t-28.5 24.5t-43.5 17.5t-60.5 8q-142 0 -222.5 -145.5t-80.5 -435.5zM541 1408l256 273h156l178 -273l-75 -100l-206 190l-260 -190z" />
<glyph unicode="&#xe3;" horiz-adv-x="1209" d="M132 435q0 99 19 191t54 170t86.5 142t115 109t140 69.5t160.5 24.5q58 0 104.5 -9.5t72.5 -23t43 -26.5t23 -23l6 -9h9l53 66h219l-157 -1116h-228l-34 98h-3q-2 -5 -8 -13.5t-29.5 -29.5t-53.5 -37t-84 -29.5t-118 -13.5q-117 0 -205 55t-136.5 159.5t-48.5 245.5z M443 1406q4 8 12.5 21.5t37.5 48.5t61.5 61.5t84 48.5t104.5 22q46 0 85.5 -11t68 -26.5t54.5 -31t56.5 -26.5t61.5 -11q23 0 43.5 7.5t34 18t24 21t15.5 18.5l4 7l69 -79q-2 -3 -5 -9.5t-15.5 -25t-26.5 -35t-38 -37t-50.5 -35t-63 -24.5t-76.5 -10q-47 0 -93.5 17t-78 37 t-75 37t-85.5 17q-13 0 -26 -3.5t-24.5 -9.5t-22 -13.5t-19.5 -15.5t-16.5 -16.5t-13.5 -16t-10.5 -13.5t-6.5 -9l-2 -3zM445 390q0 -241 173 -241q41 0 78 12.5t61.5 31.5t37.5 32.5t20 24.5l91 632l-1 2q-4 8 -8 15t-16.5 22t-28.5 24.5t-43.5 17.5t-60.5 8 q-142 0 -222.5 -145.5t-80.5 -435.5z" />
<glyph unicode="&#xe4;" horiz-adv-x="1209" d="M132 435q0 99 19 191t54 170t86.5 142t115 109t140 69.5t160.5 24.5q58 0 104.5 -9.5t72.5 -23t43 -26.5t23 -23l6 -9h9l53 66h219l-157 -1116h-228l-34 98h-3q-2 -5 -8 -13.5t-29.5 -29.5t-53.5 -37t-84 -29.5t-118 -13.5q-117 0 -205 55t-136.5 159.5t-48.5 245.5z M445 390q0 -241 173 -241q41 0 78 12.5t61.5 31.5t37.5 32.5t20 24.5l91 632l-1 2q-4 8 -8 15t-16.5 22t-28.5 24.5t-43.5 17.5t-60.5 8q-142 0 -222.5 -145.5t-80.5 -435.5zM482 1431q0 37 16.5 74.5t46.5 66.5q48 38 109 38q58 0 96 -38q32 -44 32 -92q0 -82 -66 -140 q-50 -41 -107 -41q-59 0 -96 41q-31 40 -31 91zM897 1431q0 37 16.5 74.5t46.5 66.5q48 38 107 38q57 0 98 -38q32 -44 32 -92q0 -82 -66 -140q-50 -41 -109 -41q-61 0 -93 41q-32 40 -32 91z" />
<glyph unicode="&#xe5;" horiz-adv-x="1209" d="M132 435q0 99 19 191t54 170t86.5 142t115 109t140 69.5t160.5 24.5q58 0 104.5 -9.5t72.5 -23t43 -26.5t23 -23l6 -9h9l53 66h219l-157 -1116h-228l-34 98h-3q-2 -5 -8 -13.5t-29.5 -29.5t-53.5 -37t-84 -29.5t-118 -13.5q-117 0 -205 55t-136.5 159.5t-48.5 245.5z M445 390q0 -241 173 -241q41 0 78 12.5t61.5 31.5t37.5 32.5t20 24.5l91 632l-1 2q-4 8 -8 15t-16.5 22t-28.5 24.5t-43.5 17.5t-60.5 8q-142 0 -222.5 -145.5t-80.5 -435.5zM609 1427q0 85 35.5 148.5t95.5 96t135 32.5q60 0 106.5 -23.5t73.5 -70.5t27 -110 q0 -126 -74 -201.5t-190 -75.5q-48 0 -87 14t-65.5 40t-41.5 64t-15 86zM712 1440q0 -58 33 -89.5t86 -31.5q45 0 78.5 19t53 58.5t19.5 94.5q0 58 -33 88.5t-85 30.5q-66 0 -109 -43.5t-43 -126.5z" />
<glyph unicode="&#xe6;" horiz-adv-x="1689" d="M132 435q0 150 43 279t121.5 224t195 149t256.5 54q58 0 106.5 -10.5t76.5 -26t48 -30.5t27 -26l8 -10h11q146 100 334 100q88 0 160 -24.5t118.5 -67t71.5 -99t25 -121.5q0 -54 -15.5 -100.5t-40.5 -80t-64 -61t-79 -45.5t-91.5 -31t-96 -20t-99.5 -11t-93.5 -5 t-85.5 -1q-2 -32 -2 -98q0 -69 17 -118.5t49.5 -77t73.5 -40t94 -12.5q49 0 94 12.5t75 30.5t53 36t34 31l10 12l90 -79q-3 -4 -8 -11t-23 -27t-39 -38.5t-57 -40.5t-75.5 -38t-95 -27t-115.5 -11q-123 0 -222 37.5t-163 112.5h-9q-3 -6 -8.5 -16t-29.5 -36t-54.5 -46 t-85.5 -36t-120 -16q-131 0 -226 55.5t-144.5 159t-49.5 245.5zM445 390q0 -124 46.5 -182.5t138.5 -58.5q39 0 74 13t56.5 28.5t38.5 35.5q-38 88 -38 209q0 287 134 474q-50 62 -147 62q-142 0 -222.5 -145.5t-80.5 -435.5zM1078 598q40 0 71 1.5t69 5.5t66.5 12t59 20.5 t52 32t39 45t26 61t8.5 79.5q0 68 -37 104t-109 36q-94 0 -158 -99.5t-87 -297.5z" />
<glyph unicode="&#xe7;" horiz-adv-x="995" d="M134 451q0 206 73.5 362t214 242t330.5 86q46 0 97 -11t90 -26.5t71.5 -31t50.5 -26.5l17 -10l-42 -143q-6 4 -17 10.5t-41.5 23.5t-59.5 30t-66 23.5t-66 10.5q-167 0 -251 -154t-84 -453q0 -71 18 -123t49 -80.5t68 -42t81 -13.5q50 0 94 14.5t72.5 35t49.5 40.5t30 35 l9 14l96 -68l-6 -12t-20 -31t-35.5 -44t-53.5 -46.5t-73 -44t-96 -31t-120 -12.5h-13l-23 -105q-1 -2 8 -6t24 -9.5t33 -13.5t36.5 -22t34 -31t25 -42.5t9.5 -56.5q0 -109 -75 -179t-215 -70q-47 0 -84.5 10.5t-57.5 25.5t-34 30t-18 26l-5 10l67 66q1 -3 4 -7.5t12.5 -15.5 t21.5 -20t31.5 -16t41.5 -7q64 0 99 34.5t35 106.5q0 31 -18.5 52t-41 28t-41.5 11.5t-19 6.5l51 204q-174 29 -271 149t-97 317z" />
<glyph unicode="&#xe8;" horiz-adv-x="1057" d="M132 435q0 111 20.5 208.5t58.5 174.5t92 137.5t120.5 100.5t144 61t162.5 21q88 0 160 -24.5t118.5 -67t71.5 -99t25 -121.5q0 -54 -15.5 -100.5t-40.5 -80t-64 -61t-79 -45.5t-92 -31t-96.5 -20t-99.5 -11t-93.5 -5t-85.5 -1q-2 -32 -2 -98q0 -56 11.5 -98.5 t31.5 -70.5t50 -46t64.5 -25.5t76.5 -7.5q49 0 94 12.5t75 30.5t53 36t34 31l10 12l90 -79q-3 -4 -8 -11t-23 -27t-39 -38.5t-57 -40.5t-75.5 -38t-95 -27t-115.5 -11q-105 0 -191.5 27.5t-152 82t-102 144t-36.5 206.5zM449 598q46 0 81 2t78 8t74 16.5t62.5 30t51 46 t31.5 65.5t12 89q0 69 -36.5 104.5t-108.5 35.5q-94 0 -158 -99.5t-87 -297.5zM467 1570l247 77l143 -328l-143 -37z" />
<glyph unicode="&#xe9;" horiz-adv-x="1057" d="M132 435q0 111 20.5 208.5t58.5 174.5t92 137.5t120.5 100.5t144 61t162.5 21q88 0 160 -24.5t118.5 -67t71.5 -99t25 -121.5q0 -54 -15.5 -100.5t-40.5 -80t-64 -61t-79 -45.5t-92 -31t-96.5 -20t-99.5 -11t-93.5 -5t-85.5 -1q-2 -32 -2 -98q0 -56 11.5 -98.5 t31.5 -70.5t50 -46t64.5 -25.5t76.5 -7.5q49 0 94 12.5t75 30.5t53 36t34 31l10 12l90 -79q-3 -4 -8 -11t-23 -27t-39 -38.5t-57 -40.5t-75.5 -38t-95 -27t-115.5 -11q-105 0 -191.5 27.5t-152 82t-102 144t-36.5 206.5zM449 598q46 0 81 2t78 8t74 16.5t62.5 30t51 46 t31.5 65.5t12 89q0 69 -36.5 104.5t-108.5 35.5q-94 0 -158 -99.5t-87 -297.5zM639 1291l202 339l233 -69l-311 -291z" />
<glyph unicode="&#xea;" horiz-adv-x="1057" d="M132 435q0 111 20.5 208.5t58.5 174.5t92 137.5t120.5 100.5t144 61t162.5 21q88 0 160 -24.5t118.5 -67t71.5 -99t25 -121.5q0 -54 -15.5 -100.5t-40.5 -80t-64 -61t-79 -45.5t-92 -31t-96.5 -20t-99.5 -11t-93.5 -5t-85.5 -1q-2 -32 -2 -98q0 -56 11.5 -98.5 t31.5 -70.5t50 -46t64.5 -25.5t76.5 -7.5q49 0 94 12.5t75 30.5t53 36t34 31l10 12l90 -79q-3 -4 -8 -11t-23 -27t-39 -38.5t-57 -40.5t-75.5 -38t-95 -27t-115.5 -11q-105 0 -191.5 27.5t-152 82t-102 144t-36.5 206.5zM449 598q46 0 81 2t78 8t74 16.5t62.5 30t51 46 t31.5 65.5t12 89q0 69 -36.5 104.5t-108.5 35.5q-94 0 -158 -99.5t-87 -297.5zM462 1408l256 273h157l179 -273l-76 -100l-205 190l-262 -190z" />
<glyph unicode="&#xeb;" horiz-adv-x="1057" d="M132 435q0 111 20.5 208.5t58.5 174.5t92 137.5t120.5 100.5t144 61t162.5 21q88 0 160 -24.5t118.5 -67t71.5 -99t25 -121.5q0 -54 -15.5 -100.5t-40.5 -80t-64 -61t-79 -45.5t-92 -31t-96.5 -20t-99.5 -11t-93.5 -5t-85.5 -1q-2 -32 -2 -98q0 -56 11.5 -98.5 t31.5 -70.5t50 -46t64.5 -25.5t76.5 -7.5q49 0 94 12.5t75 30.5t53 36t34 31l10 12l90 -79q-3 -4 -8 -11t-23 -27t-39 -38.5t-57 -40.5t-75.5 -38t-95 -27t-115.5 -11q-105 0 -191.5 27.5t-152 82t-102 144t-36.5 206.5zM402 1431q0 38 16.5 75.5t45.5 65.5q48 38 109 38 q58 0 96 -38q32 -44 32 -92q0 -83 -64 -140q-50 -41 -108 -41q-59 0 -96 41q-31 39 -31 91zM449 598q46 0 81 2t78 8t74 16.5t62.5 30t51 46t31.5 65.5t12 89q0 69 -36.5 104.5t-108.5 35.5q-94 0 -158 -99.5t-87 -297.5zM818 1431q0 38 16 75.5t46 65.5q48 38 106 38 q57 0 99 -38q31 -44 31 -92q0 -83 -64 -140q-50 -41 -110 -41q-62 0 -94 41q-30 39 -30 91z" />
<glyph unicode="&#xec;" horiz-adv-x="554" d="M130 0l156 1116h297l-157 -1116h-296zM179 1570l247 77l143 -328l-143 -37z" />
<glyph unicode="&#xed;" horiz-adv-x="554" d="M130 0l156 1116h297l-157 -1116h-296zM351 1291l203 339l232 -69l-311 -291z" />
<glyph unicode="&#xee;" horiz-adv-x="554" d="M130 0l156 1116h297l-157 -1116h-296zM183 1408l256 273h157l179 -273l-76 -100l-205 190l-262 -190z" />
<glyph unicode="&#xef;" horiz-adv-x="554" d="M123 1431q0 25 7 50t21 48.5t34 42.5q48 38 109 38q58 0 96 -38q32 -44 32 -92q0 -83 -64 -140q-50 -41 -108 -41q-59 0 -96 41q-31 39 -31 91zM130 0l156 1116h297l-157 -1116h-296zM538 1431q0 38 16.5 75.5t46.5 65.5q48 38 106 38q57 0 99 -38q31 -44 31 -92 q0 -83 -64 -140q-50 -41 -110 -41q-62 0 -94 41q-31 39 -31 91z" />
<glyph unicode="&#xf0;" horiz-adv-x="1187" d="M134 437q0 141 29.5 257t82.5 197.5t126 137.5t159 82.5t183 26.5q104 0 190 -47q-37 167 -133 306l-230 -121l-30 94l196 104q-50 53 -124 109l143 83q90 -50 151 -103l188 98l29 -94l-144 -76q119 -131 185 -312t66 -397q0 -66 -6 -137q-34 -323 -191.5 -496.5 t-420.5 -173.5q-112 0 -199.5 36.5t-141 100.5t-81 146.5t-27.5 178.5zM439 368q0 -249 172 -249q277 0 277 627q0 80 -19 135t-57.5 83.5t-95.5 28.5q-277 0 -277 -625z" />
<glyph unicode="&#xf1;" horiz-adv-x="1191" d="M130 0l156 1116h238l28 -89h6l11.5 11.5t36 27t62.5 34t91 26.5t121 12q152 0 228.5 -70.5t76.5 -217.5q0 -43 -7 -94l-104 -756h-297q92 666 103 732q6 48 6 83q0 41 -8.5 68t-26.5 42t-42 21.5t-59 6.5q-39 0 -77 -11t-64.5 -27t-40 -26t-19.5 -16l-123 -873h-296z M373 1406q4 8 12.5 21.5t38 48.5t61.5 61.5t83.5 48.5t105.5 22q45 0 84.5 -11t68 -26.5t55 -31t57 -26.5t62.5 -11q22 0 43 7.5t34 18t23 21t15 18.5l5 7l69 -79q-3 -7 -9.5 -19t-31 -42t-53.5 -53.5t-77.5 -42.5t-102.5 -19q-48 0 -94.5 17t-78 37t-74.5 37t-86 17 q-16 0 -33 -5.5t-30.5 -14.5t-25.5 -19.5t-21.5 -21.5t-16 -19.5t-10.5 -14.5l-3 -5z" />
<glyph unicode="&#xf2;" horiz-adv-x="1171" d="M134 435q0 212 71.5 371t210.5 247t330 88q208 0 328.5 -120t120.5 -340q0 -212 -76.5 -372.5t-215.5 -247t-323 -86.5q-208 0 -327 120t-119 340zM443 355q0 -232 168 -232q132 0 203.5 158t71.5 480q0 113 -40.5 171.5t-129.5 58.5q-132 0 -202.5 -156.5t-70.5 -479.5z M464 1570l248 77l143 -328l-143 -37z" />
<glyph unicode="&#xf3;" horiz-adv-x="1171" d="M134 435q0 212 71.5 371t210.5 247t330 88q208 0 328.5 -120t120.5 -340q0 -212 -76.5 -372.5t-215.5 -247t-323 -86.5q-208 0 -327 120t-119 340zM443 355q0 -232 168 -232q132 0 203.5 158t71.5 480q0 113 -40.5 171.5t-129.5 58.5q-132 0 -202.5 -156.5t-70.5 -479.5z M637 1291l202 339l232 -69l-310 -291z" />
<glyph unicode="&#xf4;" horiz-adv-x="1171" d="M134 435q0 212 71.5 371t210.5 247t330 88q208 0 328.5 -120t120.5 -340q0 -212 -76.5 -372.5t-215.5 -247t-323 -86.5q-208 0 -327 120t-119 340zM443 355q0 -232 168 -232q132 0 203.5 158t71.5 480q0 113 -40.5 171.5t-129.5 58.5q-132 0 -202.5 -156.5t-70.5 -479.5z M458 1408l256 273h157l179 -273l-77 -100l-205 190l-261 -190z" />
<glyph unicode="&#xf5;" horiz-adv-x="1171" d="M134 435q0 212 71.5 371t210.5 247t330 88q208 0 328.5 -120t120.5 -340q0 -212 -76.5 -372.5t-215.5 -247t-323 -86.5q-208 0 -327 120t-119 340zM358 1406q4 8 12.5 21.5t37.5 48.5t61.5 61.5t84 48.5t104.5 22q46 0 85.5 -11t68 -26.5t54.5 -31t56.5 -26.5t61.5 -11 q23 0 43.5 7.5t34 18t24 21t15.5 18.5l4 7l69 -79q-3 -7 -10 -19t-31 -42t-53 -53.5t-77.5 -42.5t-103.5 -19q-48 0 -94 17t-77.5 37t-75 37t-85.5 17q-17 0 -33.5 -5.5t-30 -14.5t-26 -19.5t-21.5 -21.5t-16 -19.5t-10 -14.5l-4 -5zM443 355q0 -232 168 -232 q132 0 203.5 158t71.5 480q0 113 -40.5 171.5t-129.5 58.5q-132 0 -202.5 -156.5t-70.5 -479.5z" />
<glyph unicode="&#xf6;" horiz-adv-x="1171" d="M134 435q0 212 71.5 371t210.5 247t330 88q208 0 328.5 -120t120.5 -340q0 -212 -76.5 -372.5t-215.5 -247t-323 -86.5q-208 0 -327 120t-119 340zM400 1431q0 38 16 75.5t46 65.5q48 38 109 38q58 0 96 -38q32 -44 32 -92q0 -83 -65 -140q-50 -41 -108 -41t-95 41 q-31 39 -31 91zM443 355q0 -232 168 -232q132 0 203.5 158t71.5 480q0 113 -40.5 171.5t-129.5 58.5q-132 0 -202.5 -156.5t-70.5 -479.5zM815 1431q0 38 16.5 75.5t45.5 65.5q49 38 107 38q57 0 98 -38q32 -44 32 -92q0 -83 -64 -140q-50 -41 -110 -41q-62 0 -94 41 q-31 39 -31 91z" />
<glyph unicode="&#xf7;" d="M141 509l23 165h1035l-23 -165h-1035zM428 143q0 42 20 85t57 76q56 47 129 47q71 0 118 -47q36 -42 36 -106q0 -44 -19 -86.5t-55 -73.5q-60 -47 -131 -47q-73 0 -116 47q-39 45 -39 105zM547 986q0 43 19.5 86t55.5 76q57 47 130 47q72 0 119 -47q35 -41 35 -106 q0 -45 -18.5 -87t-54.5 -73q-60 -47 -132 -47t-116 47q-38 45 -38 104z" />
<glyph unicode="&#xf8;" horiz-adv-x="1180" d="M105 -384l221 420q-93 56 -142.5 157t-49.5 242q0 212 71.5 371t210.5 247t330 88q79 0 153 -20l175 330l125 -24l-187 -356q88 -58 135.5 -156.5t47.5 -233.5q0 -212 -76.5 -372.5t-215.5 -247t-323 -86.5q-68 0 -141 18l-211 -402zM443 355q0 -49 6 -87l366 694 q-40 29 -99 29q-132 0 -202.5 -156.5t-70.5 -479.5zM520 145q36 -22 91 -22q132 0 203.5 158t71.5 480q0 28 -4 67z" />
<glyph unicode="&#xf9;" horiz-adv-x="1191" d="M164 264q0 43 6 94l107 758h296l-98 -696q-8 -57 -8 -109q0 -84 31 -117.5t96 -33.5q33 0 66.5 9t57.5 21.5t43 25t28 20.5l10 9l121 871h296l-155 -1116h-239l-30 98h-4q-4 -5 -11.5 -13.5t-35.5 -29.5t-61.5 -37t-90.5 -29.5t-120 -13.5q-305 0 -305 289zM505 1570 l247 77l143 -328l-143 -37z" />
<glyph unicode="&#xfa;" horiz-adv-x="1191" d="M164 264q0 43 6 94l107 758h296l-98 -696q-8 -57 -8 -109q0 -84 31 -117.5t96 -33.5q33 0 66.5 9t57.5 21.5t43 25t28 20.5l10 9l121 871h296l-155 -1116h-239l-30 98h-4q-4 -5 -11.5 -13.5t-35.5 -29.5t-61.5 -37t-90.5 -29.5t-120 -13.5q-305 0 -305 289zM677 1291 l203 339l232 -69l-311 -291z" />
<glyph unicode="&#xfb;" horiz-adv-x="1191" d="M164 264q0 43 6 94l107 758h296l-98 -696q-8 -57 -8 -109q0 -84 31 -117.5t96 -33.5q33 0 66.5 9t57.5 21.5t43 25t28 20.5l10 9l121 871h296l-155 -1116h-239l-30 98h-4q-4 -5 -11.5 -13.5t-35.5 -29.5t-61.5 -37t-90.5 -29.5t-120 -13.5q-305 0 -305 289zM498 1408 l256 273h157l178 -273l-75 -100l-206 190l-261 -190z" />
<glyph unicode="&#xfc;" horiz-adv-x="1191" d="M164 264q0 43 6 94l107 758h296l-98 -696q-8 -57 -8 -109q0 -84 31 -117.5t96 -33.5q33 0 66.5 9t57.5 21.5t43 25t28 20.5l10 9l121 871h296l-155 -1116h-239l-30 98h-4q-4 -5 -11.5 -13.5t-35.5 -29.5t-61.5 -37t-90.5 -29.5t-120 -13.5q-305 0 -305 289zM439 1431 q0 37 17 74.5t46 66.5q49 38 109 38q58 0 96 -38q32 -44 32 -92q0 -82 -65 -140q-50 -41 -107 -41q-59 0 -96 41q-32 40 -32 91zM855 1431q0 37 16.5 74.5t46.5 66.5q48 38 107 38q56 0 98 -38q31 -44 31 -92q0 -82 -65 -140q-50 -41 -109 -41q-62 0 -94 41q-31 40 -31 91z " />
<glyph unicode="&#xfd;" horiz-adv-x="1088" d="M-20 -549l47 174q52 -25 109 -25q53 0 97.5 20t87 67.5t81 109t90.5 158.5l-311 1161h357l163 -790l341 790h183l-548 -1141q-53 -109 -97.5 -189t-96.5 -153t-102.5 -118t-109.5 -71.5t-124 -26.5q-51 0 -93 8.5t-58 16.5zM647 1291l203 339l232 -69l-309 -291z" />
<glyph unicode="&#xfe;" horiz-adv-x="1206" d="M47 -567l78 567l235 1666l298 17l-91 -650h11q3 5 8.5 12t28.5 25t51.5 31.5t77.5 25t106 11.5q175 0 280 -122t105 -330q0 -148 -39.5 -278t-111.5 -226t-178.5 -151.5t-234.5 -55.5q-150 0 -243 68l-85 -601zM453 215q3 -5 7 -11t17 -17.5t29.5 -20t45.5 -15t64 -6.5 q70 0 125 34t96 104.5t63 185.5t22 270q0 228 -176 228q-44 0 -83 -16t-64.5 -39.5t-38 -37.5t-17.5 -24z" />
<glyph unicode="&#xff;" horiz-adv-x="1088" d="M-20 -549l47 174q52 -25 109 -25q53 0 97.5 20t87 67.5t81 109t90.5 158.5l-311 1161h357l163 -790l341 790h183l-548 -1141q-53 -109 -97.5 -189t-96.5 -153t-102.5 -118t-109.5 -71.5t-124 -26.5q-51 0 -93 8.5t-58 16.5zM411 1431q0 38 16 75.5t46 65.5q48 38 110 38 q58 0 96 -38q31 -43 31 -92q0 -83 -65 -140q-50 -41 -107 -41q-58 0 -95 41q-32 40 -32 91zM826 1431q0 38 16.5 75.5t45.5 65.5q48 38 107 38q58 0 99 -38q31 -43 31 -92q0 -83 -64 -140q-50 -41 -111 -41t-93 41q-31 39 -31 91z" />
<glyph unicode="&#x152;" horiz-adv-x="2073" d="M170 578q0 155 31.5 291.5t95 247.5t153.5 190.5t212 123t267 43.5q202 0 339 -88l8 65h873l-21 -160h-563l-54 -385v-31q0 -11 -1 -32t-1 -31h485l-23 -156h-480q-13 -74 -36 -143l-49 -353h594l-22 -160h-904l6 53q-153 -78 -332 -78q-276 0 -427 160.5t-151 442.5z M496 502q0 -171 68.5 -269.5t198.5 -98.5q46 0 88 11t82 34.5t74.5 61.5t63 89.5t51 121.5t37.5 155l11 83v11q13 108 13 239q0 82 -16 149t-47.5 117.5t-84 78t-122.5 27.5q-417 0 -417 -810z" />
<glyph unicode="&#x153;" horiz-adv-x="1800" d="M134 435q0 212 71.5 371t210.5 247t330 88q225 0 345 -140q74 67 172.5 102t210.5 35q88 0 159.5 -24.5t118 -67t72 -99t25.5 -121.5q0 -69 -25.5 -125t-64.5 -92.5t-99 -63.5t-115 -40.5t-127.5 -21.5t-122.5 -10t-112 -2q-3 -32 -3 -98q0 -56 11.5 -98.5t32 -70.5 t50.5 -46t64 -25.5t77 -7.5q48 0 93 12.5t75 30.5t53 36t34 31l11 12l89 -79q-2 -4 -7 -11t-23 -27t-39.5 -38.5t-57.5 -40.5t-75.5 -38t-95 -27t-115.5 -11q-120 0 -217.5 36t-161.5 108q-161 -144 -398 -144q-208 0 -327 120t-119 340zM443 355q0 -232 168 -232 q132 0 203.5 158t71.5 480q0 113 -40.5 171.5t-129.5 58.5q-132 0 -202.5 -156.5t-70.5 -479.5zM1192 598q47 0 82 2t77.5 8t73.5 16.5t62.5 30t51 46t32 65.5t12.5 89q0 69 -37 104.5t-108 35.5q-95 0 -158.5 -99.5t-87.5 -297.5z" />
<glyph unicode="&#x178;" horiz-adv-x="1167" d="M187 1451h346l228 -659h2l407 659h214l-558 -855l-80 -596h-311l78 560zM511 1732q0 38 16.5 75.5t45.5 65.5q48 38 110 38q58 0 96 -38q31 -43 31 -92q0 -83 -64 -141q-50 -40 -107 -40q-59 0 -96 40q-32 41 -32 92zM926 1732q0 38 16.5 75.5t46.5 65.5q48 38 108 38 q56 0 98 -38q30 -43 30 -92q0 -83 -64 -141q-50 -40 -109 -40q-62 0 -94 40q-32 41 -32 92z" />
<glyph unicode="&#x2c6;" horiz-adv-x="796" d="M299 1408l257 273h156l179 -273l-76 -100l-206 190l-261 -190z" />
<glyph unicode="&#x2dc;" horiz-adv-x="954" d="M277 1406q4 8 12.5 21.5t38 48.5t61.5 61.5t83.5 48.5t105.5 22q45 0 84.5 -11t68 -26.5t55 -31t56.5 -26.5t62 -11q22 0 43 7.5t34.5 18t23.5 21t15 18.5l5 7l69 -79q-3 -7 -9.5 -19t-31 -42t-53.5 -53.5t-77.5 -42.5t-102.5 -19q-48 0 -94.5 17t-78 37t-75.5 37t-86 17 q-16 0 -33 -5.5t-30.5 -14.5t-25.5 -19.5t-21.5 -21.5t-16.5 -19.5t-10 -14.5l-3 -5z" />
<glyph unicode="&#x2000;" horiz-adv-x="1002" />
<glyph unicode="&#x2001;" horiz-adv-x="2005" />
<glyph unicode="&#x2002;" horiz-adv-x="1002" />
<glyph unicode="&#x2003;" horiz-adv-x="2005" />
<glyph unicode="&#x2004;" horiz-adv-x="668" />
<glyph unicode="&#x2005;" horiz-adv-x="501" />
<glyph unicode="&#x2006;" horiz-adv-x="334" />
<glyph unicode="&#x2007;" horiz-adv-x="334" />
<glyph unicode="&#x2008;" horiz-adv-x="250" />
<glyph unicode="&#x2009;" horiz-adv-x="401" />
<glyph unicode="&#x200a;" horiz-adv-x="111" />
<glyph unicode="&#x2010;" horiz-adv-x="742" d="M145 531l23 166h605l-23 -166h-605z" />
<glyph unicode="&#x2011;" horiz-adv-x="742" d="M145 531l23 166h605l-23 -166h-605z" />
<glyph unicode="&#x2012;" horiz-adv-x="742" d="M145 531l23 166h605l-23 -166h-605z" />
<glyph unicode="&#x2013;" d="M143 531l23 166h1035l-23 -166h-1035z" />
<glyph unicode="&#x2014;" horiz-adv-x="1512" d="M143 531l23 166h1379l-22 -166h-1380z" />
<glyph unicode="&#x2018;" horiz-adv-x="403" d="M201 1131q0 87 45.5 195.5t120.5 206t159 159.5l66 -82q-86 -67 -147.5 -160t-76.5 -178h11q68 0 105 -37q32 -40 32 -92q0 -79 -63 -138q-50 -40 -112 -40q-63 0 -100 40q-40 46 -40 126z" />
<glyph unicode="&#x2019;" horiz-adv-x="401" d="M177 1044q84 68 145.5 160t77.5 176h-16q-63 0 -101 40q-31 37 -31 91q0 78 63 138q50 41 111 41q62 0 103 -41q40 -50 40 -126q0 -133 -98 -299.5t-230 -261.5z" />
<glyph unicode="&#x201a;" horiz-adv-x="401" d="M-11 -296q85 66 146 158.5t78 177.5h-19q-62 0 -100 38q-32 44 -32 92q0 80 66 138q45 40 111 40q61 0 100 -40q40 -46 40 -127q0 -133 -97.5 -299t-228.5 -261z" />
<glyph unicode="&#x201c;" horiz-adv-x="820" d="M201 1131q0 87 45.5 195.5t120.5 206t159 159.5l66 -82q-86 -67 -147.5 -160t-76.5 -178h11q68 0 105 -37q32 -40 32 -92q0 -79 -63 -138q-50 -40 -112 -40q-63 0 -100 40q-40 46 -40 126zM618 1131q0 87 46 195.5t121 206t159 159.5l65 -82q-85 -67 -146.5 -160 t-76.5 -178h11q67 0 104 -37q32 -40 32 -92q0 -79 -62 -138q-50 -40 -112 -40q-64 0 -101 40q-40 46 -40 126z" />
<glyph unicode="&#x201d;" horiz-adv-x="820" d="M177 1044q84 68 145.5 160t77.5 176h-16q-63 0 -101 40q-31 37 -31 91q0 78 63 138q50 41 111 41q62 0 103 -41q40 -50 40 -126q0 -133 -98 -299.5t-230 -261.5zM594 1044q84 68 145.5 160t78.5 176h-17q-63 0 -100 40q-32 37 -32 91q0 78 63 138q50 41 112 41t102 -41 q40 -50 40 -126q0 -133 -98 -299.5t-230 -261.5z" />
<glyph unicode="&#x201e;" horiz-adv-x="820" d="M-11 -296q85 66 146 158.5t78 177.5h-19q-62 0 -100 38q-32 44 -32 92q0 80 66 138q45 40 111 40q61 0 100 -40q40 -46 40 -127q0 -133 -97.5 -299t-228.5 -261zM407 -296q56 44 103 101t78 118t42 117h-19q-62 0 -100 38q-31 44 -31 92q0 80 65 138q46 40 111 40 q61 0 100 -40q41 -46 41 -127q0 -133 -98 -299t-228 -261z" />
<glyph unicode="&#x2022;" horiz-adv-x="848" d="M234 692q0 68 29.5 134.5t84.5 117.5q86 70 201 70q112 0 181 -70q56 -68 56 -165q0 -68 -30.5 -134.5t-86.5 -115.5q-87 -71 -198 -71q-53 0 -100.5 18t-80.5 53q-56 65 -56 163z" />
<glyph unicode="&#x2026;" horiz-adv-x="1805" d="M170 116q0 42 19.5 85t55.5 76q57 47 130 47q72 0 119 -47q35 -41 35 -105q0 -45 -19 -87.5t-54 -73.5q-60 -47 -132 -47q-73 0 -117 47q-37 43 -37 105zM741 116q0 42 20 85t57 76q56 47 128 47t119 -47q36 -42 36 -105q0 -44 -19 -87t-55 -74q-60 -47 -132 -47t-116 47 q-38 45 -38 105zM1310 116q0 42 20 85t56 76q57 47 130 47q71 0 118 -47q36 -42 36 -105q0 -44 -19 -87t-55 -74q-60 -47 -132 -47t-116 47q-38 45 -38 105z" />
<glyph unicode="&#x202f;" horiz-adv-x="401" />
<glyph unicode="&#x2039;" horiz-adv-x="784" d="M254 558l456 415l65 -82l-246 -337l150 -335l-87 -87z" />
<glyph unicode="&#x203a;" horiz-adv-x="784" d="M160 213l249 336l-150 337l89 87l335 -426l-453 -415z" />
<glyph unicode="&#x205f;" horiz-adv-x="501" />
<glyph unicode="&#x20ac;" horiz-adv-x="1267" d="M158 498l21 132h107q3 75 13 149l-98 11l18 132h105q19 81 47.5 150t69 131.5t94.5 111t121 84t152.5 54.5t184.5 19q60 0 119 -10.5t99.5 -25t73 -28.5t48.5 -24l15 -11l-53 -154q-6 3 -16 9.5t-41.5 22.5t-64 28.5t-78 22.5t-88.5 10q-73 0 -130 -19t-105.5 -63 t-82.5 -120.5t-55 -187.5h514l-23 -154h-511q-5 -48 -9 -138h502l-22 -157h-482q1 -77 14.5 -136t37 -98.5t58.5 -64.5t76.5 -35.5t94 -10.5t104.5 16.5t88.5 40t65 47t43.5 39.5l14 17l43 -111q-3 -5 -8.5 -12t-25.5 -28t-42.5 -40t-61 -42.5t-80.5 -40t-100 -28 t-121 -11.5q-239 0 -368.5 133.5t-146.5 375.5z" />
<glyph unicode="&#x2122;" horiz-adv-x="1776" d="M332 1549l19 125h689l-18 -123l-263 -2l-92 -656h-183l92 656h-244zM967 893l158 781h185l98 -622l300 622h179l-92 -781h-174l55 498l-243 -498h-161l-100 522l-85 -522h-120z" />
<glyph unicode="&#x25fc;" horiz-adv-x="1116" d="M0 0v1116h1116v-1116h-1116z" />
</font>
</defs>
</svg>
