<?xml version="1.0" standalone="no"?>
<!DOCTYPE svg PUBLIC "-//W3C//DTD SVG 1.1//EN" "http://www.w3.org/Graphics/SVG/1.1/DTD/svg11.dtd" >
<svg xmlns="http://www.w3.org/2000/svg">
<metadata></metadata>
<defs>
<font id="arsenalitalic" horiz-adv-x="1148" >
<font-face units-per-em="2048" ascent="1536" descent="-512" />
<missing-glyph horiz-adv-x="519" />
<glyph unicode="&#xfb01;" horiz-adv-x="1169" d="M-183 -531l47 92q4 -4 12 -10t35 -16t57 -10q88 0 143.5 89.5t84.5 293.5l155 1099h-114l13 94l116 13l22 160q16 108 45.5 184t79 130t122.5 80t173 26q32 0 63 -6t56 -16t48 -24t41 -28.5t34 -32t27.5 -32t21.5 -30.5q17 9 42 9q39 0 62 -23q18 -21 18 -58 q0 -49 -38 -87q-35 -24 -71 -24q-40 0 -60.5 24t-20.5 59q0 25 11 51q-84 115 -214 115q-89 0 -142.5 -30.5t-85.5 -102t-51 -201.5l-20 -141h323l-15 -109h-324l-153 -1099q-70 -488 -385 -488q-33 0 -61.5 5t-45.5 12.5t-29.5 14.5t-16.5 12zM841 0l156 1116h162 l-156 -1116h-162z" />
<glyph unicode="&#xfb02;" horiz-adv-x="1163" d="M-183 -531l47 92q4 -4 12 -10t35 -16t57 -10q88 0 143.5 89.5t84.5 293.5l155 1099h-117l13 94l119 13l22 160q61 420 351 420q150 0 322 -88l8 64l163 9l-235 -1679h-162l209 1506q-154 88 -276 88q-63 0 -104 -31t-69 -104t-46 -202l-20 -141h321l-15 -109h-322 l-153 -1099q-70 -488 -385 -488q-33 0 -61.5 5t-45.5 12.5t-29.5 14.5t-16.5 12z" />
<glyph horiz-adv-x="2048" />
<glyph horiz-adv-x="2048" />
<glyph unicode="&#xd;" horiz-adv-x="2048" />
<glyph unicode=" "  horiz-adv-x="519" />
<glyph unicode="&#x09;" horiz-adv-x="519" />
<glyph unicode="&#xa0;" horiz-adv-x="519" />
<glyph unicode="!" horiz-adv-x="615" d="M219 66q0 53 43 92q34 27 73 27q42 0 69 -27q20 -23 20 -60q0 -54 -40 -91q-38 -27 -76 -27q-44 0 -67 27q-22 25 -22 59zM328 473l103 1016l25 185h181l-26 -185l-185 -1016h-98z" />
<glyph unicode="&#x22;" horiz-adv-x="667" d="M247 1156l64 518l149 -4l-121 -514h-92zM562 1156l63 518l150 -4l-121 -514h-92z" />
<glyph unicode="#" horiz-adv-x="1071" d="M179 486l13 92h196l101 291h-257l13 93h277l108 306l71 -22l-100 -284h234l98 282l74 -23l-91 -259h183l-17 -93h-198l-102 -291h260l-13 -92h-279l-107 -307l-74 22l98 285h-232l-98 -283l-71 23l92 260h-179zM467 578h234l100 291h-232z" />
<glyph unicode="$" horiz-adv-x="910" d="M125 286l67 78q3 -6 8.5 -15.5t28 -33.5t49 -42.5t73 -34t98.5 -15.5q71 0 126.5 21t89 55.5t50.5 76.5t17 88q0 37 -13 66.5t-35.5 49t-53 37.5t-64.5 31t-70 28.5t-70 30t-64.5 37t-53 48.5t-36 64.5t-13.5 85.5q0 135 90.5 224t235.5 114l49 283h94l-25 -279 q31 -2 61 -8t54.5 -14.5t46.5 -18t38.5 -19t28.5 -17t18 -12.5l6 -5l-30 -96q-4 4 -12.5 11t-35 23.5t-54 29.5t-67.5 23.5t-78 10.5q-115 0 -187 -59t-72 -149q0 -36 13.5 -66t37 -50.5t54.5 -39t66 -32t72 -29.5t72 -31t66 -38t54.5 -49.5t37 -65t13.5 -85.5 q0 -54 -13.5 -103.5t-43 -94.5t-71.5 -80t-103 -58.5t-134 -31.5l-43 -241h-94l18 236q-65 5 -119.5 23t-86 40.5t-53.5 45t-30 37.5z" />
<glyph unicode="%" horiz-adv-x="1789" d="M247 980q0 108 30.5 201t84 159t132 103t171.5 37q139 0 219.5 -95.5t80.5 -253.5q0 -142 -51 -253.5t-146.5 -175t-220.5 -63.5q-144 0 -222 92t-78 249zM379 969q0 -111 46.5 -174t132.5 -63q121 0 198 108.5t77 309.5q0 112 -47.5 174t-133.5 62q-60 0 -109.5 -25.5 t-86 -76t-57 -131t-20.5 -184.5zM529 27l828 1404l92 -23l-827 -1404zM1031 311q0 108 30 200.5t84 158.5t132.5 103t171.5 37q139 0 219 -95.5t80 -252.5q0 -85 -18.5 -161t-55 -136.5t-87 -104.5t-116 -68t-140.5 -24q-144 0 -222 92.5t-78 250.5zM1163 299 q0 -112 46.5 -174.5t132.5 -62.5q121 0 197.5 108t76.5 310q0 112 -47 174t-133 62q-124 0 -198.5 -106t-74.5 -311z" />
<glyph unicode="&#x26;" horiz-adv-x="1345" d="M154 326q0 45 8 87t22.5 77t34.5 66.5t45 57t52.5 47.5t58 39t61 30t62.5 22q-73 38 -120.5 110t-47.5 178q0 94 32.5 173.5t90.5 136.5t142.5 89.5t186.5 32.5q43 0 86.5 -7.5t75.5 -17.5t58 -20.5t39 -17.5l13 -7l-32 -96q-3 2 -10 6.5t-30 15.5t-47 19.5t-60 15.5 t-72 7q-146 0 -230 -95t-84 -253q0 -54 16.5 -98.5t43.5 -72t59 -42t66 -14.5h274l119 321h76l-46 -321h287l-14 -96h-288l-53 -391q-9 -76 -9 -95q0 -75 29.5 -103.5t91.5 -28.5q25 0 50.5 2.5t43.5 7t32.5 8.5t22.5 7l7 3l-9 -89q-7 -5 -22.5 -12t-70.5 -18.5t-119 -11.5 q-55 0 -94 12t-66.5 40.5t-40.5 74.5q-113 -127 -317 -127q-103 0 -182 27t-127 74.5t-71.5 109.5t-23.5 137zM326 335q0 -115 67.5 -184.5t202.5 -69.5q46 0 86.5 10t69 25t52.5 35.5t38 38t25 36.5q4 49 8 73l54 400h-286q-56 -1 -111.5 -25.5t-102 -69t-75 -115 t-28.5 -154.5z" />
<glyph unicode="'" horiz-adv-x="352" d="M247 1156l64 518l149 -4l-121 -514h-92z" />
<glyph unicode="(" horiz-adv-x="684" d="M254 322q0 146 21 285q19 141 55 273t78 231t88.5 186t89 145.5t76.5 101t54 62.5l21 19l78 -47q-6 -6 -16.5 -19t-43 -59.5t-63 -99t-71.5 -138.5t-74.5 -178.5t-65.5 -218t-50 -258.5q-24 -187 -24 -324q0 -121 14 -231t34.5 -180.5t40.5 -124t35 -77.5l14 -23l-89 -47 q-5 5 -12 14t-28 42.5t-40 72t-42.5 102t-40 132t-28 163.5t-11.5 196z" />
<glyph unicode=")" horiz-adv-x="684" d="M40 -353q6 7 17 20t43 59.5t63 99.5t71.5 139t74 178.5t65 217.5t50.5 257q23 173 23 317q0 121 -14 231.5t-34 182t-40 126t-34 79.5l-14 24l89 47q8 -9 21.5 -27.5t48 -84.5t61 -142t48.5 -202.5t22 -264.5q0 -147 -21 -286q-20 -141 -56 -273t-78 -231t-88.5 -186 t-89.5 -145.5t-77 -101t-55 -61.5l-20 -20z" />
<glyph unicode="*" horiz-adv-x="876" d="M207 1176l70 157l292 -177l16 416h150l-108 -416l349 177l21 -157l-358 -77l202 -309l-136 -98l-117 360l-222 -360l-107 98l288 304z" />
<glyph unicode="+" horiz-adv-x="910" d="M156 567l16 104h328l56 390h100l-55 -390h328l-16 -104h-325l-55 -388h-100l53 388h-330z" />
<glyph unicode="," horiz-adv-x="503" d="M56 -313q80 65 137 168.5t64 184.5q-43 0 -65 22q-18 21 -18 54q0 47 39 80q26 23 64 23q35 0 58 -23l8 -13q15 -28 15 -67q0 -105 -79 -252.5t-183 -227.5z" />
<glyph unicode="-" horiz-adv-x="662" d="M156 567l16 104h509l-14 -104h-511z" />
<glyph unicode="." horiz-adv-x="541" d="M177 66q0 53 42 92q34 27 73 27q43 0 70 -27q20 -23 20 -60q0 -54 -41 -91q-37 -27 -75 -27q-45 0 -68 27q-21 25 -21 59z" />
<glyph unicode="/" horiz-adv-x="930" d="M-76 -558l1152 2232h123l-1150 -2232h-125z" />
<glyph unicode="0" horiz-adv-x="1253" d="M210 538q0 160 23 299t71 256.5t119.5 201t173.5 130.5t227 47q71 0 130.5 -17t102 -45.5t76.5 -69.5t55 -87t35 -100t19.5 -106t5.5 -107q0 -175 -31 -328t-87.5 -268t-132.5 -198t-168.5 -125.5t-194.5 -42.5q-209 0 -316.5 146.5t-107.5 413.5zM379 496 q0 -82 11.5 -148.5t34 -116.5t55 -83.5t74.5 -50t93 -16.5q66 0 128.5 35t117.5 108t96 175.5t65 246.5t24 312q0 68 -8 125.5t-27 111t-49 91t-77 60t-107 22.5q-96 0 -174 -52.5t-135.5 -157.5t-89.5 -273.5t-32 -388.5z" />
<glyph unicode="1" horiz-adv-x="822" d="M290 1259l360 192h132l-204 -1451h-161l184 1321l-286 -149z" />
<glyph unicode="2" horiz-adv-x="1059" d="M96 0l17 134q18 6 67 40t120.5 92.5t151 131t158 163t141.5 182.5t102.5 194t39.5 192q0 116 -61 174t-191 58q-46 0 -97 -12.5t-90 -30.5t-71.5 -36t-49.5 -30l-18 -13l-2 105q7 5 19 13.5t51.5 30.5t80 39t100 31t115.5 14q197 0 296 -89.5t99 -241.5q0 -82 -30.5 -171 t-79 -168.5t-117.5 -162t-138 -149.5t-149 -134.5t-142 -114t-126 -89.5h686l-20 -152h-862z" />
<glyph unicode="3" horiz-adv-x="1059" d="M111 145l68 87q2 -3 6 -8t19 -20.5t32 -29.5t44.5 -31t57 -29t69.5 -20.5t82 -8.5q91 0 160 30t112 84.5t65 129.5t22 167q0 109 -59.5 172.5t-170.5 63.5q-35 0 -69.5 -12t-51.5 -24l-17 -13l-49 67l489 547h-585l31 154h733l-17 -105l-475 -524q26 6 62 6 q158 0 252.5 -94.5t94.5 -253.5q0 -115 -40 -209.5t-110 -158.5t-165.5 -99t-206.5 -35q-57 0 -109 9.5t-89.5 24t-69.5 32.5t-52.5 35.5t-35 32.5t-20.5 24z" />
<glyph unicode="4" horiz-adv-x="1097" d="M128 366l2 85q46 72 98.5 163t106 195t106.5 214t103 225.5t93 223.5l151 -21q-70 -176 -168 -367t-185 -336t-178 -281h511l145 772h127l-107 -772h158l-13 -90l-158 -11l-51 -366h-166l51 366h-626z" />
<glyph unicode="5" horiz-adv-x="1037" d="M76 143l69 83q4 -6 11 -15.5t34 -34t58.5 -43t84.5 -33.5t112 -15q118 0 207.5 55.5t137 153t47.5 222.5q0 127 -71.5 203t-196.5 76q-68 0 -124.5 -21.5t-73.5 -41.5l-5 -6l-65 9l168 716h607l-32 -156h-511l-102 -436q86 29 165 29q190 0 301.5 -98.5t111.5 -269.5 q0 -123 -45.5 -226t-122.5 -171.5t-179.5 -106.5t-216.5 -38q-55 0 -104.5 9t-85.5 23.5t-67 32t-51 35.5t-34 32.5t-20 23.5z" />
<glyph unicode="6" horiz-adv-x="1153" d="M192 439q0 130 31 283q77 376 231.5 563t365.5 187q31 0 63 -4.5t58.5 -11t51.5 -15t43.5 -16.5t32 -14.5t20.5 -11.5l8 -4l-39 -98q-4 3 -12 8t-34 17t-52.5 21.5t-65 17t-74.5 7.5q-331 0 -436 -595q167 143 353 143q180 0 280.5 -100t100.5 -271q0 -53 -4 -81 q-15 -100 -56 -187t-105 -154.5t-156.5 -106t-202.5 -38.5q-196 0 -299 119t-103 342zM360 395q0 -104 27 -175t83 -107.5t139 -36.5q60 0 110.5 20.5t86.5 55t64 84t45 105t27 119.5q6 47 6 87q0 127 -59.5 202t-183.5 75q-56 0 -109 -17t-93 -45t-66.5 -52.5t-48.5 -51.5 q-6 -21 -14.5 -80.5t-11.5 -124.5q-2 -19 -2 -58z" />
<glyph unicode="7" horiz-adv-x="939" d="M243 0q54 152 137 326.5t183.5 350t187 315.5t189.5 299h-668l22 160h807l-19 -134q-119 -179 -242 -399.5t-237.5 -466.5t-182.5 -451h-177z" />
<glyph unicode="8" horiz-adv-x="1120" d="M154 311q0 77 22.5 143t57 111t83.5 82t94.5 58.5t97.5 37.5q-33 12 -62 26.5t-59.5 40t-52.5 56.5t-35.5 77.5t-13.5 100.5q0 198 131.5 313t347.5 115q114 0 199.5 -37t133.5 -109.5t48 -173.5q0 -63 -14.5 -117t-40 -95t-56.5 -73.5t-70 -56.5t-74.5 -40.5 t-75.5 -28.5q30 -8 57.5 -20t57.5 -30t54.5 -42.5t44.5 -55.5t31 -73.5t11 -91.5q0 -66 -12 -123t-35.5 -102.5t-57.5 -82.5t-77 -63.5t-95 -44t-111 -26t-125 -8.5q-92 0 -165 19t-127 58.5t-83 104t-29 151.5zM332 311q0 -122 63 -182t176 -60q148 0 235 96t87 272 q0 39 -8 73t-21.5 58.5t-32 45.5t-37.5 35t-41.5 25t-41 17t-37.5 10q-27 -3 -57.5 -10.5t-85 -34.5t-95.5 -66t-72.5 -112.5t-31.5 -166.5zM456 1031q0 -52 13 -94t32.5 -68t47 -45.5t50.5 -29t48 -15.5q13 2 27.5 4.5t38 9t46 16t49.5 25.5t49.5 35.5t44.5 48.5t37.5 63 t24.5 79.5t9 98.5q0 108 -56 164.5t-165 56.5q-141 0 -218.5 -94t-77.5 -255z" />
<glyph unicode="9" horiz-adv-x="1153" d="M237 888q0 88 22.5 172.5t68 158.5t108 130.5t148.5 89.5t184 33q128 0 217 -53t134.5 -155t45.5 -248q0 -81 -7 -165t-15 -114q-71 -377 -220 -568t-363 -191q-60 0 -114 12t-87 29t-57 34t-35 29l-10 12l49 89q4 -4 10.5 -11t30 -24.5t50 -31t70 -24.5t89.5 -11 q100 0 181.5 63.5t142.5 194t93 322.5q-25 -29 -56 -53.5t-74 -48.5t-99.5 -38t-118.5 -14q-181 0 -284.5 103.5t-103.5 277.5zM404 884q0 -46 9 -87t27.5 -78t46.5 -63.5t69 -42t91 -15.5q65 0 123.5 21t98.5 53t66.5 62.5t40.5 57.5q18 104 21 235v36q0 155 -58 232.5 t-180 77.5q-67 0 -125 -27t-99.5 -74t-71.5 -109.5t-44.5 -133.5t-14.5 -145z" />
<glyph unicode=":" horiz-adv-x="546" d="M177 66q0 53 42 92q34 27 73 27q43 0 70 -27q20 -23 20 -60q0 -54 -41 -91q-37 -27 -75 -27q-45 0 -68 27q-21 25 -21 59zM294 913q0 53 43 92q33 26 74 26q42 0 69 -26q20 -24 20 -61q0 -55 -40 -92q-38 -26 -76 -26q-44 0 -67 26q-23 27 -23 61z" />
<glyph unicode=";" horiz-adv-x="541" d="M78 -313q81 65 137.5 168t63.5 185q-42 0 -64 22q-19 22 -19 54q0 47 38 80q27 23 65 23q36 0 59 -23l8 -13q13 -26 13 -67q0 -106 -78 -253t-182 -227zM294 913q0 53 43 92q33 26 74 26q42 0 69 -26q20 -24 20 -61q0 -55 -40 -92q-38 -26 -76 -26q-44 0 -67 26 q-23 27 -23 61z" />
<glyph unicode="&#x3c;" horiz-adv-x="820" d="M234 710l601 444l45 -65l-490 -382l387 -379l-67 -64z" />
<glyph unicode="=" horiz-adv-x="1048" d="M128 355l15 105h895l-16 -105h-894zM187 779l16 105h896l-17 -105h-895z" />
<glyph unicode="&#x3e;" horiz-adv-x="820" d="M141 328l486 382l-380 379l66 65l473 -444l-599 -446z" />
<glyph unicode="?" horiz-adv-x="916" d="M234 66q0 53 43 92q34 27 74 27q41 0 69 -27q19 -23 19 -60q0 -55 -39 -91q-38 -27 -76 -27q-44 0 -67 27q-23 26 -23 59zM304 1578q3 3 8 7t22.5 16t36.5 23t50 24.5t63.5 23t75.5 16t87 6.5q72 0 130.5 -18.5t98 -50t66.5 -74.5t39 -91t12 -101q0 -82 -17.5 -147 t-48 -108.5t-70 -78t-84.5 -63.5t-90.5 -58t-88.5 -67.5t-78.5 -86t-61 -119.5t-34.5 -162l-81 -7q6 67 19 125t27.5 100t39 82t43 64.5t50.5 53.5t50 43.5t52 39.5q31 23 46.5 35.5t42 36t40 42t31.5 48t27 60t15 72t6 89.5q0 107 -58 172.5t-172 65.5q-49 0 -96.5 -11 t-79.5 -27t-57.5 -32t-37.5 -27l-12 -12z" />
<glyph unicode="@" horiz-adv-x="1854" d="M168 239q0 209 43 389.5t128.5 325t208 247.5t287 158.5t360.5 55.5q211 0 357.5 -76t220 -218.5t73.5 -345.5q0 -162 -27.5 -296.5t-74.5 -227t-110.5 -157t-134.5 -94t-146 -29.5q-84 0 -129.5 26.5t-51.5 91.5q-40 -50 -104.5 -85.5t-156.5 -35.5q-145 0 -229 90.5 t-84 269.5q0 164 60.5 297.5t168 209.5t240.5 76q136 0 213 -89l37 58h72l-94 -679q-4 -40 -4 -52q0 -54 22 -76t65 -22q25 0 51.5 8.5t55.5 26t56.5 47.5t53.5 70t47.5 96.5t37.5 124.5t25.5 157.5t9.5 191.5q0 271 -134.5 410.5t-400.5 139.5q-198 0 -359 -71.5 t-273.5 -207t-173.5 -337.5t-61 -455q0 -328 157.5 -496.5t440.5 -168.5q73 0 141.5 12t120.5 30.5t98 41.5t77 46t54 42t34 31l10 12l32 -81q-4 -5 -11.5 -13.5t-34 -32.5t-57.5 -46.5t-82 -49.5t-106.5 -46.5t-132.5 -32.5t-159 -13q-356 0 -541.5 194.5t-185.5 557.5z M735 322q0 -134 56 -202.5t162 -68.5q143 0 227 152l72 513q-5 18 -14.5 34t-29.5 36t-55 32.5t-82 12.5q-153 0 -244.5 -139t-91.5 -370z" />
<glyph unicode="A" horiz-adv-x="1267" d="M51 0l692 1451h199l277 -1451h-177l-89 447h-569l-214 -447h-119zM426 538h509l-140 783z" />
<glyph unicode="B" horiz-adv-x="1209" d="M210 0l203 1451h366q101 0 180 -23t129 -65t76 -99t26 -126q0 -73 -22.5 -135.5t-61.5 -108t-82 -78t-93 -55.5q71 -21 123 -60t81.5 -99.5t29.5 -137.5q0 -105 -35.5 -189.5t-106.5 -146t-184 -95t-261 -33.5h-368zM390 98h198q202 0 305.5 97t103.5 276 q0 115 -67 173.5t-180 58.5h-275zM489 795h265q29 0 62.5 10t71.5 35.5t68.5 62t50.5 94.5t20 128q0 76 -34.5 128t-93.5 76t-138 24h-194z" />
<glyph unicode="C" horiz-adv-x="1272" d="M194 576q0 195 55.5 362t153.5 284t236 183.5t298 66.5q65 0 131 -13.5t113.5 -32t85.5 -37.5t58 -32l19 -13l-32 -105q-7 5 -20 13t-54 29t-82.5 36.5t-101 28.5t-114.5 13q-94 0 -178.5 -31.5t-155.5 -96.5t-123 -157.5t-81 -221t-29 -281.5q0 -117 31 -209.5 t87.5 -151.5t134 -90t171.5 -31q55 0 107 12t92 31.5t75.5 42.5t60.5 46t43 42t26 31l9 12l51 -72q-3 -5 -9.5 -14t-29.5 -36t-49.5 -51t-70.5 -53.5t-92 -51t-113.5 -36t-135.5 -14.5q-264 0 -415.5 159t-151.5 439z" />
<glyph unicode="D" horiz-adv-x="1414" d="M210 0l203 1451h442q273 0 420 -152t147 -440q0 -405 -203.5 -632t-566.5 -227h-442zM392 107h277q130 0 234.5 47t181 140t118 241.5t41.5 341.5q0 232 -103 349.5t-300 117.5h-274z" />
<glyph unicode="E" horiz-adv-x="1131" d="M210 0l203 1451h782l-15 -107h-613l-78 -558h563l-16 -103h-561l-80 -576h661l-16 -107h-830z" />
<glyph unicode="F" horiz-adv-x="1035" d="M210 0l203 1451h797l-13 -107h-628l-83 -579h541l-15 -102h-539l-94 -663h-169z" />
<glyph unicode="G" horiz-adv-x="1383" d="M194 569q0 273 91.5 476.5t266 315t410.5 111.5q65 0 131 -13.5t114 -32t87 -37.5t59 -32l20 -13l-36 -105q-3 3 -10 7t-29 16.5t-45.5 24t-58.5 25.5t-69.5 24t-77 16.5t-82.5 6.5q-283 0 -437.5 -203.5t-154.5 -586.5q0 -118 25 -208.5t72.5 -150.5t115 -90.5 t153.5 -30.5q54 0 102.5 11.5t84 28.5t66 40.5t50.5 46t36 47t23.5 39.5t12.5 28l47 328h-297l16 96h437l-105 -754h-83l-19 158q-153 -180 -411 -180q-244 0 -374.5 155.5t-130.5 435.5z" />
<glyph unicode="H" horiz-adv-x="1423" d="M210 0l203 1451h170l-91 -652h662l92 652h169l-203 -1451h-170l96 697h-663l-96 -697h-169z" />
<glyph unicode="I" horiz-adv-x="590" d="M210 0l203 1451h170l-204 -1451h-169z" />
<glyph unicode="J" horiz-adv-x="807" d="M34 74l35 84q2 -3 6 -8t19.5 -17.5t33.5 -22t50 -17.5t67 -8q34 0 63 7.5t61 30t57 59t47 99t34 145.5l143 1025h170l-146 -1025q-15 -105 -43.5 -184.5t-64.5 -129t-83.5 -80t-95.5 -42.5t-106 -12q-30 0 -57.5 3.5t-49 9t-40.5 12.5t-33 15t-25.5 16t-19 15t-13 13 t-7.5 9z" />
<glyph unicode="K" horiz-adv-x="1293" d="M210 0l203 1451h170l-112 -790l198 157l579 633h136l-598 -648l464 -803h-212l-395 674l-190 -138l-74 -536h-169z" />
<glyph unicode="L" horiz-adv-x="1050" d="M210 0l203 1451h170l-191 -1344h648l-15 -107h-815z" />
<glyph unicode="M" horiz-adv-x="1863" d="M210 0l210 1451h210l337 -1244h2l686 1244h196l-196 -1451h-166l168 1244l-679 -1244h-137l-330 1244l-179 -1244h-122z" />
<glyph unicode="N" horiz-adv-x="1452" d="M210 0l203 1451h177l573 -1197v54l160 1143h123l-202 -1451h-147l-599 1237h-2l2 -70l-166 -1167h-122z" />
<glyph unicode="O" horiz-adv-x="1459" d="M196 580q0 157 32 294.5t94.5 247t150 188t203 120.5t248.5 42q113 0 204 -31t153.5 -85t105 -129t61.5 -161t19 -184q0 -166 -38 -311t-106 -252.5t-159.5 -185t-200 -116.5t-226.5 -39q-255 0 -398 160t-143 442zM373 556q0 -109 25 -196.5t72.5 -148.5t117.5 -93.5 t158 -32.5q86 0 165.5 31t148.5 96.5t119.5 160t79.5 230t29 296.5q0 78 -13 145.5t-41.5 126.5t-71.5 101.5t-106 67t-140 24.5q-122 0 -222 -53t-171.5 -153.5t-110.5 -254t-39 -347.5z" />
<glyph unicode="P" horiz-adv-x="1106" d="M210 0l203 1451h348q199 0 307 -95.5t108 -281.5q0 -88 -17 -163.5t-46.5 -132.5t-71 -102.5t-89 -76.5t-101.5 -51.5t-108 -29.5t-109 -9h-183l-72 -509h-169zM464 603h158q60 0 113 14.5t102 49.5t84 88t55.5 135t20.5 186q0 139 -69 208t-198 69h-163z" />
<glyph unicode="Q" horiz-adv-x="1459" d="M196 580q0 157 32 294.5t94.5 247t150 188t203 120.5t248.5 42q113 0 204 -31t153.5 -85t105 -129t61.5 -161t19 -184q0 -189 -49 -349.5t-134.5 -272.5t-198.5 -182.5t-244 -90.5q57 -109 133 -177.5t164 -68.5q36 0 81 16l-3 -89q-60 -23 -122 -23q-133 0 -247.5 93.5 t-172.5 241.5q-228 21 -353 178t-125 422zM373 556q0 -109 25 -196.5t72.5 -148.5t117.5 -93.5t158 -32.5q86 0 165.5 31t148.5 96.5t119.5 160t79.5 230t29 296.5q0 78 -13 145.5t-41.5 126.5t-71.5 101.5t-106 67t-140 24.5q-122 0 -222 -53t-171.5 -153.5t-110.5 -254 t-39 -347.5z" />
<glyph unicode="R" horiz-adv-x="1202" d="M210 0l203 1451h350q199 0 308 -95.5t109 -273.5q0 -104 -26.5 -192t-74 -150t-106.5 -104.5t-129 -66.5l283 -569h-194l-259 538h-218l-77 -538h-169zM469 639h181q83 0 147 26t110 79.5t70 139t24 201.5q0 132 -69 200t-202 68h-161z" />
<glyph unicode="S" horiz-adv-x="1093" d="M128 181l66 87q3 -7 10 -19.5t34.5 -43.5t62 -55t97 -43.5t135.5 -19.5q81 0 147 24.5t108 66t64.5 96t22.5 116.5q0 46 -15.5 85t-42.5 67t-63 54t-76.5 46t-83.5 43.5t-83.5 46t-76.5 53.5t-63 65.5t-42.5 82.5t-15.5 105q0 99 35.5 181t99 137t153 85.5t196.5 30.5 q45 0 87 -7t73 -18t59 -24.5t46.5 -27t32 -24.5t19.5 -18l7 -7l-34 -98l-13 13t-36 28.5t-60 36.5t-82 29t-104 13q-140 0 -224 -74t-84 -203q0 -51 19.5 -93t52.5 -72t75.5 -57t89.5 -51t94 -49t89.5 -57t75.5 -69.5t52.5 -90.5t19.5 -117q0 -134 -66 -238.5t-182 -161.5 t-263 -57q-66 0 -124.5 11.5t-99.5 29t-74.5 39.5t-54.5 43.5t-35 39.5t-20 29z" />
<glyph unicode="T" horiz-adv-x="1028" d="M205 1344l16 107h998l-16 -107h-415l-190 -1344h-170l190 1344h-413z" />
<glyph unicode="U" horiz-adv-x="1383" d="M250 377q0 37 7 96l138 978h167l-131 -940q-7 -54 -7 -100q0 -155 76 -237t224 -82q176 0 283 110t134 309l131 940h123l-138 -978q-16 -110 -57.5 -199t-110 -156t-171 -103.5t-230.5 -36.5q-217 0 -327.5 106.5t-110.5 292.5z" />
<glyph unicode="V" horiz-adv-x="1222" d="M237 1451h176l237 -1326l613 1326h126l-686 -1451h-196z" />
<glyph unicode="W" horiz-adv-x="1892" d="M237 1451h178l154 -1257l532 1257h149l186 -1250l498 1250h124l-594 -1451h-156l-187 1242l-531 -1242h-157z" />
<glyph unicode="X" horiz-adv-x="1206" d="M40 0l565 718l-343 733h205l272 -607h2l460 607h141l-543 -703l368 -748h-207l-293 622h-2l-475 -622h-150z" />
<glyph unicode="Y" horiz-adv-x="1131" d="M207 1451h191l299 -714l498 714h136l-594 -842l-83 -609h-170l83 601z" />
<glyph unicode="Z" horiz-adv-x="1176" d="M89 0l13 89l961 1255h-764l14 107h973l-14 -92l-961 -1252h788l-17 -107h-993z" />
<glyph unicode="[" horiz-adv-x="745" d="M172 -170l243 1735h527l-13 -98h-384l-217 -1536h384l-13 -101h-527z" />
<glyph unicode="\" horiz-adv-x="930" d="M203 1674h123l522 -2232h-122z" />
<glyph unicode="]" horiz-adv-x="745" d="M0 -170l15 101h380l216 1536h-381l13 98h528l-245 -1735h-526z" />
<glyph unicode="^" horiz-adv-x="749" d="M239 1161l349 373l249 -373l-62 -58l-206 288l-286 -288z" />
<glyph unicode="_" horiz-adv-x="1391" d="M32 -326l15 105h1239l-16 -105h-1238z" />
<glyph unicode="`" horiz-adv-x="461" d="M201 1580l142 36l141 -319l-94 -17z" />
<glyph unicode="a" d="M147 426q0 98 17 189t49 170t81 144t110.5 111.5t140 72t167.5 25.5q46 0 86 -7.5t67 -20.5t47.5 -26t33.5 -27.5t19 -22.5t8 -14l39 96h129l-157 -1116h-129l-9 130q-9 -14 -22 -29.5t-41 -38.5t-61.5 -40.5t-85.5 -30.5t-110 -13q-174 0 -276.5 118.5t-102.5 329.5z M317 415q0 -109 32 -183t90 -109.5t141 -35.5q47 0 90.5 13.5t72 31t54 41t37 37.5t18.5 27l98 676q-1 5 -7 15.5t-23.5 29t-40 34t-62 27.5t-85.5 12q-68 0 -126.5 -20t-104 -57.5t-80.5 -92t-58 -123t-34.5 -149.5t-11.5 -174z" />
<glyph unicode="b" d="M166 0l234 1670l162 9l-98 -695h5q3 7 10.5 17t35.5 36.5t61 47t89.5 37t120.5 16.5q172 0 273.5 -118.5t101.5 -327.5q0 -118 -23 -224.5t-69.5 -196t-112.5 -155t-156.5 -102t-196.5 -36.5q-63 0 -115.5 13t-85 33.5t-49 34.5t-27.5 28l-43 -87h-117zM353 183 q6 -8 11.5 -15.5t25 -24t42 -28t61 -21t83.5 -9.5q136 0 230 76.5t139.5 215.5t45.5 333q0 157 -69 238t-196 81q-38 0 -73.5 -8.5t-62 -22.5t-50 -31t-39.5 -34t-27.5 -31t-16.5 -22l-6 -9l-2 4z" />
<glyph unicode="c" horiz-adv-x="943" d="M149 433q0 159 36.5 288t107 222.5t181 144t252.5 50.5q50 0 99.5 -11t84.5 -26t63 -30.5t42 -26.5l14 -11l-28 -91q-5 4 -13.5 10.5t-36.5 23.5t-56.5 30t-71.5 23.5t-84 10.5q-417 0 -417 -627q0 -88 22 -154t61.5 -105t91 -58.5t114.5 -19.5q55 0 103 13.5t78.5 32.5 t52.5 37.5t32 32.5l9 13l64 -47q-3 -7 -11 -19.5t-39 -43.5t-69 -54.5t-104 -43t-142 -19.5q-202 0 -319 117t-117 338z" />
<glyph unicode="d" d="M147 431q0 117 23 223.5t69.5 194.5t111.5 152.5t153.5 100.5t192.5 36q57 0 106 -11t77.5 -26.5t49 -31.5t27.5 -27l8 -11h2l89 639l165 9l-237 -1679h-138v130q-10 -14 -22.5 -28.5t-41 -38.5t-61.5 -41t-84.5 -30.5t-107.5 -13.5q-117 0 -203 54t-132.5 156t-46.5 243 zM315 413q0 -164 68 -245t195 -81q40 0 78 9.5t67 26.5t52 33.5t40.5 36t25.5 29.5t14 19l95 690q-6 9 -10.5 14.5t-25.5 24t-43 30t-60 21.5t-81 10q-71 0 -131 -20.5t-105.5 -59.5t-79.5 -93.5t-56 -123.5t-32.5 -149t-10.5 -172z" />
<glyph unicode="e" horiz-adv-x="1010" d="M147 428q0 158 40.5 290.5t113.5 224.5t177 143.5t227 51.5q64 0 118.5 -15t94.5 -42.5t68 -64t42 -80.5t14 -92q0 -66 -22.5 -118.5t-58 -87t-89.5 -60t-106 -39.5t-119 -22t-117.5 -10t-112.5 -2h-100q-2 -32 -2 -96q0 -168 80.5 -250.5t218.5 -82.5q55 0 105.5 13.5 t83 33t57 38.5t35.5 33l11 13l59 -53q-3 -4 -7.5 -10.5t-21 -24.5t-36 -34.5t-52.5 -37t-69.5 -35t-87.5 -24.5t-106 -10q-95 0 -174.5 28.5t-138.5 83.5t-92 141.5t-33 196.5zM326 590h96q50 0 90.5 1.5t91.5 8t90.5 17.5t79 31t65.5 47t42 67t16 90q0 84 -55.5 137 t-155.5 53q-143 0 -237 -119t-123 -333z" />
<glyph unicode="f" horiz-adv-x="695" d="M-183 -531l47 92q4 -4 12 -10t35 -16t57 -10q88 0 143.5 89.5t84.5 293.5l155 1099h-117l13 94l119 13l22 160q31 216 113 318t240 102q33 0 66.5 -6.5t57 -16t42 -19t28.5 -16.5l9 -6l-35 -88q-8 6 -21.5 14.5t-54 23t-79.5 14.5q-58 0 -94.5 -29t-64 -102.5 t-46.5 -205.5l-20 -141h321l-15 -109h-322l-153 -1099q-70 -488 -385 -488q-33 0 -61.5 5t-45.5 12.5t-29.5 14.5t-16.5 12z" />
<glyph unicode="g" horiz-adv-x="1006" d="M17 -254q0 70 20.5 128.5t56 98t75 65.5t85.5 43q-33 44 -33 111q0 128 125 208q-69 41 -106 112t-37 167q0 82 17.5 150t49 118t74.5 87t96 59.5t110.5 33.5t120.5 11q85 0 149 -22h2l290 -2l-9 -87l-150 -5q63 -80 63 -207q0 -222 -123 -345.5t-331 -123.5 q-67 0 -136 18q-36 -19 -62.5 -49t-26.5 -72q0 -52 46.5 -76t138.5 -24q451 0 451 -303q0 -193 -133.5 -306.5t-381.5 -113.5q-213 0 -327 83.5t-114 242.5zM141 -243q0 -120 87 -178.5t243 -58.5q171 0 263 71.5t92 205.5q0 109 -83 157t-245 48q-96 0 -163 23 q-40 -13 -72.5 -34.5t-61 -53t-44.5 -78t-16 -102.5zM360 669q0 -75 24 -127.5t71 -79.5t114 -27q138 0 214 98t76 291q0 117 -53.5 167.5t-151.5 50.5q-41 0 -76.5 -7.5t-69 -24.5t-60 -46t-47 -69t-31 -97.5t-10.5 -128.5z" />
<glyph unicode="h" horiz-adv-x="1137" d="M166 0l232 1670l164 9l-93 -661h4q4 5 12.5 13t39 28.5t66 36.5t93 29t119.5 13q95 0 161.5 -29.5t102.5 -91.5t36 -155q0 -39 -6 -83l-108 -779h-163l105 759q4 25 4 72q0 98 -49 143.5t-147 45.5q-50 0 -98 -11.5t-78 -25.5t-59 -33.5t-36.5 -26.5t-14.5 -14l-127 -909 h-160z" />
<glyph unicode="i" horiz-adv-x="492" d="M166 0l156 1116h160l-156 -1116h-160zM353 1425q0 55 39 84q29 25 70 25q39 0 62 -23q19 -22 19 -58q0 -49 -38 -87q-35 -24 -72 -24q-40 0 -60 24q-20 23 -20 59z" />
<glyph unicode="j" horiz-adv-x="530" d="M-187 -531l46 92q4 -4 12 -10t35.5 -16t57.5 -10q89 0 143.5 89t84.5 294l170 1208h162l-169 -1208q-69 -488 -384 -488q-34 0 -62.5 5t-45.5 12.5t-29 14.5t-17 12zM392 1425q0 55 41 84q28 25 69 25q40 0 63 -23q18 -22 18 -58q0 -49 -38 -87q-34 -24 -72 -24 q-39 0 -60 24t-21 59z" />
<glyph unicode="k" horiz-adv-x="1014" d="M166 0l232 1670l164 9l-151 -1076l151 96l391 417h123l-433 -458l324 -658h-188l-274 562l-110 -62l-69 -500h-160z" />
<glyph unicode="l" horiz-adv-x="492" d="M166 0l234 1670l162 9l-234 -1679h-162z" />
<glyph unicode="m" horiz-adv-x="1615" d="M166 0l156 1116h134l4 -115q11 11 24.5 23t47 34t68 38.5t86 29t104.5 12.5q93 0 147 -32.5t72 -104.5q13 12 26.5 24t47.5 34t69.5 38t89 28.5t109.5 12.5q120 0 177 -51.5t57 -170.5q0 -42 -7 -96l-114 -820h-163l114 801q7 52 7 76q0 83 -36 114t-110 31 q-50 0 -97.5 -16t-81 -40.5t-51.5 -41.5t-28 -29l-6 -73l-117 -822h-160l111 801q6 44 6 79q0 41 -9 69.5t-28 44t-43.5 22t-59.5 6.5q-51 0 -99 -15.5t-82 -39.5t-51 -39t-27 -27l-125 -901h-162z" />
<glyph unicode="n" horiz-adv-x="1140" d="M166 0l156 1116h134l8 -102q125 124 342 124q142 0 219.5 -69t77.5 -207q0 -39 -6 -83l-108 -779h-163q103 729 107 759q4 25 4 67q0 194 -202 194q-49 0 -94.5 -11t-75 -24.5t-57 -32t-36.5 -27t-16 -15.5v-1l-128 -909h-162z" />
<glyph unicode="o" horiz-adv-x="1118" d="M149 437q0 156 37.5 284.5t108 221.5t179 144t244.5 51q130 0 221 -55t137.5 -157.5t46.5 -246.5q0 -209 -66.5 -366.5t-196 -246t-306.5 -88.5q-195 0 -300 120t-105 339zM317 407q0 -157 63.5 -244t192.5 -87q185 0 284 164.5t99 466.5q0 158 -63.5 245.5t-191.5 87.5 q-186 0 -285 -164.5t-99 -468.5z" />
<glyph unicode="p" d="M87 -562l235 1678h134l2 -136q8 12 19.5 25.5t42 39t65.5 44.5t90 34t115 15q113 0 196.5 -52t129 -152.5t45.5 -239.5q0 -119 -23 -226.5t-69.5 -197t-111.5 -154.5t-153.5 -101.5t-192.5 -36.5q-57 0 -106 11t-78.5 27t-50.5 31.5t-29 26.5l-8 11h-2l-90 -643zM353 183 q7 -10 18.5 -21.5t37.5 -31.5t69.5 -32.5t94.5 -12.5q102 0 181 42t130.5 122t78 194t26.5 258q0 167 -68.5 247.5t-196.5 80.5q-47 0 -91 -14t-72.5 -31.5t-54.5 -42.5t-36 -37t-19 -24z" />
<glyph unicode="q" d="M147 426q0 99 17.5 190t50 170t81.5 144t110 111t138 71.5t163 25.5q60 0 110 -12t82 -31.5t49 -33.5t28 -28l49 83h116l-235 -1674l-163 -4l98 696h-4q-3 -6 -10.5 -16.5t-34.5 -37.5t-60 -47.5t-89 -37.5t-119 -17q-174 0 -275.5 118.5t-101.5 329.5zM317 417 q0 -330 268 -330q38 0 73.5 8.5t61.5 22t49 29.5t38 32t26 29.5t17 21.5l5 9l98 692q-3 4 -6.5 8t-11 13t-17 16.5t-22.5 17t-29.5 17.5t-36 14.5t-43.5 10t-50 3.5q-205 0 -312.5 -160.5t-107.5 -453.5z" />
<glyph unicode="r" horiz-adv-x="731" d="M166 0l156 1116h117l-6 -230q1 3 2.5 9t8.5 23t15 33.5t21.5 39.5t28 42.5t34.5 39t41.5 33.5t49 23t56.5 9q14 0 31 -2t33.5 -5t33 -6.5t30.5 -7.5t25 -7t17 -5l7 -2l-30 -123q-105 34 -176 34q-39 0 -75.5 -20t-61 -47t-44.5 -59t-29 -52t-12 -30v-3l-113 -803h-160z " />
<glyph unicode="s" horiz-adv-x="910" d="M105 138l67 79q3 -6 9 -15.5t27.5 -33.5t48.5 -42.5t73 -34t98 -15.5q71 0 127 21t89 55.5t50.5 76.5t17.5 88q0 40 -16.5 72t-43.5 53t-62.5 38.5t-75 33t-78.5 31.5t-74.5 38t-63 49.5t-43.5 69t-16 93.5q0 105 56 184t150.5 119t212.5 40q34 0 67 -5.5t59.5 -14 t51 -18.5t42.5 -20t31 -18.5t20 -14.5l6 -5l-29 -96q-5 4 -13 10.5t-34.5 23.5t-54 30t-67.5 23.5t-79 10.5q-76 0 -135 -27t-91 -74t-32 -106q0 -37 13.5 -66.5t37 -50t54.5 -39t66 -32t72 -29.5t72 -31.5t66 -38t54.5 -49t37 -65t13.5 -85.5q0 -75 -27 -140.5 t-79.5 -118.5t-139 -83.5t-197.5 -30.5q-75 0 -137 16.5t-97.5 40t-60.5 47t-34 40.5z" />
<glyph unicode="t" horiz-adv-x="727" d="M230 1007l15 94l117 13l111 355h100l-49 -353h286l-15 -109h-286l-94 -668q-8 -63 -8 -120q0 -73 23 -103.5t75 -30.5q18 0 36 1.5t32.5 3.5t27.5 4.5t22.5 5t16.5 4.5t10 4l4 1l-2 -89q-8 -5 -23 -12t-70 -18.5t-120 -11.5q-102 0 -151 50.5t-49 163.5q0 53 8 107 l99 708h-116z" />
<glyph unicode="u" horiz-adv-x="1137" d="M192 259q0 37 6 78l110 779h161l-103 -745q-6 -41 -6 -75q0 -200 198 -200q50 0 97.5 11.5t79.5 28.5t56.5 34t36.5 29l11 11l130 906h162l-158 -1116h-134l-6 107q-129 -129 -341 -129q-143 0 -221.5 71t-78.5 210z" />
<glyph unicode="v" horiz-adv-x="974" d="M187 1116h192l159 -939l440 939h125l-543 -1116h-147z" />
<glyph unicode="w" horiz-adv-x="1474" d="M190 1116h181l82 -911h3l392 911h128l149 -911l347 911h124l-455 -1116h-144l-133 904l-391 -904h-145z" />
<glyph unicode="x" horiz-adv-x="988" d="M27 0l448 556l-274 560h191l213 -466l351 466h131l-420 -533l293 -583h-189l-233 482l-378 -482h-133z" />
<glyph unicode="y" horiz-adv-x="1008" d="M-38 -552l31 103q39 -20 88 -20q31 0 61.5 12.5t57 31.5t55.5 53.5t52.5 68t53.5 86t52.5 95t55.5 107.5l-277 1131h192l199 -931l433 931h115l-543 -1131q-40 -84 -75 -150t-76 -133t-80.5 -115.5t-82.5 -87.5t-89 -59t-93 -20q-40 0 -72.5 7t-45.5 14z" />
<glyph unicode="z" horiz-adv-x="925" d="M78 0l14 89l700 927h-522l7 100h716l-11 -89l-699 -927h563l-9 -100h-759z" />
<glyph unicode="{" horiz-adv-x="837" d="M301 598l14 85l4 22q27 0 58 10.5t63 33t58.5 54.5t43 80t16.5 103q0 40 -4.5 136t-4.5 139q0 54 5 97t17.5 86.5t33 76t54.5 62t80 48t110 29t144 10.5l-13 -96q-61 0 -108 -11t-78.5 -32t-53 -48.5t-32.5 -65.5t-15.5 -76t-4.5 -86q0 -45 4.5 -143t4.5 -139 q0 -60 -16.5 -112.5t-46 -92t-68 -68.5t-84.5 -48q67 -30 106 -83t39 -122q0 -55 -20.5 -128.5t-45 -134t-45 -136t-20.5 -135.5q0 -89 53 -136t173 -47l-15 -96q-98 0 -167.5 17.5t-109 52t-57.5 79.5t-18 106q0 47 9.5 99.5t24 96t31 91t31 87t24 81.5t9.5 76 q0 51 -30.5 93.5t-72 63.5t-80.5 21z" />
<glyph unicode="|" horiz-adv-x="651" d="M192 -558l315 2232h111l-314 -2232h-112z" />
<glyph unicode="}" horiz-adv-x="837" d="M83 -366l13 96q72 0 125 16t84 43t49.5 69.5t25 86.5t6.5 104q0 44 -4.5 142t-4.5 139q0 119 58.5 201t156.5 121q-68 29 -106.5 82t-38.5 123q0 55 20.5 128t45 134t45 136.5t20.5 135.5q0 89 -51.5 136t-171.5 47l13 96q99 0 169 -17.5t110 -52t58.5 -80t18.5 -105.5 q0 -68 -20.5 -148t-45.5 -139.5t-45.5 -127.5t-20.5 -116q0 -39 17.5 -73.5t45 -57t59 -35.5t59.5 -13l-5 -22h3l-12 -85q-28 0 -59.5 -10t-64 -32.5t-59.5 -54t-43.5 -78.5t-16.5 -101q0 -43 5 -141.5t5 -142.5q0 -53 -4.5 -95.5t-17 -85.5t-33.5 -75.5t-55 -61.5t-80 -47 t-110 -28.5t-143 -10.5z" />
<glyph unicode="~" horiz-adv-x="1278" d="M172 722q2 5 6 13.5t18.5 33t31.5 46.5t47 49.5t63.5 47t81 33t100.5 13.5q57 0 107 -12.5t87 -33t70.5 -45.5t65 -49.5t63 -45t72.5 -33.5t86 -13q41 0 76 11t56 27t36 32t21 28l5 11l58 -43q-2 -4 -5.5 -12.5t-16.5 -31.5t-29 -44.5t-43 -47.5t-57.5 -45t-73.5 -31.5 t-91 -12.5q-54 0 -101 12.5t-82 33t-67.5 45.5t-64.5 49.5t-65 45t-76.5 33.5t-92.5 13q-44 0 -84 -13t-65 -31.5t-44 -37t-27 -30.5l-8 -13z" />
<glyph unicode="&#xa1;" horiz-adv-x="615" d="M136 -558l28 185l184 1016h99l-104 -1016l-26 -185h-181zM346 1016q0 52 42 91q33 27 74 27q43 0 69 -27q21 -24 21 -60q0 -54 -41 -91q-39 -27 -76 -27q-43 0 -67 27q-22 27 -22 60z" />
<glyph unicode="&#xa2;" horiz-adv-x="943" d="M170 583q0 199 54.5 349t167.5 242.5t277 109.5l49 279h94l-22 -277q43 -4 85.5 -16.5t72.5 -26.5t54 -28t36 -23l12 -9l-30 -92q-2 2 -6.5 5.5t-19.5 14t-30.5 20t-40 21t-49 19.5t-55 13.5t-60.5 5.5q-418 0 -418 -628q0 -87 22.5 -153t62.5 -105.5t91.5 -58.5 t114.5 -19q55 0 103 13t78 32t52 38.5t31 32.5l10 13l65 -47q-4 -7 -11.5 -18.5t-37 -41.5t-65.5 -53.5t-98 -44t-132 -22.5l-42 -239h-93l19 245q-161 26 -251 140t-90 309z" />
<glyph unicode="&#xa3;" horiz-adv-x="1133" d="M102 0l23 149h82q43 28 75.5 67t53 82.5t34 100t20 110.5t10.5 121l-208 7l13 95h199q4 200 20 335q22 195 138.5 300t310.5 105q60 0 128 -21t106 -42l39 -20l-41 -96q-13 8 -34.5 19.5t-78 31.5t-99.5 20q-126 0 -196 -69.5t-92 -225.5q-7 -44 -43 -337h501l-16 -105 h-500q-27 -168 -67.5 -285t-113.5 -193h741l-22 -149h-983z" />
<glyph unicode="&#xa4;" horiz-adv-x="1204" d="M143 201l259 238q-44 81 -44 198q0 196 111 330l-188 236l74 83l169 -266q103 85 232 85q124 0 204 -87l250 266l49 -83l-262 -236q53 -89 53 -200q0 -98 -31 -183.5t-86 -148.5l188 -235l-71 -82l-170 263q-103 -83 -230 -83q-128 0 -207 90l-249 -267zM453 645 q0 -115 56.5 -182.5t153.5 -67.5q123 0 206.5 100t83.5 261q0 117 -56.5 184t-155.5 67q-125 0 -206.5 -99.5t-81.5 -262.5z" />
<glyph unicode="&#xa5;" horiz-adv-x="1256" d="M471 1451h190l299 -714l497 714h137l-520 -737h270l-13 -89h-319l-11 -16l-28 -196h328l-13 -89h-328l-42 -324h-170l44 324h-306l14 89h303l28 188l-11 24h-291l14 89h239z" />
<glyph unicode="&#xa6;" horiz-adv-x="651" d="M192 -558l125 893h111l-124 -893h-112zM379 782l128 892h111l-126 -892h-113z" />
<glyph unicode="&#xa7;" horiz-adv-x="1084" d="M172 -51l51 83q2 -5 10.5 -17t29.5 -32.5t48.5 -38.5t72.5 -31t96 -13q56 0 101 9.5t75.5 27t52 39t33 48.5t16.5 52.5t5 53.5q0 36 -14.5 66.5t-39.5 51t-58.5 39.5t-71 33.5t-77.5 31.5t-77.5 34t-71 42t-58.5 53.5t-39.5 70t-14.5 91.5q0 67 17.5 122.5t47.5 92.5 t59.5 60.5t62.5 39.5q-44 58 -44 143q0 72 27.5 138t80 118.5t137.5 83.5t191 31q46 0 92.5 -11t79.5 -26.5t60 -31t40 -26.5l13 -11l-31 -90q-5 4 -13.5 10.5t-35 23.5t-54 29.5t-67.5 23t-78 10.5q-62 0 -111.5 -15.5t-80.5 -40.5t-51.5 -57.5t-29 -64.5t-8.5 -64 q0 -42 18.5 -75.5t49.5 -56.5t71.5 -42.5t85 -36.5t89 -35t84.5 -42t71.5 -53.5t49.5 -73.5t18 -98t-13 -101.5t-33.5 -81t-48.5 -62t-53 -46t-52 -31.5q42 -56 42 -136q0 -57 -15 -108.5t-48.5 -97.5t-83.5 -79.5t-124.5 -53t-166.5 -19.5q-66 0 -122.5 15t-90.5 36.5 t-58 43t-33 37.5zM362 694q0 -50 24 -89.5t61 -64t88.5 -48.5t100.5 -41.5t103 -43.5t89 -54q137 65 137 218q0 47 -24.5 84t-63 61t-91.5 47.5t-104 41t-106.5 44t-93.5 55.5q-120 -59 -120 -210z" />
<glyph unicode="&#xa8;" horiz-adv-x="837" d="M286 1425q0 43 36 79q30 23 62 23q30 0 53 -23q19 -18 19 -51q0 -44 -36 -80q-31 -22 -60 -22q-33 0 -56 22q-18 23 -18 52zM630 1425q0 44 35 79q30 23 61 23q33 0 56 -23q17 -21 17 -51q0 -44 -36 -80q-31 -22 -62 -22t-54 22q-17 21 -17 52z" />
<glyph unicode="&#xa9;" horiz-adv-x="1626" d="M252 607q0 198 54.5 361t154 276t242.5 174.5t315 61.5q176 0 302 -76.5t190 -214.5t64 -325q0 -93 -11 -165q-48 -347 -248 -539t-509 -192q-176 0 -302 81t-189 224t-63 334zM341 616q0 -128 32.5 -233.5t93 -179t150 -114t201.5 -40.5q173 0 310 72.5t227.5 219.5 t120.5 356q11 89 11 153q0 254 -127.5 402t-352.5 148q-148 0 -271.5 -54.5t-210.5 -155t-135.5 -247.5t-48.5 -327zM583 663q0 104 31.5 189t87 141t131.5 86.5t164 30.5q37 0 71 -8.5t56 -20.5t39 -23.5t24 -20.5l8 -8l-30 -69q-1 2 -3.5 4.5t-11 10t-18 14.5t-24 15.5 t-30 14.5t-36 10t-41.5 4q-137 0 -218.5 -95.5t-81.5 -274.5q0 -80 32.5 -143t85 -96.5t114.5 -33.5q39 0 72.5 11.5t53.5 28t35 33t21 28.5l6 11l33 -44q-2 -6 -6.5 -16t-24.5 -35t-46 -44t-74 -34.5t-106 -15.5q-63 0 -120 25.5t-100 70t-68.5 111t-25.5 143.5z" />
<glyph unicode="&#xaa;" horiz-adv-x="867" d="M201 882q0 53 20 98t52.5 76.5t80 56.5t94.5 40.5t103.5 27t100.5 16.5t91 9l7 38q4 39 4 57q0 73 -37.5 107t-120.5 34q-40 0 -78.5 -9.5t-65 -23t-47.5 -27t-31 -22.5l-10 -9l-29 53q1 1 3 3.5t10 10.5t17 15.5t24.5 18t32.5 19.5t40.5 18t48.5 15t57 10t66 4 q134 0 199.5 -54t65.5 -167q0 -22 -4 -65l-73 -518h-115l-13 117q-6 -14 -17 -29t-33 -35.5t-49.5 -36t-70 -27t-91.5 -11.5q-115 0 -173.5 49.5t-58.5 140.5zM343 901q0 -126 159 -126q44 0 80 14t57.5 34t37 40t20.5 34l6 14l32 230q-63 -6 -113 -14.5t-104.5 -26 t-90.5 -42.5t-60 -65t-24 -92z" />
<glyph unicode="&#xab;" horiz-adv-x="1080" d="M264 558l399 382l42 -58l-288 -326l194 -330l-57 -60zM625 558l400 382l42 -58l-288 -326l194 -330l-57 -60z" />
<glyph unicode="&#xac;" horiz-adv-x="997" d="M213 658l13 103h756l-66 -475h-96l51 372h-658z" />
<glyph unicode="&#xad;" horiz-adv-x="691" d="M170 567l15 104h509l-13 -104h-511z" />
<glyph unicode="&#xae;" horiz-adv-x="1376" d="M247 911q0 175 49.5 320.5t138.5 246t215 156.5t276 56q153 0 264 -70t168 -195t57 -291q0 -60 -11 -145q-44 -308 -220.5 -481t-448.5 -173q-117 0 -210 43t-153.5 120t-92.5 182t-32 231zM335 916q0 -149 46.5 -261t140 -176t224.5 -64q114 0 210.5 38t170 109.5 t122.5 179.5t68 244q10 74 10 139q0 148 -47 257.5t-140.5 170.5t-223.5 61q-178 0 -310 -87.5t-201.5 -245t-69.5 -365.5zM598 656l99 708h185q228 0 228 -167q0 -98 -50 -159.5t-136 -84.5l105 -297h-98l-98 286h-107l-40 -286h-88zM732 997h99q37 0 68 10.5t57 32.5 t41 61.5t15 93.5q0 37 -16 61.5t-45.5 36t-75.5 11.5h-100z" />
<glyph unicode="&#xaf;" horiz-adv-x="880" d="M433 1420l12 80h412l-11 -80h-413z" />
<glyph unicode="&#xb0;" horiz-adv-x="912" d="M279 1201q0 145 51.5 259t147 177.5t219.5 63.5q138 0 218 -95.5t80 -252.5q0 -107 -29.5 -198t-83.5 -156.5t-132.5 -102.5t-171.5 -37q-144 0 -221.5 92.5t-77.5 249.5zM411 1190q0 -111 46.5 -174t132.5 -63q121 0 197.5 108t76.5 309q0 113 -47 175.5t-134 62.5 q-123 0 -197.5 -106t-74.5 -312z" />
<glyph unicode="&#xb1;" horiz-adv-x="1048" d="M125 337l16 106h895l-16 -106h-895zM306 1121l16 104h328l55 389h101l-56 -389h328l-15 -104h-326l-54 -389h-100l54 389h-331z" />
<glyph unicode="&#xb2;" horiz-adv-x="841" d="M145 513l19 124q11 4 36.5 21t62 46t79 66.5t88.5 84t90 97t83 108.5t69 115t47.5 119t17.5 119q0 92 -42.5 137.5t-136.5 45.5q-19 0 -42 -5.5t-43 -13.5t-40.5 -18t-36.5 -20t-28.5 -18.5t-19.5 -13.5l-7 -5l-11 85q6 4 16 11t41.5 25t62.5 32t74 25.5t81 11.5 q76 0 133 -21t91 -59.5t51 -87.5t17 -109q0 -87 -41 -182.5t-100.5 -174.5t-142 -160.5t-149.5 -136.5t-138 -107h492l-21 -141h-652z" />
<glyph unicode="&#xb3;" horiz-adv-x="839" d="M177 576l46 80q2 -1 4 -3.5t11 -9.5t19 -13t27.5 -14t37 -13.5t47 -9t57.5 -3.5q86 0 151 37.5t102 112t37 176.5q0 80 -39 127.5t-112 47.5q-26 0 -50.5 -8.5t-36.5 -17.5l-11 -9l-45 60l360 418h-424l24 140h555l-13 -96l-355 -406q26 4 42 4q112 0 181.5 -75.5 t69.5 -201.5q0 -92 -34.5 -169t-92.5 -128t-133.5 -79.5t-158.5 -28.5q-43 0 -81 4.5t-64.5 11.5t-48 16t-34.5 17.5t-22 16t-13 11.5z" />
<glyph unicode="&#xb4;" horiz-adv-x="461" d="M308 1286l214 324l136 -34l-268 -302z" />
<glyph unicode="&#xb5;" horiz-adv-x="1153" d="M87 -558l118 844q0 20 8 51l109 779h160l-103 -745q-6 -41 -6 -75q0 -200 198 -200q50 0 97.5 11.5t79.5 28.5t56.5 34t36.5 29l11 11l130 906h164l-160 -1116h-134l-6 107q-129 -129 -341 -129q-117 0 -183 42q-50 -433 -70 -578h-165z" />
<glyph unicode="&#xb6;" horiz-adv-x="1331" d="M239 920q0 130 34.5 227t108 166t191 103.5t279.5 34.5h579l-18 -122h-129l-185 -1329h-137l186 1329h-213l-185 -1329h-134l76 545q-224 0 -338.5 89.5t-114.5 285.5z" />
<glyph unicode="&#xb7;" horiz-adv-x="541" d="M270 737q0 52 43 91q33 27 73 27q43 0 70 -27q19 -22 19 -60q0 -54 -40 -91q-39 -27 -75 -27q-44 0 -68 27q-22 25 -22 60z" />
<glyph unicode="&#xb8;" horiz-adv-x="522" d="M-9 -467l45 45l5 -7.5t15.5 -17t27 -22t39 -17.5t51.5 -8q84 0 128 44t44 124q0 32 -17.5 55.5t-42.5 34.5t-50 17t-42 9t-17 5l53 198h64l-37 -147q0 -1 8 -3.5t21 -5.5t30 -9t35 -14t35 -20.5t30.5 -28t22 -39t8.5 -50.5q0 -104 -68.5 -170t-195.5 -66q-42 0 -77 9.5 t-55.5 23.5t-34.5 27.5t-19 23.5z" />
<glyph unicode="&#xb9;" horiz-adv-x="839" d="M368 1504l286 170h121l-164 -1161h-147l143 1027l-215 -130z" />
<glyph unicode="&#xba;" horiz-adv-x="935" d="M230 1027q0 87 18 162t54.5 136t90 104t126.5 66t162 23q84 0 147.5 -23.5t104 -67.5t61 -106t20.5 -141q0 -145 -51.5 -254.5t-153.5 -171.5t-244 -62q-166 0 -250.5 88t-84.5 247zM379 1007q0 -76 21 -130t64.5 -83t108.5 -29q141 0 216 111.5t75 326.5q0 115 -49 176 t-148 61q-138 0 -213 -109.5t-75 -323.5z" />
<glyph unicode="&#xbb;" horiz-adv-x="1080" d="M168 223l288 322l-194 335l57 60l290 -395l-396 -379zM529 223l289 322l-196 335l59 60l290 -395l-398 -379z" />
<glyph unicode="&#xbc;" horiz-adv-x="1621" d="M368 1504l286 170h121l-164 -1161h-147l143 1027l-215 -130zM496 45l852 1254l72 -47l-851 -1252zM771 -187q80 136 174.5 356.5t175.5 450.5l138 -17q-76 -207 -177 -413t-198 -362h332l54 364l70 241h115l-87 -605h112l-11 -80l-114 -14l-40 -292h-152l40 292h-432v79z " />
<glyph unicode="&#xbd;" horiz-adv-x="1753" d="M368 1504l286 170h121l-164 -1161h-147l143 1027l-215 -130zM496 45l852 1254l72 -47l-851 -1252zM867 -558l17 123q15 6 52.5 32t90.5 71t111 101.5t115 126.5t102.5 141t73.5 151.5t28 152.5q0 93 -42 138t-135 45q-43 0 -97 -23.5t-87 -46.5l-33 -23l-11 85q2 1 5 3.5 t14 9.5t22.5 14t29 16.5t35 17.5t39 16t42.5 14t44.5 9.5t45.5 3.5q50 0 92.5 -9.5t74 -27.5t55 -42.5t38.5 -56t22.5 -66.5t7.5 -75q0 -63 -21.5 -130t-56 -127t-84 -123t-99.5 -114t-109 -103.5t-105.5 -89.5t-96.5 -73h491l-20 -141h-651z" />
<glyph unicode="&#xbe;" horiz-adv-x="1729" d="M179 576l47 80q2 -3 6.5 -7t22 -15.5t39 -20.5t57.5 -16t77 -7q86 0 151 37.5t102 112t37 176.5q0 80 -39 127.5t-112 47.5q-26 0 -50.5 -8.5t-36.5 -17.5l-11 -9l-45 60l360 418h-424l24 140h556l-14 -96l-355 -406q26 4 43 4q111 0 180.5 -75.5t69.5 -201.5 q0 -73 -22 -138t-61.5 -113.5t-92.5 -83.5t-115 -52.5t-128 -17.5q-59 0 -108 8.5t-77 20.5t-47.5 24t-26.5 20zM601 45l852 1254l72 -47l-851 -1252zM877 -187q81 136 175.5 356.5t174.5 450.5l139 -17q-76 -207 -177.5 -413t-197.5 -362h332l55 364l68 241h117l-87 -605 h111l-11 -80l-114 -14l-40 -292h-152l40 292h-433v79z" />
<glyph unicode="&#xbf;" horiz-adv-x="916" d="M60 -239q0 83 18 148.5t49.5 109.5t72.5 79t87 63.5t92.5 56.5t91 65t80.5 82.5t62 115t34 156.5l79 6q-10 -100 -33 -178.5t-53.5 -128t-68 -87.5t-76 -64t-77 -51.5t-72 -56.5t-59 -71t-40.5 -103t-15 -146q0 -105 66.5 -169.5t197.5 -64.5q26 0 49.5 4.5t41.5 11.5 t33.5 16t26 18t18 16t11.5 12l3 4l45 -67q-2 -3 -5 -7t-13.5 -16.5t-23.5 -23.5t-35.5 -24.5t-47 -23t-59.5 -16.5t-73 -7q-195 0 -301 91.5t-106 249.5zM632 1016q0 53 42 91q32 27 74 27q43 0 70 -27q19 -22 19 -60q0 -54 -40 -91q-39 -27 -75 -27q-44 0 -68 27 q-22 25 -22 60z" />
<glyph unicode="&#xc0;" horiz-adv-x="1267" d="M51 0l692 1451h199l277 -1451h-177l-89 447h-569l-214 -447h-119zM426 538h509l-140 783zM637 1881l142 36l141 -319l-94 -18z" />
<glyph unicode="&#xc1;" horiz-adv-x="1267" d="M51 0l692 1451h199l277 -1451h-177l-89 447h-569l-214 -447h-119zM426 538h509l-140 783zM773 1587l213 324l137 -34l-268 -301z" />
<glyph unicode="&#xc2;" horiz-adv-x="1267" d="M51 0l692 1451h199l277 -1451h-177l-89 447h-569l-214 -447h-119zM426 538h509l-140 783zM562 1706l279 254h90l205 -254l-51 -72l-214 217l-275 -217z" />
<glyph unicode="&#xc3;" horiz-adv-x="1267" d="M51 0l692 1451h199l277 -1451h-177l-89 447h-569l-214 -447h-119zM426 538h509l-140 783zM505 1701q3 6 10 15.5t30.5 34t48.5 43t64.5 33.5t80.5 15q39 0 76.5 -10.5t67 -26t58.5 -30.5t61 -25.5t63 -10.5q23 0 44 6t34.5 15t24 18t15.5 15l5 7l42 -57q-2 -2 -4.5 -6.5 t-12.5 -16t-21 -22.5t-29.5 -24t-38 -22.5t-46 -15.5t-53.5 -6q-44 0 -90.5 16t-79.5 35t-76.5 35t-84.5 16q-17 0 -35 -5t-32 -12.5t-26.5 -17t-21.5 -18.5t-16 -17t-10 -12l-4 -5z" />
<glyph unicode="&#xc4;" horiz-adv-x="1267" d="M51 0l692 1451h199l277 -1451h-177l-89 447h-569l-214 -447h-119zM426 538h509l-140 783zM605 1725q0 45 36 81q29 22 60 22q34 0 55 -22q19 -18 19 -51q0 -45 -36 -81q-29 -22 -60 -22q-35 0 -57 22q-17 21 -17 51zM948 1725q0 45 36 81q29 22 60 22q35 0 57 -22 q17 -21 17 -51q0 -45 -36 -81q-29 -22 -62 -22q-31 0 -53 22q-19 22 -19 51z" />
<glyph unicode="&#xc5;" horiz-adv-x="1267" d="M51 0l692 1451h199l277 -1451h-177l-89 447h-569l-214 -447h-119zM426 538h509l-140 783zM654 1706q0 113 66 178t164 65q76 0 124 -47.5t48 -131.5q0 -112 -64 -175.5t-164 -63.5q-79 0 -126.5 45.5t-47.5 129.5zM718 1712q0 -61 33 -92t86 -31q69 0 112.5 45t43.5 132 q0 61 -32 92t-84 31q-44 0 -79 -18t-57.5 -58.5t-22.5 -100.5z" />
<glyph unicode="&#xc6;" horiz-adv-x="1760" d="M-27 0l1032 1451h833l-14 -107h-616l-79 -558h563l-16 -103h-560l-80 -576h660l-15 -107h-831l63 458h-491l-322 -458h-127zM486 549h440l112 795h-9z" />
<glyph unicode="&#xc7;" horiz-adv-x="1272" d="M194 576q0 195 55.5 362t153.5 284t236 183.5t298 66.5q65 0 131 -13.5t113.5 -32t85.5 -37.5t58 -32l19 -13l-32 -105q-7 5 -20 13t-54 29t-82.5 36.5t-101 28.5t-114.5 13q-94 0 -178.5 -31.5t-155.5 -96.5t-123 -157.5t-81 -221t-29 -281.5q0 -117 31 -209.5 t87.5 -151.5t134 -90t171.5 -31q55 0 107 12t92 31.5t75.5 42.5t60.5 46t43 42t26 31l9 12l51 -72q-3 -5 -9.5 -14t-29.5 -36t-49.5 -51t-70.5 -53.5t-92 -51t-113.5 -36t-135.5 -14.5h-11l-34 -132q0 -2 19 -6.5t47 -14.5t56 -26t48 -48t20 -75q0 -105 -68.5 -170.5 t-194.5 -65.5q-42 0 -77 9.5t-55.5 23.5t-34.5 27.5t-19 23.5l-6 9l45 45l5 -7.5t15.5 -17t27 -22t39 -17.5t51.5 -8q84 0 128 44t44 124q0 32 -17.5 55.5t-42.5 34.5t-50 17t-42 9t-17 5l49 188q-231 22 -361.5 178t-130.5 415z" />
<glyph unicode="&#xc8;" horiz-adv-x="1131" d="M210 0l203 1451h782l-15 -107h-613l-78 -558h563l-16 -103h-561l-80 -576h661l-16 -107h-830zM620 1881l143 36l141 -319l-94 -18z" />
<glyph unicode="&#xc9;" horiz-adv-x="1131" d="M210 0l203 1451h782l-15 -107h-613l-78 -558h563l-16 -103h-561l-80 -576h661l-16 -107h-830zM756 1587l215 324l136 -34l-268 -301z" />
<glyph unicode="&#xca;" horiz-adv-x="1131" d="M210 0l203 1451h782l-15 -107h-613l-78 -558h563l-16 -103h-561l-80 -576h661l-16 -107h-830zM554 1706l279 254h89l205 -254l-51 -72l-214 217l-274 -217z" />
<glyph unicode="&#xcb;" horiz-adv-x="1131" d="M210 0l203 1451h782l-15 -107h-613l-78 -558h563l-16 -103h-561l-80 -576h661l-16 -107h-830zM565 1725q0 45 36 81q29 22 60 22q33 0 55 -22q19 -18 19 -51q0 -45 -36 -81q-29 -22 -60 -22q-34 0 -56 22q-18 22 -18 51zM909 1725q0 46 35 81q29 22 61 22q34 0 56 -22 q17 -21 17 -51q0 -45 -36 -81q-29 -22 -62 -22q-32 0 -54 22q-17 21 -17 51z" />
<glyph unicode="&#xcc;" horiz-adv-x="590" d="M210 0l203 1451h170l-204 -1451h-169zM286 1881l142 36l141 -319l-94 -18z" />
<glyph unicode="&#xcd;" horiz-adv-x="590" d="M210 0l203 1451h170l-204 -1451h-169zM424 1587l215 324l136 -34l-268 -301z" />
<glyph unicode="&#xce;" horiz-adv-x="590" d="M210 0l203 1451h170l-204 -1451h-169zM221 1706l279 254h90l205 -254l-52 -72l-214 217l-275 -217z" />
<glyph unicode="&#xcf;" horiz-adv-x="590" d="M210 0l203 1451h170l-204 -1451h-169zM257 1725q0 46 35 81q29 22 61 22q34 0 56 -22q17 -17 17 -51q0 -45 -36 -81q-29 -22 -60 -22q-34 0 -55 22q-18 21 -18 51zM601 1725q0 45 36 81q29 22 60 22q33 0 55 -22q19 -22 19 -51q0 -45 -36 -81q-29 -22 -64 -22 q-31 0 -53 22q-17 21 -17 51z" />
<glyph unicode="&#xd0;" horiz-adv-x="1423" d="M149 674l17 94h151l96 683h442q273 0 420 -152t147 -440q0 -405 -203.5 -632t-566.5 -227h-442l94 674h-155zM392 107h277q130 0 234.5 47t181 140t118 241.5t41.5 341.5q0 232 -103 349.5t-300 117.5h-274l-81 -576h423l-14 -94h-422z" />
<glyph unicode="&#xd1;" horiz-adv-x="1452" d="M210 0l203 1451h177l573 -1197v54l160 1143h123l-202 -1451h-147l-599 1237h-2l2 -70l-166 -1167h-122zM603 1701q3 6 10 15.5t30.5 34t48.5 43t65 33.5t80 15q47 0 94 -16t79 -35.5t74 -35.5t79 -16q23 0 44 6t34.5 15t24 18t15.5 15l5 7l43 -57q-2 -2 -4.5 -6.5 t-12.5 -16t-21.5 -22.5t-29.5 -24t-37.5 -22.5t-46 -15.5t-54.5 -6q-44 0 -90.5 16t-79.5 35t-76.5 35t-84.5 16q-24 0 -48 -9t-40.5 -22t-30 -25.5t-19.5 -21.5l-7 -9z" />
<glyph unicode="&#xd2;" horiz-adv-x="1459" d="M196 580q0 157 32 294.5t94.5 247t150 188t203 120.5t248.5 42q113 0 204 -31t153.5 -85t105 -129t61.5 -161t19 -184q0 -166 -38 -311t-106 -252.5t-159.5 -185t-200 -116.5t-226.5 -39q-255 0 -398 160t-143 442zM373 556q0 -109 25 -196.5t72.5 -148.5t117.5 -93.5 t158 -32.5q86 0 165.5 31t148.5 96.5t119.5 160t79.5 230t29 296.5q0 78 -13 145.5t-41.5 126.5t-71.5 101.5t-106 67t-140 24.5q-122 0 -222 -53t-171.5 -153.5t-110.5 -254t-39 -347.5zM722 1881l142 36l141 -319l-94 -18z" />
<glyph unicode="&#xd3;" horiz-adv-x="1459" d="M196 580q0 157 32 294.5t94.5 247t150 188t203 120.5t248.5 42q113 0 204 -31t153.5 -85t105 -129t61.5 -161t19 -184q0 -166 -38 -311t-106 -252.5t-159.5 -185t-200 -116.5t-226.5 -39q-255 0 -398 160t-143 442zM373 556q0 -109 25 -196.5t72.5 -148.5t117.5 -93.5 t158 -32.5q86 0 165.5 31t148.5 96.5t119.5 160t79.5 230t29 296.5q0 78 -13 145.5t-41.5 126.5t-71.5 101.5t-106 67t-140 24.5q-122 0 -222 -53t-171.5 -153.5t-110.5 -254t-39 -347.5zM857 1587l214 324l137 -34l-268 -301z" />
<glyph unicode="&#xd4;" horiz-adv-x="1459" d="M196 580q0 157 32 294.5t94.5 247t150 188t203 120.5t248.5 42q113 0 204 -31t153.5 -85t105 -129t61.5 -161t19 -184q0 -166 -38 -311t-106 -252.5t-159.5 -185t-200 -116.5t-226.5 -39q-255 0 -398 160t-143 442zM373 556q0 -109 25 -196.5t72.5 -148.5t117.5 -93.5 t158 -32.5q86 0 165.5 31t148.5 96.5t119.5 160t79.5 230t29 296.5q0 78 -13 145.5t-41.5 126.5t-71.5 101.5t-106 67t-140 24.5q-122 0 -222 -53t-171.5 -153.5t-110.5 -254t-39 -347.5zM656 1706l279 254h90l205 -254l-52 -72l-213 217l-275 -217z" />
<glyph unicode="&#xd5;" horiz-adv-x="1459" d="M196 580q0 157 32 294.5t94.5 247t150 188t203 120.5t248.5 42q113 0 204 -31t153.5 -85t105 -129t61.5 -161t19 -184q0 -166 -38 -311t-106 -252.5t-159.5 -185t-200 -116.5t-226.5 -39q-255 0 -398 160t-143 442zM373 556q0 -109 25 -196.5t72.5 -148.5t117.5 -93.5 t158 -32.5q86 0 165.5 31t148.5 96.5t119.5 160t79.5 230t29 296.5q0 78 -13 145.5t-41.5 126.5t-71.5 101.5t-106 67t-140 24.5q-122 0 -222 -53t-171.5 -153.5t-110.5 -254t-39 -347.5zM592 1701q4 6 10.5 15.5t30 34t49 43t65 33.5t79.5 15q47 0 94 -16t79 -35.5 t74 -35.5t79 -16q23 0 43.5 6t34.5 15t24.5 18t14.5 15l5 7l43 -57q-2 -2 -4.5 -6.5t-12.5 -16t-21 -22.5t-29 -24t-37.5 -22.5t-46 -15.5t-54.5 -6q-44 0 -90.5 16t-79 35t-76.5 35t-84 16q-25 0 -49 -9t-40.5 -22t-29.5 -25.5t-20 -21.5l-6 -9z" />
<glyph unicode="&#xd6;" horiz-adv-x="1459" d="M196 580q0 157 32 294.5t94.5 247t150 188t203 120.5t248.5 42q113 0 204 -31t153.5 -85t105 -129t61.5 -161t19 -184q0 -166 -38 -311t-106 -252.5t-159.5 -185t-200 -116.5t-226.5 -39q-255 0 -398 160t-143 442zM373 556q0 -109 25 -196.5t72.5 -148.5t117.5 -93.5 t158 -32.5q86 0 165.5 31t148.5 96.5t119.5 160t79.5 230t29 296.5q0 78 -13 145.5t-41.5 126.5t-71.5 101.5t-106 67t-140 24.5q-122 0 -222 -53t-171.5 -153.5t-110.5 -254t-39 -347.5zM692 1725q0 45 36 81q29 22 62 22q32 0 54 -22q18 -18 18 -51q0 -45 -36 -81 q-29 -22 -61 -22q-34 0 -55 22q-18 21 -18 51zM1036 1725q0 45 35 81q30 22 60 22q35 0 57 -22q18 -21 18 -51q0 -45 -36 -81q-29 -22 -63 -22q-31 0 -53 22q-18 22 -18 51z" />
<glyph unicode="&#xd7;" horiz-adv-x="786" d="M152 443l272 271l-194 272l81 85l196 -274l275 274l55 -85l-272 -272l194 -271l-78 -83l-197 272l-271 -272z" />
<glyph unicode="&#xd8;" horiz-adv-x="1459" d="M196 580q0 157 32 294.5t94.5 247t150 188t203 120.5t248.5 42q153 0 275 -62l116 215l58 -13l-125 -230q110 -76 164.5 -207t54.5 -293q0 -166 -38 -311t-106 -252.5t-159.5 -185t-200 -116.5t-226.5 -39q-133 0 -226 39l-132 -243l-57 13l136 256q-127 68 -194.5 206.5 t-67.5 330.5zM373 556q0 -136 37.5 -237.5t109.5 -160.5l616 1137q-90 69 -220 69q-122 0 -222 -53t-171.5 -153.5t-110.5 -254t-39 -347.5zM569 125q73 -40 177 -40q86 0 165.5 31t148.5 96.5t119.5 160t79.5 230t29 296.5q0 230 -110 356z" />
<glyph unicode="&#xd9;" horiz-adv-x="1383" d="M250 377q0 37 7 96l138 978h167l-131 -940q-7 -54 -7 -100q0 -155 76 -237t224 -82q176 0 283 110t134 309l131 940h123l-138 -978q-16 -110 -57.5 -199t-110 -156t-171 -103.5t-230.5 -36.5q-217 0 -327.5 106.5t-110.5 292.5zM722 1881l142 36l141 -319l-94 -18z" />
<glyph unicode="&#xda;" horiz-adv-x="1383" d="M250 377q0 37 7 96l138 978h167l-131 -940q-7 -54 -7 -100q0 -155 76 -237t224 -82q176 0 283 110t134 309l131 940h123l-138 -978q-16 -110 -57.5 -199t-110 -156t-171 -103.5t-230.5 -36.5q-217 0 -327.5 106.5t-110.5 292.5zM815 1587l214 324l136 -34l-268 -301z" />
<glyph unicode="&#xdb;" horiz-adv-x="1383" d="M250 377q0 37 7 96l138 978h167l-131 -940q-7 -54 -7 -100q0 -155 76 -237t224 -82q176 0 283 110t134 309l131 940h123l-138 -978q-16 -110 -57.5 -199t-110 -156t-171 -103.5t-230.5 -36.5q-217 0 -327.5 106.5t-110.5 292.5zM641 1706l279 254h89l205 -254l-51 -72 l-215 217l-274 -217z" />
<glyph unicode="&#xdc;" horiz-adv-x="1383" d="M250 377q0 37 7 96l138 978h167l-131 -940q-7 -54 -7 -100q0 -155 76 -237t224 -82q176 0 283 110t134 309l131 940h123l-138 -978q-16 -110 -57.5 -199t-110 -156t-171 -103.5t-230.5 -36.5q-217 0 -327.5 106.5t-110.5 292.5zM681 1725q0 46 35 81q29 22 61 22 q34 0 56 -22q17 -17 17 -51q0 -46 -35 -81q-29 -22 -61 -22q-34 0 -55 22q-18 21 -18 51zM1025 1725q0 45 36 81q29 22 60 22q33 0 55 -22q19 -22 19 -51q0 -45 -36 -81q-29 -22 -62 -22t-55 22q-17 21 -17 51z" />
<glyph unicode="&#xdd;" horiz-adv-x="1131" d="M207 1451h191l299 -714l498 714h136l-594 -842l-83 -609h-170l83 601zM732 1587l214 324l136 -34l-267 -301z" />
<glyph unicode="&#xde;" horiz-adv-x="1146" d="M237 0l202 1451h168l-34 -243h188q197 0 304 -95.5t107 -286.5q0 -70 -10.5 -133t-29.5 -114t-46 -95t-59.5 -78t-70 -61.5t-77.5 -46t-83 -31t-85 -18.5t-84 -6h-190l-33 -243h-167zM453 343h174q60 0 113.5 15t102.5 50t83.5 89t55.5 137.5t21 189.5q0 143 -68.5 212 t-197.5 69h-179z" />
<glyph unicode="&#xdf;" horiz-adv-x="1220" d="M-187 -531l46 92q4 -4 12 -10t35.5 -16t57.5 -10q87 0 142.5 89.5t85.5 293.5l183 1313q34 236 157 354.5t316 118.5q103 0 177.5 -31.5t113.5 -92t39 -143.5q0 -42 -8 -80t-22.5 -68.5t-35 -57.5t-43 -47.5t-49.5 -38.5t-53 -30.5t-54 -22.5q312 -74 312 -435 q0 -328 -137.5 -498.5t-382.5 -170.5q-38 0 -71.5 3.5t-57 8.5t-43 11t-31 12t-19.5 11.5t-11 8.5l-3 3l38 94q1 -2 5 -5.5t18 -12t31.5 -15t49 -11.5t68.5 -5q174 0 275.5 147t101.5 433q0 182 -86 265t-273 83l4 18l9 89q6 1 17 2.5t43 9.5t61 20t64 35.5t60.5 53t43 76 t17.5 102.5q0 85 -49 132t-141 47q-80 0 -137.5 -40.5t-95 -123t-55.5 -209.5l-183 -1313q-69 -488 -384 -488q-34 0 -62.5 5t-45.5 12.5t-29 14.5t-17 12z" />
<glyph unicode="&#xe0;" d="M147 426q0 98 17 189t49 170t81 144t110.5 111.5t140 72t167.5 25.5q46 0 86 -7.5t67 -20.5t47.5 -26t33.5 -27.5t19 -22.5t8 -14l39 96h129l-157 -1116h-129l-9 130q-9 -14 -22 -29.5t-41 -38.5t-61.5 -40.5t-85.5 -30.5t-110 -13q-174 0 -276.5 118.5t-102.5 329.5z M317 415q0 -109 32 -183t90 -109.5t141 -35.5q47 0 90.5 13.5t72 31t54 41t37 37.5t18.5 27l98 676q-1 5 -7 15.5t-23.5 29t-40 34t-62 27.5t-85.5 12q-68 0 -126.5 -20t-104 -57.5t-80.5 -92t-58 -123t-34.5 -149.5t-11.5 -174zM580 1580l144 36l140 -319l-93 -17z" />
<glyph unicode="&#xe1;" d="M147 426q0 98 17 189t49 170t81 144t110.5 111.5t140 72t167.5 25.5q46 0 86 -7.5t67 -20.5t47.5 -26t33.5 -27.5t19 -22.5t8 -14l39 96h129l-157 -1116h-129l-9 130q-9 -14 -22 -29.5t-41 -38.5t-61.5 -40.5t-85.5 -30.5t-110 -13q-174 0 -276.5 118.5t-102.5 329.5z M317 415q0 -109 32 -183t90 -109.5t141 -35.5q47 0 90.5 13.5t72 31t54 41t37 37.5t18.5 27l98 676q-1 5 -7 15.5t-23.5 29t-40 34t-62 27.5t-85.5 12q-68 0 -126.5 -20t-104 -57.5t-80.5 -92t-58 -123t-34.5 -149.5t-11.5 -174zM718 1286l215 324l136 -34l-268 -302z" />
<glyph unicode="&#xe2;" d="M147 426q0 98 17 189t49 170t81 144t110.5 111.5t140 72t167.5 25.5q46 0 86 -7.5t67 -20.5t47.5 -26t33.5 -27.5t19 -22.5t8 -14l39 96h129l-157 -1116h-129l-9 130q-9 -14 -22 -29.5t-41 -38.5t-61.5 -40.5t-85.5 -30.5t-110 -13q-174 0 -276.5 118.5t-102.5 329.5z M317 415q0 -109 32 -183t90 -109.5t141 -35.5q47 0 90.5 13.5t72 31t54 41t37 37.5t18.5 27l98 676q-1 5 -7 15.5t-23.5 29t-40 34t-62 27.5t-85.5 12q-68 0 -126.5 -20t-104 -57.5t-80.5 -92t-58 -123t-34.5 -149.5t-11.5 -174zM518 1404l279 255h89l205 -255l-51 -71 l-214 216l-274 -216z" />
<glyph unicode="&#xe3;" d="M147 426q0 98 17 189t49 170t81 144t110.5 111.5t140 72t167.5 25.5q46 0 86 -7.5t67 -20.5t47.5 -26t33.5 -27.5t19 -22.5t8 -14l39 96h129l-157 -1116h-129l-9 130q-9 -14 -22 -29.5t-41 -38.5t-61.5 -40.5t-85.5 -30.5t-110 -13q-174 0 -276.5 118.5t-102.5 329.5z M317 415q0 -109 32 -183t90 -109.5t141 -35.5q47 0 90.5 13.5t72 31t54 41t37 37.5t18.5 27l98 676q-1 5 -7 15.5t-23.5 29t-40 34t-62 27.5t-85.5 12q-68 0 -126.5 -20t-104 -57.5t-80.5 -92t-58 -123t-34.5 -149.5t-11.5 -174zM453 1400q4 5 11 14.5t30 34t48.5 43 t65 33.5t80.5 15q47 0 94 -16t79 -35t73.5 -35t79.5 -16q16 0 31.5 3t27.5 8.5t22.5 12t17.5 12.5t12.5 11.5t7.5 8.5l3 4l42 -56q-3 -5 -8 -12.5t-24.5 -27t-41 -34.5t-57 -27t-74.5 -12q-44 0 -90 16t-79 35t-77 35t-84 16q-18 0 -35.5 -4.5t-31.5 -12.5t-26.5 -17 t-21.5 -18.5t-16 -17t-10 -12.5l-4 -5z" />
<glyph unicode="&#xe4;" d="M147 426q0 98 17 189t49 170t81 144t110.5 111.5t140 72t167.5 25.5q46 0 86 -7.5t67 -20.5t47.5 -26t33.5 -27.5t19 -22.5t8 -14l39 96h129l-157 -1116h-129l-9 130q-9 -14 -22 -29.5t-41 -38.5t-61.5 -40.5t-85.5 -30.5t-110 -13q-174 0 -276.5 118.5t-102.5 329.5z M317 415q0 -109 32 -183t90 -109.5t141 -35.5q47 0 90.5 13.5t72 31t54 41t37 37.5t18.5 27l98 676q-1 5 -7 15.5t-23.5 29t-40 34t-62 27.5t-85.5 12q-68 0 -126.5 -20t-104 -57.5t-80.5 -92t-58 -123t-34.5 -149.5t-11.5 -174zM554 1425q0 43 36 79q30 23 62 23 q30 0 53 -23q19 -18 19 -51q0 -44 -36 -80q-31 -22 -61 -22q-33 0 -56 22q-17 21 -17 52zM897 1425q0 43 36 79q31 23 60 23q34 0 57 -23q17 -21 17 -51q0 -44 -36 -80q-30 -22 -62 -22q-31 0 -53 22q-19 23 -19 52z" />
<glyph unicode="&#xe5;" d="M147 426q0 98 17 189t49 170t81 144t110.5 111.5t140 72t167.5 25.5q46 0 86 -7.5t67 -20.5t47.5 -26t33.5 -27.5t19 -22.5t8 -14l39 96h129l-157 -1116h-129l-9 130q-9 -14 -22 -29.5t-41 -38.5t-61.5 -40.5t-85.5 -30.5t-110 -13q-174 0 -276.5 118.5t-102.5 329.5z M317 415q0 -109 32 -183t90 -109.5t141 -35.5q47 0 90.5 13.5t72 31t54 41t37 37.5t18.5 27l98 676q-1 5 -7 15.5t-23.5 29t-40 34t-62 27.5t-85.5 12q-68 0 -126.5 -20t-104 -57.5t-80.5 -92t-58 -123t-34.5 -149.5t-11.5 -174zM609 1404q0 113 66 178t164 65 q76 0 124.5 -47t48.5 -131q0 -112 -64.5 -175.5t-163.5 -63.5q-80 0 -127.5 45t-47.5 129zM674 1410q0 -41 16 -69t42 -40.5t60 -12.5q70 0 113 44.5t43 131.5q0 61 -32 92t-83 31q-69 0 -114 -44.5t-45 -132.5z" />
<glyph unicode="&#xe6;" horiz-adv-x="1655" d="M147 426q0 119 24 225t73 195t118.5 154t165.5 101.5t209 36.5q56 0 104.5 -12.5t76.5 -28t51.5 -37.5t30 -31t12.5 -17q139 126 339 126q79 0 143.5 -23.5t106 -64t64 -93.5t22.5 -113q0 -66 -22.5 -118.5t-58 -87t-89.5 -60t-106 -39.5t-119 -22t-117.5 -10t-111.5 -2 h-101q-2 -32 -2 -96q0 -168 81 -250.5t218 -82.5q55 0 106 13.5t83 33t56.5 38.5t35.5 33l11 13l59 -53q-5 -7 -14 -19t-42.5 -42.5t-73.5 -53.5t-107.5 -42t-142.5 -19q-117 0 -210 42.5t-151 124.5q-7 -11 -15.5 -23.5t-37 -41t-61.5 -49t-89.5 -37t-120.5 -16.5 q-187 0 -292.5 117.5t-105.5 330.5zM317 415q0 -163 70 -245.5t198 -82.5q48 0 91 12.5t73.5 32.5t50 38t35.5 37q-43 87 -43 221q0 154 38 283t110 222q-69 98 -208 98q-68 0 -126.5 -20t-104 -57.5t-80.5 -92t-58 -123t-34.5 -149.5t-11.5 -174zM971 590h96q50 0 90.5 1.5 t92 8t90.5 17.5t78.5 31t65.5 47t42 67t16 90q0 84 -55.5 137t-155.5 53q-143 0 -237 -119t-123 -333z" />
<glyph unicode="&#xe7;" horiz-adv-x="943" d="M149 433q0 159 36.5 288t107 222.5t181 144t252.5 50.5q50 0 99.5 -11t84.5 -26t63 -30.5t42 -26.5l14 -11l-28 -91q-5 4 -13.5 10.5t-36.5 23.5t-56.5 30t-71.5 23.5t-84 10.5q-417 0 -417 -627q0 -88 22 -154t61.5 -105t91 -58.5t114.5 -19.5q55 0 103 13.5t78.5 32.5 t52.5 37.5t32 32.5l9 13l64 -47q-3 -7 -11 -19.5t-39 -43.5t-69 -54.5t-104 -43t-142 -19.5h-7l-33 -132q0 -2 19 -6.5t47 -14.5t56 -26t48 -48t20 -75q0 -104 -69 -170t-195 -66q-42 0 -77 9.5t-55.5 23.5t-34.5 27.5t-20 23.5l-5 9l45 45q1 -1 2.5 -4t7.5 -10t13 -14 t19.5 -15.5t25.5 -14.5t31.5 -10t38.5 -4q84 0 128 44.5t44 123.5q0 32 -17.5 55.5t-42.5 34.5t-50 17t-42.5 9t-17.5 5l49 188q-171 19 -267.5 133.5t-96.5 316.5z" />
<glyph unicode="&#xe8;" horiz-adv-x="1010" d="M147 428q0 158 40.5 290.5t113.5 224.5t177 143.5t227 51.5q64 0 118.5 -15t94.5 -42.5t68 -64t42 -80.5t14 -92q0 -66 -22.5 -118.5t-58 -87t-89.5 -60t-106 -39.5t-119 -22t-117.5 -10t-112.5 -2h-100q-2 -32 -2 -96q0 -168 80.5 -250.5t218.5 -82.5q55 0 105.5 13.5 t83 33t57 38.5t35.5 33l11 13l59 -53q-3 -4 -7.5 -10.5t-21 -24.5t-36 -34.5t-52.5 -37t-69.5 -35t-87.5 -24.5t-106 -10q-95 0 -174.5 28.5t-138.5 83.5t-92 141.5t-33 196.5zM326 590h96q50 0 90.5 1.5t91.5 8t90.5 17.5t79 31t65.5 47t42 67t16 90q0 84 -55.5 137 t-155.5 53q-143 0 -237 -119t-123 -333zM513 1580l143 36l141 -319l-94 -17z" />
<glyph unicode="&#xe9;" horiz-adv-x="1010" d="M147 428q0 158 40.5 290.5t113.5 224.5t177 143.5t227 51.5q64 0 118.5 -15t94.5 -42.5t68 -64t42 -80.5t14 -92q0 -66 -22.5 -118.5t-58 -87t-89.5 -60t-106 -39.5t-119 -22t-117.5 -10t-112.5 -2h-100q-2 -32 -2 -96q0 -168 80.5 -250.5t218.5 -82.5q55 0 105.5 13.5 t83 33t57 38.5t35.5 33l11 13l59 -53q-3 -4 -7.5 -10.5t-21 -24.5t-36 -34.5t-52.5 -37t-69.5 -35t-87.5 -24.5t-106 -10q-95 0 -174.5 28.5t-138.5 83.5t-92 141.5t-33 196.5zM326 590h96q50 0 90.5 1.5t91.5 8t90.5 17.5t79 31t65.5 47t42 67t16 90q0 84 -55.5 137 t-155.5 53q-143 0 -237 -119t-123 -333zM652 1286l215 324l136 -34l-268 -302z" />
<glyph unicode="&#xea;" horiz-adv-x="1010" d="M147 428q0 158 40.5 290.5t113.5 224.5t177 143.5t227 51.5q64 0 118.5 -15t94.5 -42.5t68 -64t42 -80.5t14 -92q0 -66 -22.5 -118.5t-58 -87t-89.5 -60t-106 -39.5t-119 -22t-117.5 -10t-112.5 -2h-100q-2 -32 -2 -96q0 -168 80.5 -250.5t218.5 -82.5q55 0 105.5 13.5 t83 33t57 38.5t35.5 33l11 13l59 -53q-3 -4 -7.5 -10.5t-21 -24.5t-36 -34.5t-52.5 -37t-69.5 -35t-87.5 -24.5t-106 -10q-95 0 -174.5 28.5t-138.5 83.5t-92 141.5t-33 196.5zM326 590h96q50 0 90.5 1.5t91.5 8t90.5 17.5t79 31t65.5 47t42 67t16 90q0 84 -55.5 137 t-155.5 53q-143 0 -237 -119t-123 -333zM451 1404l279 255h90l205 -255l-52 -71l-214 216l-275 -216z" />
<glyph unicode="&#xeb;" horiz-adv-x="1010" d="M147 428q0 158 40.5 290.5t113.5 224.5t177 143.5t227 51.5q64 0 118.5 -15t94.5 -42.5t68 -64t42 -80.5t14 -92q0 -66 -22.5 -118.5t-58 -87t-89.5 -60t-106 -39.5t-119 -22t-117.5 -10t-112.5 -2h-100q-2 -32 -2 -96q0 -168 80.5 -250.5t218.5 -82.5q55 0 105.5 13.5 t83 33t57 38.5t35.5 33l11 13l59 -53q-3 -4 -7.5 -10.5t-21 -24.5t-36 -34.5t-52.5 -37t-69.5 -35t-87.5 -24.5t-106 -10q-95 0 -174.5 28.5t-138.5 83.5t-92 141.5t-33 196.5zM326 590h96q50 0 90.5 1.5t91.5 8t90.5 17.5t79 31t65.5 47t42 67t16 90q0 84 -55.5 137 t-155.5 53q-143 0 -237 -119t-123 -333zM484 1425q0 43 36 79q30 23 60 23q34 0 57 -23q17 -17 17 -51q0 -44 -36 -80q-30 -22 -60 -22q-33 0 -56 22q-18 23 -18 52zM828 1425q0 43 36 79q31 23 60 23q33 0 56 -23q17 -21 17 -51q0 -45 -35 -80q-30 -22 -63 -22 q-30 0 -53 22q-18 21 -18 52z" />
<glyph unicode="&#xec;" horiz-adv-x="492" d="M166 0l156 1116h160l-156 -1116h-160zM215 1580l143 36l140 -319l-94 -17z" />
<glyph unicode="&#xed;" horiz-adv-x="492" d="M166 0l156 1116h160l-156 -1116h-160zM353 1286l214 324l136 -34l-268 -302z" />
<glyph unicode="&#xee;" horiz-adv-x="492" d="M156 1404l279 255h89l206 -255l-51 -71l-215 216l-274 -216zM166 0l156 1116h160l-156 -1116h-160z" />
<glyph unicode="&#xef;" horiz-adv-x="492" d="M166 0l156 1116h160l-156 -1116h-160zM190 1425q0 43 36 79q30 23 60 23q32 0 55 -23q19 -18 19 -51q0 -44 -36 -80q-31 -22 -60 -22q-34 0 -57 22q-17 21 -17 52zM533 1425q0 43 36 79q30 23 61 23q33 0 56 -23q17 -21 17 -51q0 -44 -36 -80q-30 -22 -62 -22 q-31 0 -53 22q-19 23 -19 52z" />
<glyph unicode="&#xf0;" horiz-adv-x="1133" d="M152 433q0 168 39 301t111 221.5t174 135.5t227 47q155 0 257 -102q-37 254 -185 419l-273 -143l-20 58l248 132q-51 49 -121 100l92 50q75 -47 134 -97l192 104l20 -59l-165 -86q117 -121 180 -303t63 -450q0 -71 -2 -109q-13 -208 -81 -358t-192 -233t-294 -83 q-102 0 -180 33.5t-126.5 94.5t-73 143.5t-24.5 183.5zM319 409q0 -335 252 -335q186 0 285.5 160.5t99.5 462.5q0 102 -27 178.5t-85 121.5t-143 45q-185 0 -283.5 -163t-98.5 -470z" />
<glyph unicode="&#xf1;" horiz-adv-x="1140" d="M166 0l156 1116h134l8 -102q125 124 342 124q142 0 219.5 -69t77.5 -207q0 -39 -6 -83l-108 -779h-163q103 729 107 759q4 25 4 67q0 194 -202 194q-49 0 -94.5 -11t-75 -24.5t-57 -32t-36.5 -27t-16 -15.5v-1l-128 -909h-162zM386 1400q4 5 10.5 14.5t30 34t49 43 t65 33.5t79.5 15q47 0 94 -16t79 -35t74 -35t79 -16q17 0 32.5 3t27.5 8.5t22.5 12t18 12.5t12.5 11.5t8 8.5l2 4l43 -56q-2 -2 -4.5 -6t-12.5 -16t-21.5 -22.5t-29.5 -24t-37.5 -22.5t-46 -15.5t-54.5 -6.5q-44 0 -90.5 16t-79 35t-76.5 35t-84 16q-25 0 -49 -9 t-40.5 -21.5t-30 -25.5t-19.5 -22l-6 -9z" />
<glyph unicode="&#xf2;" horiz-adv-x="1118" d="M149 437q0 156 37.5 284.5t108 221.5t179 144t244.5 51q130 0 221 -55t137.5 -157.5t46.5 -246.5q0 -209 -66.5 -366.5t-196 -246t-306.5 -88.5q-195 0 -300 120t-105 339zM317 407q0 -157 63.5 -244t192.5 -87q185 0 284 164.5t99 466.5q0 158 -63.5 245.5t-191.5 87.5 q-186 0 -285 -164.5t-99 -468.5zM518 1580l143 36l140 -319l-94 -17z" />
<glyph unicode="&#xf3;" horiz-adv-x="1118" d="M149 437q0 156 37.5 284.5t108 221.5t179 144t244.5 51q130 0 221 -55t137.5 -157.5t46.5 -246.5q0 -209 -66.5 -366.5t-196 -246t-306.5 -88.5q-195 0 -300 120t-105 339zM317 407q0 -157 63.5 -244t192.5 -87q185 0 284 164.5t99 466.5q0 158 -63.5 245.5t-191.5 87.5 q-186 0 -285 -164.5t-99 -468.5zM656 1286l215 324l136 -34l-268 -302z" />
<glyph unicode="&#xf4;" horiz-adv-x="1118" d="M149 437q0 156 37.5 284.5t108 221.5t179 144t244.5 51q130 0 221 -55t137.5 -157.5t46.5 -246.5q0 -209 -66.5 -366.5t-196 -246t-306.5 -88.5q-195 0 -300 120t-105 339zM317 407q0 -157 63.5 -244t192.5 -87q185 0 284 164.5t99 466.5q0 158 -63.5 245.5t-191.5 87.5 q-186 0 -285 -164.5t-99 -468.5zM456 1404l279 255h89l205 -255l-51 -71l-215 216l-274 -216z" />
<glyph unicode="&#xf5;" horiz-adv-x="1118" d="M149 437q0 156 37.5 284.5t108 221.5t179 144t244.5 51q130 0 221 -55t137.5 -157.5t46.5 -246.5q0 -209 -66.5 -366.5t-196 -246t-306.5 -88.5q-195 0 -300 120t-105 339zM317 407q0 -157 63.5 -244t192.5 -87q185 0 284 164.5t99 466.5q0 158 -63.5 245.5t-191.5 87.5 q-186 0 -285 -164.5t-99 -468.5zM390 1400q4 5 11 14.5t30 34t48.5 43t65 33.5t80.5 15q32 0 64.5 -7.5t57 -19t51 -24.5t49 -24.5t50 -19t53.5 -7.5q17 0 32.5 3t27.5 8.5t22.5 12t18 12.5t13 11.5t7.5 8.5l3 4l42 -56q-3 -5 -8.5 -12.5t-24.5 -27t-41 -34.5t-57.5 -27 t-73.5 -12q-44 0 -90 16t-79.5 35t-77.5 35t-84 16q-18 0 -35.5 -4.5t-31.5 -12.5t-26.5 -17t-22 -18.5t-16 -17t-10.5 -12.5l-3 -5z" />
<glyph unicode="&#xf6;" horiz-adv-x="1118" d="M149 437q0 156 37.5 284.5t108 221.5t179 144t244.5 51q130 0 221 -55t137.5 -157.5t46.5 -246.5q0 -209 -66.5 -366.5t-196 -246t-306.5 -88.5q-195 0 -300 120t-105 339zM317 407q0 -157 63.5 -244t192.5 -87q185 0 284 164.5t99 466.5q0 158 -63.5 245.5t-191.5 87.5 q-186 0 -285 -164.5t-99 -468.5zM489 1425q0 44 35 79q31 23 61 23q33 0 56 -23q17 -17 17 -51q0 -44 -36 -80q-30 -22 -60 -22q-32 0 -55 22q-18 21 -18 52zM833 1425q0 43 36 79q30 23 60 23q32 0 55 -23q19 -22 19 -51q0 -44 -36 -80q-31 -22 -63 -22q-31 0 -54 22 q-17 21 -17 52z" />
<glyph unicode="&#xf7;" horiz-adv-x="1046" d="M149 513l17 105h895l-17 -105h-895zM437 132q0 52 43 91q32 27 74 27t68 -27q21 -24 21 -59q0 -55 -40 -92q-39 -27 -77 -27q-42 0 -66 27q-23 27 -23 60zM560 969q0 52 43 92q32 26 74 26t69 -26q19 -23 19 -60q0 -56 -39 -92q-39 -27 -76 -27q-43 0 -67 27 q-23 27 -23 60z" />
<glyph unicode="&#xf8;" horiz-adv-x="1137" d="M113 -386l219 418q-183 108 -183 405q0 156 37.5 284.5t108 221.5t179 144t244.5 51q102 0 179 -33l183 346l83 -13l-196 -373q156 -116 156 -386q0 -209 -66.5 -366.5t-196 -246t-306.5 -88.5q-77 0 -152 22l-210 -400zM317 407q0 -178 75 -260l449 854q-59 39 -140 39 q-186 0 -285 -164.5t-99 -468.5zM456 100q53 -24 117 -24q185 0 284 164.5t99 466.5q0 150 -57 233z" />
<glyph unicode="&#xf9;" horiz-adv-x="1137" d="M192 259q0 37 6 78l110 779h161l-103 -745q-6 -41 -6 -75q0 -200 198 -200q50 0 97.5 11.5t79.5 28.5t56.5 34t36.5 29l11 11l130 906h162l-158 -1116h-134l-6 107q-129 -129 -341 -129q-143 0 -221.5 71t-78.5 210zM536 1580l143 36l141 -319l-94 -17z" />
<glyph unicode="&#xfa;" horiz-adv-x="1137" d="M192 259q0 37 6 78l110 779h161l-103 -745q-6 -41 -6 -75q0 -200 198 -200q50 0 97.5 11.5t79.5 28.5t56.5 34t36.5 29l11 11l130 906h162l-158 -1116h-134l-6 107q-129 -129 -341 -129q-143 0 -221.5 71t-78.5 210zM674 1286l214 324l137 -34l-269 -302z" />
<glyph unicode="&#xfb;" horiz-adv-x="1137" d="M192 259q0 37 6 78l110 779h161l-103 -745q-6 -41 -6 -75q0 -200 198 -200q50 0 97.5 11.5t79.5 28.5t56.5 34t36.5 29l11 11l130 906h162l-158 -1116h-134l-6 107q-129 -129 -341 -129q-143 0 -221.5 71t-78.5 210zM473 1404l279 255h89l206 -255l-52 -71l-213 216 l-275 -216z" />
<glyph unicode="&#xfc;" horiz-adv-x="1137" d="M192 259q0 37 6 78l110 779h161l-103 -745q-6 -41 -6 -75q0 -200 198 -200q50 0 97.5 11.5t79.5 28.5t56.5 34t36.5 29l11 11l130 906h162l-158 -1116h-134l-6 107q-129 -129 -341 -129q-143 0 -221.5 71t-78.5 210zM507 1425q0 43 36 79q30 23 60 23q32 0 55 -23 q19 -18 19 -51q0 -44 -36 -80q-31 -22 -61 -22q-33 0 -56 22q-17 21 -17 52zM850 1425q0 43 36 79q31 23 60 23q34 0 57 -23q17 -21 17 -51q0 -44 -36 -80q-30 -22 -62 -22q-30 0 -53 22q-19 23 -19 52z" />
<glyph unicode="&#xfd;" horiz-adv-x="1008" d="M-38 -552l31 103q39 -20 88 -20q31 0 61.5 12.5t57 31.5t55.5 53.5t52.5 68t53.5 86t52.5 95t55.5 107.5l-277 1131h192l199 -931l433 931h115l-543 -1131q-40 -84 -75 -150t-76 -133t-80.5 -115.5t-82.5 -87.5t-89 -59t-93 -20q-40 0 -72.5 7t-45.5 14zM641 1286 l214 324l136 -34l-267 -302z" />
<glyph unicode="&#xfe;" horiz-adv-x="1146" d="M83 -562l315 2232l162 9l-98 -695h5q3 7 10.5 17t35 36.5t61 47t90 37t120.5 16.5q113 0 197.5 -52.5t131 -153.5t46.5 -240q0 -118 -23 -224.5t-69.5 -196t-112.5 -155t-156.5 -102t-196.5 -36.5q-55 0 -102 10t-79 26t-51.5 30.5t-33.5 29.5l-90 -632zM351 183 q6 -8 11.5 -15.5t25 -24t42 -28t61 -21t82.5 -9.5q137 0 230.5 76.5t139.5 215.5t46 333q0 157 -69 238t-196 81q-38 0 -73.5 -8.5t-62.5 -22.5t-50 -31t-39 -34t-27.5 -31t-17.5 -22l-5 -9h-2z" />
<glyph unicode="&#xff;" horiz-adv-x="1008" d="M-38 -552l31 103q39 -20 88 -20q31 0 61.5 12.5t57 31.5t55.5 53.5t52.5 68t53.5 86t52.5 95t55.5 107.5l-277 1131h192l199 -931l433 931h115l-543 -1131q-40 -84 -75 -150t-76 -133t-80.5 -115.5t-82.5 -87.5t-89 -59t-93 -20q-40 0 -72.5 7t-45.5 14zM473 1425 q0 43 36 79q31 23 62 23t54 -23q18 -18 18 -51q0 -44 -36 -80q-30 -22 -60 -22q-33 0 -55 22q-19 23 -19 52zM818 1425q0 44 34 79q31 23 61 23q33 0 56 -23q17 -21 17 -51q0 -44 -36 -80q-30 -22 -62 -22q-30 0 -53 22q-17 21 -17 52z" />
<glyph unicode="&#x152;" horiz-adv-x="2098" d="M196 580q0 157 32 294.5t94.5 247t150 188t203 120.5t248.5 42q289 0 431 -198l25 177h784l-15 -107h-615l-67 -482q0 -13 -5 -76h556l-16 -103h-551q-11 -71 -26 -129l-64 -447h664l-16 -107h-833l23 166q-95 -92 -213.5 -140t-248.5 -48q-255 0 -398 160t-143 442z M373 556q0 -109 25 -196.5t72.5 -148.5t117.5 -93.5t158 -32.5q89 0 170.5 34.5t151 101t121 173t76.5 243.5l15 98v11q8 98 8 153q0 78 -13 145.5t-41.5 126.5t-71.5 101.5t-106 67t-140 24.5q-122 0 -222 -53t-171.5 -153.5t-110.5 -254t-39 -347.5z" />
<glyph unicode="&#x153;" horiz-adv-x="1805" d="M149 437q0 156 37.5 284.5t108 221.5t179 144t244.5 51q131 0 223 -56.5t137 -161.5q74 105 182.5 161.5t239.5 56.5q79 0 144 -23.5t106.5 -64t64.5 -93.5t23 -113q0 -66 -22.5 -118.5t-58.5 -87t-90 -60t-106 -39.5t-119.5 -22t-117.5 -10t-112 -2h-100q-2 -32 -2 -96 q0 -168 80.5 -250.5t217.5 -82.5q56 0 106.5 13.5t83 33t57.5 38.5t36 33l10 13l58 -53q-4 -7 -13 -19t-42.5 -42.5t-73 -53.5t-107 -42t-143.5 -19q-135 0 -235.5 54.5t-153.5 161.5q-75 -104 -186 -160t-251 -56q-195 0 -300 120t-105 339zM317 407q0 -157 63.5 -244 t192.5 -87q185 0 284 164.5t99 466.5q0 158 -63.5 245.5t-191.5 87.5q-186 0 -285 -164.5t-99 -468.5zM1121 590h95q50 0 91 1.5t92 8t90 17.5t79 31t65.5 47t42 67t16.5 90q0 84 -55.5 137t-156.5 53q-143 0 -237 -119t-122 -333z" />
<glyph unicode="&#x178;" horiz-adv-x="1131" d="M207 1451h191l299 -714l498 714h136l-594 -842l-83 -609h-170l83 601zM556 1725q0 45 36 81q29 22 60 22q34 0 55 -22q19 -18 19 -51q0 -45 -36 -81q-29 -22 -60 -22q-35 0 -57 22q-17 21 -17 51zM899 1725q0 45 36 81q29 22 60 22q35 0 57 -22q17 -21 17 -51 q0 -45 -36 -81q-29 -22 -62 -22q-31 0 -53 22q-19 22 -19 51z" />
<glyph unicode="&#x2c6;" horiz-adv-x="749" d="M283 1404l279 255h90l205 -255l-51 -71l-214 216l-275 -216z" />
<glyph unicode="&#x2dc;" horiz-adv-x="883" d="M281 1400q4 5 11 14.5t30 34t48.5 43t65 33.5t80.5 15q28 0 55.5 -5.5t50.5 -14.5t45 -20t43 -22t41.5 -20t44 -14.5t45.5 -5.5q17 0 32.5 3t27.5 8.5t22.5 12t18 12.5t13 11.5t7.5 8.5l3 4l42 -56q-1 -2 -4 -6t-13 -16t-21 -22.5t-29.5 -24t-38 -22.5t-46 -15.5 t-54.5 -6.5q-44 0 -90 16t-79 35t-77 35t-84 16q-25 0 -48.5 -9t-40.5 -21.5t-30 -25.5t-20 -22l-6 -9z" />
<glyph unicode="&#x2000;" horiz-adv-x="980" />
<glyph unicode="&#x2001;" horiz-adv-x="1960" />
<glyph unicode="&#x2002;" horiz-adv-x="980" />
<glyph unicode="&#x2003;" horiz-adv-x="1960" />
<glyph unicode="&#x2004;" horiz-adv-x="653" />
<glyph unicode="&#x2005;" horiz-adv-x="490" />
<glyph unicode="&#x2006;" horiz-adv-x="326" />
<glyph unicode="&#x2007;" horiz-adv-x="326" />
<glyph unicode="&#x2008;" horiz-adv-x="245" />
<glyph unicode="&#x2009;" horiz-adv-x="392" />
<glyph unicode="&#x200a;" horiz-adv-x="108" />
<glyph unicode="&#x2010;" horiz-adv-x="662" d="M156 567l16 104h509l-14 -104h-511z" />
<glyph unicode="&#x2011;" horiz-adv-x="662" d="M156 567l16 104h509l-14 -104h-511z" />
<glyph unicode="&#x2012;" horiz-adv-x="662" d="M156 567l16 104h509l-14 -104h-511z" />
<glyph unicode="&#x2013;" horiz-adv-x="1048" d="M156 567l16 104h895l-15 -104h-896z" />
<glyph unicode="&#x2014;" horiz-adv-x="1389" d="M156 567l16 104h1238l-15 -104h-1239z" />
<glyph unicode="&#x2018;" horiz-adv-x="313" d="M221 1212q0 51 21.5 118.5t56.5 133t84 126.5t101 100l40 -50q-80 -64 -137 -167t-65 -187h8q34 0 58 -21q19 -22 19 -51q0 -49 -39 -83q-27 -24 -64 -24q-35 0 -59 24q-2 0 -2 3q-22 25 -22 78z" />
<glyph unicode="&#x2019;" horiz-adv-x="313" d="M164 1150q81 64 138.5 166.5t65.5 185.5h-6q-35 0 -58 23q-18 22 -18 53q0 53 36 81q27 24 64 24q35 0 59 -24l6 -14l7 -11q0 -1 1 -2t1 -2q9 -31 9 -54q0 -105 -79.5 -252t-184.5 -225z" />
<glyph unicode="&#x201a;" horiz-adv-x="313" d="M-40 -313q81 64 138 167t66 186h-10q-37 0 -56 22q-17 20 -17 54q0 53 35 80q26 23 65 23q38 0 58 -23q1 -1 2.5 -4t3 -5.5t2.5 -5.5q5 -4 5 -9q0 -1 1 -2t1 -2q10 -34 10 -55q0 -104 -79.5 -251.5t-184.5 -225.5z" />
<glyph unicode="&#x201c;" horiz-adv-x="646" d="M221 1212q0 51 21.5 118.5t56.5 133t84 126.5t101 100l40 -50q-80 -64 -137 -167t-65 -187h8q34 0 58 -21q19 -22 19 -51q0 -49 -39 -83q-27 -24 -64 -24q-35 0 -59 24q-24 28 -24 81zM552 1212q0 51 21 118.5t56.5 133t84.5 126.5t101 100l40 -50q-81 -64 -138 -167 t-65 -187h9q33 0 57 -21q19 -22 19 -51q0 -49 -38 -83q-28 -24 -65 -24q-34 0 -58 24q-3 0 -3 3q-21 25 -21 78z" />
<glyph unicode="&#x201d;" horiz-adv-x="646" d="M164 1150q81 64 138.5 166.5t65.5 185.5h-6q-35 0 -58 23q-18 22 -18 53q0 53 36 81q27 24 64 24q35 0 59 -24l6 -14l7 -11q0 -1 1 -2t1 -2q9 -31 9 -54q0 -105 -79.5 -252t-184.5 -225zM494 1150q54 43 100 107t72.5 128t32.5 117h-7q-35 0 -58 23q-18 22 -18 53 q0 53 36 81q27 24 64 24q35 0 59 -24l7 -14l6 -11q0 -1 1 -2t1 -2q9 -31 9 -54q0 -105 -79 -252t-184 -225z" />
<glyph unicode="&#x201e;" horiz-adv-x="646" d="M-40 -313q81 64 138 167t66 186h-10q-37 0 -56 22q-17 20 -17 54q0 53 35 80q26 23 65 23q38 0 58 -23q1 -1 2.5 -4t3 -5.5t2.5 -5.5q5 -4 5 -9q0 -1 1 -2t1 -2q10 -34 10 -55q0 -104 -79.5 -251.5t-184.5 -225.5zM290 -313q81 64 138 167t66 186h-10q-37 0 -56 22 q-17 20 -17 54q0 52 36 80q26 23 64 23t58 -23q1 -1 2.5 -4t3.5 -5.5t3 -5.5q5 -6 5 -9q0 -1 1 -2t1 -2q9 -31 9 -55q0 -104 -79.5 -251.5t-184.5 -225.5z" />
<glyph unicode="&#x2022;" horiz-adv-x="669" d="M252 688q0 44 18.5 87t53.5 73q58 45 125 45q69 0 113 -45q36 -39 36 -102q0 -45 -18.5 -87t-53.5 -71q-53 -45 -126 -45t-114 45q-34 42 -34 100z" />
<glyph unicode="&#x2026;" horiz-adv-x="1479" d="M177 66q0 53 42 92q34 27 73 27q43 0 70 -27q20 -23 20 -60q0 -54 -41 -91q-37 -27 -75 -27q-45 0 -68 27q-21 25 -21 59zM645 66q0 53 43 92q34 27 73 27q42 0 70 -27q19 -23 19 -60q0 -54 -40 -91q-38 -27 -75 -27q-45 0 -68 27q-22 25 -22 59zM1114 66q0 53 42 92 q35 27 74 27q42 0 69 -27q20 -23 20 -60q0 -55 -39 -91q-38 -27 -77 -27q-44 0 -67 27q-22 25 -22 59z" />
<glyph unicode="&#x202f;" horiz-adv-x="392" />
<glyph unicode="&#x2039;" horiz-adv-x="720" d="M264 558l399 382l42 -58l-288 -326l194 -330l-57 -60z" />
<glyph unicode="&#x203a;" horiz-adv-x="720" d="M168 223l288 322l-194 335l57 60l290 -395l-396 -379z" />
<glyph unicode="&#x205f;" horiz-adv-x="490" />
<glyph unicode="&#x20ac;" horiz-adv-x="1272" d="M174 511l13 90h124q3 126 17 209l-111 8l13 86h113q19 83 48 155.5t69 136.5t93.5 113.5t119 85.5t148 55t176.5 19q64 0 124.5 -11.5t102.5 -28.5t75 -34t49 -28l16 -12l-35 -100q-16 12 -44 30t-114 48.5t-170 30.5q-198 0 -318.5 -114.5t-166.5 -345.5h571l-16 -98 h-573q-14 -137 -16 -205h560l-13 -99h-547q5 -213 100 -318.5t273 -105.5q66 0 128.5 19t103.5 45.5t73 53t46 45.5l15 18l25 -74q-3 -4 -8.5 -11.5t-25.5 -29t-43 -41t-61 -43.5t-80 -41t-99.5 -29t-118.5 -12q-236 0 -362.5 138t-136.5 389z" />
<glyph unicode="&#x2122;" horiz-adv-x="1676" d="M353 1594l13 80h243v-2h101v2h283l-13 -80h-281l-98 -701h-101l98 701h-245zM933 893l149 781h106l129 -688l349 688h98l-88 -781h-98l67 611l-310 -611h-87l-132 630l-107 -630h-76z" />
<glyph unicode="&#x25fc;" horiz-adv-x="1116" d="M0 0v1116h1116v-1116h-1116z" />
</font>
</defs>
</svg>
