<?xml version="1.0" standalone="no"?>
<!DOCTYPE svg PUBLIC "-//W3C//DTD SVG 1.1//EN" "http://www.w3.org/Graphics/SVG/1.1/DTD/svg11.dtd" >
<svg xmlns="http://www.w3.org/2000/svg">
<metadata></metadata>
<defs>
<font id="cuprumbold" horiz-adv-x="1059" >
<font-face units-per-em="2048" ascent="1638" descent="-410" />
<missing-glyph horiz-adv-x="558" />
<glyph horiz-adv-x="2048" />
<glyph horiz-adv-x="2048" />
<glyph unicode="&#xd;" horiz-adv-x="742" />
<glyph unicode=" "  horiz-adv-x="558" />
<glyph unicode="&#x09;" horiz-adv-x="558" />
<glyph unicode="&#xa0;" horiz-adv-x="558" />
<glyph unicode="!" horiz-adv-x="579" d="M134 1563h313l-45 -1150h-223zM156 -22v267h268v-267h-268z" />
<glyph unicode="&#x22;" horiz-adv-x="825" d="M89 1563h269l-57 -525h-156zM469 1563h268l-56 -525h-157z" />
<glyph unicode="#" horiz-adv-x="1316" d="M45 435v179h232l51 334h-217v179h247l66 436h257l-67 -436h201l67 436h256l-67 -436h201v-179h-232l-51 -334h217v-179h-246l-67 -435h-256l66 435h-201l-67 -435h-256l66 435h-200zM509 614h247l52 334h-248z" />
<glyph unicode="$" horiz-adv-x="1037" d="M66 1183q0 168 95.5 274t285.5 123v184h156v-181q91 -5 163.5 -17.5t115.5 -25.5v-123h-279v-542q64 -31 130 -66.5t118.5 -88.5t86 -128.5t33.5 -189.5q0 -170 -86 -275t-282 -136v-192h-156v179h-12q-119 0 -212 13t-145 31v123h312h29t28 2v541q-67 31 -134.5 66.5 t-122 91t-89.5 136t-35 201.5zM335 1183q0 -79 30 -129.5t82 -88.5v426q-112 -61 -112 -208zM603 190q100 63 100 212q0 69 -28 116t-72 83v-411z" />
<glyph unicode="%" horiz-adv-x="1606" d="M56 1250q0 152 93 243.5t253 91.5t253 -91.5t93 -243.5q0 -151 -93 -242.5t-253 -91.5t-253 91.5t-93 242.5zM234 0l871 1563h268l-871 -1563h-268zM279 1250q0 -94 36 -136.5t87 -42.5t86.5 42.5t35.5 136.5t-35.5 136.5t-86.5 42.5t-87 -42.5t-36 -136.5zM859 313 q0 151 93 242.5t254 91.5q160 0 252.5 -91.5t92.5 -242.5q0 -152 -92.5 -243.5t-252.5 -91.5q-161 0 -254 91t-93 244zM1082 313q0 -94 36 -136.5t88 -42.5q51 0 87 42.5t36 136.5t-36 136.5t-87 42.5q-52 0 -88 -42.5t-36 -136.5z" />
<glyph unicode="&#x26;" horiz-adv-x="1216" d="M78 402q0 100 13.5 192t31.5 143h212v-335q0 -80 14.5 -129.5t37 -78t48 -39t45.5 -10.5q51 0 98 51t80 162q-113 158 -188 276t-119.5 212t-63.5 173.5t-19 163.5q0 185 109 293.5t304 108.5q119 0 212 -13t145 -32v-123h-312q-76 0 -133 -62.5t-57 -171.5 q0 -58 8 -113.5t32.5 -122.5t68 -148t114.5 -185l100 257h268l-201 -492l269 -379h-291l-105 152q-58 -88 -131.5 -131t-198.5 -43q-177 0 -284 110t-107 314z" />
<glyph unicode="'" horiz-adv-x="445" d="M89 1563h269l-57 -525h-156z" />
<glyph unicode="(" horiz-adv-x="592" d="M111 625q0 109 18 239.5t60.5 268t110.5 277t169 264.5l125 -66q-51 -119 -87 -233t-59.5 -233.5t-34.5 -247t-11 -269.5q0 -143 11 -270t34.5 -246.5t59.5 -234.5t87 -232l-125 -66q-101 125 -169 264.5t-110.5 276.5t-60.5 268t-18 240z" />
<glyph unicode=")" horiz-adv-x="592" d="M0 -358q51 116 87 231.5t59.5 235t34.5 246.5t11 270q0 142 -11 269.5t-34.5 247t-59.5 233.5t-87 233l125 66q101 -125 169 -264.5t110.5 -277t60 -267.5t17.5 -240q0 -109 -17.5 -240t-60 -268t-110.5 -276.5t-169 -264.5z" />
<glyph unicode="*" horiz-adv-x="1003" d="M45 1116l49 205l296 -64v306h224v-306l297 64l49 -205l-266 -58l139 -261l-192 -105l-139 264l-138 -264l-192 105l139 261z" />
<glyph unicode="+" horiz-adv-x="1003" d="M66 580v179h336v379h201v-379h334v-179h-334v-379h-201v379h-336z" />
<glyph unicode="," horiz-adv-x="434" d="M89 245h269l-90 -513h-179v513z" />
<glyph unicode="-" horiz-adv-x="848" d="M66 580v179h716v-179h-716z" />
<glyph unicode="." horiz-adv-x="445" d="M89 -22v267h269v-267h-269z" />
<glyph unicode="/" horiz-adv-x="937" d="M0 0l669 1563h268l-669 -1563h-268z" />
<glyph unicode="0" horiz-adv-x="1182" d="M100 782q0 225 36 379t100.5 247.5t155 135t200.5 41.5q109 0 199.5 -41.5t155.5 -135t100 -247.5t35 -379q0 -226 -35 -380.5t-100 -248t-155.5 -134.5t-199.5 -41t-200 41t-155.5 134.5t-100.5 248t-36 380.5zM368 782q0 -197 21.5 -323.5t53.5 -197.5t71.5 -99 t77.5 -28t76.5 28t71.5 99t54 197.5t21 323.5q0 196 -21 322t-54 197.5t-71.5 99.5t-76.5 28t-77.5 -28t-71.5 -99.5t-53.5 -197.5t-21.5 -322z" />
<glyph unicode="1" horiz-adv-x="680" d="M22 1384v134q51 18 145.5 31.5t211.5 13.5h145v-1563h-267v1384h-235z" />
<glyph unicode="2" horiz-adv-x="937" d="M34 0v201q149 172 257.5 300.5t177.5 233t101.5 195t32.5 186.5q0 160 -63 230.5t-172 70.5h-312v123q51 18 144.5 31.5t212.5 13.5q458 0 458 -469q0 -104 -44.5 -214t-123 -226t-182.5 -239.5t-220 -257.5h558v-179h-825z" />
<glyph unicode="3" horiz-adv-x="970" d="M34 22v123h312q279 0 279 279q0 160 -68 232t-211 72h-178v176h156q257 0 256 268q0 119 -62 182t-172 63h-290v123q51 18 144.5 31.5t212.5 13.5q210 0 322.5 -109.5t112.5 -303.5q0 -128 -59 -211.5t-152 -129.5v-9q57 -20 105 -59t81.5 -92t51.5 -116t18 -131 q0 -219 -120.5 -332.5t-382.5 -113.5q-119 0 -212 13t-144 31z" />
<glyph unicode="4" horiz-adv-x="1082" d="M56 379v201l558 983h290v-1005h123v-179h-123v-379h-267v379h-581zM301 558h336v603h-10z" />
<glyph unicode="5" horiz-adv-x="1037" d="M100 22v123h313q143 0 211 70.5t68 231.5q0 168 -68 240t-211 72h-290v804h781v-168h-514v-469h68q261 0 381.5 -118t120.5 -361q0 -237 -121 -353t-381 -116q-119 0 -212.5 13t-145.5 31z" />
<glyph unicode="6" d="M100 447v490q0 335 125 491.5t344 156.5q119 0 212.5 -13t144.5 -32v-123h-289q-58 0 -107.5 -23.5t-85 -81t-56 -153.5t-20.5 -243q52 17 111 24.5t101 7.5q194 0 303.5 -119t109.5 -371q0 -243 -114 -361.5t-332 -118.5q-219 0 -333 116t-114 353zM368 447 q0 -168 51.5 -240.5t127.5 -72.5t127.5 73.5t51.5 250.5q0 91 -11.5 155t-40.5 103.5t-75.5 57.5t-118.5 18h-112v-345z" />
<glyph unicode="7" horiz-adv-x="959" d="M45 1384v179h848v-202q-77 -191 -136.5 -368.5t-109 -345t-85.5 -328.5t-60 -319h-268q49 317 149.5 657t253.5 727h-592z" />
<glyph unicode="8" horiz-adv-x="1116" d="M78 402q0 81 23.5 146.5t63.5 115.5t93 86t110 60v10q-46 15 -92 45t-83 77t-59.5 109.5t-22.5 143.5q0 176 114 283t333 107t333 -107.5t114 -282.5q0 -81 -22.5 -143.5t-59.5 -109.5t-82.5 -77t-92.5 -45v-10q58 -25 110.5 -60.5t92.5 -85.5t63.5 -116t23.5 -146 q0 -203 -118.5 -313.5t-361.5 -110.5t-361.5 110t-118.5 314zM346 402q0 -134 59 -201t153 -67t153.5 67t59.5 201q0 62 -16 109t-45 84t-67 66t-85 53q-47 -25 -85 -53.5t-67 -65.5t-44.5 -84t-15.5 -109zM379 1195q0 -119 51.5 -186.5t127.5 -95.5q76 28 127.5 95.5 t51.5 186.5q0 109 -56 171.5t-123 62.5q-66 0 -122.5 -62.5t-56.5 -171.5z" />
<glyph unicode="9" d="M66 1105q0 243 114 361.5t333 118.5t333 -116t114 -353v-491q0 -168 -32.5 -289t-92.5 -202t-147 -118.5t-196 -37.5q-119 0 -213 13t-145 31v123h290q58 0 107 23.5t85 81.5t56 154t20 243q-51 -17 -110.5 -25t-101.5 -8q-194 0 -304 119t-110 372zM335 1105 q0 -91 11.5 -155t40 -104t75.5 -57.5t118 -17.5h112v345q0 168 -51 240.5t-128 72.5q-76 0 -127 -73.5t-51 -250.5z" />
<glyph unicode=":" horiz-adv-x="445" d="M89 -22v267h269v-267h-269zM89 848v268h269v-268h-269z" />
<glyph unicode=";" horiz-adv-x="424" d="M89 245h269l-90 -513h-179v513zM89 848v268h269v-268h-269z" />
<glyph unicode="&#x3c;" horiz-adv-x="903" d="M89 447v234l726 435v-268l-469 -275v-11l469 -283v-268z" />
<glyph unicode="=" horiz-adv-x="1003" d="M66 379v190h871v-190h-871zM66 771v189h871v-189h-871z" />
<glyph unicode="&#x3e;" horiz-adv-x="903" d="M89 11v268l469 283v11l-469 275v268l726 -435v-234z" />
<glyph unicode="?" horiz-adv-x="880" d="M22 1417v123q51 18 145.5 31.5t211.5 13.5q211 0 323.5 -110.5t112.5 -313.5q0 -94 -25 -164.5t-62.5 -126t-82 -104t-85 -100.5t-69.5 -112t-33 -141h-224q0 103 23.5 176.5t58.5 131.5t75 104t74.5 95t58 105.5t23.5 135.5q0 127 -62.5 191.5t-171.5 64.5h-291z M213 -22v267h267v-267h-267z" />
<glyph unicode="@" horiz-adv-x="1896" d="M100 692q0 217 57.5 384.5t165.5 280t263 170.5t351 58q205 0 365 -55.5t270.5 -157.5t167.5 -244t57 -313q0 -163 -34.5 -279t-111.5 -191t-197.5 -109.5t-292.5 -34.5l-34 67h-11q-42 -42 -94.5 -65.5t-128.5 -23.5q-72 0 -137.5 30t-116.5 90.5t-83 153t-32 216.5 q0 286 120.5 411.5t382.5 125.5q94 0 183 -14t141 -31v-815q38 0 73.5 21t64.5 75t45.5 144.5t16.5 228.5q0 295 -159.5 454.5t-454.5 159.5q-276 0 -433.5 -176.5t-157.5 -560.5q0 -377 168.5 -551.5t512.5 -174.5h313v-122q-52 -17 -145.5 -31t-212.5 -14 q-428 0 -655 227.5t-227 665.5zM792 669q0 -91 16 -154.5t39.5 -103.5t53.5 -58t59 -18q43 0 74 13.5t48 30.5v671h-55q-54 0 -97.5 -19t-73.5 -63t-47 -116.5t-17 -182.5z" />
<glyph unicode="A" horiz-adv-x="1204" d="M34 0l401 1563h336l401 -1563h-279l-98 390h-384l-98 -390h-279zM447 569h309l-149 637h-9z" />
<glyph unicode="B" horiz-adv-x="1182" d="M156 22v1518q85 25 174.5 35t216.5 10q252 0 371.5 -109.5t119.5 -303.5q0 -101 -56 -192.5t-156 -138.5v-8q134 -47 206.5 -152t72.5 -257q0 -219 -128.5 -332.5t-429.5 -113.5q-127 0 -216.5 10t-174.5 34zM424 145h123q143 0 211 69t68 221q0 160 -68 231t-211 71 h-123v-592zM424 904h100q109 0 172 64.5t63 192.5q0 127 -62.5 191.5t-172.5 64.5h-100v-513z" />
<glyph unicode="C" horiz-adv-x="1014" d="M100 782q0 234 34 389.5t97 246.5t157 129t215 38q119 0 212.5 -13t144.5 -32v-123h-268q-72 0 -131 -29t-102.5 -100.5t-67 -195t-23.5 -310.5q0 -188 24.5 -312t69.5 -195.5t108.5 -100.5t143.5 -29h268v-123q-51 -18 -145 -31t-212 -13q-130 0 -228 37.5t-163.5 129.5 t-99.5 247t-34 390z" />
<glyph unicode="D" horiz-adv-x="1216" d="M156 22v1518q85 25 174.5 35t216.5 10q139 0 244.5 -41.5t178 -135t109.5 -247.5t37 -379q0 -226 -37 -380.5t-109.5 -248t-178 -134.5t-244.5 -41q-127 0 -216.5 10t-174.5 34zM424 145h123q67 0 123 29t94.5 100.5t61 195.5t22.5 312q0 187 -22.5 310.5t-61 195 t-94.5 100.5t-123 29h-123v-1272z" />
<glyph unicode="E" d="M156 0v1563h815v-179h-547v-480h480v-178h-480v-547h547v-179h-815z" />
<glyph unicode="F" horiz-adv-x="1014" d="M156 0v1563h815v-179h-547v-513h458v-179h-458v-692h-268z" />
<glyph unicode="G" horiz-adv-x="1171" d="M100 782q0 234 34 389.5t99.5 246.5t164 129t227.5 38q118 0 212 -13t145 -32v-123h-290q-72 0 -131 -29t-102.5 -100.5t-67 -195t-23.5 -310.5q0 -188 24.5 -312t69.5 -195.5t108.5 -100.5t143.5 -29h57v703h267v-826q-52 -18 -146.5 -31t-222.5 -13q-147 0 -254 37.5 t-177 129.5t-104 247t-34 390z" />
<glyph unicode="H" horiz-adv-x="1249" d="M156 0v1563h268v-681h402v681h268v-1563h-268v703h-402v-703h-268z" />
<glyph unicode="I" horiz-adv-x="579" d="M156 0v1563h268v-1563h-268z" />
<glyph unicode="J" horiz-adv-x="837" d="M0 22v123h223q47 0 85 19t67 63.5t44.5 119.5t15.5 189v1027h268v-1027q0 -301 -118 -429.5t-362 -128.5q-66 0 -123 13t-100 31z" />
<glyph unicode="K" horiz-adv-x="1159" d="M156 0v1563h268v-715l368 715h302l-413 -771l457 -792h-301l-413 737v-737h-268z" />
<glyph unicode="L" horiz-adv-x="992" d="M156 0v1563h268v-1384h547v-179h-815z" />
<glyph unicode="M" horiz-adv-x="1696" d="M111 0l90 1563h291l352 -1061h8l354 1061h289l90 -1563h-256l-61 1058h-9l-288 -868h-245l-289 868h-9l-60 -1058h-257z" />
<glyph unicode="N" horiz-adv-x="1272" d="M156 0v1563h268l424 -1027h11v1027h257v-1563h-268l-424 1027h-11v-1027h-257z" />
<glyph unicode="O" horiz-adv-x="1227" d="M100 782q0 225 36 379t103 247.5t161.5 135t213.5 41.5q115 0 210.5 -41.5t162.5 -135t103.5 -247.5t36.5 -379q0 -226 -36.5 -380.5t-103.5 -248t-162 -134.5t-211 -41q-119 0 -213.5 41t-161.5 134.5t-103 248t-36 380.5zM368 782q0 -192 21.5 -317.5t56 -199 t78 -102.5t90.5 -29t90.5 29t78.5 102.5t55.5 199t20.5 317.5q0 191 -20.5 316t-55.5 198.5t-78.5 103t-90.5 29.5t-90.5 -29.5t-78 -103t-56 -198.5t-21.5 -316z" />
<glyph unicode="P" horiz-adv-x="1148" d="M156 0v1540q85 25 174.5 35t216.5 10q139 0 238 -31t163 -98t93.5 -173.5t29.5 -255.5q0 -158 -28.5 -269t-87 -180t-143 -100t-198.5 -31q-13 0 -36.5 2t-50.5 5.5t-54.5 6.5t-48.5 8v-469h-268zM424 625h123q62 0 110 19t81 64.5t49 123t16 195.5q0 113 -16 188.5 t-49 120t-81 63t-110 18.5h-123v-792z" />
<glyph unicode="Q" horiz-adv-x="1238" d="M100 782q0 225 36 379t103 247.5t161.5 135t213.5 41.5q115 0 210.5 -41.5t162.5 -135t103.5 -247.5t36.5 -379q0 -252 -50 -407.5t-117 -240.5q101 0 158.5 -13.5t108.5 -31.5v-111h-613q-119 0 -213.5 41t-161.5 134.5t-103 248t-36 380.5zM368 782q0 -201 22.5 -327.5 t58 -198t79 -97t86.5 -25.5q47 0 90.5 29t78.5 102.5t55.5 199t20.5 317.5q0 191 -20.5 316t-55.5 198.5t-78.5 103t-90.5 29.5t-90.5 -29.5t-78 -103t-56 -198.5t-21.5 -316z" />
<glyph unicode="R" horiz-adv-x="1193" d="M156 0v1540q85 25 174.5 35t216.5 10q139 0 238 -30t163 -95t93.5 -166.5t29.5 -243.5q0 -114 -17.5 -195.5t-50 -139t-78 -95t-99.5 -62.5l301 -558h-301l-257 502h-145v-502h-268zM424 681h123q62 0 110 17.5t81 61t49 114t16 176.5q0 104 -16 174.5t-49 114t-81 61 t-110 17.5h-123v-736z" />
<glyph unicode="S" horiz-adv-x="1037" d="M66 1183q0 185 115 293.5t343 108.5q119 0 213 -13t145 -32v-123h-313q-109 0 -171.5 -62t-62.5 -172q0 -98 46.5 -156t118 -99.5t153.5 -77t153 -90.5t118 -138.5t47 -219.5q0 -200 -126.5 -312t-409.5 -112q-119 0 -212 13t-145 31v123h312q168 0 240.5 65t72.5 192 q0 92 -47 146.5t-118 93.5t-152.5 74.5t-153.5 93t-119 144t-47 229.5z" />
<glyph unicode="T" horiz-adv-x="1003" d="M22 1384v179h960v-179h-345v-1384h-269v1384h-346z" />
<glyph unicode="U" horiz-adv-x="1227" d="M134 536v1027h268v-1027q0 -119 15.5 -195.5t45 -122.5t67 -65t84.5 -19t85 19t67 65t44.5 122.5t15.5 195.5v1027h268v-1027q0 -301 -118.5 -429.5t-361.5 -128.5t-361.5 128t-118.5 430z" />
<glyph unicode="V" horiz-adv-x="1159" d="M34 1563h279l263 -1217h9l263 1217h279l-379 -1563h-335z" />
<glyph unicode="W" horiz-adv-x="1674" d="M34 1563h279l189 -1128h9l215 837h222l215 -837h9l189 1128h279l-279 -1563h-290l-230 871h-8l-230 -871h-290z" />
<glyph unicode="X" horiz-adv-x="1093" d="M22 0l324 803l-290 760h279l212 -581l212 581h279l-290 -760l323 -803h-279l-245 637l-246 -637h-279z" />
<glyph unicode="Y" horiz-adv-x="1071" d="M11 1563h279l241 -748h10l241 748h279l-392 -1094v-469h-267v469z" />
<glyph unicode="Z" horiz-adv-x="970" d="M45 0v168l580 1216h-569v179h870v-168l-580 -1216h570v-179h-871z" />
<glyph unicode="[" horiz-adv-x="635" d="M156 -402v2054h481v-157h-213v-1740h213v-157h-481z" />
<glyph unicode="\" horiz-adv-x="937" d="M0 1563h268l669 -1563h-268z" />
<glyph unicode="]" horiz-adv-x="635" d="M0 -245h213v1740h-213v157h480v-2054h-480v157z" />
<glyph unicode="^" d="M66 1005l347 558h234l346 -558l-190 -123l-267 447h-12l-267 -447z" />
<glyph unicode="_" horiz-adv-x="713" d="M0 0h714v-179h-714v179z" />
<glyph unicode="`" horiz-adv-x="445" d="M45 1563h279l78 -380h-179z" />
<glyph unicode="a" d="M89 335q0 109 28 178.5t77 109.5t116 54.5t148 14.5q51 0 99 -6.5t90 -16.5v90q0 134 -62.5 178.5t-171.5 44.5h-223v112q51 18 125.5 31t142.5 13q113 0 198 -15.5t143 -56.5t87.5 -116t29.5 -191v-759h-190l-34 66h-11q-36 -33 -94 -60.5t-152 -27.5q-72 0 -134 14.5 t-109 54.5t-75 109.5t-28 178.5zM358 335q0 -58 15 -97.5t38.5 -62.5t54 -32t58.5 -9q43 0 74.5 13t48.5 32v357h-123q-29 0 -59 -9t-53.5 -32.5t-38.5 -63t-15 -96.5z" />
<glyph unicode="b" horiz-adv-x="1104" d="M156 45v1518h268v-481q36 25 84 40.5t106 15.5q91 0 166 -31t127.5 -100.5t80.5 -180t28 -268.5t-30 -268.5t-90.5 -180t-153 -100.5t-218.5 -31q-119 0 -201 16.5t-167 50.5zM424 134h100q49 0 90.5 19t71.5 67t46 130.5t16 207.5t-16 207.5t-42.5 130.5t-63 67 t-79.5 19q-42 0 -73 -13t-50 -32v-803z" />
<glyph unicode="c" horiz-adv-x="880" d="M89 558q0 158 29 268.5t86.5 180t139.5 100.5t192 31q85 0 162 -13t128 -31v-112h-246q-51 0 -91 -19t-70.5 -67t-45.5 -130.5t-15 -207.5t16 -207.5t47.5 -130.5t77.5 -67t104 -19h245v-112q-51 -18 -128 -31t-162 -13q-119 0 -205.5 31t-146 100.5t-88.5 180t-29 268.5 z" />
<glyph unicode="d" horiz-adv-x="1104" d="M89 558q0 158 28 268.5t80.5 180t127.5 100.5t167 31q57 0 105 -15.5t84 -40.5v481h267v-1563h-189l-33 66h-12q-36 -33 -94 -60.5t-151 -27.5q-85 0 -154.5 31t-119.5 100.5t-78 180t-28 268.5zM358 558q0 -125 15 -207.5t42.5 -130.5t64 -67t78.5 -19q43 0 70.5 13 t52.5 32v758q-17 18 -48.5 31.5t-74.5 13.5q-42 0 -78.5 -19t-64 -67t-42.5 -130.5t-15 -207.5z" />
<glyph unicode="e" horiz-adv-x="1026" d="M89 558q0 158 29 268.5t82.5 180t133 100.5t179.5 31q101 0 180.5 -31t133 -100.5t82 -180t28.5 -268.5v-78h-579q0 -192 68 -269t211 -77h245v-112q-51 -18 -128 -31t-162 -13q-130 0 -225 31t-156.5 100.5t-91.5 180t-30 268.5zM358 637h311q0 109 -12 178t-32 109.5 t-49 54.5t-63 14q-33 0 -62 -14t-49 -54.5t-32 -109.5t-12 -178z" />
<glyph unicode="f" horiz-adv-x="758" d="M45 926v168h123v89q0 115 27.5 190.5t74.5 116.5t110 57t133 16q34 0 71.5 -4t75 -10.5t69.5 -14t53 -16.5v-112h-179q-34 0 -64 -10t-53.5 -34.5t-37 -68t-13.5 -110.5v-89h302v-123q-51 -17 -128.5 -31t-161.5 -14h-12v-926h-267v926h-123z" />
<glyph unicode="g" horiz-adv-x="1093" d="M89 558q0 158 30 268.5t90.5 180t153.5 100.5t217 31q119 0 201.5 -16.5t166.5 -50.5v-982q0 -300 -118 -429t-361 -129q-85 0 -162 13t-128 32v111h245q125 0 191 77.5t66 269.5q-34 -25 -83 -40.5t-106 -15.5q-92 0 -167 31t-127.5 100.5t-80.5 180t-28 268.5zM358 558 q0 -125 15 -207.5t42.5 -130.5t64 -67t78.5 -19q43 0 74 13t49 32v803h-101q-51 0 -91 -19t-70.5 -67t-45.5 -130.5t-15 -207.5z" />
<glyph unicode="h" horiz-adv-x="1137" d="M156 0v1563h268v-492q43 34 99.5 50.5t123.5 16.5q72 0 134.5 -14t109 -54.5t74.5 -109.5t28 -178v-782h-267v782q0 57 -16 96.5t-40.5 63t-57 32t-65.5 8.5q-42 0 -73 -13t-50 -32v-937h-268z" />
<glyph unicode="i" horiz-adv-x="579" d="M156 0v1116h268v-1116h-268zM156 1250v268h268v-268h-268z" />
<glyph unicode="j" horiz-adv-x="590" d="M-134 -313h156q58 0 102 53t44 171v1205h267v-1205q0 -119 -28 -192.5t-74.5 -114.5t-109.5 -57t-134 -16q-66 0 -123.5 13t-99.5 32v111zM168 1250v268h267v-268h-267z" />
<glyph unicode="k" horiz-adv-x="1026" d="M156 0v1563h268v-926l268 479h290l-301 -524l324 -592h-291l-290 547v-547h-268z" />
<glyph unicode="l" horiz-adv-x="579" d="M156 0v1563h268v-1563h-268z" />
<glyph unicode="m" horiz-adv-x="1651" d="M145 0v1116h190l33 -66h11q36 33 96.5 60.5t161.5 27.5q85 0 143.5 -23.5t101.5 -64.5q51 42 120 65t170 23q66 0 126.5 -14t107.5 -54.5t73.5 -109.5t26.5 -178v-782h-267v782q0 57 -15.5 96.5t-39 63t-53.5 32t-60 8.5q-42 0 -75.5 -10t-58.5 -24q9 -25 16 -70t7 -96 v-782h-268v782q0 57 -14.5 96.5t-38 63t-51.5 32t-52 8.5q-42 0 -73.5 -13t-49.5 -32v-937h-268z" />
<glyph unicode="n" horiz-adv-x="1127" d="M145 0v1116h190l33 -66h11q36 33 96.5 60.5t161.5 27.5q71 0 133.5 -14t109 -54.5t74.5 -109.5t28 -178v-782h-268v782q0 57 -15.5 96.5t-40 63t-57 32t-65.5 8.5q-42 0 -73.5 -13t-49.5 -32v-937h-268z" />
<glyph unicode="o" horiz-adv-x="1071" d="M89 558q0 158 29 268.5t86.5 180t140 100.5t191.5 31t191.5 -31t139.5 -100.5t86 -180t29 -268.5t-29 -268.5t-86 -180t-139.5 -100.5t-191.5 -31t-191.5 31t-140 100.5t-86.5 180t-29 268.5zM358 558q0 -130 13 -214.5t37.5 -134t57 -68t70.5 -18.5t70.5 18.5t57 68 t37.5 134t13 214.5t-13 214.5t-37.5 134t-57 68t-70.5 18.5t-70.5 -18.5t-57 -68t-37.5 -134t-13 -214.5z" />
<glyph unicode="p" horiz-adv-x="1093" d="M145 -447v1563h190l33 -66h11q36 33 94 60.5t152 27.5q82 0 152.5 -31t120.5 -100.5t78.5 -180t28.5 -268.5t-28.5 -268.5t-80.5 -180t-127 -100.5t-166 -31q-58 0 -106 15.5t-84 40.5v-481h-268zM413 179q18 -18 49.5 -31.5t73.5 -13.5q43 0 79.5 19t63 67t42.5 130.5 t16 207.5t-16 207.5t-42.5 130.5t-63.5 67t-79 19t-70.5 -13t-52.5 -32v-758z" />
<glyph unicode="q" horiz-adv-x="1093" d="M89 558q0 158 30 268.5t90.5 180t153.5 100.5t217 31q119 0 201.5 -16.5t166.5 -50.5v-1518h-267v481q-36 -25 -84 -40.5t-105 -15.5q-92 0 -167 31t-127.5 100.5t-80.5 180t-28 268.5zM358 558q0 -125 15 -207.5t42.5 -130.5t64 -67t78.5 -19q43 0 74 13t49 32v803h-101 q-51 0 -91 -19t-70.5 -67t-45.5 -130.5t-15 -207.5z" />
<glyph unicode="r" horiz-adv-x="803" d="M145 0v1116h190l33 -89h11q36 34 96.5 61.5t161.5 27.5h145v-190h-246q-42 0 -73.5 -13.5t-49.5 -30.5v-882h-268z" />
<glyph unicode="s" horiz-adv-x="925" d="M66 826q0 92 29.5 152t84 96t136.5 50t186 14q86 0 162.5 -13t127.5 -31v-112h-245q-94 0 -153 -33.5t-59 -100.5q0 -58 39 -95t97 -64.5t126 -54.5t126.5 -66t97 -100t38.5 -155q0 -100 -29 -165t-89 -103t-150.5 -52.5t-211.5 -14.5q-85 0 -161.5 13t-128.5 31v112h246 q127 0 192 35.5t65 120.5q0 58 -39.5 95t-97 64.5t-125.5 54.5t-126.5 66t-98 99.5t-39.5 156.5z" />
<glyph unicode="t" horiz-adv-x="814" d="M45 926v168h123v267h267v-267h302v-123q-51 -17 -128.5 -31t-161.5 -14h-12v-568q0 -67 13.5 -111t35 -68.5t47 -34.5t49.5 -10h202v-112q-20 -9 -52.5 -16.5t-70 -14t-75 -10t-71.5 -3.5q-72 0 -134 15.5t-109 57t-74.5 115t-27.5 192.5v568h-123z" />
<glyph unicode="u" horiz-adv-x="1127" d="M145 335v781h268v-781q0 -58 16 -97.5t40.5 -62.5t56.5 -32t66 -9q42 0 73.5 13t48.5 32v937h268v-1116h-190l-33 66h-11q-36 -33 -96 -60.5t-160 -27.5q-72 0 -135 14.5t-109.5 54.5t-74.5 109.5t-28 178.5z" />
<glyph unicode="v" horiz-adv-x="1048" d="M34 1116h267l219 -837h9l219 837h268l-324 -1116h-334z" />
<glyph unicode="w" horiz-adv-x="1450" d="M34 1116h267l136 -781h10l178 558h201l179 -558h9l136 781h267l-222 -1116h-291l-174 547h-8l-175 -547h-290z" />
<glyph unicode="x" horiz-adv-x="959" d="M22 0l268 569l-256 547h279l167 -390l167 390h279l-257 -547l268 -569h-279l-178 413l-179 -413h-279z" />
<glyph unicode="y" horiz-adv-x="1127" d="M145 335v781h268v-781q0 -58 16 -97.5t40.5 -62.5t56.5 -32t66 -9q42 0 73.5 13t48.5 32v937h268v-1027q0 -300 -118 -429t-362 -129q-85 0 -161.5 13t-127.5 32v111h245q125 0 190.5 78.5t65.5 279.5q-85 -67 -222 -67q-72 0 -135 14.5t-109.5 54.5t-74.5 109.5 t-28 178.5z" />
<glyph unicode="z" horiz-adv-x="892" d="M45 0v156l491 792h-470v168h782v-156l-490 -792h479v-168h-792z" />
<glyph unicode="{" horiz-adv-x="669" d="M45 547v156q76 25 122 85t46 194v290q0 116 28.5 191t86.5 116.5t143 57t198 15.5v-157q-38 0 -72.5 -9.5t-60 -34t-41 -68t-15.5 -111.5v-245q0 -92 -15.5 -155.5t-42.5 -108.5t-63.5 -76t-79.5 -57v-10q43 -27 79.5 -58t63.5 -75t42.5 -108t15.5 -156v-245 q0 -74 15.5 -118.5t41 -68t60.5 -30t72 -6.5v-157q-113 0 -198 15.5t-143 57t-86.5 115t-28.5 192.5v290q0 134 -46 194t-122 85z" />
<glyph unicode="|" horiz-adv-x="579" d="M156 -447v2010h268v-2010h-268z" />
<glyph unicode="}" horiz-adv-x="669" d="M0 -245q38 0 72.5 6.5t60 30t41.5 68t16 118.5v245q0 92 15.5 156t42.5 108t63.5 75.5t78.5 57.5v10q-42 27 -78.5 57.5t-63.5 75.5t-42.5 108.5t-15.5 155.5v245q0 67 -16 111t-41.5 68.5t-60 34t-72.5 9.5v157q113 0 198 -15.5t143.5 -57t87.5 -116t29 -191.5v-290 q0 -134 45.5 -194t121.5 -85v-156q-77 -25 -122 -85t-45 -194v-290q0 -119 -29 -192.5t-87.5 -115t-143.5 -57t-198 -15.5v157z" />
<glyph unicode="~" horiz-adv-x="1026" d="M66 826h179q0 -76 24.5 -122t76.5 -46q38 0 67.5 28t63.5 62t81 61.5t123 27.5q81 0 134.5 -27.5t85.5 -81.5t45.5 -131t13.5 -173h-178q0 76 -25 122t-76 46q-38 0 -67 -28t-63.5 -61.5t-81.5 -61.5t-123 -28q-81 0 -134.5 28t-85.5 81.5t-46 130.5t-14 173z" />
<glyph unicode="&#xa1;" horiz-adv-x="579" d="M134 0l45 1150h223l45 -1150h-313zM156 1317v268h268v-268h-268z" />
<glyph unicode="&#xa2;" horiz-adv-x="880" d="M89 558q0 152 27 260t78 177.5t129.5 102.5t178.5 38v136h156v-143q49 -6 93 -15t75 -20v-112h-168v-848h190v-112q-36 -11 -85 -22t-105 -15v-119h-156v114q-207 13 -310 146t-103 432zM358 558q0 -192 36.5 -284.5t107.5 -121.5v817q-66 -27 -105 -121t-39 -290z" />
<glyph unicode="&#xa3;" horiz-adv-x="970" d="M78 703v179h123v234q0 149 29 242t89 143t150.5 67t211.5 17q67 0 124 -13t99 -32v-123h-223q-47 0 -85 -11t-67 -43t-44.5 -91.5t-15.5 -155.5v-234h323v-179h-323v-181q0 -76 -10 -130.5t-26 -94.5t-36 -66t-39 -44v-8h568v-179h-826v134q25 15 44.5 38.5t31 61.5 t18.5 94t7 141v234h-123z" />
<glyph unicode="&#xa4;" horiz-adv-x="1159" d="M45 413l156 156q-26 34 -41 94.5t-15 118.5q0 57 16 117.5t40 93.5l-156 157l134 134l156 -146q33 25 97 46.5t148 21.5q85 0 148.5 -21.5t97.5 -46.5l156 146l134 -134l-156 -157q25 -34 40.5 -94t15.5 -117q0 -58 -16 -118.5t-40 -94.5l156 -156l-134 -134l-156 145 q-34 -25 -97.5 -45.5t-148.5 -20.5t-148.5 21t-96.5 45l-156 -145zM402 782q0 -128 55.5 -193t122.5 -65q66 0 122.5 65t56.5 193q0 127 -56 191.5t-123 64.5t-122.5 -64.5t-55.5 -191.5z" />
<glyph unicode="&#xa5;" horiz-adv-x="1071" d="M11 1563h279l241 -748h10l241 748h279l-237 -659h102v-178h-165l-39 -112h204v-179h-257v-435h-267v435h-257v179h206l-40 112h-166v178h100z" />
<glyph unicode="&#xa6;" horiz-adv-x="579" d="M156 379h268v-826h-268v826zM156 692v826h268v-826h-268z" />
<glyph unicode="&#xa7;" horiz-adv-x="1037" d="M89 558q0 125 65 209.5t159 136.5q-43 25 -80 53.5t-63.5 67t-42.5 87.5t-16 115q0 77 29.5 141.5t88.5 112.5t146 76t205 28q100 0 186 -13t138 -32v-111h-279q-119 0 -182.5 -58.5t-63.5 -143.5q0 -68 42.5 -114t105.5 -82t137.5 -71.5t137 -86.5t104.5 -126.5 t42 -188.5q0 -127 -63 -209.5t-148 -125.5q42 -25 80 -55t67 -70t46.5 -91.5t17.5 -117.5q0 -76 -30 -141t-90 -113t-152.5 -76t-217.5 -28q-100 0 -186.5 13t-137.5 32v111h279q134 0 201 58.5t67 143.5q0 68 -43.5 114t-109.5 82t-143 71.5t-142.5 86.5t-109.5 126.5 t-44 188.5zM358 558q0 -91 63 -153t148 -104q51 34 81.5 95.5t30.5 161.5q0 47 -18 85t-46.5 69t-67 57t-80.5 46q-52 -33 -81.5 -95t-29.5 -162z" />
<glyph unicode="&#xa8;" horiz-adv-x="691" d="M45 1272v268h245v-268h-245zM402 1272v268h245v-268h-245z" />
<glyph unicode="&#xa9;" horiz-adv-x="1874" d="M100 782q0 183 60.5 335.5t169.5 261t264.5 169t342.5 60.5q188 0 343.5 -60.5t265 -169t169.5 -261t60 -335.5q0 -186 -60 -338t-169.5 -260t-265 -168.5t-343.5 -60.5q-187 0 -342.5 60.5t-264.5 168.5t-169.5 260t-60.5 338zM324 782q0 -159 44.5 -284t124.5 -211 t193 -131t251 -45q139 0 251.5 45t193 131t125 211t44.5 284q0 158 -44.5 283t-125 210.5t-193 130.5t-251.5 45q-138 0 -251 -45t-193 -130.5t-124.5 -210.5t-44.5 -283zM547 782q0 149 28 245t81.5 150.5t130.5 74.5t173 20q94 0 161 -13t118 -32v-111h-234q-47 0 -85 -11 t-67 -47t-45 -101.5t-16 -174.5t16 -175t45 -102t67 -47t85 -11h256v-112q-51 -18 -129 -31.5t-172 -13.5q-96 0 -173 20t-130.5 74.5t-81.5 150t-28 247.5z" />
<glyph unicode="&#xaa;" horiz-adv-x="680" d="M66 1094q0 126 67.5 174.5t167.5 48.5q19 0 42 -2.5t41 -4.5q21 -2 40 -4v34q0 100 -123 100h-178v107q34 11 88.5 19t112.5 8q72 0 125 -10.5t90 -36t56 -71.5t19 -116v-447h-156l-23 44q-34 -25 -69.5 -40t-86.5 -15q-42 0 -80.5 11t-67.5 35.5t-47 66t-18 99.5z M257 1094q0 -33 23.5 -55.5t65.5 -22.5q17 0 30.5 1t25.5 3q11 2 22 7v156h-78q-90 0 -89 -89z" />
<glyph unicode="&#xab;" horiz-adv-x="1137" d="M45 558l390 513l190 -123l-290 -383v-13l290 -384l-190 -123zM492 558l390 513l189 -123l-289 -383v-13l289 -384l-189 -123z" />
<glyph unicode="&#xac;" horiz-adv-x="992" d="M66 748v178h860v-390h-189l-34 212h-637z" />
<glyph unicode="&#xad;" horiz-adv-x="803" d="M66 580v179h671v-179h-671z" />
<glyph unicode="&#xae;" horiz-adv-x="1874" d="M100 782q0 183 60.5 335.5t169.5 261t264.5 169t342.5 60.5q188 0 343.5 -60.5t265 -169t169.5 -261t60 -335.5q0 -186 -60 -338t-169.5 -260t-265 -168.5t-343.5 -60.5q-187 0 -342.5 60.5t-264.5 168.5t-169.5 260t-60.5 338zM324 782q0 -159 44.5 -284t124.5 -211 t193 -131t251 -45q139 0 251.5 45t193 131t125 211t44.5 284q0 158 -44.5 283t-125 210.5t-193 130.5t-251.5 45q-138 0 -251 -45t-193 -130.5t-124.5 -210.5t-44.5 -283zM592 313v914q58 18 131.5 31.5t192.5 13.5q202 0 301.5 -72.5t99.5 -239.5q0 -72 -16.5 -120t-41 -79 t-54 -49t-55.5 -31l190 -368h-258l-156 324h-89v-324h-245zM837 792h79q66 0 110.5 37.5t44.5 130.5q0 85 -44.5 120.5t-110.5 35.5h-79v-324z" />
<glyph unicode="&#xaf;" horiz-adv-x="624" d="M45 1406v157h535v-157h-535z" />
<glyph unicode="&#xb0;" horiz-adv-x="914" d="M89 1227q0 168 96 263t273 95q176 0 272 -95t96 -263t-96 -262t-272 -94q-177 0 -273 95t-96 261zM324 1227q0 -100 41.5 -150t92.5 -50t92.5 50t41.5 150q0 101 -41.5 151.5t-92.5 50.5t-92.5 -50t-41.5 -152z" />
<glyph unicode="&#xb1;" horiz-adv-x="1003" d="M66 100v179h871v-179h-871zM66 669v179h336v358h201v-358h334v-179h-334v-334h-201v334h-336z" />
<glyph unicode="&#xb2;" horiz-adv-x="601" d="M66 893v145q58 47 110 90.5t90 82.5t59 74.5t21 65.5q0 33 -25 61t-76 28h-156v109q34 11 86.5 18t103.5 7q134 0 195.5 -57t61.5 -166q0 -77 -61.5 -150.5t-195.5 -173.5h257v-134h-470z" />
<glyph unicode="&#xb3;" horiz-adv-x="601" d="M66 906v110h179q51 0 76 22.5t25 55.5q0 34 -23.5 56t-65.5 22h-112v134h100q43 0 61 21t18 46t-20.5 46t-71.5 21h-166v109q32 11 82.5 18t108.5 7q119 0 187.5 -40.5t68.5 -149.5q0 -57 -33 -91t-67 -43q43 -8 83 -49.5t40 -118.5q0 -118 -74 -159t-217 -41 q-51 0 -98 6.5t-81 17.5z" />
<glyph unicode="&#xb4;" horiz-adv-x="424" d="M45 1250l78 290h256l-166 -290h-168z" />
<glyph unicode="&#xb5;" horiz-adv-x="1127" d="M145 -447v1563h268v-737q0 -118 55.5 -181.5t123.5 -63.5q42 0 73.5 13t48.5 32v937h268v-1116h-190l-33 66h-11q-43 -42 -88.5 -65t-112.5 -23q-51 0 -83.5 18.5t-50.5 37.5v-481h-268z" />
<glyph unicode="&#xb6;" horiz-adv-x="1261" d="M66 1150q0 81 29.5 154.5t84 131t136.5 92.5t186 35h714v-179h-134v-1831h-245v1831h-89v-1831h-246v1184q-210 0 -323 109.5t-113 303.5z" />
<glyph unicode="&#xb7;" horiz-adv-x="624" d="M179 647v269h268v-269h-268z" />
<glyph unicode="&#xb8;" horiz-adv-x="479" d="M45 -270h145q51 0 64.5 14.5t13.5 32.5q0 17 -12.5 31.5t-54.5 14.5h-123v211h123v-100h33q101 0 151 -45t50 -112t-56.5 -111.5t-165.5 -44.5q-43 0 -74.5 4t-51.5 11q-25 9 -42 18v76z" />
<glyph unicode="&#xb9;" horiz-adv-x="445" d="M66 1429v107q34 11 95.5 19t128.5 8h89v-670h-189v536h-124z" />
<glyph unicode="&#xba;" horiz-adv-x="713" d="M66 1227q0 177 82 262t210 85q127 0 208 -85t81 -262q0 -176 -81.5 -260.5t-207.5 -84.5q-128 0 -210 85t-82 260zM257 1227q0 -118 29 -164.5t72 -46.5q42 0 71 47t29 164q0 119 -29 166t-71 47q-43 0 -72 -47t-29 -166z" />
<glyph unicode="&#xbb;" horiz-adv-x="1137" d="M66 168l292 384v13l-292 383l191 123l390 -513l-390 -513zM513 168l290 384v13l-290 383l190 123l391 -513l-391 -513z" />
<glyph unicode="&#xbc;" horiz-adv-x="1316" d="M89 0l871 1563h246l-871 -1563h-246zM111 1429v107q34 11 95.5 19t128.5 8h89v-670h-190v536h-123zM637 123v134l311 412h190v-412h57v-134h-57v-123h-190v123h-311zM803 257h145v190z" />
<glyph unicode="&#xbd;" horiz-adv-x="1383" d="M111 0l871 1563h245l-869 -1563h-247zM145 1429v107q34 11 95 19t128 8h90v-670h-190v536h-123zM782 0v145q57 47 108.5 90.5t89.5 83t59.5 74.5t21.5 65q0 34 -24.5 61.5t-76.5 27.5h-157v109q34 11 86.5 18t103.5 7q134 0 195.5 -57t61.5 -166q0 -76 -61.5 -150 t-195.5 -174h257v-134h-468z" />
<glyph unicode="&#xbe;" horiz-adv-x="1350" d="M89 906v110h179q51 0 75.5 22.5t24.5 55.5q0 34 -23 56t-66 22h-111v134h100q43 0 60.5 21t17.5 46t-20 46t-72 21h-165v109q32 11 82 18t108 7q119 0 188 -40.5t69 -149.5q0 -57 -33.5 -91t-67.5 -43q42 -8 82.5 -49.5t40.5 -118.5q0 -118 -73.5 -159t-216.5 -41 q-51 0 -98 6.5t-81 17.5zM123 0l870 1563h246l-871 -1563h-245zM669 123v134l313 412h190v-412h55v-134h-55v-123h-190v123h-313zM837 257h145v190z" />
<glyph unicode="&#xbf;" horiz-adv-x="880" d="M66 402q0 94 25 164.5t63 126t82.5 103.5t85 100t68 112.5t34.5 141.5h223q0 -103 -23 -177t-58 -131.5t-75 -103.5t-74.5 -95t-58 -106t-23.5 -135q0 -127 62.5 -192t171.5 -65h290v-123q-51 -18 -145 -31t-212 -13q-210 0 -323 110t-113 314zM402 1317v268h267v-268 h-267z" />
<glyph unicode="&#xc0;" horiz-adv-x="1204" d="M34 0l401 1563h336l401 -1563h-279l-98 390h-384l-98 -390h-279zM368 1964h257l78 -290h-167zM447 569h309l-149 637h-9z" />
<glyph unicode="&#xc1;" horiz-adv-x="1204" d="M34 0l401 1563h336l401 -1563h-279l-98 390h-384l-98 -390h-279zM447 569h309l-149 637h-9zM513 1674l79 290h256l-167 -290h-168z" />
<glyph unicode="&#xc2;" horiz-adv-x="1204" d="M34 0l401 1563h336l401 -1563h-279l-98 390h-384l-98 -390h-279zM308 1674l178 290h236l177 -290h-171l-125 156l-126 -156h-169zM447 569h309l-149 637h-9z" />
<glyph unicode="&#xc3;" horiz-adv-x="1204" d="M34 0l401 1563h336l401 -1563h-279l-98 390h-384l-98 -390h-279zM313 1931h134q0 -89 55 -89q20 0 40 17.5t43.5 37.5t51.5 38t66 18q76 0 122 -59.5t46 -208.5h-134q0 90 -56 90q-19 0 -40 -18t-44.5 -38t-51 -38t-65.5 -18q-39 0 -70 13.5t-52 45t-33 82.5t-12 127z M447 569h309l-149 637h-9z" />
<glyph unicode="&#xc4;" horiz-adv-x="1204" d="M34 0l401 1563h336l401 -1563h-279l-98 390h-384l-98 -390h-279zM301 1674v268h246v-268h-246zM447 569h309l-149 637h-9zM658 1674v268h246v-268h-246z" />
<glyph unicode="&#xc5;" horiz-adv-x="1204" d="M34 0l401 1563h336l401 -1563h-279l-98 390h-384l-98 -390h-279zM390 1808q0 85 59.5 137.5t153.5 52.5t153 -52.5t59 -137.5t-59 -137t-153 -52t-153.5 52t-59.5 137zM447 569h309l-149 637h-9zM536 1808q0 -33 21 -50t46 -17t45.5 17t20.5 50q0 34 -21 50.5t-45 16.5 q-25 0 -46 -16.5t-21 -50.5z" />
<glyph unicode="&#xc6;" horiz-adv-x="1685" d="M0 0l536 1563h1060v-179h-546v-480h479v-178h-479v-547h546v-179h-814v390h-380l-136 -390h-266zM462 569h320v815h-43z" />
<glyph unicode="&#xc7;" horiz-adv-x="1014" d="M100 782q0 234 34 389.5t97 246.5t157 129t215 38q119 0 212.5 -13t144.5 -32v-123h-268q-72 0 -131 -29t-102.5 -100.5t-67 -195t-23.5 -310.5q0 -188 24.5 -312t69.5 -195.5t108.5 -100.5t143.5 -29h268v-123q-51 -18 -139.5 -31t-205.5 -13h-23v-44h33q101 0 151 -45 t50 -112t-56.5 -111.5t-166.5 -44.5q-43 0 -74 4t-51 11q-25 9 -42 18v76h145q51 0 64.5 14.5t13.5 32.5q0 17 -12.5 31.5t-54.5 14.5h-122v168q-96 18 -169 69t-122 145t-75 236t-26 341z" />
<glyph unicode="&#xc8;" d="M156 0v1563h815v-179h-547v-480h480v-178h-480v-547h547v-179h-815zM346 1964h257l78 -290h-168z" />
<glyph unicode="&#xc9;" d="M156 0v1563h815v-179h-547v-480h480v-178h-480v-547h547v-179h-815zM480 1674l78 290h257l-168 -290h-167z" />
<glyph unicode="&#xca;" d="M156 0v1563h815v-179h-547v-480h480v-178h-480v-547h547v-179h-815zM268 1674l179 290h234l178 -290h-171l-126 156l-125 -156h-169z" />
<glyph unicode="&#xcb;" d="M156 0v1563h815v-179h-547v-480h480v-178h-480v-547h547v-179h-815zM257 1696v268h245v-268h-245zM614 1696v268h245v-268h-245z" />
<glyph unicode="&#xcc;" horiz-adv-x="568" d="M34 1964h256l78 -290h-167zM145 0v1563h268v-1563h-268z" />
<glyph unicode="&#xcd;" horiz-adv-x="568" d="M156 0v1563h268v-1563h-268zM201 1674l78 290h257l-168 -290h-167z" />
<glyph unicode="&#xce;" horiz-adv-x="524" d="M-34 1674l179 290h234l179 -290h-172l-124 156l-126 -156h-170zM123 0v1563h267v-1563h-267z" />
<glyph unicode="&#xcf;" horiz-adv-x="558" d="M-22 1696v268h245v-268h-245zM145 0v1563h268v-1563h-268zM335 1696v268h245v-268h-245z" />
<glyph unicode="&#xd0;" horiz-adv-x="1249" d="M22 703v179h168v658q85 25 174 35t216 10q138 0 244.5 -41.5t179 -135t109.5 -247.5t37 -379q0 -226 -37 -380.5t-109.5 -248t-179 -134.5t-244.5 -41q-128 0 -216.5 10t-173.5 34v681h-168zM458 145h122q66 0 122.5 29t95.5 100.5t61.5 195.5t22.5 312 q0 187 -22.5 310.5t-61.5 195t-95 100.5t-123 29h-122v-535h234v-179h-234v-558z" />
<glyph unicode="&#xd1;" horiz-adv-x="1272" d="M156 0v1563h268l424 -1027h11v1027h257v-1563h-268l-424 1027h-11v-1027h-257zM335 1931h134q0 -89 55 -89q20 0 40.5 17.5t44 37.5t51.5 38t66 18q76 0 121.5 -59.5t45.5 -208.5h-134q0 90 -56 90q-20 0 -40 -18t-43.5 -38t-51 -38t-66.5 -18q-38 0 -69 13.5t-52 45 t-33.5 82.5t-12.5 127z" />
<glyph unicode="&#xd2;" horiz-adv-x="1227" d="M100 782q0 225 36 379t103 247.5t161.5 135t213.5 41.5q115 0 210.5 -41.5t162.5 -135t103.5 -247.5t36.5 -379q0 -226 -36.5 -380.5t-103.5 -248t-162 -134.5t-211 -41q-119 0 -213.5 41t-161.5 134.5t-103 248t-36 380.5zM368 782q0 -192 21.5 -317.5t56 -199 t78 -102.5t90.5 -29t90.5 29t78.5 102.5t55.5 199t20.5 317.5q0 191 -20.5 316t-55.5 198.5t-78.5 103t-90.5 29.5t-90.5 -29.5t-78 -103t-56 -198.5t-21.5 -316zM368 1987h257l78 -291h-167z" />
<glyph unicode="&#xd3;" horiz-adv-x="1227" d="M100 782q0 225 36 379t103 247.5t161.5 135t213.5 41.5q115 0 210.5 -41.5t162.5 -135t103.5 -247.5t36.5 -379q0 -226 -36.5 -380.5t-103.5 -248t-162 -134.5t-211 -41q-119 0 -213.5 41t-161.5 134.5t-103 248t-36 380.5zM368 782q0 -192 21.5 -317.5t56 -199 t78 -102.5t90.5 -29t90.5 29t78.5 102.5t55.5 199t20.5 317.5q0 191 -20.5 316t-55.5 198.5t-78.5 103t-90.5 29.5t-90.5 -29.5t-78 -103t-56 -198.5t-21.5 -316zM513 1696l79 291h256l-167 -291h-168z" />
<glyph unicode="&#xd4;" horiz-adv-x="1227" d="M100 782q0 225 36 379t103 247.5t161.5 135t213.5 41.5q115 0 210.5 -41.5t162.5 -135t103.5 -247.5t36.5 -379q0 -226 -36.5 -380.5t-103.5 -248t-162 -134.5t-211 -41q-119 0 -213.5 41t-161.5 134.5t-103 248t-36 380.5zM324 1696l178 291h235l179 -291h-173l-125 157 l-124 -157h-170zM368 782q0 -192 21.5 -317.5t56 -199t78 -102.5t90.5 -29t90.5 29t78.5 102.5t55.5 199t20.5 317.5q0 191 -20.5 316t-55.5 198.5t-78.5 103t-90.5 29.5t-90.5 -29.5t-78 -103t-56 -198.5t-21.5 -316z" />
<glyph unicode="&#xd5;" horiz-adv-x="1227" d="M100 782q0 225 36 379t103 247.5t161.5 135t213.5 41.5q115 0 210.5 -41.5t162.5 -135t103.5 -247.5t36.5 -379q0 -226 -36.5 -380.5t-103.5 -248t-162 -134.5t-211 -41q-119 0 -213.5 41t-161.5 134.5t-103 248t-36 380.5zM324 1953h134q0 -89 55 -89q20 0 40 18 t43.5 38t52 37.5t65.5 17.5q76 0 122 -59t46 -208h-134q0 89 -56 89q-19 0 -39.5 -18t-44 -38t-51.5 -38t-65 -18q-39 0 -70.5 13.5t-52.5 45t-33 82.5t-12 127zM368 782q0 -192 21.5 -317.5t56 -199t78 -102.5t90.5 -29t90.5 29t78.5 102.5t55.5 199t20.5 317.5 q0 191 -20.5 316t-55.5 198.5t-78.5 103t-90.5 29.5t-90.5 -29.5t-78 -103t-56 -198.5t-21.5 -316z" />
<glyph unicode="&#xd6;" horiz-adv-x="1227" d="M100 782q0 225 36 379t103 247.5t161.5 135t213.5 41.5q115 0 210.5 -41.5t162.5 -135t103.5 -247.5t36.5 -379q0 -226 -36.5 -380.5t-103.5 -248t-162 -134.5t-211 -41q-119 0 -213.5 41t-161.5 134.5t-103 248t-36 380.5zM313 1696v268h245v-268h-245zM368 782 q0 -192 21.5 -317.5t56 -199t78 -102.5t90.5 -29t90.5 29t78.5 102.5t55.5 199t20.5 317.5q0 191 -20.5 316t-55.5 198.5t-78.5 103t-90.5 29.5t-90.5 -29.5t-78 -103t-56 -198.5t-21.5 -316zM669 1696v268h247v-268h-247z" />
<glyph unicode="&#xd7;" horiz-adv-x="937" d="M89 492l246 245l-246 245l134 134l246 -245l245 245l134 -134l-245 -245l245 -245l-134 -134l-245 245l-246 -245z" />
<glyph unicode="&#xd8;" horiz-adv-x="1227" d="M56 111l118 168q-36 94 -55 216.5t-19 286.5q0 225 36 379t103 247.5t162 135t213 41.5q113 0 205 -38t159 -125l83 118l111 -89l-118 -167q36 -94 54.5 -217t18.5 -285q0 -226 -36.5 -380.5t-103.5 -248t-162 -134.5t-211 -41q-114 0 -205.5 37.5t-158.5 122.5l-82 -116 zM368 782q0 -60 2.5 -114t6.5 -101l441 628q-34 134 -90.5 184t-113.5 50q-47 0 -90.5 -29.5t-78 -103t-56 -198.5t-21.5 -316zM409 366q36 -132 90.5 -182t114.5 -50q47 0 90.5 29t78.5 102.5t55.5 199t20.5 317.5q0 59 -2 111.5t-7 99.5z" />
<glyph unicode="&#xd9;" horiz-adv-x="1227" d="M134 536v1027h268v-1027q0 -119 15.5 -195.5t45 -122.5t67 -65t84.5 -19t85 19t67 65t44.5 122.5t15.5 195.5v1027h268v-1027q0 -301 -118.5 -429.5t-361.5 -128.5t-361.5 128t-118.5 430zM379 1942h258l77 -290h-167z" />
<glyph unicode="&#xda;" horiz-adv-x="1227" d="M134 536v1027h268v-1027q0 -119 15.5 -195.5t45 -122.5t67 -65t84.5 -19t85 19t67 65t44.5 122.5t15.5 195.5v1027h268v-1027q0 -301 -118.5 -429.5t-361.5 -128.5t-361.5 128t-118.5 430zM513 1652l79 290h256l-167 -290h-168z" />
<glyph unicode="&#xdb;" horiz-adv-x="1227" d="M134 536v1027h268v-1027q0 -119 15.5 -195.5t45 -122.5t67 -65t84.5 -19t85 19t67 65t44.5 122.5t15.5 195.5v1027h268v-1027q0 -301 -118.5 -429.5t-361.5 -128.5t-361.5 128t-118.5 430zM319 1652l179 290h234l179 -290h-172l-125 156l-125 -156h-170z" />
<glyph unicode="&#xdc;" horiz-adv-x="1227" d="M134 536v1027h268v-1027q0 -119 15.5 -195.5t45 -122.5t67 -65t84.5 -19t85 19t67 65t44.5 122.5t15.5 195.5v1027h268v-1027q0 -301 -118.5 -429.5t-361.5 -128.5t-361.5 128t-118.5 430zM313 1652v267h245v-267h-245zM669 1652v267h247v-267h-247z" />
<glyph unicode="&#xdd;" horiz-adv-x="1071" d="M11 1563h279l241 -748h10l241 748h279l-392 -1094v-469h-267v469zM445 1652l77 290h257l-168 -290h-166z" />
<glyph unicode="&#xde;" horiz-adv-x="1171" d="M156 -22v1607h268v-168q353 -17 511.5 -179t158.5 -456q0 -295 -158.5 -456.5t-511.5 -180.5v-167h-268zM424 313q185 9 293.5 129t108.5 340q0 219 -108.5 339.5t-293.5 128.5v-937z" />
<glyph unicode="&#xdf;" horiz-adv-x="1227" d="M145 0v1105q0 480 458 480q104 0 186 -28t136.5 -76t83.5 -112.5t29 -141.5q0 -87 -36.5 -140.5t-80.5 -95t-81 -80t-37 -96.5q0 -38 27 -70.5t68.5 -63.5t89.5 -64.5t89 -77t68 -102t27 -136.5q0 -96 -28 -158t-81.5 -99t-130.5 -51.5t-173 -14.5q-52 0 -117.5 13 t-117.5 31v112h190q76 0 133 38t57 129q0 55 -27 94.5t-68 73t-89.5 65t-89 69.5t-67.5 88t-27 124q0 77 36.5 126.5t80.5 92t81 87t37 106.5q0 49 -16 86.5t-39.5 59.5t-53.5 33t-59 11q-77 0 -133.5 -72.5t-56.5 -239.5v-1105h-268z" />
<glyph unicode="&#xe0;" d="M89 335q0 109 28 178.5t77 109.5t116 54.5t148 14.5q51 0 99 -6.5t90 -16.5v90q0 134 -62.5 178.5t-171.5 44.5h-223v112q51 18 125.5 31t142.5 13q113 0 198 -15.5t143 -56.5t87.5 -116t29.5 -191v-759h-190l-34 66h-11q-36 -33 -94 -60.5t-152 -27.5q-72 0 -134 14.5 t-109 54.5t-75 109.5t-28 178.5zM315 1540h256l79 -290h-168zM358 335q0 -58 15 -97.5t38.5 -62.5t54 -32t58.5 -9q43 0 74.5 13t48.5 32v357h-123q-29 0 -59 -9t-53.5 -32.5t-38.5 -63t-15 -96.5z" />
<glyph unicode="&#xe1;" d="M89 335q0 109 28 178.5t77 109.5t116 54.5t148 14.5q51 0 99 -6.5t90 -16.5v90q0 134 -62.5 178.5t-171.5 44.5h-223v112q51 18 125.5 31t142.5 13q113 0 198 -15.5t143 -56.5t87.5 -116t29.5 -191v-759h-190l-34 66h-11q-36 -33 -94 -60.5t-152 -27.5q-72 0 -134 14.5 t-109 54.5t-75 109.5t-28 178.5zM358 335q0 -58 15 -97.5t38.5 -62.5t54 -32t58.5 -9q43 0 74.5 13t48.5 32v357h-123q-29 0 -59 -9t-53.5 -32.5t-38.5 -63t-15 -96.5zM435 1250l78 290h258l-168 -290h-168z" />
<glyph unicode="&#xe2;" d="M89 335q0 109 28 178.5t77 109.5t116 54.5t148 14.5q51 0 99 -6.5t90 -16.5v90q0 134 -62.5 178.5t-171.5 44.5h-223v112q51 18 125.5 31t142.5 13q113 0 198 -15.5t143 -56.5t87.5 -116t29.5 -191v-759h-190l-34 66h-11q-36 -33 -94 -60.5t-152 -27.5q-72 0 -134 14.5 t-109 54.5t-75 109.5t-28 178.5zM245 1227l179 291h234l179 -291h-172l-124 157l-126 -157h-170zM358 335q0 -58 15 -97.5t38.5 -62.5t54 -32t58.5 -9q43 0 74.5 13t48.5 32v357h-123q-29 0 -59 -9t-53.5 -32.5t-38.5 -63t-15 -96.5z" />
<glyph unicode="&#xe3;" d="M89 335q0 109 28 178.5t77 109.5t116 54.5t148 14.5q51 0 99 -6.5t90 -16.5v90q0 134 -62.5 178.5t-171.5 44.5h-223v112q51 18 125.5 31t142.5 13q113 0 198 -15.5t143 -56.5t87.5 -116t29.5 -191v-759h-190l-34 66h-11q-36 -33 -94 -60.5t-152 -27.5q-72 0 -134 14.5 t-109 54.5t-75 109.5t-28 178.5zM257 1518h133q0 -89 57 -89q20 0 40 17.5t43.5 37.5t51 38t65.5 18q77 0 122.5 -59t45.5 -209h-134q0 89 -56 89q-20 0 -40 -17t-43.5 -37.5t-51.5 -38.5t-66 -18t-69 13t-52.5 45t-33.5 83t-12 127zM358 335q0 -58 15 -97.5t38.5 -62.5 t54 -32t58.5 -9q43 0 74.5 13t48.5 32v357h-123q-29 0 -59 -9t-53.5 -32.5t-38.5 -63t-15 -96.5z" />
<glyph unicode="&#xe4;" d="M89 335q0 109 28 178.5t77 109.5t116 54.5t148 14.5q51 0 99 -6.5t90 -16.5v90q0 134 -62.5 178.5t-171.5 44.5h-223v112q51 18 125.5 31t142.5 13q113 0 198 -15.5t143 -56.5t87.5 -116t29.5 -191v-759h-190l-34 66h-11q-36 -33 -94 -60.5t-152 -27.5q-72 0 -134 14.5 t-109 54.5t-75 109.5t-28 178.5zM234 1250v268h246v-268h-246zM358 335q0 -58 15 -97.5t38.5 -62.5t54 -32t58.5 -9q43 0 74.5 13t48.5 32v357h-123q-29 0 -59 -9t-53.5 -32.5t-38.5 -63t-15 -96.5zM592 1250v268h245v-268h-245z" />
<glyph unicode="&#xe5;" d="M89 335q0 109 28 178.5t77 109.5t116 54.5t148 14.5q51 0 99 -6.5t90 -16.5v90q0 134 -62.5 178.5t-171.5 44.5h-223v112q51 18 125.5 31t142.5 13q113 0 198 -15.5t143 -56.5t87.5 -116t29.5 -191v-759h-190l-34 66h-11q-36 -33 -94 -60.5t-152 -27.5q-72 0 -134 14.5 t-109 54.5t-75 109.5t-28 178.5zM324 1384q0 85 59.5 137.5t152.5 52.5q94 0 153 -52.5t59 -137.5t-59 -137t-153 -52q-93 0 -152.5 52t-59.5 137zM358 335q0 -58 15 -97.5t38.5 -62.5t54 -32t58.5 -9q43 0 74.5 13t48.5 32v357h-123q-29 0 -59 -9t-53.5 -32.5t-38.5 -63 t-15 -96.5zM469 1384q0 -33 21 -50t46 -17t46 17t21 50q0 34 -21.5 50.5t-45.5 16.5q-25 0 -46 -17t-21 -50z" />
<glyph unicode="&#xe6;" horiz-adv-x="1584" d="M89 313q0 100 28 165t77 102.5t116 52t148 14.5q51 0 99 -6.5t90 -15.5v134q0 134 -62.5 178.5t-171.5 44.5h-223v112q51 18 125.5 31t142.5 13q127 0 205 -37.5t129 -95.5q52 58 119 95.5t160 37.5q101 0 180.5 -32t133 -102.5t82 -181t28.5 -264.5v-66h-579 q0 -201 68 -279.5t211 -78.5h245v-112q-51 -18 -128 -31t-162 -13q-143 0 -224.5 37.5t-133.5 95.5q-25 -29 -55 -53t-70 -42t-91.5 -28t-117.5 -10q-81 0 -148 14.5t-116 52.5t-77 103t-28 165zM358 313q0 -51 15 -85t38.5 -55t54 -30t58.5 -9q43 0 74.5 13t48.5 32v313 h-123q-29 0 -59 -9.5t-53.5 -30.5t-38.5 -55.5t-15 -83.5zM916 647h311q0 105 -12 172t-32 106.5t-49 53.5t-63 14q-33 0 -62 -14t-49 -53.5t-32 -106.5t-12 -172z" />
<glyph unicode="&#xe7;" horiz-adv-x="880" d="M89 558q0 158 29 268.5t86.5 180t139.5 100.5t192 31q85 0 162 -13t128 -31v-112h-246q-51 0 -91 -19t-70.5 -67t-45.5 -130.5t-15 -207.5t16 -207.5t47.5 -130.5t77.5 -67t104 -19h245v-112q-51 -18 -128 -31t-162 -13q-11 0 -19 1t-17 1l2 -2v-44h34q100 0 150.5 -45 t50.5 -112t-57 -111.5t-166 -44.5q-42 0 -73.5 4t-51.5 11q-25 9 -43 18v76h145q52 0 65.5 14.5t13.5 32.5q0 17 -12.5 31.5t-55.5 14.5h-122v173q-156 38 -234.5 169t-78.5 393z" />
<glyph unicode="&#xe8;" horiz-adv-x="1026" d="M89 558q0 158 29 268.5t82.5 180t133 100.5t179.5 31q101 0 180.5 -31t133 -100.5t82 -180t28.5 -268.5v-78h-579q0 -192 68 -269t211 -77h245v-112q-51 -18 -128 -31t-162 -13q-130 0 -225 31t-156.5 100.5t-91.5 180t-30 268.5zM268 1540h256l79 -290h-168zM358 637 h311q0 109 -12 178t-32 109.5t-49 54.5t-63 14q-33 0 -62 -14t-49 -54.5t-32 -109.5t-12 -178z" />
<glyph unicode="&#xe9;" horiz-adv-x="1026" d="M89 558q0 158 29 268.5t82.5 180t133 100.5t179.5 31q101 0 180.5 -31t133 -100.5t82 -180t28.5 -268.5v-78h-579q0 -192 68 -269t211 -77h245v-112q-51 -18 -128 -31t-162 -13q-130 0 -225 31t-156.5 100.5t-91.5 180t-30 268.5zM358 637h311q0 109 -12 178t-32 109.5 t-49 54.5t-63 14q-33 0 -62 -14t-49 -54.5t-32 -109.5t-12 -178zM413 1250l79 290h256l-168 -290h-167z" />
<glyph unicode="&#xea;" horiz-adv-x="1026" d="M89 558q0 158 29 268.5t82.5 180t133 100.5t179.5 31q101 0 180.5 -31t133 -100.5t82 -180t28.5 -268.5v-78h-579q0 -192 68 -269t211 -77h245v-112q-51 -18 -128 -31t-162 -13q-130 0 -225 31t-156.5 100.5t-91.5 180t-30 268.5zM223 1227l179 291h235l178 -291h-172 l-125 157l-126 -157h-169zM358 637h311q0 109 -12 178t-32 109.5t-49 54.5t-63 14q-33 0 -62 -14t-49 -54.5t-32 -109.5t-12 -178z" />
<glyph unicode="&#xeb;" horiz-adv-x="1026" d="M89 558q0 158 29 268.5t82.5 180t133 100.5t179.5 31q101 0 180.5 -31t133 -100.5t82 -180t28.5 -268.5v-78h-579q0 -192 68 -269t211 -77h245v-112q-51 -18 -128 -31t-162 -13q-130 0 -225 31t-156.5 100.5t-91.5 180t-30 268.5zM213 1250v268h245v-268h-245zM358 637 h311q0 109 -12 178t-32 109.5t-49 54.5t-63 14q-33 0 -62 -14t-49 -54.5t-32 -109.5t-12 -178zM569 1250v268h246v-268h-246z" />
<glyph unicode="&#xec;" horiz-adv-x="579" d="M45 1540h256l78 -290h-166zM156 0v1116h268v-1116h-268z" />
<glyph unicode="&#xed;" horiz-adv-x="579" d="M156 0v1116h268v-1116h-268zM201 1250l78 290h257l-168 -290h-167z" />
<glyph unicode="&#xee;" horiz-adv-x="546" d="M-22 1227l178 291h234l179 -291h-171l-126 157l-125 -157h-169zM145 0v1116h268v-1116h-268z" />
<glyph unicode="&#xef;" horiz-adv-x="558" d="M-22 1250v268h245v-268h-245zM145 0v1116h268v-1116h-268zM335 1250v268h245v-268h-245z" />
<glyph unicode="&#xf0;" horiz-adv-x="1082" d="M89 480q0 261 111 381.5t313 120.5q67 0 117.5 -16t83.5 -40q0 86 -11 157t-45 120l-111 -134l-112 92l123 156q-58 51 -160 94.5t-221 62.5l13 111q151 -9 278.5 -42.5t212.5 -91.5l122 149l113 -91l-124 -145q85 -85 137.5 -235.5t52.5 -346.5v-302q0 -262 -114 -382 t-332 -120q-219 0 -333 120.5t-114 381.5zM358 480q0 -101 15 -169t39.5 -110.5t57 -60t66.5 -17.5t66 17.5t56.5 60t40 110.5t15.5 169v302q-17 17 -49.5 30.5t-84.5 13.5q-100 0 -161 -77.5t-61 -268.5z" />
<glyph unicode="&#xf1;" horiz-adv-x="1127" d="M145 0v1116h190l33 -66h11q36 33 96.5 60.5t161.5 27.5q71 0 133.5 -14t109 -54.5t74.5 -109.5t28 -178v-782h-268v782q0 57 -15.5 96.5t-40 63t-57 32t-65.5 8.5q-42 0 -73.5 -13t-49.5 -32v-937h-268zM290 1518h134q0 -89 56 -89q19 0 40 17.5t44.5 37.5t51 38t65.5 18 q77 0 122 -59t45 -209h-134q0 89 -56 89q-19 0 -39.5 -17t-43.5 -37.5t-51 -38.5t-66 -18t-69 13t-52.5 45t-34 83t-12.5 127z" />
<glyph unicode="&#xf2;" horiz-adv-x="1071" d="M89 558q0 158 29 268.5t86.5 180t140 100.5t191.5 31t191.5 -31t139.5 -100.5t86 -180t29 -268.5t-29 -268.5t-86 -180t-139.5 -100.5t-191.5 -31t-191.5 31t-140 100.5t-86.5 180t-29 268.5zM290 1540h257l78 -290h-167zM358 558q0 -130 13 -214.5t37.5 -134t57 -68 t70.5 -18.5t70.5 18.5t57 68t37.5 134t13 214.5t-13 214.5t-37.5 134t-57 68t-70.5 18.5t-70.5 -18.5t-57 -68t-37.5 -134t-13 -214.5z" />
<glyph unicode="&#xf3;" horiz-adv-x="1071" d="M89 558q0 158 29 268.5t86.5 180t140 100.5t191.5 31t191.5 -31t139.5 -100.5t86 -180t29 -268.5t-29 -268.5t-86 -180t-139.5 -100.5t-191.5 -31t-191.5 31t-140 100.5t-86.5 180t-29 268.5zM358 558q0 -130 13 -214.5t37.5 -134t57 -68t70.5 -18.5t70.5 18.5t57 68 t37.5 134t13 214.5t-13 214.5t-37.5 134t-57 68t-70.5 18.5t-70.5 -18.5t-57 -68t-37.5 -134t-13 -214.5zM435 1250l78 290h258l-168 -290h-168z" />
<glyph unicode="&#xf4;" horiz-adv-x="1071" d="M89 558q0 158 29 268.5t86.5 180t140 100.5t191.5 31t191.5 -31t139.5 -100.5t86 -180t29 -268.5t-29 -268.5t-86 -180t-139.5 -100.5t-191.5 -31t-191.5 31t-140 100.5t-86.5 180t-29 268.5zM243 1227l179 291h234l179 -291h-172l-125 157l-125 -157h-170zM358 558 q0 -130 13 -214.5t37.5 -134t57 -68t70.5 -18.5t70.5 18.5t57 68t37.5 134t13 214.5t-13 214.5t-37.5 134t-57 68t-70.5 18.5t-70.5 -18.5t-57 -68t-37.5 -134t-13 -214.5z" />
<glyph unicode="&#xf5;" horiz-adv-x="1071" d="M89 558q0 158 29 268.5t86.5 180t140 100.5t191.5 31t191.5 -31t139.5 -100.5t86 -180t29 -268.5t-29 -268.5t-86 -180t-139.5 -100.5t-191.5 -31t-191.5 31t-140 100.5t-86.5 180t-29 268.5zM257 1518h133q0 -89 57 -89q20 0 40 17.5t43.5 37.5t51 38t65.5 18 q77 0 122.5 -59t45.5 -209h-134q0 89 -56 89q-20 0 -40 -17t-43.5 -37.5t-51.5 -38.5t-66 -18t-69 13t-52.5 45t-33.5 83t-12 127zM358 558q0 -130 13 -214.5t37.5 -134t57 -68t70.5 -18.5t70.5 18.5t57 68t37.5 134t13 214.5t-13 214.5t-37.5 134t-57 68t-70.5 18.5 t-70.5 -18.5t-57 -68t-37.5 -134t-13 -214.5z" />
<glyph unicode="&#xf6;" horiz-adv-x="1071" d="M89 558q0 158 29 268.5t86.5 180t140 100.5t191.5 31t191.5 -31t139.5 -100.5t86 -180t29 -268.5t-29 -268.5t-86 -180t-139.5 -100.5t-191.5 -31t-191.5 31t-140 100.5t-86.5 180t-29 268.5zM234 1250v268h246v-268h-246zM358 558q0 -130 13 -214.5t37.5 -134t57 -68 t70.5 -18.5t70.5 18.5t57 68t37.5 134t13 214.5t-13 214.5t-37.5 134t-57 68t-70.5 18.5t-70.5 -18.5t-57 -68t-37.5 -134t-13 -214.5zM592 1250v268h245v-268h-245z" />
<glyph unicode="&#xf7;" horiz-adv-x="1003" d="M66 569v202h871v-202h-871zM390 190v245h224v-245h-224zM390 904v246h224v-246h-224z" />
<glyph unicode="&#xf8;" horiz-adv-x="1093" d="M56 134l89 98q-45 130 -45 326q0 158 29 268.5t86 180t139.5 100.5t192.5 31q105 0 185 -28t137 -92l68 76l101 -112l-92 -100q47 -126 47 -324q0 -158 -29 -268.5t-85.5 -180t-139.5 -100.5t-192 -31q-107 0 -186.5 28t-137.5 90l-67 -74zM368 475l331 360 q-25 91 -64 124.5t-88 33.5q-38 0 -70 -18.5t-57 -68t-38.5 -134t-13.5 -214.5v-83zM392 281q25 -91 64.5 -124.5t90.5 -33.5q38 0 70.5 18.5t57 68t38 134t13.5 214.5v42t-2 41z" />
<glyph unicode="&#xf9;" horiz-adv-x="1127" d="M145 335v781h268v-781q0 -58 16 -97.5t40.5 -62.5t56.5 -32t66 -9q42 0 73.5 13t48.5 32v937h268v-1116h-190l-33 66h-11q-36 -33 -96 -60.5t-160 -27.5q-72 0 -135 14.5t-109.5 54.5t-74.5 109.5t-28 178.5zM335 1540h257l77 -290h-167z" />
<glyph unicode="&#xfa;" horiz-adv-x="1127" d="M145 335v781h268v-781q0 -58 16 -97.5t40.5 -62.5t56.5 -32t66 -9q42 0 73.5 13t48.5 32v937h268v-1116h-190l-33 66h-11q-36 -33 -96 -60.5t-160 -27.5q-72 0 -135 14.5t-109.5 54.5t-74.5 109.5t-28 178.5zM469 1250l78 290h256l-166 -290h-168z" />
<glyph unicode="&#xfb;" horiz-adv-x="1127" d="M145 335v781h268v-781q0 -58 16 -97.5t40.5 -62.5t56.5 -32t66 -9q42 0 73.5 13t48.5 32v937h268v-1116h-190l-33 66h-11q-36 -33 -96 -60.5t-160 -27.5q-72 0 -135 14.5t-109.5 54.5t-74.5 109.5t-28 178.5zM275 1227l178 291h235l179 -291h-173l-125 157l-124 -157 h-170z" />
<glyph unicode="&#xfc;" horiz-adv-x="1127" d="M145 335v781h268v-781q0 -58 16 -97.5t40.5 -62.5t56.5 -32t66 -9q42 0 73.5 13t48.5 32v937h268v-1116h-190l-33 66h-11q-36 -33 -96 -60.5t-160 -27.5q-72 0 -135 14.5t-109.5 54.5t-74.5 109.5t-28 178.5zM268 1250v268h245v-268h-245zM625 1250v268h246v-268h-246z " />
<glyph unicode="&#xfd;" horiz-adv-x="1127" d="M145 335v781h268v-781q0 -58 16 -97.5t40.5 -62.5t56.5 -32t66 -9q42 0 73.5 13t48.5 32v937h268v-1027q0 -300 -118 -429t-362 -129q-85 0 -161.5 13t-127.5 32v111h245q125 0 190.5 78.5t65.5 279.5q-85 -67 -222 -67q-72 0 -135 14.5t-109.5 54.5t-74.5 109.5 t-28 178.5zM469 1250l78 290h256l-166 -290h-168z" />
<glyph unicode="&#xfe;" horiz-adv-x="1104" d="M156 -447v2010h268v-481q36 25 84 40.5t106 15.5q91 0 166 -31t127.5 -100.5t80.5 -180t28 -268.5t-28 -268.5t-80.5 -180t-127.5 -100.5t-166 -31q-58 0 -106 15.5t-84 40.5v-481h-268zM424 179q17 -18 49 -31.5t74 -13.5q43 0 79.5 19t63 67t42.5 130.5t16 207.5 t-16 207.5t-42.5 130.5t-63 67t-79.5 19q-42 0 -73 -13t-50 -32v-758z" />
<glyph unicode="&#xff;" horiz-adv-x="1127" d="M145 335v781h268v-781q0 -58 16 -97.5t40.5 -62.5t56.5 -32t66 -9q42 0 73.5 13t48.5 32v937h268v-1027q0 -300 -118 -429t-362 -129q-85 0 -161.5 13t-127.5 32v111h245q125 0 190.5 78.5t65.5 279.5q-85 -67 -222 -67q-72 0 -135 14.5t-109.5 54.5t-74.5 109.5 t-28 178.5zM268 1250v268h245v-268h-245zM625 1250v268h246v-268h-246z" />
<glyph unicode="&#x152;" horiz-adv-x="1706" d="M89 782q0 402 178 591.5t504 189.5h848v-179h-548v-480h480v-178h-480v-547h548v-179h-848q-326 0 -504 189.5t-178 592.5zM358 782q0 -168 27.5 -283t81 -186.5t130.5 -102.5t174 -31h32v1205h-32q-96 0 -173.5 -31.5t-131 -103t-81 -186.5t-27.5 -281z" />
<glyph unicode="&#x153;" horiz-adv-x="1651" d="M89 558q0 158 29 268.5t86.5 180t139.5 100.5t192 31q109 0 179.5 -37.5t121.5 -95.5q51 58 126 95.5t175 37.5t179.5 -31t133 -100.5t83 -180t29.5 -268.5v-78h-581q0 -192 68 -269t211 -77h245v-112q-51 -18 -128 -31t-162 -13q-158 0 -244 37.5t-135 95.5 q-51 -58 -121.5 -95.5t-179.5 -37.5t-191.5 31t-140 100.5t-86.5 180t-29 268.5zM358 558q0 -130 13 -214.5t37.5 -134t57 -68t70.5 -18.5t70.5 18.5t57 68t37.5 134t13 214.5t-13 214.5t-37.5 134t-57 68t-70.5 18.5t-70.5 -18.5t-57 -68t-37.5 -134t-13 -214.5zM982 637 h313q0 109 -12.5 178t-32.5 109.5t-49 54.5t-63 14t-62.5 -14t-48.5 -54.5t-32.5 -109.5t-12.5 -178z" />
<glyph unicode="&#x178;" horiz-adv-x="1071" d="M11 1563h279l241 -748h10l241 748h279l-392 -1094v-469h-267v469zM234 1696v268h246v-268h-246zM592 1696v268h245v-268h-245z" />
<glyph unicode="&#x2c6;" horiz-adv-x="680" d="M45 1227l178 291h235l179 -291h-173l-125 157l-124 -157h-170z" />
<glyph unicode="&#x2dc;" horiz-adv-x="646" d="M45 1518h134q0 -89 55 -89q20 0 40 17.5t43.5 37.5t52 38t65.5 18q76 0 122 -59t46 -209h-134q0 89 -56 89q-20 0 -40 -17t-43.5 -37.5t-51.5 -38.5t-65 -18q-39 0 -70.5 13t-52.5 45t-33 83t-12 127z" />
<glyph unicode="&#x2000;" horiz-adv-x="999" />
<glyph unicode="&#x2001;" horiz-adv-x="1998" />
<glyph unicode="&#x2002;" horiz-adv-x="999" />
<glyph unicode="&#x2003;" horiz-adv-x="1998" />
<glyph unicode="&#x2004;" horiz-adv-x="666" />
<glyph unicode="&#x2005;" horiz-adv-x="499" />
<glyph unicode="&#x2006;" horiz-adv-x="333" />
<glyph unicode="&#x2007;" horiz-adv-x="333" />
<glyph unicode="&#x2008;" horiz-adv-x="249" />
<glyph unicode="&#x2009;" horiz-adv-x="399" />
<glyph unicode="&#x200a;" horiz-adv-x="111" />
<glyph unicode="&#x2010;" horiz-adv-x="848" d="M66 580v179h716v-179h-716z" />
<glyph unicode="&#x2011;" horiz-adv-x="848" d="M66 580v179h716v-179h-716z" />
<glyph unicode="&#x2012;" horiz-adv-x="848" d="M66 580v179h716v-179h-716z" />
<glyph unicode="&#x2013;" horiz-adv-x="1071" d="M66 536v178h939v-178h-939z" />
<glyph unicode="&#x2014;" horiz-adv-x="1472" d="M66 536v178h1340v-178h-1340z" />
<glyph unicode="&#x2018;" horiz-adv-x="434" d="M89 1061l90 513h179v-513h-269z" />
<glyph unicode="&#x2019;" horiz-adv-x="434" d="M89 1061v513h269l-90 -513h-179z" />
<glyph unicode="&#x201a;" horiz-adv-x="434" d="M89 245h269l-90 -513h-179v513z" />
<glyph unicode="&#x201c;" horiz-adv-x="814" d="M78 1061l90 513h178v-513h-268zM458 1061l89 513h179v-513h-268z" />
<glyph unicode="&#x201d;" horiz-adv-x="814" d="M89 1061v513h269l-90 -513h-179zM469 1061v513h268l-90 -513h-178z" />
<glyph unicode="&#x201e;" horiz-adv-x="814" d="M89 245h269l-90 -513h-179v513zM469 245h268l-90 -513h-178v513z" />
<glyph unicode="&#x2022;" horiz-adv-x="601" d="M100 580v400h402v-400h-402z" />
<glyph unicode="&#x2026;" horiz-adv-x="1316" d="M89 -22v267h269v-267h-269zM524 -22v267h268v-267h-268zM960 -22v267h267v-267h-267z" />
<glyph unicode="&#x202f;" horiz-adv-x="399" />
<glyph unicode="&#x2039;" horiz-adv-x="724" d="M45 558l424 558l189 -123l-323 -428v-13l323 -429l-189 -123z" />
<glyph unicode="&#x203a;" horiz-adv-x="724" d="M66 123l324 429v13l-324 428l191 123l424 -558l-424 -558z" />
<glyph unicode="&#x205f;" horiz-adv-x="499" />
<glyph unicode="&#x20ac;" horiz-adv-x="1071" d="M22 536l23 167h111v156h-134l23 168h123q15 160 55.5 267.5t101.5 172t145 91.5t188 27q119 0 213 -13t145 -32v-123h-268q-58 0 -108 -18.5t-90.5 -63t-68.5 -119.5t-44 -189h445l-34 -168h-424v-156h391l-33 -167h-345q15 -113 44.5 -188.5t72 -121t97 -63.5t120.5 -18 h267v-123q-52 -18 -145 -31t-212 -13q-111 0 -200 27t-152 91t-104.5 171.5t-56.5 268.5h-146z" />
<glyph unicode="&#x2122;" horiz-adv-x="1551" d="M22 1429v134h570v-134h-190v-536h-189v536h-191zM637 893l44 670h201l179 -393l178 393h201l45 -670h-190l-23 391l-134 -302h-156l-134 302l-22 -391h-189z" />
<glyph unicode="&#x25fc;" horiz-adv-x="1116" d="M0 0v1116h1116v-1116h-1116z" />
</font>
</defs>
</svg>
