<?xml version="1.0" standalone="no"?>
<!DOCTYPE svg PUBLIC "-//W3C//DTD SVG 1.1//EN" "http://www.w3.org/Graphics/SVG/1.1/DTD/svg11.dtd" >
<svg xmlns="http://www.w3.org/2000/svg">
<metadata></metadata>
<defs>
<font id="cuprumregular" horiz-adv-x="1003" >
<font-face units-per-em="2048" ascent="1638" descent="-410" />
<missing-glyph horiz-adv-x="558" />
<glyph horiz-adv-x="2048" />
<glyph horiz-adv-x="2048" />
<glyph unicode="&#xd;" horiz-adv-x="742" />
<glyph unicode=" "  horiz-adv-x="558" />
<glyph unicode="&#x09;" horiz-adv-x="558" />
<glyph unicode="&#xa0;" horiz-adv-x="558" />
<glyph unicode="!" horiz-adv-x="513" d="M134 1563h245l-38 -1150h-177zM152 -11v245h201v-245h-201z" />
<glyph unicode="&#x22;" horiz-adv-x="735" d="M89 1563h224l-56 -525h-112zM424 1563h223l-55 -525h-112z" />
<glyph unicode="#" horiz-adv-x="1272" d="M45 447v156h234l56 357h-224v156h257l67 447h202l-68 -447h246l67 447h200l-66 -447h211v-156h-245l-56 -357h235v-156h-257l-67 -447h-200l66 447h-245l-68 -447h-200l67 447h-212zM469 603h268l55 357h-268z" />
<glyph unicode="$" horiz-adv-x="992" d="M78 22v101h346v589q-62 29 -124.5 63.5t-112 88.5t-79.5 129.5t-30 189.5q0 181 83.5 280.5t262.5 116.5v184h134v-181q85 -5 159.5 -17.5t119.5 -25.5v-100h-279v-581q62 -30 127 -63t115 -84t83 -126t33 -184q0 -187 -82 -289t-276 -126v-188h-134v179h-11 q-100 0 -191.5 13t-143.5 31zM279 1183q0 -98 40.5 -155t104.5 -97v489q-145 -50 -145 -237zM558 147q85 32 120.5 93.5t35.5 161.5q0 94 -44.5 149.5t-111.5 93.5v-498z" />
<glyph unicode="%" horiz-adv-x="1517" d="M66 1250q0 168 81 251.5t232 83.5q152 0 232.5 -83.5t80.5 -251.5t-80.5 -251t-232.5 -83q-151 0 -232 83t-81 251zM223 0l871 1563h201l-871 -1563h-201zM234 1250q0 -109 39.5 -154.5t105.5 -45.5q67 0 106 45.5t39 154.5t-38.5 155t-106.5 46q-66 0 -105.5 -46 t-39.5 -155zM826 313q0 168 80 251t232 83q151 0 232 -83t81 -251t-80 -251.5t-233 -83.5q-152 0 -232 83.5t-80 251.5zM993 313q0 -109 39 -155.5t106 -46.5q66 0 106 46.5t40 155.5t-39 154.5t-107 45.5q-67 0 -106 -45.5t-39 -154.5z" />
<glyph unicode="&#x26;" horiz-adv-x="1148" d="M78 402q0 100 13.5 192t31.5 143h156v-335q0 -87 14.5 -142t38 -85t51.5 -41t52 -11q34 0 60.5 10t51 35.5t51.5 71.5t60 118q-121 172 -197.5 293.5t-119 215t-58 167t-15.5 149.5q0 202 97 302t282 100q101 0 192.5 -13t142.5 -32v-100h-290q-100 0 -161.5 -65 t-61.5 -192q0 -54 7.5 -109.5t34.5 -126t80.5 -162t145.5 -216.5l122 302h202l-202 -492l268 -379h-223l-122 179q-30 -51 -60 -88.5t-68 -63t-90.5 -37.5t-128.5 -12q-168 0 -262.5 102.5t-94.5 321.5z" />
<glyph unicode="'" horiz-adv-x="401" d="M89 1563h224l-56 -525h-112z" />
<glyph unicode="(" horiz-adv-x="548" d="M111 625q0 109 15 230t51 252.5t95.5 273.5t151.5 293l125 -66q-55 -119 -95.5 -233t-67 -233.5t-39 -246.5t-12.5 -270t12.5 -270t39 -246.5t67 -234.5t95.5 -232l-125 -66q-92 149 -151.5 292t-95.5 275t-51 252.5t-15 229.5z" />
<glyph unicode=")" horiz-adv-x="548" d="M0 -358q56 116 96 231.5t67 235t39.5 246.5t12.5 270q0 142 -12.5 269.5t-39.5 247t-67 233.5t-96 233l125 66q92 -151 152 -293t96 -273.5t50 -252.5t14 -230t-14 -229.5t-50 -252.5t-96 -275t-152 -292z" />
<glyph unicode="*" horiz-adv-x="959" d="M45 1150l36 156l309 -67v324h179v-324l311 67l36 -156l-291 -56l157 -291l-145 -77l-157 290l-156 -290l-145 77l156 291z" />
<glyph unicode="+" horiz-adv-x="959" d="M66 592v156h324v368h179v-368h324v-156h-324v-369h-179v369h-324z" />
<glyph unicode="," horiz-adv-x="379" d="M89 234h212l-67 -491h-145v491z" />
<glyph unicode="-" horiz-adv-x="803" d="M66 592v156h671v-156h-671z" />
<glyph unicode="." horiz-adv-x="379" d="M89 -11v245h201v-245h-201z" />
<glyph unicode="/" horiz-adv-x="869" d="M0 0l669 1563h202l-670 -1563h-201z" />
<glyph unicode="0" horiz-adv-x="1137" d="M111 782q0 234 33 389.5t91.5 246.5t143.5 129t190 38t190 -38t144 -129t91.5 -246.5t32.5 -389.5q0 -235 -32.5 -390t-91.5 -247t-144 -129.5t-190 -37.5t-190 37.5t-143.5 129.5t-91.5 247t-33 390zM313 782q0 -201 22.5 -330.5t59 -205.5t82 -105.5t92.5 -29.5 t92.5 29.5t83 105.5t59.5 205t22 331q0 200 -22 330t-59.5 205.5t-83 104.5t-92.5 29t-92.5 -29t-82 -104.5t-59 -205.5t-22.5 -330z" />
<glyph unicode="1" horiz-adv-x="624" d="M22 1406v112q51 18 143 31.5t193 13.5h111v-1563h-201v1406h-246z" />
<glyph unicode="2" horiz-adv-x="869" d="M22 0v179q168 210 279.5 347t178.5 237.5t95 181t28 171.5q0 177 -64 250.5t-181 73.5h-313v100q51 18 142.5 31.5t191.5 13.5q219 0 321.5 -108.5t102.5 -360.5q0 -109 -33 -202.5t-103.5 -201t-177.5 -240.5t-255 -316h569v-156h-781z" />
<glyph unicode="3" horiz-adv-x="925" d="M34 22v101h290q168 0 240.5 70.5t72.5 230.5q0 168 -72.5 240.5t-240.5 72.5h-156v156h133q151 0 221 68t70 211q0 134 -64 201t-182 67h-290v100q51 18 142.5 31.5t191.5 13.5q402 0 402 -413q0 -128 -50 -209t-150 -132v-9q66 -18 113 -57t76 -93t42.5 -117t13.5 -131 q0 -234 -109.5 -340t-359.5 -106q-100 0 -191.5 13t-142.5 31z" />
<glyph unicode="4" horiz-adv-x="1048" d="M66 402v178l559 983h223v-1005h134v-156h-134v-402h-201v402h-581zM257 558h390v681h-8z" />
<glyph unicode="5" horiz-adv-x="992" d="M100 22v101h290q168 0 240.5 73.5t72.5 250.5q0 176 -72.5 250t-240.5 74h-256v792h725v-146h-524v-501h100q250 0 359.5 -109.5t109.5 -359.5q0 -125 -26 -214.5t-82.5 -146.5t-146 -82.5t-214.5 -25.5q-100 0 -191.5 13t-143.5 31z" />
<glyph unicode="6" horiz-adv-x="1014" d="M111 447v490q0 177 29.5 299.5t84 200t136.5 113t186 35.5q100 0 192 -13t143 -32v-100h-290q-62 0 -114 -28t-88.5 -91.5t-56.5 -168.5t-20 -259q51 17 125.5 30.5t141.5 13.5q168 0 262.5 -111.5t94.5 -378.5q0 -252 -101 -360.5t-312 -108.5q-210 0 -311.5 108 t-101.5 361zM313 447q0 -92 15 -155.5t44.5 -104t67 -58.5t84.5 -18t85 18t67 58.5t45 104t16 155.5q0 200 -68 278t-211 78h-145v-356z" />
<glyph unicode="7" horiz-adv-x="914" d="M45 1406v157h803v-179q-151 -370 -250.5 -717.5t-150.5 -666.5h-202q101 637 402 1406h-602z" />
<glyph unicode="8" horiz-adv-x="1071" d="M89 402q0 81 23.5 146.5t62 116.5t86 87t97.5 58v10q-41 15 -83.5 46t-75.5 78t-54.5 109.5t-21.5 141.5q0 390 413 390t412 -390q0 -79 -21 -141.5t-54.5 -109.5t-76 -78t-82.5 -46v-10q49 -22 97 -58t86 -87t61.5 -117t23.5 -146q0 -219 -104.5 -321.5t-341.5 -102.5 q-236 0 -341.5 102.5t-105.5 321.5zM290 402q0 -151 63.5 -221t182.5 -70t182.5 69.5t63.5 221.5q0 126 -68.5 199t-177.5 125q-109 -51 -177.5 -125.5t-68.5 -198.5zM324 1195q0 -119 59.5 -188.5t152.5 -102.5q94 33 153 102.5t59 188.5q0 127 -59 191.5t-153 64.5 q-93 0 -152.5 -65t-59.5 -191z" />
<glyph unicode="9" horiz-adv-x="1014" d="M78 1116q0 252 101.5 360.5t312.5 108.5q210 0 311 -108.5t101 -360.5v-491q0 -177 -29 -299.5t-83.5 -199.5t-136.5 -112.5t-186 -35.5q-101 0 -192.5 13t-142.5 31v101h290q62 0 114 28t88.5 91.5t56.5 168.5t20 258q-51 -17 -126 -30.5t-142 -13.5 q-168 0 -262.5 111.5t-94.5 379.5zM279 1116q0 -200 68 -278.5t211 -78.5h145v357q0 92 -16 155.5t-44.5 103.5t-66.5 58t-84 18q-47 0 -85.5 -18t-67 -58t-44.5 -103.5t-16 -155.5z" />
<glyph unicode=":" horiz-adv-x="379" d="M89 -11v245h201v-245h-201zM89 871v245h201v-245h-201z" />
<glyph unicode=";" horiz-adv-x="367" d="M89 234h212l-67 -491h-145v491zM89 871v245h201v-245h-201z" />
<glyph unicode="&#x3c;" horiz-adv-x="892" d="M89 469v189l714 447v-212l-513 -322v-15l513 -322v-212z" />
<glyph unicode="=" horiz-adv-x="959" d="M66 390v168h827v-168h-827zM66 782v166h827v-166h-827z" />
<glyph unicode="&#x3e;" horiz-adv-x="892" d="M89 22v212l514 322v15l-514 322v212l714 -447v-189z" />
<glyph unicode="?" horiz-adv-x="825" d="M22 1440v100q51 18 143 31.5t193 13.5q202 0 301.5 -102.5t99.5 -321.5q0 -94 -26 -164.5t-63.5 -126t-83 -104t-84 -100.5t-64 -112t-25.5 -141h-179q0 98 23.5 169.5t60.5 128.5t78 105t78 98.5t60.5 109t23.5 137.5q0 143 -63.5 211t-181.5 68h-291zM223 -11v245h201 v-245h-201z" />
<glyph unicode="@" horiz-adv-x="1851" d="M111 692q0 451 209 672t596 221q200 0 354.5 -52.5t259 -151.5t158 -242.5t53.5 -323.5q0 -172 -30 -289t-101.5 -189.5t-188.5 -104t-294 -31.5l-11 67h-11q-42 -42 -105 -65.5t-129 -23.5q-67 0 -127.5 25.5t-107 82t-73.5 146t-27 214.5q0 159 26 266t82.5 172t146 93 t214.5 28q34 0 73.5 -3.5t80 -10.5t76 -14.5t60.5 -16.5v-815q58 0 103.5 20t76.5 73t48 142.5t17 233.5q0 313 -160.5 474.5t-463.5 161.5q-143 0 -255 -40.5t-189 -130.5t-118 -234.5t-41 -353.5q0 -205 42.5 -348t128 -231t215 -128.5t306.5 -40.5h290v-100 q-51 -17 -142.5 -31t-192.5 -14q-419 0 -634 220t-215 673zM737 647q0 -91 15.5 -155t42.5 -104t63.5 -57.5t78.5 -17.5q43 0 87.5 13t69.5 32v713h-89q-67 0 -117.5 -19t-83.5 -67t-50 -130t-17 -208z" />
<glyph unicode="A" horiz-adv-x="1137" d="M45 0l379 1563h290l380 -1563h-201l-101 402h-446l-101 -402h-200zM379 558h380l-186 782h-8z" />
<glyph unicode="B" horiz-adv-x="1116" d="M156 22v1518q85 25 171 35t186 10q237 0 342 -101.5t105 -311.5q0 -101 -39 -188t-139 -143v-8q134 -38 189.5 -147.5t55.5 -261.5q0 -119 -27 -202.5t-87.5 -138t-158.5 -80t-241 -25.5q-100 0 -186 10t-171 34zM358 123h155q168 0 240.5 70.5t72.5 230.5 q0 177 -72.5 250.5t-240.5 73.5h-155v-625zM358 893h134q267 0 267 277q0 270 -267 270h-134v-547z" />
<glyph unicode="C" horiz-adv-x="970" d="M111 782q0 234 33 389.5t92.5 246.5t147 129t196.5 38q100 0 192 -13t144 -32v-100h-291q-67 0 -123.5 -29t-99 -104t-66 -202t-23.5 -323q0 -197 24.5 -324.5t68 -202t104.5 -103.5t137 -29h290v-101q-51 -18 -142.5 -31t-191.5 -13q-119 0 -209 37.5t-153.5 129.5 t-96.5 247t-33 390z" />
<glyph unicode="D" horiz-adv-x="1159" d="M156 22v1518q85 25 171 35t186 10q134 0 234.5 -38t167.5 -129t101 -246.5t34 -389.5q0 -235 -34 -390t-101 -247t-167.5 -129.5t-234.5 -37.5q-100 0 -186 10t-171 34zM358 123h155q77 0 138 29t104.5 103.5t68 202t24.5 324.5q0 196 -24.5 323t-68 202t-104.5 104 t-138 29h-155v-1317z" />
<glyph unicode="E" d="M156 0v1563h760v-157h-558v-513h490v-156h-490v-581h558v-156h-760z" />
<glyph unicode="F" horiz-adv-x="959" d="M156 0v1563h760v-157h-558v-547h468v-156h-468v-703h-202z" />
<glyph unicode="G" horiz-adv-x="1116" d="M111 782q0 234 33 389.5t96.5 246.5t153.5 129t209 38q100 0 191.5 -13t142.5 -32v-100h-290q-76 0 -137 -29t-104.5 -104t-68 -202t-24.5 -323q0 -197 24.5 -324.5t72.5 -202t119.5 -103.5t162.5 -29h90v725h200v-826q-51 -18 -142.5 -31t-192.5 -13q-134 0 -234 37.5 t-167 129.5t-101 247t-34 390z" />
<glyph unicode="H" horiz-adv-x="1182" d="M156 0v1563h202v-692h468v692h201v-1563h-201v714h-468v-714h-202z" />
<glyph unicode="I" horiz-adv-x="513" d="M156 0v1563h202v-1563h-202z" />
<glyph unicode="J" horiz-adv-x="780" d="M0 22v101h201q57 0 103.5 18.5t77.5 65.5t48 127.5t17 201.5v1027h200v-1027q0 -158 -25.5 -265t-80.5 -172t-139.5 -93t-200.5 -28q-52 0 -105 13t-96 31z" />
<glyph unicode="K" horiz-adv-x="1093" d="M156 0v1563h202v-760l434 760h235l-458 -771l502 -792h-234l-479 782v-782h-202z" />
<glyph unicode="L" horiz-adv-x="937" d="M156 0v1563h202v-1407h558v-156h-760z" />
<glyph unicode="M" horiz-adv-x="1651" d="M123 0l90 1563h245l364 -1071h9l364 1071h245l89 -1563h-200l-68 1161h-11l-324 -960h-200l-324 960h-12l-66 -1161h-201z" />
<glyph unicode="N" horiz-adv-x="1204" d="M156 0v1563h223l458 -1105h11v1105h202v-1563h-224l-458 1105h-10v-1105h-202z" />
<glyph unicode="O" horiz-adv-x="1182" d="M111 782q0 234 33 389.5t95 246.5t151 129t202 38t201.5 -38t151 -129t94.5 -246.5t32 -389.5q0 -235 -32 -390t-94.5 -247t-151 -129.5t-201.5 -37.5t-202 37.5t-151 129.5t-95 247t-33 390zM313 782q0 -201 23.5 -330.5t61 -205.5t89 -105.5t105.5 -29.5 q53 0 104.5 29.5t89.5 105.5t61.5 205t23.5 331q0 200 -23.5 330t-61.5 205.5t-89.5 104.5t-104.5 29q-54 0 -105.5 -29t-89 -104.5t-61 -205.5t-23.5 -330z" />
<glyph unicode="P" horiz-adv-x="1093" d="M156 0v1540q85 25 171 35t186 10q134 0 228 -28t151.5 -92.5t85 -172t27.5 -265.5q0 -164 -26 -273t-78.5 -175t-131.5 -93.5t-189 -27.5q-51 0 -115.5 6.5t-106.5 15.5v-480h-202zM358 614h155q77 0 131.5 19t90.5 66t52 127t16 201t-16 201t-52 127t-90.5 66t-131.5 19 h-155v-826z" />
<glyph unicode="Q" horiz-adv-x="1204" d="M111 782q0 234 33 389.5t95 246.5t151 129t202 38t201.5 -38t151 -129t94.5 -246.5t32 -389.5q0 -262 -40 -419.5t-115 -251.5q85 0 150 -13t117 -32v-88h-591q-113 0 -202 37.5t-151 129.5t-95 247t-33 390zM313 782q0 -201 23.5 -330.5t61 -205.5t89 -105.5 t105.5 -29.5q53 0 104.5 29.5t89.5 105.5t61.5 205t23.5 331q0 200 -23.5 330t-61.5 205.5t-89.5 104.5t-104.5 29q-54 0 -105.5 -29t-89 -104.5t-61 -205.5t-23.5 -330z" />
<glyph unicode="R" horiz-adv-x="1127" d="M156 0v1540q85 25 171 35t186 10q134 0 228 -27t151.5 -90.5t85 -166t27.5 -251.5q0 -114 -14.5 -196.5t-42.5 -142t-70.5 -96.5t-95.5 -57l268 -558h-224l-246 513h-222v-513h-202zM358 669h155q77 0 131.5 19t90.5 63t52 116.5t16 182.5q0 113 -16 187.5t-52 119.5 t-90.5 64t-131.5 19h-155v-771z" />
<glyph unicode="S" horiz-adv-x="992" d="M78 22v101h290q192 0 269 68t77 211q0 98 -47 153.5t-118.5 95t-152.5 75t-152.5 89.5t-118.5 139.5t-47 228.5q0 202 102.5 302t321.5 100q101 0 192.5 -13t142.5 -32v-100h-290q-268 0 -268 -257q0 -103 47 -163t118.5 -101.5t153 -76t153 -87t118.5 -135t47 -218.5 q0 -109 -27 -188.5t-86.5 -132t-155 -78t-234.5 -25.5q-100 0 -191.5 13t-143.5 31z" />
<glyph unicode="T" horiz-adv-x="959" d="M22 1406v157h915v-157h-357v-1406h-201v1406h-357z" />
<glyph unicode="U" horiz-adv-x="1159" d="M134 536v1027h201v-1027q0 -125 16.5 -208t48 -131t77 -67t103.5 -19t104 19t77 67t48 131t17 208v1027h201v-1027q0 -158 -25.5 -265t-80 -172t-139.5 -93t-202 -28q-119 0 -202.5 28t-138 93t-80 171.5t-25.5 265.5z" />
<glyph unicode="V" horiz-adv-x="1093" d="M45 1563h200l298 -1350h9l296 1350h202l-358 -1563h-290z" />
<glyph unicode="W" horiz-adv-x="1606" d="M45 1563h200l202 -1205h11l245 914h201l246 -914h11l200 1205h202l-257 -1563h-245l-253 937h-9l-252 -937h-246z" />
<glyph unicode="X" horiz-adv-x="1026" d="M34 0l334 803l-302 760h202l245 -626l246 626h201l-302 -760l335 -803h-201l-279 669l-279 -669h-200z" />
<glyph unicode="Y" d="M22 1563h201l279 -792l280 792h200l-379 -1071v-492h-201v492z" />
<glyph unicode="Z" horiz-adv-x="903" d="M45 0v145l580 1261h-569v157h803v-146l-580 -1261h569v-156h-803z" />
<glyph unicode="[" horiz-adv-x="579" d="M156 -402v2054h424v-134h-222v-1786h222v-134h-424z" />
<glyph unicode="\" horiz-adv-x="869" d="M0 1563h201l670 -1563h-202z" />
<glyph unicode="]" horiz-adv-x="579" d="M0 -268h223v1786h-223v134h424v-2054h-424v134z" />
<glyph unicode="^" horiz-adv-x="992" d="M66 1005l336 558h190l334 -558l-144 -89l-280 445h-10l-279 -445z" />
<glyph unicode="_" horiz-adv-x="669" d="M0 0h669v-156h-669v156z" />
<glyph unicode="`" horiz-adv-x="379" d="M45 1563h212l78 -357h-134z" />
<glyph unicode="a" d="M100 335q0 104 24.5 171t68.5 106.5t105.5 54t136.5 14.5q51 0 111.5 -7t111.5 -16v101q0 76 -16.5 124t-48 74.5t-77 37t-103.5 10.5h-223v89q51 18 125.5 31t142.5 13q100 0 174.5 -15.5t125 -56.5t76 -116t25.5 -191v-759h-167l-11 66h-12q-42 -42 -105 -65t-129 -23 q-76 0 -137 14.5t-105 54.5t-68.5 109.5t-24.5 178.5zM301 335q0 -67 15.5 -110.5t42.5 -68t64 -35t79 -10.5q43 0 87.5 13.5t68.5 31.5v391h-156q-85 0 -143 -43.5t-58 -168.5z" />
<glyph unicode="b" horiz-adv-x="1048" d="M156 45v1518h202v-481q51 25 103 40.5t119 15.5q87 0 156.5 -28t116 -95t71 -178t24.5 -279t-25.5 -279t-79 -178t-135 -95t-195.5 -28q-100 0 -186 16.5t-171 50.5zM358 111h155q54 0 97.5 19t73.5 69.5t47 137.5t17 221t-17 220t-47 136.5t-73.5 70.5t-97.5 20 q-42 0 -86.5 -13.5t-68.5 -31.5v-849z" />
<glyph unicode="c" horiz-adv-x="837" d="M100 558q0 168 26 279t77 178t128.5 95t181.5 28q67 0 142 -13t127 -31v-89h-224q-62 0 -110 -20t-80.5 -70.5t-49.5 -136.5t-17 -220t17 -221t51.5 -137.5t87 -69.5t123.5 -19h223v-89q-51 -18 -125.5 -31t-141.5 -13q-113 0 -195 28t-135.5 95t-79.5 178t-26 279z" />
<glyph unicode="d" horiz-adv-x="1048" d="M100 558q0 168 24.5 279t71.5 178t116.5 95t156.5 28q66 0 119 -15.5t104 -40.5v481h201v-1563h-167l-12 66h-11q-42 -42 -104.5 -65t-129.5 -23q-87 0 -156.5 28t-116.5 95t-71.5 178t-24.5 279zM301 558q0 -134 17 -221t47 -137.5t73.5 -69.5t97.5 -19q43 0 87 13.5 t69 31.5v804q-25 18 -69.5 31.5t-86.5 13.5q-53 0 -97 -20t-74 -70.5t-47 -136.5t-17 -220z" />
<glyph unicode="e" horiz-adv-x="982" d="M100 558q0 168 24.5 279t73.5 178t123 95t171 28q96 0 169.5 -28t122.5 -95t73.5 -178t24.5 -279v-66h-581q0 -109 18 -182t55 -117t96 -63t144 -19h223v-89q-51 -18 -125.5 -31t-142.5 -13q-125 0 -214 28t-146 95t-83 178t-26 279zM301 625h380q0 113 -15.5 188 t-41.5 120t-60.5 64t-71.5 19q-39 0 -73.5 -19t-60.5 -64t-41.5 -119.5t-15.5 -188.5z" />
<glyph unicode="f" horiz-adv-x="713" d="M45 948v146h134v89q0 115 23.5 190.5t66 116.5t99 57t124.5 16q25 0 58 -4t67.5 -10.5t66.5 -14t53 -16.5v-89h-201q-25 0 -52.5 -10.5t-51 -37t-38.5 -74.5t-15 -124v-89h313v-101q-51 -17 -125.5 -31t-142.5 -14h-45v-948h-200v948h-134z" />
<glyph unicode="g" horiz-adv-x="1037" d="M100 558q0 168 26 279t79.5 178t135 95t195.5 28q101 0 186.5 -16.5t170.5 -50.5v-982q0 -158 -26 -265t-80.5 -172t-139.5 -93t-200 -28q-67 0 -142 13t-126 32v89h223q77 0 131.5 18t89.5 61t52 114t17 176q-51 -25 -103.5 -40.5t-119.5 -15.5q-87 0 -156.5 28 t-116.5 95t-71.5 178t-24.5 279zM301 558q0 -134 17 -221t47 -137.5t73.5 -69.5t97.5 -19q43 0 87 13.5t69 31.5v849h-156q-53 0 -97 -20t-74 -70.5t-47 -136.5t-17 -220z" />
<glyph unicode="h" horiz-adv-x="1071" d="M156 0v1563h202v-481q51 25 109.5 40.5t135.5 15.5q72 0 130.5 -14t102.5 -52.5t67 -103t23 -165.5v-803h-200v803q0 58 -16 97.5t-44.5 62.5t-67 32.5t-85.5 9.5q-42 0 -86.5 -13.5t-68.5 -31.5v-960h-202z" />
<glyph unicode="i" horiz-adv-x="513" d="M156 0v1116h202v-1116h-202zM156 1272v246h202v-246h-202z" />
<glyph unicode="j" horiz-adv-x="535" d="M-134 -335h156q25 0 52.5 10t51 36.5t38.5 74.5t15 125v1205h200v-1205q0 -119 -23.5 -192.5t-66 -114.5t-99 -57t-124.5 -16q-51 0 -104.5 13t-95.5 32v89zM179 1272v246h200v-246h-200z" />
<glyph unicode="k" horiz-adv-x="970" d="M156 0v1563h202v-960l323 513h223l-346 -524l390 -592h-222l-368 580v-580h-202z" />
<glyph unicode="l" horiz-adv-x="513" d="M156 0v1563h202v-1563h-202z" />
<glyph unicode="m" horiz-adv-x="1540" d="M145 0v1116h168l11 -66h11q42 42 94.5 65t128.5 23t140.5 -20.5t109.5 -77.5q27 25 62.5 43t72.5 30t74 18.5t65 6.5q67 0 124 -14t99.5 -52.5t66 -103t23.5 -165.5v-803h-200v803q0 58 -16 97.5t-40.5 62.5t-56.5 32.5t-66 9.5q-51 0 -97 -13.5t-71 -31.5q9 -25 16 -65 t7 -92v-803h-202v803q0 58 -15 97.5t-39.5 62.5t-57.5 32.5t-65 9.5q-43 0 -82 -13.5t-64 -31.5v-960h-201z" />
<glyph unicode="n" horiz-adv-x="1059" d="M145 0v1116h168l11 -66h11q42 42 104.5 65t129.5 23q81 0 144.5 -14t108.5 -52.5t69.5 -103t24.5 -165.5v-803h-202v803q0 58 -15.5 97.5t-44.5 62.5t-67 32.5t-85 9.5q-42 0 -86.5 -13.5t-69.5 -31.5v-960h-201z" />
<glyph unicode="o" horiz-adv-x="1026" d="M100 558q0 164 27 275t79.5 179t129.5 97t177 29q101 0 178 -29t129.5 -97t79 -179t26.5 -275q0 -163 -26.5 -274.5t-79 -179.5t-129.5 -97t-178 -29q-100 0 -177 29t-129.5 97t-79.5 179.5t-27 274.5zM301 558q0 -134 18 -222.5t47 -140.5t67 -73.5t80 -21.5 q43 0 81 21.5t67 73.5t47 140.5t18 222.5t-18 222.5t-47 140.5t-67 73.5t-81 21.5q-42 0 -80 -21.5t-67 -73.5t-47 -140.5t-18 -222.5z" />
<glyph unicode="p" horiz-adv-x="1037" d="M145 -447v1563h168l11 -66h11q42 42 104.5 65t129.5 23q87 0 156.5 -28t116 -95t71 -178t24.5 -279t-24.5 -279t-71 -178t-116 -95t-156.5 -28q-67 0 -119 15.5t-104 40.5v-481h-201zM346 156q25 -18 69.5 -31.5t86.5 -13.5q54 0 97.5 19t73.5 69.5t47 137.5t17 221 t-17 220t-47 136.5t-73.5 70.5t-97.5 20q-42 0 -86.5 -13.5t-69.5 -31.5v-804z" />
<glyph unicode="q" horiz-adv-x="1037" d="M100 558q0 168 26 279t79.5 178t135 95t195.5 28q101 0 186.5 -16.5t170.5 -50.5v-1518h-201v481q-51 -25 -103.5 -40.5t-119.5 -15.5q-87 0 -156.5 28t-116.5 95t-71.5 178t-24.5 279zM301 558q0 -134 17 -221t47 -137.5t73.5 -69.5t97.5 -19q43 0 87 13.5t69 31.5v849 h-156q-53 0 -97 -20t-74 -70.5t-47 -136.5t-17 -220z" />
<glyph unicode="r" horiz-adv-x="747" d="M145 0v1116h170l11 -89h11q40 34 108 61.5t169 27.5h112v-168h-224q-42 0 -82.5 -9.5t-73.5 -34.5v-904h-201z" />
<glyph unicode="s" horiz-adv-x="880" d="M78 848q0 168 100.5 229t301.5 61q66 0 141.5 -13t126.5 -31v-89h-224q-119 0 -182 -36t-63 -121q0 -66 39.5 -105.5t97 -68.5t125.5 -54.5t126.5 -66t97 -102t38.5 -161.5q0 -92 -25.5 -152t-80 -95.5t-139.5 -50t-200 -14.5q-67 0 -142 13t-127 31v89h224 q151 0 220.5 39.5t69.5 139.5q0 66 -39.5 105.5t-97 69t-126 55t-126.5 65.5t-97 101.5t-39 161.5z" />
<glyph unicode="t" horiz-adv-x="769" d="M45 948v146h134v267h200v-267h313v-101q-51 -17 -125.5 -31t-142.5 -14h-45v-590q0 -77 15 -125t38.5 -74.5t51 -37t52.5 -9.5h201v-90q-20 -9 -52.5 -16.5t-67 -14t-68 -10t-57.5 -3.5q-67 0 -124 15.5t-99.5 57t-66 115t-23.5 192.5v590h-134z" />
<glyph unicode="u" horiz-adv-x="1059" d="M145 313v803h201v-803q0 -58 15.5 -97t44.5 -62.5t67 -33t85 -9.5q43 0 87.5 13.5t68.5 31.5v960h202v-1116h-168l-11 66h-11q-43 -42 -105.5 -65t-128.5 -23q-81 0 -145 14.5t-108.5 52.5t-69 103t-24.5 165z" />
<glyph unicode="v" horiz-adv-x="959" d="M34 1116h189l252 -926h9l253 926h189l-301 -1116h-290z" />
<glyph unicode="w" horiz-adv-x="1361" d="M34 1116h189l154 -848h11l204 625h179l202 -625h11l154 848h191l-202 -1116h-245l-196 603h-9l-197 -603h-246z" />
<glyph unicode="x" horiz-adv-x="892" d="M34 0l279 569l-270 547h200l204 -413l203 413h200l-270 -547l279 -569h-201l-211 435l-213 -435h-200z" />
<glyph unicode="y" horiz-adv-x="1059" d="M145 313v803h201v-803q0 -58 15.5 -97t44.5 -62.5t67 -33t85 -9.5q43 0 87.5 13.5t68.5 31.5v960h202v-1027q0 -158 -26 -265t-81 -172t-139.5 -93t-200.5 -28q-67 0 -142 13t-126 32v89h223q76 0 130.5 18t90.5 61t52.5 113.5t16.5 176.5q-51 -25 -103.5 -40.5 t-118.5 -15.5q-81 0 -145 14.5t-108.5 52.5t-69 103t-24.5 165z" />
<glyph unicode="z" horiz-adv-x="825" d="M45 0v134l502 837h-481v145h716v-134l-501 -837h490v-145h-726z" />
<glyph unicode="{" horiz-adv-x="646" d="M45 558v134q42 13 74.5 33.5t55.5 53.5t35.5 82.5t12.5 120.5v290q0 116 26 191t78 116.5t131.5 57t188.5 15.5v-134q-51 0 -91 -10t-70 -37t-46 -75t-16 -124v-245q0 -92 -12 -154.5t-35.5 -105.5t-56 -74.5t-75.5 -62.5v-10q43 -31 75.5 -63.5t56 -76t35.5 -104.5 t12 -153v-245q0 -76 16 -124t46 -74.5t70 -37t91 -10.5v-134q-109 0 -188.5 15.5t-131.5 57t-78 115t-26 192.5v290q0 72 -12.5 120.5t-35.5 82.5t-55.5 54t-74.5 33z" />
<glyph unicode="|" horiz-adv-x="513" d="M156 -447v2010h202v-2010h-202z" />
<glyph unicode="}" horiz-adv-x="646" d="M0 -268q49 0 90.5 10.5t71.5 37t45.5 74.5t15.5 124v245q0 92 12 153t35.5 104.5t56.5 76.5t75 63v10q-42 32 -75 63t-56.5 74t-35.5 105.5t-12 154.5v245q0 76 -15.5 124t-45.5 75t-71.5 37t-90.5 10v134q109 0 188.5 -15.5t132 -57t78 -116t25.5 -191.5v-290 q0 -72 12.5 -121t36 -82t55.5 -53.5t75 -33.5v-134q-43 -13 -75 -33t-55.5 -54t-36 -83t-12.5 -120v-290q0 -119 -25.5 -192.5t-78 -115t-132 -57t-188.5 -15.5v134z" />
<glyph unicode="~" d="M66 803h157q0 -76 27 -121t85 -45q38 0 67 27.5t63.5 61t81.5 61.5t122 28q150 0 209 -96.5t59 -271.5h-155q0 76 -27 121.5t-86 45.5q-38 0 -67 -28t-63 -61t-81 -61.5t-123 -28.5q-77 0 -128 24.5t-82 71.5t-45 116t-14 156z" />
<glyph unicode="&#xa1;" horiz-adv-x="513" d="M134 0l30 1150h177l38 -1150h-245zM152 1329v245h201v-245h-201z" />
<glyph unicode="&#xa2;" horiz-adv-x="837" d="M100 558q0 156 22.5 263.5t66 175.5t110.5 100t159 39v136h134v-138q51 -7 101 -18t89 -22v-89h-190v-894h211v-89q-40 -13 -96.5 -25t-114.5 -17v-114h-134v117q-94 8 -161 41.5t-110.5 101.5t-65 174.5t-21.5 257.5zM301 558q0 -203 38 -300.5t119 -127.5v859 q-79 -30 -118 -127t-39 -304z" />
<glyph unicode="&#xa3;" horiz-adv-x="925" d="M78 714v157h135v245q0 149 25.5 242t80 143t138.5 67t201 17q52 0 106 -13t95 -32v-100h-201q-57 0 -103 -11.5t-77 -46t-48 -98t-17 -168.5v-245h335v-157h-335v-192q0 -168 -30 -246t-82 -110v-10h581v-156h-782v111q52 34 82.5 112t30.5 246v245h-135z" />
<glyph unicode="&#xa4;" horiz-adv-x="1159" d="M66 413l157 156q-25 42 -40 98.5t-15 114.5q0 57 15 112.5t40 98.5l-157 157l113 111l156 -145q42 43 110 66.5t133 23.5q68 0 137 -23.5t111 -66.5l156 145l112 -111l-157 -157q25 -43 40.5 -98.5t15.5 -112.5q0 -58 -15.5 -114.5t-40.5 -98.5l157 -156l-112 -112 l-156 146q-42 -43 -110.5 -66t-137.5 -23q-65 0 -133 23t-110 66l-156 -146zM379 782q0 -143 58.5 -211.5t142.5 -68.5q85 0 143.5 68.5t58.5 211.5q0 142 -58.5 210.5t-143.5 68.5t-143 -68.5t-58 -210.5z" />
<glyph unicode="&#xa5;" d="M22 1563h201l279 -792l280 792h200l-234 -659h123v-156h-179l-47 -134h226v-156h-268v-458h-201v458h-268v156h224l-47 134h-177v156h120z" />
<glyph unicode="&#xa6;" horiz-adv-x="513" d="M156 358h202v-805h-202v805zM156 714v804h202v-804h-202z" />
<glyph unicode="&#xa7;" horiz-adv-x="970" d="M89 558q0 130 66 212t153 127q-80 47 -138.5 123.5t-58.5 206.5q0 168 104 263t332 95q85 0 167.5 -13t133.5 -32v-89h-256q-143 0 -211 -61t-68 -163q0 -78 42.5 -126.5t104.5 -85.5t136.5 -71.5t137.5 -83t105.5 -120t42.5 -182.5q0 -127 -64 -208.5t-149 -126.5 q43 -25 82 -55t68 -69t46 -91.5t17 -118.5q0 -168 -110.5 -263t-369.5 -95q-85 0 -167.5 13t-134.5 32v89h258q176 0 249.5 61t73.5 163q0 78 -43.5 126.5t-109.5 85.5t-143 71.5t-142.5 83t-109.5 120t-44 182.5zM290 558q0 -56 20 -97t55 -72t79.5 -56t93.5 -47 q63 36 103 98.5t40 173.5q0 56 -20 97.5t-55 72.5t-79.5 55.5t-91.5 47.5q-64 -34 -104.5 -97t-40.5 -176z" />
<glyph unicode="&#xa8;" horiz-adv-x="646" d="M45 1295v245h200v-245h-200zM402 1295v245h201v-245h-201z" />
<glyph unicode="&#xa9;" horiz-adv-x="1807" d="M100 782q0 191 57.5 344.5t161 260t251.5 164t334 57.5q183 0 332.5 -57.5t253.5 -164t161 -260t57 -344.5q0 -192 -57 -345.5t-161 -260.5t-253.5 -164t-332.5 -57q-186 0 -334 57t-251.5 164t-161 260.5t-57.5 345.5zM301 782q0 -168 43.5 -297.5t124 -216.5 t191.5 -133t244 -46q134 0 244.5 46t191 133t123.5 216.5t43 297.5q0 167 -43 296.5t-123.5 216.5t-191 133t-244.5 46t-244.5 -46t-191 -133t-124 -217t-43.5 -296zM547 782q0 158 24.5 255t72.5 149.5t119.5 69t162.5 16.5q77 0 141 -13t116 -32v-89h-212 q-58 0 -103.5 -12t-77 -49t-48 -108.5t-16.5 -186.5q0 -119 16.5 -189.5t48 -107t77 -49t103.5 -12.5h235v-89q-52 -18 -127.5 -31.5t-152.5 -13.5q-91 0 -162.5 17t-119.5 69t-72.5 149.5t-24.5 256.5z" />
<glyph unicode="&#xaa;" horiz-adv-x="635" d="M66 1094q0 116 64 164t149 48q20 0 46 -2.5t48 -4.5q25 -2 51 -4v45q0 66 -34.5 94t-110.5 28h-156v85q34 11 85 19t93 8q62 0 112.5 -10.5t85 -36t52.5 -71.5t18 -116v-447h-134l-11 44q-34 -25 -75 -40t-92 -15q-34 0 -67.5 11t-61.5 35.5t-45 66t-17 99.5zM213 1094 q0 -51 29.5 -76t81.5 -25q49 0 100 34v168h-100q-52 0 -81.5 -24.5t-29.5 -76.5z" />
<glyph unicode="&#xab;" horiz-adv-x="970" d="M45 558l345 458l146 -90l-268 -364v-8l268 -364l-146 -90zM413 558l346 458l145 -90l-267 -364v-8l267 -364l-145 -90z" />
<glyph unicode="&#xac;" horiz-adv-x="937" d="M66 759v157h805v-380h-145l-19 223h-641z" />
<glyph unicode="&#xad;" horiz-adv-x="803" d="M66 580v179h671v-179h-671z" />
<glyph unicode="&#xae;" horiz-adv-x="1807" d="M100 782q0 191 57.5 344.5t161 260t251.5 164t334 57.5q183 0 332.5 -57.5t253.5 -164t161 -260t57 -344.5q0 -192 -57 -345.5t-161 -260.5t-253.5 -164t-332.5 -57q-186 0 -334 57t-251.5 164t-161 260.5t-57.5 345.5zM301 782q0 -168 43.5 -297.5t124 -216.5 t191.5 -133t244 -46q134 0 244.5 46t191 133t123.5 216.5t43 297.5q0 167 -43 296.5t-123.5 216.5t-191 133t-244.5 46t-244.5 -46t-191 -133t-124 -217t-43.5 -296zM592 313v914q58 18 129 31.5t172 13.5q83 0 150 -14t112.5 -50t70 -96t24.5 -152q0 -66 -14.5 -112.5 t-38 -76.5t-51.5 -48t-52 -31l178 -379h-190l-156 334h-155v-334h-179zM771 782h122q66 0 122 38.5t56 139.5t-55.5 139.5t-122.5 38.5h-122v-356z" />
<glyph unicode="&#xaf;" horiz-adv-x="601" d="M45 1429v134h513v-134h-513z" />
<glyph unicode="&#xb0;" horiz-adv-x="848" d="M89 1227q0 168 91.5 263t243.5 95t243.5 -95t91.5 -263t-91.5 -262t-243.5 -94t-243.5 95t-91.5 261zM268 1227q0 -118 45 -170t111 -52t111 52.5t45 169.5q0 119 -44 171.5t-112 52.5q-66 0 -111 -52.5t-45 -171.5z" />
<glyph unicode="&#xb1;" horiz-adv-x="959" d="M66 111v157h827v-157h-827zM66 681v156h324v346h179v-346h324v-156h-324v-346h-179v346h-324z" />
<glyph unicode="&#xb2;" horiz-adv-x="568" d="M66 893v123q58 47 111 90.5t93.5 87t64 84.5t23.5 83q0 43 -33 72t-91 29h-145v87q34 11 81 18t98 7q119 0 176.5 -56t57.5 -157q0 -93 -67 -174.5t-201 -181.5h268v-112h-436z" />
<glyph unicode="&#xb3;" horiz-adv-x="568" d="M66 906v87h168q124 0 124 89q0 52 -31 76.5t-82 24.5h-100v112h89q58 0 79.5 28t21.5 61q0 34 -27 56t-87 22h-155v87q32 11 80 18t99 7q109 0 172 -40.5t63 -149.5q0 -51 -32.5 -88t-59.5 -46q45 -8 79.5 -49.5t34.5 -118.5q0 -118 -71 -159t-197 -41q-51 0 -92.5 6.5 t-75.5 17.5z" />
<glyph unicode="&#xb4;" horiz-adv-x="379" d="M45 1250l78 290h212l-156 -290h-134z" />
<glyph unicode="&#xb5;" horiz-adv-x="1059" d="M145 -447v1563h201v-758q0 -119 59 -183t153 -64q43 0 87.5 13.5t68.5 31.5v960h202v-1116h-168l-11 66h-11q-43 -42 -94.5 -65t-118.5 -23q-36 0 -66 10t-51 21t-34.5 22.5t-15.5 13.5v-492h-201z" />
<glyph unicode="&#xb6;" horiz-adv-x="1182" d="M66 1150q0 81 28.5 154.5t81 131t127 92.5t166.5 35h669v-157h-156v-1853h-179v1853h-156v-1853h-178v1184q-186 0 -294.5 109.5t-108.5 303.5z" />
<glyph unicode="&#xb7;" horiz-adv-x="558" d="M179 658v246h200v-246h-200z" />
<glyph unicode="&#xb8;" horiz-adv-x="445" d="M45 -268h145q66 0 67 55q0 56 -67 57h-124v190h113v-90h34q93 0 141 -44.5t48 -112.5q0 -66 -48 -110.5t-141 -44.5q-39 0 -69.5 4t-51.5 11q-26 9 -47 18v67z" />
<glyph unicode="&#xb9;" horiz-adv-x="412" d="M66 1451v85q34 11 94.5 19t118.5 8h67v-670h-145v558h-135z" />
<glyph unicode="&#xba;" horiz-adv-x="669" d="M66 1227q0 177 75.5 262t193.5 85t193 -85t75 -262q0 -176 -75 -260.5t-193 -84.5q-119 0 -194 85t-75 260zM213 1227q0 -134 35 -184t87 -50q51 0 87 50t36 184t-36 184.5t-87 50.5q-52 0 -87 -50.5t-35 -184.5z" />
<glyph unicode="&#xbb;" horiz-adv-x="970" d="M66 190l269 364v8l-269 364l147 90l345 -458l-345 -458zM435 190l268 364v8l-268 364l145 90l346 -458l-346 -458z" />
<glyph unicode="&#xbc;" horiz-adv-x="1249" d="M89 0l871 1563h178l-870 -1563h-179zM100 1451v85q34 11 94 19t119 8h77v-670h-156v558h-134zM592 145v112l312 412h157v-412h66v-112h-66v-145h-145v145h-324zM748 257h168v218z" />
<glyph unicode="&#xbd;" horiz-adv-x="1316" d="M111 0l871 1563h179l-871 -1563h-179zM123 1451v85q34 11 94 19t118 8h78v-670h-156v558h-134zM748 0v123q58 47 110.5 90.5t92.5 86.5t63.5 84.5t23.5 84.5q0 42 -32.5 71t-89.5 29h-145v87q33 11 79.5 18t97.5 7q119 0 177 -56t58 -156q0 -94 -66.5 -175t-200.5 -183 h267v-111h-435z" />
<glyph unicode="&#xbe;" horiz-adv-x="1261" d="M89 906v87h168q123 0 122 89q0 52 -30 76.5t-81 24.5h-100v112h89q58 0 79.5 28t21.5 61q0 34 -27 56t-88 22h-154v87q32 11 80 18t99 7q109 0 171.5 -40.5t62.5 -149.5q0 -51 -32.5 -88t-58.5 -46q45 -8 79 -49.5t34 -118.5q0 -118 -71 -159t-196 -41q-51 0 -92.5 6.5 t-75.5 17.5zM100 0l871 1563h179l-871 -1563h-179zM603 145v112l313 412h155v-412h67v-112h-67v-145h-145v145h-323zM759 257h167v218z" />
<glyph unicode="&#xbf;" horiz-adv-x="825" d="M66 402q0 94 26.5 164.5t64 126t83.5 103.5t84 100t63.5 112.5t25.5 141.5h179q0 -98 -23.5 -169.5t-60.5 -128.5t-78.5 -105t-78 -98.5t-60 -109.5t-23.5 -137q0 -143 63.5 -211t181.5 -68h290v-101q-51 -18 -142.5 -31t-191.5 -13q-203 0 -303 102.5t-100 321.5z M402 1329v245h201v-245h-201z" />
<glyph unicode="&#xc0;" horiz-adv-x="1137" d="M45 0l379 1563h290l380 -1563h-201l-101 402h-446l-101 -402h-200zM358 1964h211l78 -290h-134zM379 558h380l-186 782h-8z" />
<glyph unicode="&#xc1;" horiz-adv-x="1137" d="M45 0l379 1563h290l380 -1563h-201l-101 402h-446l-101 -402h-200zM379 558h380l-186 782h-8zM492 1674l77 290h213l-157 -290h-133z" />
<glyph unicode="&#xc2;" horiz-adv-x="1137" d="M45 0l379 1563h290l380 -1563h-201l-101 402h-446l-101 -402h-200zM296 1674l168 290h213l167 -290h-134l-141 166l-138 -166h-135zM379 558h380l-186 782h-8z" />
<glyph unicode="&#xc3;" horiz-adv-x="1137" d="M45 0l379 1563h290l380 -1563h-201l-101 402h-446l-101 -402h-200zM290 1909h112q0 -101 56 -101q19 0 38.5 21.5t40.5 46t50 45.5t71 21q85 0 126.5 -54t41.5 -180h-112q0 100 -56 100q-19 0 -38 -21t-40.5 -45.5t-50.5 -46t-71 -21.5q-85 0 -126.5 53.5t-41.5 181.5z M379 558h380l-186 782h-8z" />
<glyph unicode="&#xc4;" horiz-adv-x="1137" d="M45 0l379 1563h290l380 -1563h-201l-101 402h-446l-101 -402h-200zM290 1696v246h202v-246h-202zM379 558h380l-186 782h-8zM647 1696v246h201v-246h-201z" />
<glyph unicode="&#xc5;" horiz-adv-x="1137" d="M45 0l379 1563h290l380 -1563h-201l-101 402h-446l-101 -402h-200zM379 558h380l-186 782h-8zM379 1808q0 85 52.5 132t137.5 47t137.5 -47t52.5 -132t-52.5 -131.5t-137.5 -46.5t-137.5 46.5t-52.5 131.5zM492 1808q0 -42 22 -60t55 -18q34 0 56 18t22 60q0 43 -22 61 t-56 18t-55.5 -18t-21.5 -61z" />
<glyph unicode="&#xc6;" horiz-adv-x="1631" d="M0 0l536 1563h1006v-157h-558v-513h492v-156h-492v-581h558v-156h-758v402h-445l-138 -402h-201zM392 558h392v848h-101z" />
<glyph unicode="&#xc7;" horiz-adv-x="970" d="M111 782q0 234 33 389.5t92.5 246.5t147 129t196.5 38q100 0 192 -13t144 -32v-100h-291q-67 0 -123.5 -29t-99 -104t-66 -202t-23.5 -323q0 -197 24.5 -324.5t68 -202t104.5 -103.5t137 -29h290v-101q-51 -18 -142.5 -31t-191.5 -13v-34h34q93 0 141 -44.5t48 -112.5 q0 -66 -51 -110.5t-161 -44.5q-38 0 -68 4t-52 11q-25 9 -47 18v67h145q51 0 70 15.5t19 39.5q0 56 -67 57h-122v143q-92 15 -162.5 64t-120 143t-74 238t-24.5 350z" />
<glyph unicode="&#xc8;" d="M156 0v1563h760v-157h-558v-513h490v-156h-490v-581h558v-156h-760zM335 1964h212l78 -290h-133z" />
<glyph unicode="&#xc9;" d="M156 0v1563h760v-157h-558v-513h490v-156h-490v-581h558v-156h-760zM469 1674l78 290h212l-156 -290h-134z" />
<glyph unicode="&#xca;" d="M156 0v1563h760v-157h-558v-513h490v-156h-490v-581h558v-156h-760zM257 1674l167 290h213l166 -290h-134l-140 166l-139 -166h-133z" />
<glyph unicode="&#xcb;" d="M156 0v1563h760v-157h-558v-513h490v-156h-490v-581h558v-156h-760zM245 1719v245h202v-245h-202zM603 1719v245h200v-245h-200z" />
<glyph unicode="&#xcc;" horiz-adv-x="501" d="M34 1964h211l79 -290h-134zM145 0v1563h201v-1563h-201z" />
<glyph unicode="&#xcd;" horiz-adv-x="513" d="M156 0v1563h202v-1563h-202zM190 1674l78 290h212l-156 -290h-134z" />
<glyph unicode="&#xce;" horiz-adv-x="479" d="M-34 1674l168 290h212l167 -290h-134l-140 166l-139 -166h-134zM134 0v1563h201v-1563h-201z" />
<glyph unicode="&#xcf;" horiz-adv-x="513" d="M-22 1719v245h201v-245h-201zM156 0v1563h202v-1563h-202zM335 1719v245h201v-245h-201z" />
<glyph unicode="&#xd0;" horiz-adv-x="1204" d="M22 714v157h179v669q85 25 171 35t186 10q134 0 234.5 -38t167.5 -129t100.5 -246.5t33.5 -389.5q0 -235 -33.5 -390t-100.5 -247t-167.5 -129.5t-234.5 -37.5q-100 0 -186 10t-171 34v692h-179zM402 123h156q76 0 137 29t105 103.5t68.5 202t24.5 324.5q0 196 -24.5 323 t-68.5 202t-105 104t-137 29h-156v-569h245v-157h-245v-591z" />
<glyph unicode="&#xd1;" horiz-adv-x="1204" d="M156 0v1563h223l458 -1105h11v1105h202v-1563h-224l-458 1105h-10v-1105h-202zM313 1909h111q0 -101 56 -101q19 0 38.5 21.5t40.5 46t50.5 45.5t71.5 21q85 0 126 -54t41 -180h-111q0 100 -56 100q-19 0 -39 -21t-41 -45.5t-50 -46t-71 -21.5q-85 0 -126 53.5t-41 181.5 z" />
<glyph unicode="&#xd2;" horiz-adv-x="1182" d="M111 782q0 234 33 389.5t95 246.5t151 129t202 38t201.5 -38t151 -129t94.5 -246.5t32 -389.5q0 -235 -32 -390t-94.5 -247t-151 -129.5t-201.5 -37.5t-202 37.5t-151 129.5t-95 247t-33 390zM313 782q0 -201 23.5 -330.5t61 -205.5t89 -105.5t105.5 -29.5 q53 0 104.5 29.5t89.5 105.5t61.5 205t23.5 331q0 200 -23.5 330t-61.5 205.5t-89.5 104.5t-104.5 29q-54 0 -105.5 -29t-89 -104.5t-61 -205.5t-23.5 -330zM379 1987h213l77 -291h-133z" />
<glyph unicode="&#xd3;" horiz-adv-x="1182" d="M111 782q0 234 33 389.5t95 246.5t151 129t202 38t201.5 -38t151 -129t94.5 -246.5t32 -389.5q0 -235 -32 -390t-94.5 -247t-151 -129.5t-201.5 -37.5t-202 37.5t-151 129.5t-95 247t-33 390zM313 782q0 -201 23.5 -330.5t61 -205.5t89 -105.5t105.5 -29.5 q53 0 104.5 29.5t89.5 105.5t61.5 205t23.5 331q0 200 -23.5 330t-61.5 205.5t-89.5 104.5t-104.5 29q-54 0 -105.5 -29t-89 -104.5t-61 -205.5t-23.5 -330zM513 1696l79 291h211l-156 -291h-134z" />
<glyph unicode="&#xd4;" horiz-adv-x="1182" d="M111 782q0 234 33 389.5t95 246.5t151 129t202 38t201.5 -38t151 -129t94.5 -246.5t32 -389.5q0 -235 -32 -390t-94.5 -247t-151 -129.5t-201.5 -37.5t-202 37.5t-151 129.5t-95 247t-33 390zM313 782q0 -201 23.5 -330.5t61 -205.5t89 -105.5t105.5 -29.5 q53 0 104.5 29.5t89.5 105.5t61.5 205t23.5 331q0 200 -23.5 330t-61.5 205.5t-89.5 104.5t-104.5 29q-54 0 -105.5 -29t-89 -104.5t-61 -205.5t-23.5 -330zM324 1696l168 291h211l168 -291h-134l-141 166l-138 -166h-134z" />
<glyph unicode="&#xd5;" horiz-adv-x="1182" d="M111 782q0 234 33 389.5t95 246.5t151 129t202 38t201.5 -38t151 -129t94.5 -246.5t32 -389.5q0 -235 -32 -390t-94.5 -247t-151 -129.5t-201.5 -37.5t-202 37.5t-151 129.5t-95 247t-33 390zM313 782q0 -201 23.5 -330.5t61 -205.5t89 -105.5t105.5 -29.5 q53 0 104.5 29.5t89.5 105.5t61.5 205t23.5 331q0 200 -23.5 330t-61.5 205.5t-89.5 104.5t-104.5 29q-54 0 -105.5 -29t-89 -104.5t-61 -205.5t-23.5 -330zM313 1931h111q0 -100 56 -101q19 0 38.5 21.5t40.5 46t50.5 45.5t71.5 21q85 0 126 -53.5t41 -180.5h-111 q0 100 -56 100q-19 0 -39 -21t-41 -45.5t-50 -46t-71 -21.5q-85 0 -126 54t-41 181z" />
<glyph unicode="&#xd6;" horiz-adv-x="1182" d="M111 782q0 234 33 389.5t95 246.5t151 129t202 38t201.5 -38t151 -129t94.5 -246.5t32 -389.5q0 -235 -32 -390t-94.5 -247t-151 -129.5t-201.5 -37.5t-202 37.5t-151 129.5t-95 247t-33 390zM313 782q0 -201 23.5 -330.5t61 -205.5t89 -105.5t105.5 -29.5 q53 0 104.5 29.5t89.5 105.5t61.5 205t23.5 331q0 200 -23.5 330t-61.5 205.5t-89.5 104.5t-104.5 29q-54 0 -105.5 -29t-89 -104.5t-61 -205.5t-23.5 -330zM313 1719v245h200v-245h-200zM669 1719v245h202v-245h-202z" />
<glyph unicode="&#xd7;" horiz-adv-x="892" d="M89 502l235 235l-235 234l124 123l234 -235l234 235l122 -123l-234 -234l234 -235l-122 -123l-234 235l-234 -235z" />
<glyph unicode="&#xd8;" horiz-adv-x="1204" d="M66 111l119 170q-31 92 -46.5 214.5t-15.5 286.5q0 234 32 389.5t95 246.5t151 129t202 38q119 0 210 -41.5t154 -143.5l83 118l88 -67l-118 -169q32 -92 47 -215t15 -285q0 -235 -32 -390t-94.5 -247t-151 -129.5t-201.5 -37.5q-121 0 -211.5 41t-152.5 145l-83 -119z M324 782q0 -83 3 -152.5t12 -127.5l496 710q-38 136 -101 187.5t-131 51.5q-54 0 -105 -29t-89 -104.5t-61.5 -205.5t-23.5 -330zM368 348q39 -137 101 -187t134 -50q53 0 104.5 29.5t89.5 105.5t61.5 205t23.5 331q0 82 -4.5 151.5t-10.5 127.5z" />
<glyph unicode="&#xd9;" horiz-adv-x="1159" d="M134 536v1027h201v-1027q0 -125 16.5 -208t48 -131t77 -67t103.5 -19t104 19t77 67t48 131t17 208v1027h201v-1027q0 -158 -25.5 -265t-80 -172t-139.5 -93t-202 -28q-119 0 -202.5 28t-138 93t-80 171.5t-25.5 265.5zM368 1942h212l78 -290h-134z" />
<glyph unicode="&#xda;" horiz-adv-x="1159" d="M134 536v1027h201v-1027q0 -125 16.5 -208t48 -131t77 -67t103.5 -19t104 19t77 67t48 131t17 208v1027h201v-1027q0 -158 -25.5 -265t-80 -172t-139.5 -93t-202 -28q-119 0 -202.5 28t-138 93t-80 171.5t-25.5 265.5zM502 1652l78 290h212l-155 -290h-135z" />
<glyph unicode="&#xdb;" horiz-adv-x="1159" d="M134 536v1027h201v-1027q0 -125 16.5 -208t48 -131t77 -67t103.5 -19t104 19t77 67t48 131t17 208v1027h201v-1027q0 -158 -25.5 -265t-80 -172t-139.5 -93t-202 -28q-119 0 -202.5 28t-138 93t-80 171.5t-25.5 265.5zM308 1652l167 290h213l167 -290h-133l-142 165 l-137 -165h-135z" />
<glyph unicode="&#xdc;" horiz-adv-x="1159" d="M134 536v1027h201v-1027q0 -125 16.5 -208t48 -131t77 -67t103.5 -19t104 19t77 67t48 131t17 208v1027h201v-1027q0 -158 -25.5 -265t-80 -172t-139.5 -93t-202 -28q-119 0 -202.5 28t-138 93t-80 171.5t-25.5 265.5zM301 1674v245h201v-245h-201zM658 1674v245h201 v-245h-201z" />
<glyph unicode="&#xdd;" d="M22 1563h201l279 -792l280 792h200l-379 -1071v-492h-201v492zM424 1652l78 290h212l-156 -290h-134z" />
<glyph unicode="&#xde;" horiz-adv-x="1116" d="M156 -22v1607h202v-179q345 -17 507 -173.5t162 -450.5q0 -295 -162 -451.5t-507 -174.5v-178h-202zM358 301q468 15 468 481q0 236 -116 353t-352 126v-960z" />
<glyph unicode="&#xdf;" horiz-adv-x="1182" d="M145 0v1105q0 260 103 370t321 110q203 0 302.5 -95t99.5 -263q0 -80 -37 -132.5t-80.5 -94.5t-80 -84.5t-36.5 -100.5q0 -44 26.5 -78t68 -65t89.5 -63.5t89.5 -74.5t68 -98.5t26.5 -134.5q0 -96 -24.5 -158t-72.5 -99t-119 -51.5t-163 -14.5q-51 0 -111.5 13t-112.5 31 v89h179q101 0 162 40.5t61 149.5q0 55 -27 96.5t-68 76.5t-89.5 67t-89 70.5t-67.5 87.5t-27 116q0 77 36.5 126.5t80.5 92t81 87t37 106.5q0 94 -58.5 153.5t-143.5 59.5q-100 0 -161.5 -76t-61.5 -259v-1105h-201z" />
<glyph unicode="&#xe0;" d="M100 335q0 104 24.5 171t68.5 106.5t105.5 54t136.5 14.5q51 0 111.5 -7t111.5 -16v101q0 76 -16.5 124t-48 74.5t-77 37t-103.5 10.5h-223v89q51 18 125.5 31t142.5 13q100 0 174.5 -15.5t125 -56.5t76 -116t25.5 -191v-759h-167l-11 66h-12q-42 -42 -105 -65t-129 -23 q-76 0 -137 14.5t-105 54.5t-68.5 109.5t-24.5 178.5zM301 335q0 -67 15.5 -110.5t42.5 -68t64 -35t79 -10.5q43 0 87.5 13.5t68.5 31.5v391h-156q-85 0 -143 -43.5t-58 -168.5zM324 1540h212l78 -290h-134z" />
<glyph unicode="&#xe1;" d="M100 335q0 104 24.5 171t68.5 106.5t105.5 54t136.5 14.5q51 0 111.5 -7t111.5 -16v101q0 76 -16.5 124t-48 74.5t-77 37t-103.5 10.5h-223v89q51 18 125.5 31t142.5 13q100 0 174.5 -15.5t125 -56.5t76 -116t25.5 -191v-759h-167l-11 66h-12q-42 -42 -105 -65t-129 -23 q-76 0 -137 14.5t-105 54.5t-68.5 109.5t-24.5 178.5zM301 335q0 -67 15.5 -110.5t42.5 -68t64 -35t79 -10.5q43 0 87.5 13.5t68.5 31.5v391h-156q-85 0 -143 -43.5t-58 -168.5zM435 1250l78 290h213l-157 -290h-134z" />
<glyph unicode="&#xe2;" d="M100 335q0 104 24.5 171t68.5 106.5t105.5 54t136.5 14.5q51 0 111.5 -7t111.5 -16v101q0 76 -16.5 124t-48 74.5t-77 37t-103.5 10.5h-223v89q51 18 125.5 31t142.5 13q100 0 174.5 -15.5t125 -56.5t76 -116t25.5 -191v-759h-167l-11 66h-12q-42 -42 -105 -65t-129 -23 q-76 0 -137 14.5t-105 54.5t-68.5 109.5t-24.5 178.5zM245 1227l168 291h212l167 -291h-134l-140 166l-139 -166h-134zM301 335q0 -67 15.5 -110.5t42.5 -68t64 -35t79 -10.5q43 0 87.5 13.5t68.5 31.5v391h-156q-85 0 -143 -43.5t-58 -168.5z" />
<glyph unicode="&#xe3;" d="M100 335q0 104 24.5 171t68.5 106.5t105.5 54t136.5 14.5q51 0 111.5 -7t111.5 -16v101q0 76 -16.5 124t-48 74.5t-77 37t-103.5 10.5h-223v89q51 18 125.5 31t142.5 13q100 0 174.5 -15.5t125 -56.5t76 -116t25.5 -191v-759h-167l-11 66h-12q-42 -42 -105 -65t-129 -23 q-76 0 -137 14.5t-105 54.5t-68.5 109.5t-24.5 178.5zM245 1495h113q0 -100 55 -100q20 0 39 21.5t40 46t50 45.5t72 21q85 0 126.5 -53.5t41.5 -180.5h-113q0 100 -55 100q-20 0 -39 -21t-40.5 -45.5t-50 -46t-71.5 -21.5q-85 0 -126.5 53.5t-41.5 180.5zM301 335 q0 -67 15.5 -110.5t42.5 -68t64 -35t79 -10.5q43 0 87.5 13.5t68.5 31.5v391h-156q-85 0 -143 -43.5t-58 -168.5z" />
<glyph unicode="&#xe4;" d="M100 335q0 104 24.5 171t68.5 106.5t105.5 54t136.5 14.5q51 0 111.5 -7t111.5 -16v101q0 76 -16.5 124t-48 74.5t-77 37t-103.5 10.5h-223v89q51 18 125.5 31t142.5 13q100 0 174.5 -15.5t125 -56.5t76 -116t25.5 -191v-759h-167l-11 66h-12q-42 -42 -105 -65t-129 -23 q-76 0 -137 14.5t-105 54.5t-68.5 109.5t-24.5 178.5zM234 1272v246h201v-246h-201zM301 335q0 -67 15.5 -110.5t42.5 -68t64 -35t79 -10.5q43 0 87.5 13.5t68.5 31.5v391h-156q-85 0 -143 -43.5t-58 -168.5zM592 1272v246h200v-246h-200z" />
<glyph unicode="&#xe5;" d="M100 335q0 104 24.5 171t68.5 106.5t105.5 54t136.5 14.5q51 0 111.5 -7t111.5 -16v101q0 76 -16.5 124t-48 74.5t-77 37t-103.5 10.5h-223v89q51 18 125.5 31t142.5 13q100 0 174.5 -15.5t125 -56.5t76 -116t25.5 -191v-759h-167l-11 66h-12q-42 -42 -105 -65t-129 -23 q-76 0 -137 14.5t-105 54.5t-68.5 109.5t-24.5 178.5zM301 335q0 -67 15.5 -110.5t42.5 -68t64 -35t79 -10.5q43 0 87.5 13.5t68.5 31.5v391h-156q-85 0 -143 -43.5t-58 -168.5zM324 1384q0 85 52 132t137 47t137.5 -47t52.5 -132t-52.5 -131.5t-137.5 -46.5t-137 46.5 t-52 131.5zM435 1384q0 -42 22.5 -60t55.5 -18q34 0 56.5 18t22.5 60q0 43 -22.5 60.5t-56.5 17.5q-33 0 -55.5 -17.5t-22.5 -60.5z" />
<glyph unicode="&#xe6;" horiz-adv-x="1540" d="M100 313q0 96 24.5 158t68.5 99t105.5 52t136.5 15q51 0 111.5 -7.5t111.5 -15.5v145q0 76 -16.5 124t-48 74.5t-77 37t-103.5 10.5h-223v89q51 18 125.5 31t142.5 13q100 0 185 -40t128 -116q42 76 113.5 116t165.5 40q96 0 169.5 -28t122.5 -94t73.5 -175t24.5 -272 v-67h-581v-33q2 -103 20 -171t56 -109.5t96 -59.5t141 -18h223v-89q-51 -18 -125.5 -31t-142.5 -13q-134 0 -216.5 35.5t-139.5 120.5q-52 -76 -134.5 -116t-201.5 -40q-76 0 -137 14.5t-105 52.5t-68.5 103t-24.5 165zM301 313q0 -58 15.5 -97t40.5 -62.5t57.5 -33 t65.5 -9.5q42 0 75 10.5t56 23.5q28 13 47 34v323h-156q-42 0 -79 -9t-64 -31.5t-42.5 -59t-15.5 -89.5zM859 637h380q0 109 -15.5 181.5t-41.5 116t-60.5 62.5t-71.5 19q-38 0 -72 -18t-59.5 -60.5t-41 -113t-18.5 -177.5v-10z" />
<glyph unicode="&#xe7;" horiz-adv-x="837" d="M100 558q0 168 26 279t77 178t128.5 95t181.5 28q67 0 142 -13t127 -31v-89h-224q-62 0 -110 -20t-80.5 -70.5t-49.5 -136.5t-17 -220t17 -221t51.5 -137.5t87 -69.5t123.5 -19h223v-89q-51 -18 -125.5 -31t-141.5 -13h-23v-34h34q94 0 142 -44.5t48 -112.5 q0 -66 -51.5 -110.5t-161.5 -44.5q-38 0 -68 4t-52 11q-25 9 -46 18v67h144q52 0 71 15.5t19 39.5q0 56 -68 57h-122v147q-78 13 -135 51.5t-94 106.5t-55 168t-18 241z" />
<glyph unicode="&#xe8;" horiz-adv-x="982" d="M100 558q0 168 24.5 279t73.5 178t123 95t171 28q96 0 169.5 -28t122.5 -95t73.5 -178t24.5 -279v-66h-581q0 -109 18 -182t55 -117t96 -63t144 -19h223v-89q-51 -18 -125.5 -31t-142.5 -13q-125 0 -214 28t-146 95t-83 178t-26 279zM279 1540h213l77 -290h-134zM301 625 h380q0 113 -15.5 188t-41.5 120t-60.5 64t-71.5 19q-39 0 -73.5 -19t-60.5 -64t-41.5 -119.5t-15.5 -188.5z" />
<glyph unicode="&#xe9;" horiz-adv-x="982" d="M100 558q0 168 24.5 279t73.5 178t123 95t171 28q96 0 169.5 -28t122.5 -95t73.5 -178t24.5 -279v-66h-581q0 -109 18 -182t55 -117t96 -63t144 -19h223v-89q-51 -18 -125.5 -31t-142.5 -13q-125 0 -214 28t-146 95t-83 178t-26 279zM301 625h380q0 113 -15.5 188 t-41.5 120t-60.5 64t-71.5 19q-39 0 -73.5 -19t-60.5 -64t-41.5 -119.5t-15.5 -188.5zM413 1250l79 290h211l-156 -290h-134z" />
<glyph unicode="&#xea;" horiz-adv-x="982" d="M100 558q0 168 24.5 279t73.5 178t123 95t171 28q96 0 169.5 -28t122.5 -95t73.5 -178t24.5 -279v-66h-581q0 -109 18 -182t55 -117t96 -63t144 -19h223v-89q-51 -18 -125.5 -31t-142.5 -13q-125 0 -214 28t-146 95t-83 178t-26 279zM223 1227l167 291h213l168 -291h-134 l-141 166l-138 -166h-135zM301 625h380q0 113 -15.5 188t-41.5 120t-60.5 64t-71.5 19q-39 0 -73.5 -19t-60.5 -64t-41.5 -119.5t-15.5 -188.5z" />
<glyph unicode="&#xeb;" horiz-adv-x="982" d="M100 558q0 168 24.5 279t73.5 178t123 95t171 28q96 0 169.5 -28t122.5 -95t73.5 -178t24.5 -279v-66h-581q0 -109 18 -182t55 -117t96 -63t144 -19h223v-89q-51 -18 -125.5 -31t-142.5 -13q-125 0 -214 28t-146 95t-83 178t-26 279zM213 1272v246h200v-246h-200z M301 625h380q0 113 -15.5 188t-41.5 120t-60.5 64t-71.5 19q-39 0 -73.5 -19t-60.5 -64t-41.5 -119.5t-15.5 -188.5zM569 1272v246h202v-246h-202z" />
<glyph unicode="&#xec;" horiz-adv-x="513" d="M34 1540h211l79 -290h-134zM156 0v1116h202v-1116h-202z" />
<glyph unicode="&#xed;" horiz-adv-x="513" d="M156 0v1116h202v-1116h-202zM190 1250l78 290h212l-156 -290h-134z" />
<glyph unicode="&#xee;" horiz-adv-x="479" d="M-34 1227l168 291h212l167 -291h-134l-140 166l-139 -166h-134zM141 0v1116h200v-1116h-200z" />
<glyph unicode="&#xef;" horiz-adv-x="513" d="M-22 1272v246h201v-246h-201zM156 0v1116h202v-1116h-202zM335 1272v246h201v-246h-201z" />
<glyph unicode="&#xf0;" horiz-adv-x="1014" d="M89 480q0 138 24.5 234t74 155.5t123 86t169.5 26.5q76 0 129.5 -16t104.5 -40q0 168 -77 290l-113 -134l-100 79l130 154q-139 121 -386 180l11 90q292 -27 471 -154l121 143l100 -79l-128 -149q173 -192 173 -543v-323q0 -139 -26 -235t-77.5 -154.5t-128.5 -85.5 t-182 -27q-104 0 -181.5 27t-128.5 85.5t-77 154.5t-26 235zM290 480q0 -109 16 -181.5t44.5 -116.5t67 -63t84.5 -19q47 0 85 19t67 63t44.5 116.5t15.5 181.5v323q-25 18 -70.5 31.5t-96.5 13.5q-62 0 -110.5 -18t-80.5 -61t-49 -113.5t-17 -175.5z" />
<glyph unicode="&#xf1;" horiz-adv-x="1059" d="M145 0v1116h168l11 -66h11q42 42 104.5 65t129.5 23q81 0 144.5 -14t108.5 -52.5t69.5 -103t24.5 -165.5v-803h-202v803q0 58 -15.5 97.5t-44.5 62.5t-67 32.5t-85 9.5q-42 0 -86.5 -13.5t-69.5 -31.5v-960h-201zM268 1495h111q0 -100 56 -100q20 0 39.5 21.5t40.5 46 t50 45.5t72 21q85 0 125.5 -53.5t40.5 -180.5h-111q0 100 -55 100q-20 0 -39.5 -21t-40.5 -45.5t-50.5 -46t-71.5 -21.5q-85 0 -126 53.5t-41 180.5z" />
<glyph unicode="&#xf2;" horiz-adv-x="1048" d="M111 558q0 164 27.5 275t79.5 179t129 97t177 29q101 0 178 -29t129.5 -97t79 -179t26.5 -275q0 -163 -26.5 -274.5t-79 -179.5t-129.5 -97t-178 -29q-100 0 -177 29t-129 97t-79.5 179.5t-27.5 274.5zM313 558q0 -134 17.5 -222.5t47 -140.5t67 -73.5t79.5 -21.5 q43 0 81 21.5t67 73.5t47 140.5t18 222.5t-18 222.5t-47 140.5t-67 73.5t-81 21.5q-42 0 -79.5 -21.5t-67 -73.5t-47 -140.5t-17.5 -222.5zM313 1540h211l79 -290h-134z" />
<glyph unicode="&#xf3;" horiz-adv-x="1048" d="M111 558q0 164 27.5 275t79.5 179t129 97t177 29q101 0 178 -29t129.5 -97t79 -179t26.5 -275q0 -163 -26.5 -274.5t-79 -179.5t-129.5 -97t-178 -29q-100 0 -177 29t-129 97t-79.5 179.5t-27.5 274.5zM313 558q0 -134 17.5 -222.5t47 -140.5t67 -73.5t79.5 -21.5 q43 0 81 21.5t67 73.5t47 140.5t18 222.5t-18 222.5t-47 140.5t-67 73.5t-81 21.5q-42 0 -79.5 -21.5t-67 -73.5t-47 -140.5t-17.5 -222.5zM447 1250l77 290h213l-157 -290h-133z" />
<glyph unicode="&#xf4;" horiz-adv-x="1026" d="M100 558q0 164 27 275t79.5 179t129.5 97t177 29q101 0 178 -29t129.5 -97t79 -179t26.5 -275q0 -163 -26.5 -274.5t-79 -179.5t-129.5 -97t-178 -29q-100 0 -177 29t-129.5 97t-79.5 179.5t-27 274.5zM241 1227l168 291h211l168 -291h-134l-141 166l-138 -166h-134z M301 558q0 -134 18 -222.5t47 -140.5t67 -73.5t80 -21.5q43 0 81 21.5t67 73.5t47 140.5t18 222.5t-18 222.5t-47 140.5t-67 73.5t-81 21.5q-42 0 -80 -21.5t-67 -73.5t-47 -140.5t-18 -222.5z" />
<glyph unicode="&#xf5;" horiz-adv-x="1048" d="M111 558q0 164 27.5 275t79.5 179t129 97t177 29q101 0 178 -29t129.5 -97t79 -179t26.5 -275q0 -163 -26.5 -274.5t-79 -179.5t-129.5 -97t-178 -29q-100 0 -177 29t-129 97t-79.5 179.5t-27.5 274.5zM257 1495h111q0 -100 56 -100q20 0 39 21.5t40 46t50.5 45.5 t71.5 21q85 0 126 -53.5t41 -180.5h-111q0 100 -56 100q-20 0 -39 -21t-40.5 -45.5t-50 -46t-71.5 -21.5q-85 0 -126 53.5t-41 180.5zM313 558q0 -134 17.5 -222.5t47 -140.5t67 -73.5t79.5 -21.5q43 0 81 21.5t67 73.5t47 140.5t18 222.5t-18 222.5t-47 140.5t-67 73.5 t-81 21.5q-42 0 -79.5 -21.5t-67 -73.5t-47 -140.5t-17.5 -222.5z" />
<glyph unicode="&#xf6;" horiz-adv-x="1048" d="M111 558q0 164 27.5 275t79.5 179t129 97t177 29q101 0 178 -29t129.5 -97t79 -179t26.5 -275q0 -163 -26.5 -274.5t-79 -179.5t-129.5 -97t-178 -29q-100 0 -177 29t-129 97t-79.5 179.5t-27.5 274.5zM245 1272v246h202v-246h-202zM313 558q0 -134 17.5 -222.5 t47 -140.5t67 -73.5t79.5 -21.5q43 0 81 21.5t67 73.5t47 140.5t18 222.5t-18 222.5t-47 140.5t-67 73.5t-81 21.5q-42 0 -79.5 -21.5t-67 -73.5t-47 -140.5t-17.5 -222.5zM603 1272v246h200v-246h-200z" />
<glyph unicode="&#xf7;" horiz-adv-x="959" d="M66 580v179h827v-179h-827zM390 213v200h179v-200h-179zM390 926v201h179v-201h-179z" />
<glyph unicode="&#xf8;" horiz-adv-x="1071" d="M66 134l98 105q-41 123 -41 319q0 164 27 275t79 179t129 97t178 29q107 0 187 -33.5t132 -111.5l71 78l79 -89l-96 -105q17 -62 28 -140.5t11 -178.5q0 -163 -26.5 -274.5t-79 -179.5t-129 -97t-177.5 -29q-107 0 -187.5 33.5t-131.5 111.5l-72 -78zM324 558 q0 -38 1 -72.5t3 -65.5l386 421q-29 99 -75.5 137t-102.5 38q-42 0 -80.5 -21.5t-67 -73.5t-46.5 -140.5t-18 -222.5zM355 275q30 -101 77.5 -138t103.5 -37q43 0 80.5 21.5t66.5 73.5t47 140.5t18 222.5q0 76 -7 136z" />
<glyph unicode="&#xf9;" horiz-adv-x="1059" d="M145 313v803h201v-803q0 -58 15.5 -97t44.5 -62.5t67 -33t85 -9.5q43 0 87.5 13.5t68.5 31.5v960h202v-1116h-168l-11 66h-11q-43 -42 -105.5 -65t-128.5 -23q-81 0 -145 14.5t-108.5 52.5t-69 103t-24.5 165zM324 1540h212l78 -290h-134z" />
<glyph unicode="&#xfa;" horiz-adv-x="1059" d="M145 313v803h201v-803q0 -58 15.5 -97t44.5 -62.5t67 -33t85 -9.5q43 0 87.5 13.5t68.5 31.5v960h202v-1116h-168l-11 66h-11q-43 -42 -105.5 -65t-128.5 -23q-81 0 -145 14.5t-108.5 52.5t-69 103t-24.5 165zM458 1250l78 290h212l-156 -290h-134z" />
<glyph unicode="&#xfb;" horiz-adv-x="1059" d="M145 313v803h201v-803q0 -58 15.5 -97t44.5 -62.5t67 -33t85 -9.5q43 0 87.5 13.5t68.5 31.5v960h202v-1116h-168l-11 66h-11q-43 -42 -105.5 -65t-128.5 -23q-81 0 -145 14.5t-108.5 52.5t-69 103t-24.5 165zM262 1227l166 291h213l167 -291h-134l-141 166l-138 -166 h-133z" />
<glyph unicode="&#xfc;" horiz-adv-x="1059" d="M145 313v803h201v-803q0 -58 15.5 -97t44.5 -62.5t67 -33t85 -9.5q43 0 87.5 13.5t68.5 31.5v960h202v-1116h-168l-11 66h-11q-43 -42 -105.5 -65t-128.5 -23q-81 0 -145 14.5t-108.5 52.5t-69 103t-24.5 165zM257 1272v246h201v-246h-201zM614 1272v246h201v-246h-201z " />
<glyph unicode="&#xfd;" horiz-adv-x="1059" d="M145 313v803h201v-803q0 -58 15.5 -97t44.5 -62.5t67 -33t85 -9.5q43 0 87.5 13.5t68.5 31.5v960h202v-1027q0 -158 -26 -265t-81 -172t-139.5 -93t-200.5 -28q-67 0 -142 13t-126 32v89h223q76 0 130.5 18t90.5 61t52.5 113.5t16.5 176.5q-51 -25 -103.5 -40.5 t-118.5 -15.5q-81 0 -145 14.5t-108.5 52.5t-69 103t-24.5 165zM458 1250l78 290h212l-156 -290h-134z" />
<glyph unicode="&#xfe;" horiz-adv-x="1048" d="M156 -447v2010h202v-481q51 25 103 40.5t119 15.5q87 0 156.5 -28t116 -95t71 -178t24.5 -279t-24.5 -279t-71 -178t-116 -95t-156.5 -28q-67 0 -119 15.5t-103 40.5v-481h-202zM358 156q25 -18 69 -31.5t86 -13.5q54 0 97.5 19t73.5 69.5t47 137.5t17 221t-17 220 t-47 136.5t-73.5 70.5t-97.5 20q-42 0 -86.5 -13.5t-68.5 -31.5v-804z" />
<glyph unicode="&#xff;" horiz-adv-x="1059" d="M145 313v803h201v-803q0 -58 15.5 -97t44.5 -62.5t67 -33t85 -9.5q43 0 87.5 13.5t68.5 31.5v960h202v-1027q0 -158 -26 -265t-81 -172t-139.5 -93t-200.5 -28q-67 0 -142 13t-126 32v89h223q76 0 130.5 18t90.5 61t52.5 113.5t16.5 176.5q-51 -25 -103.5 -40.5 t-118.5 -15.5q-81 0 -145 14.5t-108.5 52.5t-69 103t-24.5 165zM257 1272v246h201v-246h-201zM614 1272v246h201v-246h-201z" />
<glyph unicode="&#x152;" horiz-adv-x="1651" d="M89 782q0 210 41.5 358t123 242t203 137.5t280.5 43.5h826v-157h-558v-513h490v-156h-490v-581h558v-156h-826q-158 0 -280 43.5t-203.5 137.5t-123 242t-41.5 359zM290 782q0 -177 29 -296.5t86 -193t139.5 -105t192.5 -31.5h66v1250h-66q-109 0 -192 -31t-140 -104.5 t-86 -193t-29 -295.5z" />
<glyph unicode="&#x153;" horiz-adv-x="1606" d="M100 558q0 164 27 275t79.5 179t129.5 97t177 29q94 0 177 -47t125 -131q43 85 125 131.5t176 46.5q96 0 169.5 -28t122.5 -95t73.5 -178t24.5 -279v-66h-580q0 -109 18 -182t55 -117t96 -63t144 -19h223v-89q-52 -18 -126.5 -31t-140.5 -13q-77 0 -133.5 11t-102.5 32.5 t-80.5 54.5t-63.5 80q-44 -85 -126 -131.5t-176 -46.5q-100 0 -177 29t-129.5 97t-79.5 179.5t-27 274.5zM301 558q0 -134 18 -222.5t47 -140.5t67 -73.5t80 -21.5q43 0 81 21.5t67 73.5t47 140.5t18 222.5t-18 222.5t-47 140.5t-67 73.5t-81 21.5q-42 0 -80 -21.5 t-67 -73.5t-47 -140.5t-18 -222.5zM926 625h380q0 113 -16 188t-41.5 120t-60 64t-72.5 19t-72.5 -19t-60 -64t-41.5 -119.5t-16 -188.5z" />
<glyph unicode="&#x178;" d="M22 1563h201l279 -792l280 792h200l-379 -1071v-492h-201v492zM223 1719v245h201v-245h-201zM580 1719v245h202v-245h-202z" />
<glyph unicode="&#x2c6;" horiz-adv-x="635" d="M45 1227l168 291h211l168 -291h-134l-141 166l-138 -166h-134z" />
<glyph unicode="&#x2dc;" horiz-adv-x="624" d="M45 1495h111q0 -100 57 -100q19 0 36 21.5t37 46t47 45.5t69 21q94 0 136 -53.5t42 -180.5h-111q0 100 -56 100q-20 0 -36.5 -21t-37 -45.5t-47 -46t-69.5 -21.5q-93 0 -135.5 53.5t-42.5 180.5z" />
<glyph unicode="&#x2000;" horiz-adv-x="993" />
<glyph unicode="&#x2001;" horiz-adv-x="1987" />
<glyph unicode="&#x2002;" horiz-adv-x="993" />
<glyph unicode="&#x2003;" horiz-adv-x="1987" />
<glyph unicode="&#x2004;" horiz-adv-x="662" />
<glyph unicode="&#x2005;" horiz-adv-x="496" />
<glyph unicode="&#x2006;" horiz-adv-x="331" />
<glyph unicode="&#x2007;" horiz-adv-x="331" />
<glyph unicode="&#x2008;" horiz-adv-x="248" />
<glyph unicode="&#x2009;" horiz-adv-x="397" />
<glyph unicode="&#x200a;" horiz-adv-x="110" />
<glyph unicode="&#x2010;" horiz-adv-x="803" d="M66 592v156h671v-156h-671z" />
<glyph unicode="&#x2011;" horiz-adv-x="803" d="M66 592v156h671v-156h-671z" />
<glyph unicode="&#x2012;" horiz-adv-x="803" d="M66 592v156h671v-156h-671z" />
<glyph unicode="&#x2013;" horiz-adv-x="1026" d="M66 547v156h894v-156h-894z" />
<glyph unicode="&#x2014;" horiz-adv-x="1427" d="M66 547v156h1295v-156h-1295z" />
<glyph unicode="&#x2018;" horiz-adv-x="379" d="M89 1071l67 492h145v-492h-212z" />
<glyph unicode="&#x2019;" horiz-adv-x="379" d="M89 1071v492h212l-67 -492h-145z" />
<glyph unicode="&#x201a;" horiz-adv-x="379" d="M89 234h212l-67 -491h-145v491z" />
<glyph unicode="&#x201c;" horiz-adv-x="713" d="M78 1071l67 492h145v-492h-212zM413 1071l67 492h145v-492h-212z" />
<glyph unicode="&#x201d;" horiz-adv-x="713" d="M89 1071v492h212l-67 -492h-145zM424 1071v492h213l-68 -492h-145z" />
<glyph unicode="&#x201e;" horiz-adv-x="713" d="M89 234h212l-67 -491h-145v491zM424 234h213l-68 -491h-145v491z" />
<glyph unicode="&#x2022;" horiz-adv-x="558" d="M100 603v355h358v-355h-358z" />
<glyph unicode="&#x2026;" horiz-adv-x="1137" d="M89 -11v245h201v-245h-201zM469 -11v245h200v-245h-200zM848 -11v245h202v-245h-202z" />
<glyph unicode="&#x202f;" horiz-adv-x="397" />
<glyph unicode="&#x2039;" horiz-adv-x="658" d="M45 558l402 536l145 -89l-324 -443v-8l324 -443l-145 -89z" />
<glyph unicode="&#x203a;" horiz-adv-x="658" d="M66 111l324 443v8l-324 443l147 89l401 -536l-401 -536z" />
<glyph unicode="&#x205f;" horiz-adv-x="496" />
<glyph unicode="&#x20ac;" horiz-adv-x="1037" d="M22 558l23 145h134v156h-157l23 146h145q15 168 54 279t98.5 178t136.5 95t168 28q101 0 192.5 -13t142.5 -32v-100h-290q-53 0 -102 -19t-89.5 -68t-68.5 -134t-42 -214h458l-22 -146h-447v-156h413l-21 -145h-381q13 -130 41.5 -214.5t71 -134t96 -68t115.5 -18.5h291 v-101q-51 -18 -142.5 -31t-193.5 -13q-100 0 -181 28t-141.5 95t-101 178t-55.5 279h-168z" />
<glyph unicode="&#x2122;" horiz-adv-x="1483" d="M22 1451v112h547v-112h-201v-558h-145v558h-201zM614 893l44 670h173l185 -413l185 413h172l44 -670h-143l-30 458l-162 -358h-134l-160 358l-32 -458h-142z" />
<glyph unicode="&#x25fc;" horiz-adv-x="1116" d="M0 0v1116h1116v-1116h-1116z" />
</font>
</defs>
</svg>
