<svg viewBox="0 0 197 51" preserveAspectRatio="none" xmlns="http://www.w3.org/2000/svg"><g fill="none" fill-rule="evenodd"><path d="M57.469 48.382c0 .488-.167.876-.5 1.165-.334.287-.81.432-1.43.432H51V43h4.514c1.303 0 1.955.52 1.955 1.56v3.822zm-1.282-.336V44.84c0-.559-.358-.836-1.073-.836h-2.812v4.964h2.812c.715 0 1.073-.308 1.073-.922zm14.36-1.066h-4.245v1.179c0 .521.38.781 1.138.781h3.362v1.019h-3.715c-.642 0-1.14-.119-1.498-.356-.393-.265-.589-.64-.589-1.123v-3.926c0-.483.174-.863.523-1.14.35-.276.831-.414 1.446-.414h3.833v1.017h-3.375c-.75 0-1.125.257-1.125.767v1.193h4.245v1.004M84.784 43l-2.964 6.436c-.195.423-.503.634-.922.634-.427 0-.739-.211-.935-.634L77 43h1.38l2.505 5.647L83.417 43h1.367m11.763 3.98h-4.245v1.179c0 .521.38.781 1.138.781h3.362v1.019h-3.715c-.642 0-1.14-.119-1.498-.356-.393-.265-.589-.64-.589-1.123v-3.926c0-.483.174-.863.523-1.14.35-.276.831-.414 1.446-.414h3.833v1.017h-3.375c-.75 0-1.125.257-1.125.767v1.193h4.245v1.004m13.267 2.998h-3.46c-.759 0-1.34-.124-1.746-.373-.406-.249-.608-.682-.608-1.301V43h1.301v5.061c0 .358.107.607.32.746.162.108.506.16 1.034.16h3.16v1.012m13.451-1.589c0 1.054-.713 1.582-2.14 1.582h-1.968c-.69 0-1.203-.116-1.544-.348-.41-.28-.614-.686-.614-1.221v-3.807c0-.53.208-.941.627-1.235.332-.24.842-.361 1.531-.361h1.982c1.418 0 2.126.531 2.126 1.596v3.793zm-1.282-.252v-3.25c0-.324-.09-.55-.268-.679-.18-.128-.473-.192-.883-.192h-1.367c-.419 0-.718.064-.896.192-.18.128-.269.355-.269.68v3.221c0 .289.099.51.295.663.16.121.451.181.87.181h1.367c.4 0 .693-.06.876-.181.184-.12.275-.332.275-.635zm14.433-2.265c0 .464-.173.83-.518 1.098-.343.268-.815.401-1.412.401H131.3v2.622H130V43h4.421c.572 0 1.036.114 1.393.342.384.25.58.594.59 1.03.008.472.013.97.013 1.5m-1.303-.327v-.83c0-.469-.346-.704-1.04-.704h-2.773v2.323h2.74c.716 0 1.073-.264 1.073-.789m16.833 4.463h-1.242v-5.489l-2.296 4.889c-.223.478-.534.718-.936.718a.84.84 0 0 1-.589-.209 1.825 1.825 0 0 1-.294-.466l-2.348-4.932v5.489H143v-6.074c0-.265.098-.485.293-.658.197-.175.47-.262.819-.262.527 0 .889.217 1.085.648l2.264 4.944 2.302-4.951c.205-.437.562-.655 1.073-.655.357 0 .632.09.823.268a.9.9 0 0 1 .288.687v6.053m12.599-3.028h-4.245v1.179c0 .521.38.781 1.138.781h3.362v1.019h-3.715c-.64 0-1.14-.119-1.498-.356-.392-.265-.588-.64-.588-1.123v-3.926c0-.483.174-.863.523-1.14.349-.276.83-.414 1.445-.414h3.833v1.017h-3.375c-.75 0-1.125.257-1.125.767v1.193h4.245v1.004m14.897 2.155c0 .265-.09.483-.268.655-.197.195-.46.293-.792.293-.31 0-.55-.074-.72-.223-.074-.065-.204-.254-.392-.565l-3.028-4.916v5.606H173v-5.968c0-.679.353-1.018 1.06-1.018.322 0 .566.072.732.216.092.078.227.267.406.565l3.002 4.908v-5.626h1.243v6.073m12.293-5.118h-2.224v5.976h-1.3v-5.976H186V43h5.736v1.018" fill="#5C5C5C"/><path d="M54.411 37.844c-.201.444-.55.672-1.045.687l-1.806-.021c-.546-.014-.693-.305-.44-.874l6.045-12.72c.3-.611 1.002-.916 2.11-.916 1.106 0 1.793.29 2.06.874l4.638 9.837 4.648-9.795c.28-.611.973-.916 2.08-.916 1.106 0 1.8.29 2.08.874l5.965 12.762c.28.582.114.88-.497.895H78.51c-.481-.015-.823-.243-1.025-.687l-4.198-9.368c-.391-1.11-.778-1.11-1.162 0l-4.043 8.941c-.573.742-1.136 1.114-1.69 1.114H65.32c-.508 0-1.003-.357-1.484-1.072l-4.004-8.983c-.385-1.021-.765-1.021-1.143 0l-4.277 9.368m31.986-5.142v1.843c0 .707.335 1.061 1.006 1.061h11.093c.957 0 1.434.482 1.434 1.448 0 .97-.514 1.456-1.542 1.456H84.826c-1.218 0-1.826-.562-1.826-1.685V25.707C83 24.57 83.579 24 84.737 24h13.76c.957-.014 1.434.462 1.434 1.426 0 .986-.471 1.464-1.415 1.436H87.404c-.671.043-1.006.383-1.006 1.02v1.948h5.546c1.165.027 1.748.51 1.748 1.447 0 .978-.602 1.453-1.806 1.425h-5.488m24.707 0c-1.198.028-1.797-.448-1.797-1.426 0-.937.573-1.419 1.719-1.447h3.583c.977 0 1.585-.222 1.826-.666a1.46 1.46 0 0 0 .127-.339c.033-.128.05-.279.05-.452 0-.368-.07-.637-.211-.807-.14-.17-.43-.314-.873-.432a6.137 6.137 0 0 0-.982-.156c-.387-.035-.835-.06-1.343-.073h-5.624c-.787 0-1.181.354-1.181 1.062v9.088c.044.985-.515 1.47-1.68 1.456-1.146 0-1.719-.486-1.719-1.456V25.832c0-1.207.635-1.818 1.904-1.832h8.242c2.922.014 4.937.676 6.045 1.988.533.68.8 1.475.8 2.384-.104 1.707-.925 2.723-2.461 3.05 1.523.298 2.324 1.217 2.403 2.757v2.875c0 .97-.573 1.456-1.72 1.456-1.132 0-1.686-.486-1.66-1.456v-2.895a.877.877 0 0 0 .01-.431 1.421 1.421 0 0 0-.127-.34c-.241-.457-.85-.686-1.826-.686h-3.505m27.828 4.352c0 .97-.479 1.463-1.436 1.477h-6.991c-2.546 0-4.606-.662-6.182-1.988-1.549-1.318-2.324-3.074-2.324-5.266 0-2.165.775-3.907 2.324-5.226 1.602-1.34 3.643-2.023 6.123-2.05h7.05c.957-.014 1.436.46 1.436 1.426 0 .985-.473 1.463-1.416 1.436l-.567.042h-6.503c-1.478.027-2.692.447-3.643 1.259-.937.84-1.405 1.877-1.405 3.113 0 1.845.875 3.133 2.626 3.861.761.34 1.569.497 2.422.469h7.05c.957 0 1.436.481 1.436 1.447m20.019-11.222v5.423c.039 2.179-.726 3.935-2.295 5.267-1.55 1.325-3.6 1.988-6.151 1.988-2.546 0-4.606-.663-6.182-1.988-1.549-1.318-2.324-3.074-2.324-5.267v-5.808c0-.937.573-1.42 1.719-1.447 1.165-.014 1.725.468 1.68 1.447v5.808c0 1.846.875 3.133 2.626 3.862.879.327 1.706.489 2.48.489 1.98 0 3.44-.652 4.385-1.956.228-.334.398-.702.512-1.104.114-.403.158-.84.133-1.311v-5.788c-.04-.979.52-1.461 1.678-1.447 1.146.027 1.72.51 1.72 1.447l.02.385m11.152 6.87c-1.198.028-1.797-.448-1.797-1.426 0-.937.573-1.419 1.719-1.447h3.583c.977 0 1.585-.222 1.826-.666a1.46 1.46 0 0 0 .127-.339c.033-.128.049-.279.049-.452 0-.368-.07-.637-.21-.807-.14-.17-.431-.314-.874-.432a6.112 6.112 0 0 0-.981-.156c-.388-.035-.835-.06-1.343-.073h-5.624c-.788 0-1.182.354-1.182 1.062v9.088c.046.985-.514 1.47-1.68 1.456-1.146 0-1.718-.486-1.718-1.456V25.832c0-1.207.635-1.818 1.904-1.832h8.242c2.922.014 4.937.676 6.044 1.988.534.68.8 1.475.8 2.384-.104 1.707-.923 2.723-2.46 3.05 1.523.298 2.324 1.217 2.403 2.757v2.875c0 .97-.574 1.456-1.72 1.456-1.132 0-1.686-.486-1.659-1.456v-2.895a.892.892 0 0 0 .009-.431 1.48 1.48 0 0 0-.127-.34c-.241-.457-.85-.686-1.826-.686h-3.505m18.321 5.808c-1.178 0-1.728-.486-1.65-1.456v-5.611l-.176-.187a23.73 23.73 0 0 1-.298-.328 80.06 80.06 0 0 0-.561-.62c-.241-.263-.555-.612-.943-1.046-.387-.434-.864-.975-1.43-1.624-.566-.649-1.25-1.434-2.051-2.357-.546-.702-.387-1.121.478-1.26h1.085c.93-.028 1.675.285 2.236.937l2.86 3.31c.391.34.785.34 1.182 0l2.97-3.373c.396-.596 1.05-.895 1.962-.895h1.493c1.127.028 1.41.326.85.895l-6.25 6.548v5.641c.014.951-.573 1.426-1.757 1.426z" fill="#ED3D24"/><path d="M25.083 23.47a430.941 430.941 0 0 1-2.367-2.078 16.977 16.977 0 0 1 4.508-5.82l.04.03-.038-.03C29.937 13.331 33.34 12 37.036 12c5.702 0 10.695 3.18 13.539 7.959-2.905-3.24-6.99-5.267-11.525-5.267-6.012 0-11.247 3.544-13.967 8.778m.931 18.019C22.932 38.374 21 33.979 21 29.095c0-1.956.308-3.834.875-5.584.846.645 1.638 1.245 2.38 1.805a17.934 17.934 0 0 0-1.162 6.385c0 3.648 1.087 7.018 2.921 9.788" fill="#F04D2C"/><path d="M7.02 4.736c1.102-1.643 9.272 2.5 20.302 10.392-.416-.322 0 0-.423-.323C13.599 4.67 1.621-1.767.149.43c-1.472 2.196 8.116 12.193 21.417 22.328 8.271 6.303 11.285 8.428 16.325 10.683C33.803 30.883 5.747 6.636 7.019 4.736" fill="#2E2E2E"/><path d="M39.307 39.488c-1.086-.705-1.911-1.862-2.2-3.292a5.413 5.413 0 0 1 .296-3.127l.548.248a11.17 11.17 0 0 1-.509-.341c.612-1.412 1.817-2.51 3.353-2.861a4.491 4.491 0 0 1 1.01-.115c1.307 0 2.535.574 3.423 1.537a4.572 4.572 0 0 0-2.681-.883c-.331 0-.668.037-1.005.115-2.58.59-4.222 3.299-3.668 6.049a5.148 5.148 0 0 0 1.433 2.67" fill="#F04D2C"/><path fill="#DF4026" d="M37.548 33.341a94.105 94.105 0 0 1-.548-.247l.04-.094c.197.14.367.254.508.341"/></g></svg>