<svg preserveAspectRatio="none" viewBox="0 0 27 22" xmlns="http://www.w3.org/2000/svg" xmlns:xlink="http://www.w3.org/1999/xlink"><defs><path id="a" d="M19.868.087H.35v9.445h19.518V.087z"/></defs><g fill="none" fill-rule="evenodd"><path d="M22.456 21.313H11.725a1.05 1.05 0 0 1 0-2.1h10.731a2.221 2.221 0 0 0 2.219-2.219V4.72A2.221 2.221 0 0 0 22.456 2.5H1.05a1.05 1.05 0 1 1 0-2.1h21.406a4.324 4.324 0 0 1 4.319 4.319v12.275a4.324 4.324 0 0 1-4.319 4.32" fill="#ED3D24"/><g transform="translate(5.6 .313)"><mask id="b" fill="#fff"><use xlink:href="#a"/></mask><path d="M10.35 9.532c-.756 0-1.511-.27-2.11-.81L.697 1.916A1.051 1.051 0 0 1 .62.433 1.047 1.047 0 0 1 2.102.358l7.545 6.804c.393.357.99.358 1.391.012l7.091-6.168a1.05 1.05 0 1 1 1.378 1.585l-7.09 6.168a3.146 3.146 0 0 1-2.067.773" fill="#ED3D24" mask="url(#b)"/></g><path d="M6.125 7.926H2.537a1.05 1.05 0 0 1 0-2.1h3.588a1.05 1.05 0 0 1 0 2.1M9.916 12.271H6.328a1.05 1.05 0 0 1 0-2.1h3.588a1.05 1.05 0 0 1 0 2.1M12.775 16.588H9.187a1.05 1.05 0 0 1 0-2.1h3.588a1.05 1.05 0 0 1 0 2.1" fill="#ED3D24"/></g></svg>