<?xml version="1.0" encoding="utf-8"?>
<!-- Generator: Adobe Illustrator 16.0.3, SVG Export Plug-In . SVG Version: 6.00 Build 0)  -->
<!DOCTYPE svg PUBLIC "-//W3C//DTD SVG 1.1//EN" "http://www.w3.org/Graphics/SVG/1.1/DTD/svg11.dtd">
<svg version="1.1" xmlns="http://www.w3.org/2000/svg" xmlns:xlink="http://www.w3.org/1999/xlink" x="0px" y="0px"
	 width="47.913px" height="94.629px" viewBox="0 0 47.913 94.629" enable-background="new 0 0 47.913 94.629" xml:space="preserve">
<g id="Layer_1">
	<path fill="#545B61" fill-opacity="0.7" d="M47.896,81.679l-0.035-69.617c0.058-5.195-0.887-8.853-6.912-10.148
		C38,1.281,34.501,0.822,31.559,0.535V0.363C22.729-0.408,14.474,0.047,6.59,1.742C0.565,3.035-0.054,6.693,0.003,11.889
		L0.05,81.506c-0.157,5.195-0.24,9.798,6.197,11.181c2.918,0.626,5.69,1.086,8.633,1.38v0.208c8.83,0.768,17.959,0.285,25.879-1.416
		C47.197,91.477,48.053,86.875,47.896,81.679z M44.615,84.104H31.955H15.85H3.375L3.29,10.525h12.56h16.105h12.748L44.615,84.104z"
		/>
</g>
<g id="icon1">
</g>
<g id="Creative_Commons_License">
</g>
</svg>
