<?xml version="1.0" encoding="utf-8"?>
<!-- Generator: Adobe Illustrator 16.0.3, SVG Export Plug-In . SVG Version: 6.00 Build 0)  -->
<!DOCTYPE svg PUBLIC "-//W3C//DTD SVG 1.1//EN" "http://www.w3.org/Graphics/SVG/1.1/DTD/svg11.dtd">
<svg version="1.1" xmlns="http://www.w3.org/2000/svg" xmlns:xlink="http://www.w3.org/1999/xlink" x="0px" y="0px" width="70px"
	 height="70px" viewBox="0 0 70 70" enable-background="new 0 0 70 70" xml:space="preserve">
<g id="Layer_1">
	<g opacity="0.7">
		
			<ellipse transform="matrix(0.4921 0.8706 -0.8706 0.4921 48.8557 -15.8548)" fill="#545B61" cx="38.015" cy="33.939" rx="2.399" ry="2.33"/>
		
			<ellipse transform="matrix(0.4921 0.8706 -0.8706 0.4921 48.5957 2.9492)" fill="#545B61" cx="21.771" cy="43.119" rx="2.399" ry="2.332"/>
		<path fill="#545B61" d="M10.074,63.512c2.242-1.267,5.12-0.425,6.426,1.885L19.102,70h3.57l-5.829-10.313l37.904-21.419
			l14.468,25.604C69.72,62.679,70,61.371,70,60v-1.088c-0.024-0.041-0.058-0.073-0.081-0.115L59.816,40.918
			c-1.306-2.31-0.546-5.207,1.698-6.475c2.242-1.267,5.117-0.423,6.423,1.887L70,39.98V10c0-5.5-4.5-10-10-10H10C4.5,0,0,4.5,0,10
			v50c0,4.924,3.61,9.036,8.313,9.845C7.114,67.56,7.877,64.753,10.074,63.512z M10.668,33.307c0.192-0.389,0.658-0.54,1.049-0.338
			l3.392,1.771l1.424,0.746l1.443,0.754c1.895-2.355,4.312-4.444,7.191-6.072c2.876-1.625,5.915-2.62,8.913-3.027l0.099-1.626
			l0.098-1.605l0.229-3.817c0.026-0.439,0.397-0.761,0.833-0.725c0.428,0.041,0.758,0.424,0.732,0.861l-0.217,3.56l-0.096,1.585
			l-0.097,1.607c7.3-0.492,14.135,2.529,17.509,8.5L15.268,56.9c-3.375-5.972-2.436-13.385,1.752-19.385l-1.427-0.747l-1.406-0.736
			l-3.158-1.653C10.638,34.176,10.479,33.697,10.668,33.307z"/>
	</g>
</g>
<g id="icon1">
</g>
<g id="Creative_Commons_License">
</g>
</svg>
