<?xml version="1.0" encoding="utf-8"?>
<!-- Generator: Adobe Illustrator 16.0.3, SVG Export Plug-In . SVG Version: 6.00 Build 0)  -->
<!DOCTYPE svg PUBLIC "-//W3C//DTD SVG 1.1//EN" "http://www.w3.org/Graphics/SVG/1.1/DTD/svg11.dtd">
<svg version="1.1" xmlns="http://www.w3.org/2000/svg" xmlns:xlink="http://www.w3.org/1999/xlink" x="0px" y="0px"
	 width="50.866px" height="61.476px" viewBox="0 0 50.866 61.476" enable-background="new 0 0 50.866 61.476" xml:space="preserve">
<g id="Layer_1">
	<g id="android_2_" opacity="0.7">
		<g id="android_3_">
			<g>
				<path fill="#545B61" d="M9.25,45.61c0,2.078,1.641,3.77,3.661,3.77h2.643c-0.088,0.314-0.139,0.646-0.139,0.99v7.536
					c0,1.97,1.553,3.57,3.468,3.57c1.917,0,3.47-1.6,3.47-3.57V50.37c0-0.344-0.05-0.676-0.139-0.99h6.442
					c-0.088,0.314-0.139,0.646-0.139,0.99v7.536c0,1.97,1.555,3.57,3.47,3.57s3.467-1.6,3.467-3.57V50.37
					c0-0.344-0.05-0.676-0.138-0.99h2.642c2.02,0,3.661-1.691,3.661-3.77V19.434H9.248L9.25,45.61L9.25,45.61z M3.468,19.434
					C1.553,19.434,0,21.032,0,23.004v15.268c0,1.971,1.553,3.568,3.468,3.568s3.47-1.598,3.47-3.568V23.005
					C6.938,21.032,5.382,19.434,3.468,19.434z M47.398,19.434c-1.917,0-3.468,1.598-3.468,3.57v15.268
					c0,1.971,1.551,3.568,3.468,3.568c1.915,0,3.468-1.598,3.468-3.568V23.005C50.866,21.032,49.313,19.434,47.398,19.434z
					 M33.392,5.147l0.651-1.005l0.642-0.991l1.442-2.225c0.176-0.273,0.103-0.642-0.16-0.825c-0.268-0.183-0.626-0.11-0.804,0.165
					L33.62,2.652l-0.651,1.003l-0.658,1.017c-2.09-0.833-4.42-1.3-6.877-1.3c-2.459,0-4.788,0.468-6.876,1.3l-0.658-1.017
					L17.25,2.651l-1.547-2.387C15.524-0.009,15.167-0.082,14.9,0.1c-0.265,0.183-0.337,0.551-0.159,0.825l1.44,2.225l0.642,0.991
					l0.651,1.005c-4.906,2.352-8.226,6.807-8.226,11.907h32.369C41.616,11.955,38.296,7.5,33.392,5.147z M18.498,12.296
					c-0.959,0-1.735-0.8-1.735-1.786c0-0.985,0.776-1.782,1.735-1.782c0.958,0,1.734,0.797,1.734,1.782
					C20.232,11.496,19.456,12.296,18.498,12.296z M32.37,12.296c-0.958,0-1.735-0.8-1.735-1.786c0-0.985,0.777-1.782,1.735-1.782
					c0.958,0,1.733,0.797,1.733,1.782C34.103,11.496,33.329,12.296,32.37,12.296z"/>
			</g>
		</g>
	</g>
</g>
<g id="icon1">
</g>
<g id="Creative_Commons_License">
</g>
</svg>
