<?xml version="1.0" encoding="utf-8"?>
<!-- Generator: Adobe Illustrator 16.0.3, SVG Export Plug-In . SVG Version: 6.00 Build 0)  -->
<!DOCTYPE svg PUBLIC "-//W3C//DTD SVG 1.1//EN" "http://www.w3.org/Graphics/SVG/1.1/DTD/svg11.dtd">
<svg version="1.1" xmlns="http://www.w3.org/2000/svg" xmlns:xlink="http://www.w3.org/1999/xlink" x="0px" y="0px"
	 width="72.813px" height="85.409px" viewBox="0 0 72.813 85.409" enable-background="new 0 0 72.813 85.409" xml:space="preserve">
<g id="Layer_1">
	<path opacity="0.7" fill="#545B61" d="M72.813,62.848c-1.992,4.405-2.94,6.378-5.509,10.275
		c-3.572,5.439-8.61,12.229-14.852,12.275c-5.549,0.046-6.969-3.618-14.506-3.563c-7.523,0.038-9.099,3.627-14.644,3.572
		c-6.249-0.056-11.024-6.173-14.602-11.606C-1.285,58.569-2.345,40.713,3.83,31.22c4.378-6.741,11.301-10.695,17.798-10.695
		c6.609,0,10.767,3.636,16.237,3.636c5.309,0,8.545-3.646,16.201-3.646c5.786,0,11.903,3.154,16.27,8.593
		C56.039,36.948,58.363,57.38,72.813,62.848z M48.26,14.432c2.775-3.571,4.892-8.611,4.133-13.752
		c-4.547,0.306-9.855,3.206-12.963,6.965c-2.81,3.423-5.136,8.502-4.236,13.42C40.157,21.222,45.284,18.264,48.26,14.432z"/>
</g>
<g id="Creative_Commons_License">
</g>
</svg>
