<?xml version="1.0" encoding="utf-8"?>
<!-- Generator: Adobe Illustrator 16.0.3, SVG Export Plug-In . SVG Version: 6.00 Build 0)  -->
<!DOCTYPE svg PUBLIC "-//W3C//DTD SVG 1.1//EN" "http://www.w3.org/Graphics/SVG/1.1/DTD/svg11.dtd">
<svg version="1.1" xmlns="http://www.w3.org/2000/svg" xmlns:xlink="http://www.w3.org/1999/xlink" x="0px" y="0px" width="94px"
	 height="94px" viewBox="0 0 94 94" enable-background="new 0 0 94 94" xml:space="preserve">
<g id="Layer_1">
	<g>
		<line fill="none" stroke="#84898E" stroke-miterlimit="10" x1="1.974" y1="47.296" x2="91.974" y2="47.296"/>
		<line fill="none" stroke="#84898E" stroke-miterlimit="10" x1="1.974" y1="31.738" x2="91.974" y2="31.738"/>
		<line fill="none" stroke="#84898E" stroke-miterlimit="10" x1="1.974" y1="62.89" x2="91.974" y2="62.89"/>
		<line fill="none" stroke="#84898E" stroke-miterlimit="10" x1="1.974" y1="85.046" x2="91.974" y2="85.046"/>
		<line fill="none" stroke="#84898E" stroke-miterlimit="10" x1="1.974" y1="9.296" x2="91.974" y2="9.296"/>
		<line fill="none" stroke="#84898E" stroke-miterlimit="10" x1="2.101" y1="91.836" x2="92" y2="2.792"/>
		<line fill="none" stroke="#84898E" stroke-miterlimit="10" x1="2.102" y1="2.792" x2="92" y2="91.836"/>
		<line fill="none" stroke="#84898E" stroke-miterlimit="10" x1="47.04" y1="2.659" x2="47.044" y2="91.417"/>
		<line fill="none" stroke="#84898E" stroke-miterlimit="10" x1="63.225" y1="2.796" x2="63.225" y2="91.796"/>
		<line fill="none" stroke="#84898E" stroke-miterlimit="10" x1="85.141" y1="2.796" x2="85.141" y2="91.796"/>
		<line fill="none" stroke="#84898E" stroke-miterlimit="10" x1="9.057" y1="2.796" x2="9.057" y2="91.796"/>
		<line fill="none" stroke="#84898E" stroke-miterlimit="10" x1="31.774" y1="2.796" x2="31.777" y2="91.878"/>
		
			<ellipse fill="none" stroke="#84898E" stroke-width="1.0397" stroke-miterlimit="10" cx="47.5" cy="47.313" rx="22.187" ry="21.978"/>
		<ellipse fill="none" stroke="#84898E" stroke-miterlimit="10" cx="47.5" cy="47.313" rx="15.725" ry="15.575"/>
		<ellipse fill="none" stroke="#84898E" stroke-miterlimit="10" cx="47.5" cy="47.313" rx="33.697" ry="33.375"/>
		<g>
			<path fill="#84898E" d="M66.286,3C79.913,3,91,14.087,91,27.714v38.571C91,79.913,79.913,91,66.286,91H27.714
				C14.087,91,3,79.913,3,66.286V27.714C3,14.087,14.087,3,27.714,3H66.286 M66.286,2H27.714C13.571,2,2,13.571,2,27.714v38.571
				C2,80.429,13.571,92,27.714,92h38.572C80.429,92,92,80.429,92,66.286V27.714C92,13.571,80.429,2,66.286,2L66.286,2z"/>
		</g>
	</g>
</g>
<g id="Creative_Commons_License">
</g>
</svg>
