<?xml version="1.0" encoding="utf-8"?>
<!-- Generator: Adobe Illustrator 16.0.3, SVG Export Plug-In . SVG Version: 6.00 Build 0)  -->
<!DOCTYPE svg PUBLIC "-//W3C//DTD SVG 1.1//EN" "http://www.w3.org/Graphics/SVG/1.1/DTD/svg11.dtd">
<svg version="1.1" xmlns="http://www.w3.org/2000/svg" xmlns:xlink="http://www.w3.org/1999/xlink" x="0px" y="0px" width="43px"
	 height="89px" viewBox="0 0 43 89" enable-background="new 0 0 43 89" xml:space="preserve">
<g id="Layer_1">
</g>
<g id="Creative_Commons_License">
	<g>
		<g>
			<path opacity="0.7" fill-rule="evenodd" clip-rule="evenodd" fill="#545B61" d="M24.489,6h-6.126c-0.238,0-0.43,0.763-0.43,1
				s0.192,1,0.43,1h6.126c0.237,0,0.43-0.763,0.43-1S24.726,6,24.489,6z M28.532,0L28.532,0h6.733l0,0H28.532z"/>
		</g>
		<path opacity="0.7" fill="#545B61" d="M43,5.726C43,2.563,40.437,0,37.275,0H5.725C2.563,0,0,2.563,0,5.726v77.549
			C0,86.437,2.563,89,5.725,89h31.55C40.437,89,43,86.437,43,83.274V5.726z M39,78H4V14h35V78z"/>
		
			<path opacity="0.7" fill-rule="evenodd" clip-rule="evenodd" fill="none" stroke="#FFFFFF" stroke-width="0.8416" stroke-miterlimit="10" d="
			M21.397,79.373c2.009,0,3.635,1.629,3.635,3.637s-1.626,3.634-3.635,3.634c-2.007,0-3.635-1.626-3.635-3.634
			S19.39,79.373,21.397,79.373z"/>
	</g>
</g>
</svg>
