<?xml version="1.0" encoding="utf-8"?>
<!-- Generator: Adobe Illustrator 16.0.3, SVG Export Plug-In . SVG Version: 6.00 Build 0)  -->
<!DOCTYPE svg PUBLIC "-//W3C//DTD SVG 1.1//EN" "http://www.w3.org/Graphics/SVG/1.1/DTD/svg11.dtd">
<svg version="1.1" xmlns="http://www.w3.org/2000/svg" xmlns:xlink="http://www.w3.org/1999/xlink" x="0px" y="0px"
	 width="35.489px" height="88.923px" viewBox="0 0 35.489 88.923" enable-background="new 0 0 35.489 88.923" xml:space="preserve">
<g id="Layer_1">
	<g opacity="0.7">
		<g>
			<path fill="#545B61" d="M16.136,0.281c5.285-1.668,11.146,4.431,8.732,9.584c-1.521,5.18-9.202,6.538-12.437,2.26
				C8.874,8.355,11.025,1.313,16.136,0.281L16.136,0.281z"/>
			<path fill="#545B61" d="M4.499,17.364c4.817-1.907,10.102-0.995,15.149-1.203c4.352,0.077,9.386-0.582,12.973,2.441
				c2.729,2.159,2.838,5.939,2.872,9.121c-0.045,6.989,0.038,15.173-0.026,22.167c0,3-5.69,3-5.69,0c0-6.796,0.025-15.04,0-21.821
				c-0.573,0.004-1.435-0.01-2.005,0c-0.097,19.456,0,37.772,0,57.821c0,3.953-8.02,4-8.02,0c0-12.029,0.051-22.069,0-33.762h-4.01
				c0,6.016,0,31.757,0,33.762c0,4.156-8.02,3.984-8.02-0.173c0-20.049,0.139-38.192,0-57.648c-0.46,0-1.547,0-2.005,0
				c-0.116,6.451-0.011,15.806-0.011,21.821c0,3-5.661,3-5.661,0c-0.075-8.179-0.043-16.748-0.004-24.925
				C-0.058,21.857,1.479,18.548,4.499,17.364L4.499,17.364z"/>
		</g>
	</g>
</g>
<g id="Creative_Commons_License">
</g>
</svg>
